<svg width="50" height="50" viewBox="0 0 50 50" fill="none" xmlns="http://www.w3.org/2000/svg">
<path d="M45.9888 27.4242C45.4048 27.2625 44.6998 27.2598 44.0086 27.2968C48.3573 20.1721 49.168 11.0176 46.1021 3.24745C46.0128 3.02085 45.7702 2.89459 45.5333 2.95181C42.8951 3.58886 40.3404 4.78134 38.0809 6.4228C36.7366 4.95262 34.9342 3.95431 32.9685 3.59992C30.9203 3.23066 28.7937 3.57894 26.9695 4.57839C26.3172 3.0838 25.3391 2.08167 24.1577 1.72424C22.6238 1.25999 21.0407 1.94435 19.9832 2.49938C17.6044 3.74793 15.4632 5.48744 13.7443 7.55691C13.5906 6.93473 13.4353 6.31332 13.2766 5.69343C13.0161 4.67643 12.6918 3.4111 12.0399 2.3281C11.3033 1.10549 10.213 0.278848 9.0484 0.0606478C8.06802 -0.123602 6.96558 0.117105 6.02373 0.719828C5.25392 1.21307 4.5646 1.94892 3.976 2.90679C1.94505 6.21185 2.05644 10.2966 2.43295 13.8565C2.97998 19.0224 4.07632 24.1394 5.69108 29.0775C5.46297 29.0989 5.23294 29.1191 5.0052 29.1408C4.45169 29.1939 3.82417 29.2541 3.24968 29.5555C2.53671 29.9293 2.10565 30.6183 2.15181 31.3103C2.19682 31.987 2.70112 32.6084 3.43622 32.8934C3.75246 33.0158 4.07632 33.0711 4.39256 33.0952C4.75305 35.4332 5.14253 37.8387 5.95621 40.1237C6.91675 42.8196 8.39265 44.9959 10.2249 46.4176C12.5919 48.2544 15.5574 48.9242 18.1461 49.3374C20.9136 49.7791 23.7094 50 26.5075 50C28.3645 50 30.223 49.9023 32.0732 49.7074C34.0568 49.498 36.3471 49.1348 38.2945 48.0278C40.847 46.5767 42.7951 43.8671 43.7797 40.3984C44.633 37.3939 44.6998 34.2613 44.7532 31.2271C45.4833 31.1188 46.1818 30.9017 46.6979 30.3516C47.1271 29.8942 47.2823 29.2141 47.1034 28.5763C46.9402 27.9953 46.5339 27.5753 45.9888 27.4242ZM45.3479 4.00619C48.1903 11.5955 47.2495 20.4784 42.8581 27.2945C42.8405 27.3216 42.8264 27.3498 42.815 27.3788C42.5525 27.3964 42.3034 27.4094 42.0787 27.4097C41.2284 27.4078 40.3743 27.4097 39.5194 27.4139C39.5236 26.0147 39.2845 24.6597 38.9133 23.3154C38.869 23.1552 38.8366 22.9919 38.8057 22.8287C40.6314 21.5431 41.798 19.3287 42.3709 16.0614C42.4934 15.3633 42.5899 14.6503 42.6833 13.961C42.9305 12.1376 43.1636 10.4149 43.8434 8.80508C43.9227 8.6174 43.877 8.40034 43.7293 8.26034C43.5813 8.12034 43.3624 8.08677 43.1796 8.17603C41.743 8.87679 40.4952 10.0155 39.6667 11.3823C39.2715 12.0342 38.9709 12.7312 38.6798 13.4048C38.4536 13.929 38.2198 14.471 37.9485 14.9704C37.1463 16.4474 36.2346 16.9918 35.6429 17.1917C35.3 16.832 34.8258 16.5688 34.4661 16.2365C33.8142 15.6345 33.1119 15.0871 32.3676 14.6046C33.6322 12.0571 35.4934 9.74121 37.77 7.89222C40.0192 6.06613 42.6311 4.72755 45.3479 4.00619ZM38.5414 21.7907C38.319 21.2677 37.9531 20.8183 37.6647 20.3323C37.3386 19.783 37.0109 19.2226 36.639 18.7023C36.4757 18.4734 36.3437 18.2453 36.2132 18.0218C37.0136 17.6884 37.976 16.9659 38.8065 15.4369C39.0991 14.8983 39.3417 14.336 39.5763 13.792C39.867 13.1191 40.1412 12.4828 40.5017 11.8885C41.0076 11.0546 41.6892 10.3168 42.4808 9.73586C42.0883 11.0786 41.8998 12.4718 41.7156 13.8302C41.6236 14.5103 41.5283 15.2138 41.4092 15.8928C40.9168 18.6996 39.978 20.6383 38.5455 21.8018C38.544 21.7979 38.5429 21.7941 38.5414 21.7907ZM27.3727 5.46951C28.9924 4.56275 30.9688 4.23126 32.7953 4.56085C34.4955 4.86755 36.1167 5.75561 37.3016 7.01827C37.2527 7.05718 37.2032 7.09495 37.1547 7.13424C34.7911 9.0538 32.8536 11.4551 31.5284 14.0991C31.3377 13.9923 31.1458 13.8882 30.9501 13.7897C29.8389 13.2286 28.6628 12.804 27.4501 12.5126C28.0612 10.231 28.0132 7.75108 27.3101 5.49659C27.3311 5.48858 27.3525 5.48095 27.3727 5.46951ZM30.5103 14.6614C35.3378 17.0975 38.5627 22.2225 38.5429 27.4204C36.7053 27.4334 34.8655 27.4582 33.0417 27.4975C32.7575 27.504 32.4729 27.5112 32.188 27.5196C32.9349 26.5911 33.4709 25.4833 33.7238 24.3236C33.7978 23.9845 33.8703 23.5382 33.773 23.0915C33.6574 22.5609 33.3045 22.1271 32.8533 21.9597C32.5103 21.8327 32.1094 21.8494 31.6623 22.01C30.9261 22.2744 30.3439 22.776 29.919 23.1838C28.9222 24.1402 28.1074 25.2541 27.4978 26.4942C27.3246 26.8463 27.143 27.2598 27.0538 27.7172C26.535 27.7378 26.0166 27.7576 25.4993 27.7744C24.1485 27.8187 22.7981 27.8721 21.4485 27.9358C21.0842 27.9529 17.8279 27.9701 17.7879 28.1349C17.8024 28.0754 17.8062 28.0121 17.7963 27.9472C17.1424 23.6187 16.3547 19.281 15.4437 14.9742C17.6925 13.7924 20.2327 13.1206 22.8134 13.0306C25.5462 12.9353 28.2073 13.4994 30.5103 14.6614ZM30.8391 27.5642C29.9171 27.5982 28.9928 27.6375 28.0681 27.676C28.1463 27.409 28.2619 27.1526 28.374 26.9249C28.9333 25.7873 29.6806 24.7658 30.595 23.8884C30.9497 23.5477 31.4292 23.1312 31.9919 22.929C32.2135 22.8496 32.394 22.831 32.5137 22.8752C32.6518 22.9267 32.7747 23.0972 32.8189 23.2998C32.8758 23.5603 32.8258 23.8583 32.7697 24.1154C32.4935 25.3822 31.8309 26.5789 30.9039 27.4856C30.8792 27.5097 30.8574 27.5364 30.8391 27.5642ZM16.2284 24.5556C16.2837 24.8489 16.3398 25.1419 16.3925 25.4356C14.9902 26.0769 13.375 26.7239 11.7736 26.5701C11.4578 26.5396 11.3128 26.4519 11.2926 26.4004C11.2747 26.3542 11.3109 26.2024 11.4864 25.9918C12.1009 25.2533 12.9657 24.9073 13.5833 24.7471C14.302 24.5602 15.1328 24.4999 16.1979 24.5571C16.2082 24.5575 16.2181 24.5556 16.2284 24.5556ZM14.6041 16.6992L14.6045 16.6988C14.7098 17.2314 14.8147 17.7612 14.9368 18.285C13.6329 19.3401 12.001 19.9429 10.3229 19.9825C9.94752 19.9917 9.88 19.9135 9.87352 19.9043C9.8533 19.8761 9.84186 19.7491 9.93684 19.5377C10.2958 18.7374 11.1553 18.2014 12.0044 17.7212C12.8677 17.2329 13.7164 16.7873 14.6041 16.6992ZM20.4372 3.36418C21.3424 2.88848 22.684 2.29835 23.8746 2.65884C25.3272 3.09829 26.0551 4.76837 26.3591 5.72471C27.032 7.83767 27.0774 10.1711 26.4934 12.3112C22.7565 11.6383 18.7465 12.2036 15.2328 13.9831C14.8548 12.233 14.455 10.4893 14.0365 8.7532C15.7436 6.52999 17.9553 4.66689 20.4372 3.36418ZM13.1774 9.55963C13.235 9.82589 13.2915 10.0925 13.3479 10.3592C11.9399 11.536 10.1779 12.3375 8.36671 12.6202C8.28928 12.6324 8.21985 12.6331 8.1653 12.6289C8.63756 11.6238 9.50349 10.9806 10.1501 10.6163C11.1171 10.0723 12.2028 9.79499 13.0409 9.61379C13.0905 9.60311 13.1355 9.58328 13.1774 9.55963ZM3.40417 13.7535C3.04483 10.3573 2.93077 6.47354 4.80798 3.41834C5.31915 2.58636 5.90547 1.95541 6.55054 1.54228C7.28486 1.07231 8.12982 0.881952 8.86835 1.02043C9.75946 1.18751 10.6101 1.84783 11.2033 2.83203C11.7389 3.72123 12.0193 4.72106 12.3306 5.93604C12.5617 6.83784 12.7754 7.74383 12.9783 8.65211C12.9314 8.64829 12.8833 8.64906 12.8349 8.65936C11.9296 8.85467 10.752 9.15718 9.67134 9.76562C8.89047 10.2047 7.83876 10.994 7.26121 12.2574C7.18721 12.4195 7.11587 12.6163 7.14792 12.8475C7.17844 13.0691 7.29097 13.2576 7.47255 13.3926C7.70563 13.5654 7.99592 13.6078 8.22404 13.6078C8.34535 13.6078 8.44949 13.5956 8.51701 13.5849C10.3317 13.3018 12.1013 12.5435 13.5703 11.4304C13.7287 12.2009 14.0025 12.9253 14.1719 13.7024C14.3188 14.3761 14.3543 15.0597 14.4393 15.7356C13.3907 15.8565 12.461 16.341 11.5234 16.8713C10.5331 17.4313 9.526 18.0679 9.04573 19.1383C8.81647 19.6484 8.82867 20.1225 9.0793 20.4727C9.39821 20.9186 9.96126 20.9606 10.2451 20.9606C10.2844 20.9606 10.3183 20.9598 10.3458 20.9591C12.0937 20.9175 13.7973 20.335 15.2057 19.3092C15.2637 19.5038 15.3247 19.6976 15.3922 19.8898C15.7009 20.7661 15.6665 21.7888 15.8584 22.6955C15.9202 22.9866 15.9778 23.2796 16.0365 23.5718C14.968 23.5283 14.1059 23.6023 13.3376 23.8018C12.2535 24.0837 11.3536 24.6246 10.7356 25.367C10.342 25.84 10.2168 26.334 10.3835 26.7582C10.5068 27.0706 10.8314 27.4605 11.6802 27.5421C11.8759 27.5608 12.0704 27.57 12.2642 27.57C13.7981 27.57 15.2641 27.0138 16.5634 26.4301C16.6568 26.9855 16.7472 27.5406 16.8304 28.0933C16.8357 28.1284 16.8453 28.162 16.8575 28.1937C16.2872 28.2303 15.7169 28.2673 15.1481 28.3062C12.339 28.4996 9.50197 28.7289 6.68901 28.9856C5.05746 24.0471 3.95158 18.9251 3.40417 13.7535ZM42.8401 40.1318C41.9258 43.3525 40.1401 45.8553 37.812 47.1786C36.0252 48.1945 33.9485 48.5275 31.9705 48.7362C27.4192 49.2161 22.8195 49.094 18.2998 48.373C15.8332 47.9793 13.0161 47.3476 10.8234 45.6463C9.13881 44.339 7.77391 42.316 6.87631 39.7961C6.11108 37.6484 5.72923 35.3504 5.38248 33.1085C18.1426 32.9697 31.0565 32.3704 43.7744 31.327C43.7225 34.2621 43.6481 37.2864 42.8401 40.1318ZM45.9857 29.6833C45.5329 30.1659 44.7555 30.2666 43.9308 30.3348C31.0981 31.393 18.0621 31.9988 5.18602 32.1342C4.7046 32.1392 4.20717 32.1445 3.78908 31.9824C3.48543 31.8649 3.14859 31.5842 3.12608 31.245C3.10281 30.8987 3.40875 30.5748 3.70325 30.4203C4.10799 30.2078 4.61153 30.1598 5.09828 30.1128C5.48013 30.0766 5.86427 30.0423 6.24765 30.0068C6.28274 30.0148 6.31822 30.0201 6.35484 30.0201C6.40634 30.0201 6.45898 30.0121 6.51086 29.9946C6.52269 29.9908 6.53299 29.9843 6.54443 29.9793C9.42682 29.7146 12.3359 29.4788 15.2156 29.2805C21.1303 28.8734 27.1346 28.6022 33.0627 28.474C36.0519 28.4092 39.0849 28.3798 42.0768 28.3863C42.4594 28.3871 42.8748 28.3554 43.317 28.3222C44.1478 28.2593 45.0893 28.1883 45.7282 28.3653C46.0128 28.4443 46.1231 28.6968 46.1631 28.8402C46.2474 29.1412 46.1765 29.4804 45.9857 29.6833Z" fill="#621055"/>
<path d="M22.1348 16.288C22.0742 16.3307 22.0116 16.3746 21.9815 16.3921C20.4171 17.3038 19.22 18.507 18.4235 19.9688C17.9413 20.853 17.6209 21.7895 17.4702 22.7524C17.4275 23.0232 17.4012 23.3143 17.495 23.6076C17.6747 24.1699 18.2534 24.5445 18.8958 24.5445C18.9751 24.5445 19.0552 24.5388 19.1361 24.5273C19.7342 24.4396 20.2126 24.0715 20.5632 23.7606C21.8258 22.6398 22.6948 21.1776 23.2388 20.1755C23.6859 19.3519 24.1356 18.3719 24.0815 17.3481C24.0643 17.0269 24.0128 16.0488 23.2975 15.8634C22.8898 15.7577 22.4713 16.0518 22.1348 16.288ZM22.3805 19.7098C21.5607 21.22 20.8001 22.2442 19.9147 23.0304C19.6663 23.2509 19.3367 23.5107 18.9949 23.5611C18.75 23.5965 18.4788 23.4771 18.4254 23.3104C18.3918 23.2055 18.4128 23.0453 18.4349 22.9034C18.5681 22.0516 18.8527 21.2215 19.2807 20.4361C19.9906 19.1334 21.0648 18.0565 22.4732 17.2359C22.5388 17.1978 22.6117 17.1467 22.696 17.0871C22.7707 17.0349 22.9157 16.933 23.0282 16.8693C23.0572 16.9578 23.0916 17.118 23.106 17.3996C23.1472 18.1789 22.7818 18.9705 22.3805 19.7098Z" fill="#621055"/>
<path d="M22.4723 25.8736C22.8171 26.3416 23.4218 26.6174 24.068 26.6174C24.1698 26.6174 24.2724 26.6106 24.3751 26.5964C25.0697 26.5022 25.6625 26.1238 26.0482 25.8472C27.1785 25.0366 28.11 23.9532 28.7417 22.7142C29.338 21.5454 29.4681 20.5086 29.1289 19.6327C28.8703 18.9644 28.4289 18.721 28.1043 18.6348C27.0747 18.3613 25.8342 19.2398 24.9908 19.9249C23.8444 20.8557 22.9541 22.055 22.4166 23.3932C22.0077 24.411 22.0271 25.2685 22.4723 25.8736ZM23.3226 23.7575C23.7987 22.5727 24.5883 21.5095 25.6064 20.6829C26.9801 19.5675 27.6042 19.5126 27.8537 19.5785C27.9529 19.6049 28.0986 19.6758 28.2184 19.9852C28.5106 20.7397 28.1913 21.6446 27.872 22.2706C27.3105 23.3711 26.4834 24.3336 25.4794 25.0538C24.9946 25.4013 24.6135 25.5787 24.2438 25.629C23.8425 25.6836 23.4462 25.5489 23.2589 25.2945C22.9629 24.8924 23.1299 24.2367 23.3226 23.7575Z" fill="#621055"/>
<path d="M18.1229 8.88596C19.405 9.18808 20.6268 9.78241 21.656 10.6045C21.7461 10.6762 21.8536 10.7113 21.9604 10.7113C22.1039 10.7113 22.2458 10.6483 22.3423 10.5278C22.5105 10.3172 22.4762 10.0098 22.2656 9.84154C21.1239 8.92944 19.7689 8.27065 18.3468 7.93533C18.0847 7.87354 17.8215 8.03604 17.7597 8.29849C17.6979 8.56094 17.8604 8.82416 18.1229 8.88596Z" fill="#621055"/>
<path d="M20.348 6.83707C21.1384 7.09533 21.8944 7.51304 22.5342 8.04442C22.6253 8.12033 22.736 8.15734 22.8458 8.15734C22.9858 8.15734 23.1251 8.09706 23.2216 7.98072C23.394 7.77358 23.3658 7.46573 23.1582 7.29331C22.4247 6.68372 21.5576 6.20498 20.6512 5.90896C20.3949 5.82541 20.1191 5.96503 20.0352 6.22138C19.9516 6.47773 20.0916 6.75353 20.348 6.83707Z" fill="#621055"/>
<path d="M29.6929 45.6661C29.7692 45.6661 29.8467 45.6485 29.9188 45.6108C30.5001 45.3071 31.0483 44.9447 31.5595 44.5362C31.6197 44.5514 31.6758 44.5572 31.7212 44.5572C31.7582 44.5572 31.7883 44.5541 31.8093 44.5522C32.9038 44.4511 33.9799 44.2012 35.0072 43.8099C35.259 43.7141 35.3856 43.4318 35.2895 43.18C35.1933 42.9279 34.9114 42.8012 34.6593 42.8974C34.0367 43.1347 33.3943 43.3147 32.7382 43.4372C33.3306 42.7951 33.8483 42.0822 34.2759 41.3192L36.7543 39.97C36.9912 39.841 37.0786 39.5443 36.9496 39.3074C36.8211 39.0709 36.5243 38.9831 36.2874 39.1121L34.9717 39.8285C35.1235 39.4287 35.2532 39.0213 35.357 38.607C36.1989 37.8166 37.0454 37.009 37.8743 36.2041C38.0677 36.0164 38.0723 35.7071 37.8842 35.5136C37.6965 35.3202 37.3872 35.3157 37.1938 35.5037C36.6773 36.0054 36.1531 36.507 35.6278 37.0063C35.6564 36.6863 35.6717 36.3651 35.6694 36.0431C35.6675 35.7746 35.4493 35.5583 35.1811 35.5583C35.18 35.5583 35.1788 35.5583 35.1777 35.5583C34.908 35.5606 34.6909 35.7807 34.6929 36.0504C34.6959 36.4799 34.6673 36.9087 34.6101 37.3336C34.1592 36.8805 33.7617 36.3777 33.4248 35.8299C33.2837 35.6002 32.9827 35.5285 32.7531 35.6697C32.5234 35.8108 32.4517 36.1114 32.5929 36.3414C33.0823 37.1376 33.6854 37.8494 34.3869 38.4628C34.2778 38.8824 34.1409 39.2948 33.978 39.6972C33.8418 39.294 33.6923 38.8958 33.5278 38.5059C33.4229 38.2572 33.1365 38.1408 32.8881 38.2454C32.6398 38.3503 32.5231 38.6367 32.628 38.8851C32.9144 39.5645 33.1548 40.2694 33.347 40.982C32.9568 41.6538 32.4902 42.2805 31.9585 42.8447C31.9089 42.2077 31.8936 41.5668 31.9138 40.9301C31.9226 40.6608 31.7109 40.4354 31.4416 40.4266C31.1742 40.4201 30.9464 40.6295 30.938 40.8992C30.9083 41.827 30.9503 42.7627 31.0605 43.6851C30.5673 44.0914 30.0343 44.4484 29.4667 44.7452C29.2275 44.87 29.1348 45.1648 29.2596 45.404C29.3469 45.5707 29.5171 45.6661 29.6929 45.6661Z" fill="#621055"/>
<path d="M14.2746 38.454C14.3169 38.4994 14.4104 38.5994 14.5485 38.6669C14.6 39.3989 14.7305 40.1268 14.9349 40.8336C14.4306 40.5452 13.9385 40.2336 13.4647 39.9021C13.2435 39.7476 12.9391 39.8018 12.7846 40.0226C12.6301 40.2435 12.6839 40.5483 12.9051 40.7028C13.7093 41.2647 14.5618 41.7721 15.4396 42.2107C15.6368 42.6517 15.8638 43.0786 16.119 43.4875C15.3847 43.3944 14.6637 43.2201 13.9656 42.9638C13.7123 42.8707 13.4319 43.0004 13.3389 43.2537C13.2458 43.507 13.3755 43.7874 13.6288 43.8804C14.669 44.2627 15.7566 44.4793 16.8629 44.5297C17.2852 45.0477 17.7589 45.5234 18.28 45.9427C18.3704 46.0151 18.4784 46.0506 18.586 46.0506C18.7286 46.0506 18.8702 45.9881 18.9667 45.8683C19.1357 45.6581 19.1025 45.3506 18.8923 45.1816C18.4906 44.8585 18.1194 44.4984 17.7822 44.1089C17.794 44.0845 17.8036 44.062 17.8116 44.0429C18.2201 43.074 18.7538 42.1615 19.3981 41.3307C19.5633 41.1175 19.5248 40.8107 19.3115 40.6456C19.0987 40.4804 18.792 40.5193 18.6264 40.7322C18.0286 41.5031 17.5194 42.3393 17.1078 43.2232C16.7805 42.7353 16.4989 42.2157 16.267 41.6744C16.6676 40.8127 17.1391 39.9803 17.6727 39.1956C17.8242 38.9728 17.7662 38.6692 17.5434 38.5174C17.3206 38.3655 17.0166 38.4235 16.8652 38.6467C16.486 39.2044 16.1369 39.785 15.8195 40.3824C15.6422 39.7209 15.5361 39.0415 15.5067 38.3594C16.2884 37.6484 17.0292 36.8816 17.7101 36.0756C17.8841 35.8696 17.8581 35.5613 17.6521 35.3874C17.4461 35.2134 17.1379 35.2394 16.964 35.4454C16.5195 35.9714 16.0473 36.4784 15.5556 36.9652C15.5811 36.7466 15.6143 36.5288 15.6567 36.3125C15.7085 36.0481 15.5361 35.7914 15.2714 35.7395C15.007 35.688 14.7503 35.8597 14.6984 36.1244C14.6214 36.5165 14.5718 36.9133 14.5451 37.3111L13.4201 36.1026C13.2362 35.9054 12.9272 35.8944 12.7296 36.0782C12.5324 36.2621 12.5214 36.5707 12.7052 36.7683L14.2746 38.454Z" fill="#621055"/>
</svg>
