<svg width="154" height="154" viewBox="0 0 154 154" fill="none" xmlns="http://www.w3.org/2000/svg">
<g clip-path="url(#clip0_1110_5475)">
<path d="M150.144 105.483C151.684 101.124 150.233 96.0589 146.768 93.7008C146.722 93.6702 146.674 93.6491 146.626 93.6244C148.222 89.9469 147.334 85.5162 144.542 83.1581C144.656 83.0841 144.77 83.0136 144.881 82.9372C148.914 80.1973 151.384 75.9511 151.332 71.8565C151.299 69.328 150.141 66.7491 148.236 64.9561C146.646 63.4616 144.692 62.6579 142.711 62.6709C143.656 60.254 143.899 57.6292 143.274 55.1877C144.316 54.4569 145.296 53.6251 146.175 52.6593C148.102 50.5444 149.34 47.6776 149.575 44.7955C149.836 41.5973 148.851 38.7564 146.803 36.7954C146.774 36.7672 146.741 36.7472 146.711 36.7226C147.144 35.6663 147.377 34.5266 147.346 33.3117C147.244 29.3898 144.466 25.8509 139.09 22.7949C134.961 20.4474 130.507 18.6216 125.517 17.214C125.971 14.5469 125.697 11.7694 124.571 9.29617C122.252 4.19815 116.739 1.16096 110.526 1.54986C104.336 1.93993 99.2646 5.63979 97.6079 10.9751C97.528 11.2313 97.4599 11.4898 97.3976 11.7506C97.3201 11.7271 97.2414 11.7059 97.1579 11.6954C94.4544 11.357 91.7215 11.3664 89.0204 11.7153C88.7736 11.1526 88.4858 10.6074 88.1521 10.0869C85.2253 5.52229 79.8371 3.49202 74.4266 4.91368C71.0627 5.79723 68.3639 7.84043 66.7296 10.5604C64.227 10.1456 61.6903 10.1057 59.1783 10.4394C58.8071 8.7463 58.1597 7.11433 57.2256 5.63861C55.8368 3.44737 54.0216 1.82714 51.9737 0.954168C48.1939 -0.655485 43.2921 -0.209012 38.8626 2.14555C34.4848 4.47543 31.4159 8.21993 30.6557 12.1642C30.5253 12.8374 30.456 13.5189 30.436 14.2003C24.9949 16.2071 19.9392 18.7497 15.4052 21.7798C9.94408 25.428 7.29344 29.8234 8.03834 33.9262C4.37961 36.4887 2.55377 41.6937 3.76278 46.4815C4.83431 50.7289 8.07712 54.6508 12.657 57.2392C12.8626 57.3555 13.0717 57.4671 13.2797 57.5776C12.8356 58.9581 12.8379 60.4808 13.2609 61.9694C9.28847 62.4194 5.60154 65.0783 3.96956 68.7335C2.26239 72.5591 2.86513 77.3352 5.46877 80.6179C7.31694 82.9455 9.81719 84.346 12.5583 85.3024C12.5712 86.7323 12.7674 88.161 13.1211 89.5509C9.58103 90.5437 6.51094 93.2155 5.0646 96.5958C3.57714 100.07 3.81095 104.273 5.67439 107.561C7.47438 110.741 10.4211 112.777 13.7485 114.181C13.5993 114.383 13.4924 114.622 13.4606 114.889C13.3596 115.722 13.4066 116.578 13.5875 117.424C8.20166 118.124 3.79332 123.694 4.03301 129.67C4.24097 134.846 7.46263 139.934 12.6499 143.282C17.2909 146.278 22.7555 147.572 27.5128 148.551C49.5122 153.076 71.6537 153.837 92.3043 153.984C93.6461 153.993 94.9831 154.001 96.319 154.001C108.315 154.001 120.033 153.485 131.358 150.14C137.344 148.371 141.634 146.154 144.858 143.164C149.103 139.226 151.287 133.713 150.557 128.778C149.747 123.293 144.996 118.834 139.922 118.609C140.412 117.287 140.651 115.921 140.634 114.54C140.982 114.398 141.327 114.251 141.67 114.093C145.858 112.151 148.868 109.092 150.144 105.483ZM135.255 67.0769C130.996 69.5795 127.811 69.9872 124.025 68.4985C125.085 66.3096 125.368 63.847 124.729 61.691C127.175 61.127 129.606 60.5219 132.013 59.8687C134.796 59.1144 137.785 58.2155 140.538 56.8209C141.079 60.6547 138.947 64.9068 135.255 67.0769ZM76.5861 67.031C80.1884 67.031 83.7743 66.9464 87.3391 66.7773C85.888 69.9989 82.3667 73.2711 76.9198 74.1723C71.5362 75.0652 65.9765 73.5977 60.7715 71.8788C58.8717 71.2514 57.0529 70.5946 55.6641 69.449C54.4739 68.468 53.7466 67.1297 53.709 65.9113C61.386 66.6562 69.0242 67.031 76.5861 67.031ZM121.779 62.3501C122.488 64.4133 121.945 67.481 119.428 69.6617C117.33 71.4781 114.272 72.4815 110.338 72.646C103.486 72.9315 96.5434 70.7262 91.0918 66.5658C101.552 65.8937 111.816 64.4873 121.779 62.3501ZM100.481 11.8669C101.502 8.57829 104.727 4.92896 110.717 4.5518C115.672 4.23692 120.036 6.59031 121.834 10.5416C123.964 15.2213 122.061 21.5483 117.679 24.3576C113.326 27.1481 106.826 26.3526 103.189 22.5823C100.458 19.7519 99.3691 15.4458 100.481 11.8669ZM75.1914 7.82281C78.3238 6.99801 82.9354 7.5232 85.6201 11.7106C87.7573 15.0427 87.4777 19.8647 84.9716 22.9289C82.4654 25.9907 77.7927 27.2197 74.1046 25.7851C70.4154 24.3494 67.8011 20.2876 68.0232 16.3363C68.3028 11.3699 72.0591 8.64643 75.1914 7.82281ZM33.6095 12.7352C34.1993 9.67332 36.6914 6.7078 40.2761 4.80206C42.5143 3.61186 44.8642 3.00207 47.0296 3.00207C48.3807 3.00207 49.6602 3.23941 50.7952 3.7223C52.6704 4.52126 53.9452 6.08039 54.6842 7.24827C57.4359 11.5943 57.1293 17.6135 53.9546 21.5613C50.7553 25.5396 44.8548 27.0447 40.2314 25.0602C35.5705 23.0593 32.6613 17.6452 33.6095 12.7352ZM17.0771 24.2812C21.2011 21.526 25.781 19.1867 30.7086 17.308C31.6262 21.8338 34.7457 25.979 39.0447 27.8236C40.7801 28.5685 42.6553 28.9234 44.5422 28.9234C48.9835 28.9234 53.4799 26.9507 56.2986 23.4458C58.5462 20.6507 59.6413 17.0249 59.5414 13.4249C61.5188 13.1582 63.5138 13.1535 65.4889 13.4143C65.2339 14.2943 65.0741 15.2155 65.0201 16.1683C64.724 21.4485 68.0855 26.671 73.0143 28.5885C74.4219 29.136 75.9176 29.398 77.4144 29.398C81.1577 29.398 84.9069 27.7567 87.2991 24.8334C89.6043 22.0148 90.4926 18.1974 89.891 14.6397C92.1821 14.3824 94.4955 14.3942 96.7855 14.6797C96.8701 14.6903 96.9535 14.6891 97.0369 14.6856C96.9993 18.2997 98.4092 21.9596 101.025 24.6713C103.793 27.5393 107.75 29.0479 111.68 29.0479C114.364 29.0479 117.034 28.3441 119.303 26.8896C121.803 25.2858 123.66 22.8525 124.717 20.1137C129.465 21.4543 133.694 23.1862 137.604 25.4092C142 27.9094 144.267 30.5941 144.34 33.3905C144.435 37.0856 140.553 40.0053 136.905 41.1556C131.781 42.7687 126.389 42.4797 120.68 42.1719C115.687 41.9028 110.524 41.6244 105.514 42.7288C103.373 43.2011 101.274 43.9213 99.2434 44.6181C95.3838 45.9422 91.738 47.1935 88.0076 46.7811C85.5637 46.5121 83.228 45.5345 80.7536 44.5006C77.6999 43.2234 74.5441 41.9063 71.0557 41.9475C68.0185 41.9874 65.2374 43.0625 62.548 44.1023C60.0854 45.054 57.759 45.9528 55.3516 46.0527C51.3204 46.2242 47.6405 44.1657 43.7468 41.9921C40.2808 40.0558 36.6961 38.0549 32.6425 37.5556C29.9426 37.2242 27.2931 37.5979 24.7317 37.9586C23.0222 38.2006 21.4067 38.4274 19.7841 38.4603C16.0819 38.5449 11.8992 36.9329 11.0708 33.7253C9.9899 29.5449 14.9105 25.7276 17.0771 24.2812ZM6.67895 45.7448C5.83418 42.3939 6.90806 38.8069 9.20622 36.8224C10.0451 38.0831 11.2694 39.1417 12.8391 39.9419C14.8647 40.9758 17.352 41.5151 19.844 41.4681C21.6476 41.4317 23.4287 41.1802 25.1512 40.937C27.6291 40.5881 29.9696 40.2579 32.2748 40.5411C35.7432 40.9676 38.919 42.7417 42.2805 44.6181C46.3669 46.8998 50.5919 49.2567 55.475 49.0581C58.3794 48.9383 61.05 47.9055 63.6325 46.908C66.1856 45.9199 68.5977 44.9882 71.0945 44.9553C73.9554 44.9259 76.6954 46.0632 79.5927 47.2746C82.1541 48.3461 84.8036 49.4541 87.6774 49.7713C88.2802 49.8383 88.877 49.8677 89.4715 49.8677C93.2078 49.8677 96.7643 48.6481 100.22 47.4626C102.17 46.794 104.188 46.102 106.16 45.6661C110.771 44.651 115.727 44.9177 120.518 45.175C126.243 45.4828 132.164 45.8024 137.808 44.0236C140.536 43.1635 143.26 41.5503 145.094 39.3614C147.732 42.408 146.684 47.6329 143.951 50.6337C140.738 54.162 135.698 55.7517 131.225 56.9666C117.875 60.5889 103.88 62.8154 89.515 63.6484C89.4034 63.6425 89.2953 63.6484 89.1884 63.666C68.6577 64.8257 47.3738 63.1373 26.1276 58.5821C22.0658 57.7103 17.795 56.6881 14.1374 54.6214C10.2695 52.4349 7.55075 49.2003 6.67895 45.7448ZM25.4966 61.523C33.7623 63.2948 42.0326 64.6354 50.2641 65.5518C49.2502 67.9886 45.8335 69.1541 44.3143 69.5595C36.6267 71.6156 28.253 70.5335 21.3385 66.5928C19.2742 65.4155 17.9019 64.2653 17.0207 62.9752C16.1242 61.6628 15.7729 60.133 16.0467 58.8535C19.1332 60.0931 22.3772 60.8544 25.4966 61.523ZM7.82568 78.7486C5.89997 76.3212 5.45467 72.7894 6.71772 69.9601C7.98077 67.1309 10.9075 65.1042 13.9999 64.9173C14.215 64.9044 14.4159 64.8457 14.5956 64.7529C16.1031 66.9159 18.3108 68.3282 19.8499 69.2058C24.9197 72.0962 30.7039 73.5872 36.5022 73.5872C39.3913 73.5872 42.2828 73.217 45.0909 72.4663C47.8884 71.7178 50.0621 70.5347 51.5107 69.0167C52.0312 70.0318 52.7902 70.9788 53.7513 71.7707C55.5419 73.2464 57.6474 74.0148 59.8292 74.7351C64.1988 76.1779 68.8245 77.4515 73.5254 77.4515C74.8155 77.4515 76.1126 77.3551 77.4109 77.1401C82.6992 76.2648 87.2227 73.1736 89.5174 69.1436C95.1324 73.3404 102.142 75.6797 109.153 75.6797C109.59 75.6797 110.027 75.6703 110.464 75.6527C115.094 75.4576 118.772 74.2075 121.397 71.9364C121.725 71.652 122.032 71.3489 122.319 71.0317C122.379 71.0669 122.437 71.1033 122.502 71.1315C124.46 71.954 126.326 72.3699 128.2 72.3699C130.94 72.3699 133.697 71.4805 136.778 69.6699C138.674 68.5549 140.245 67.0005 141.401 65.2146C141.694 65.5177 142.104 65.7034 142.555 65.681C143.819 65.6176 145.104 66.1404 146.175 67.1474C147.498 68.3916 148.301 70.1669 148.324 71.8952C148.364 74.9924 146.397 78.2704 143.191 80.4487C140.103 82.5483 136.289 83.5541 132.649 84.4035C99.2893 92.1898 61.1405 92.0194 19.2636 83.8972C14.867 83.0442 10.3624 81.9444 7.82568 78.7486ZM18.6903 86.8498C40.2643 91.0349 60.8632 93.1274 80.3576 93.1262C99.0813 93.1262 116.785 91.1946 133.333 87.3326C136.152 86.6747 139.074 85.9216 141.802 84.662C141.912 84.8723 142.068 85.0639 142.279 85.2072C144.651 86.8321 144.914 90.4662 143.672 92.8407C142.381 95.3092 139.65 97.175 136.179 97.9599C132.964 98.6872 129.481 98.4816 126.115 98.2842L125.973 98.2759C122.553 98.075 118.676 97.8471 114.904 98.7941C113.447 99.1607 112.045 99.6929 110.69 100.208C108.43 101.065 106.297 101.876 104.104 101.876C104.102 101.876 104.099 101.876 104.096 101.876C101.903 101.874 99.771 101.059 97.5139 100.198C95.8138 99.5496 94.0561 98.8787 92.1892 98.5344C87.6704 97.6991 83.262 98.874 78.997 100.01C75.2396 101.01 71.6902 101.957 68.1313 101.608C65.3291 101.333 62.6585 100.266 59.8328 99.136C56.543 97.8213 53.1415 96.4607 49.4323 96.4078C45.9827 96.3502 42.774 97.4429 39.6639 98.4933C37.1249 99.351 34.728 100.161 32.2489 100.383C28.0556 100.759 23.6908 99.2934 20.5748 96.4607C17.701 93.8465 15.8869 90.0644 15.6061 86.1871C16.6283 86.435 17.6622 86.65 18.6903 86.8498ZM8.29213 106.079C6.88104 103.59 6.7048 100.41 7.83038 97.779C8.94774 95.1683 11.3446 93.1133 14.0928 92.4001C15.1243 94.7794 16.6412 96.9483 18.5516 98.686C22.2785 102.076 27.5011 103.831 32.518 103.379C35.3519 103.124 38.0331 102.218 40.6262 101.343C43.627 100.33 46.4632 99.3651 49.3876 99.4145C52.5412 99.4591 55.5396 100.659 58.7154 101.929C61.6128 103.087 64.6089 104.285 67.8376 104.602C71.9404 105.002 75.9211 103.941 79.7713 102.916C83.8953 101.817 87.7902 100.78 91.6428 101.492C93.2407 101.787 94.7952 102.38 96.4412 103.007C98.8534 103.929 101.348 104.88 104.094 104.883H104.104C106.849 104.883 109.344 103.936 111.758 103.019C113.091 102.513 114.351 102.035 115.637 101.711C118.96 100.876 122.593 101.09 125.797 101.278L125.938 101.286C129.514 101.496 133.212 101.714 136.842 100.894C140.27 100.119 143.146 98.4369 145.043 96.1599C145.055 96.1681 145.063 96.1787 145.075 96.1869C147.448 97.8025 148.407 101.367 147.307 104.48C146.318 107.278 143.803 109.788 140.405 111.365C137.296 112.806 133.846 113.418 129.984 114.016C88.7666 120.395 53.4858 120.237 22.1258 113.531C16.7175 112.376 10.8453 110.586 8.29213 106.079ZM61.4683 121.428C65.4771 121.601 69.5436 121.691 73.6781 121.691C82.3938 121.691 91.3973 121.308 100.714 120.544C98.5561 124.549 94.3452 127.714 89.1531 129.148C84.5263 130.427 79.1604 130.474 72.2659 129.296C69.2722 128.787 66.8671 128.177 64.8568 126.864C62.7889 125.512 61.4835 123.402 61.4683 121.428ZM21.4972 116.473C33.1254 118.959 45.2824 120.551 58.0621 121.261C57.5487 122.79 56.2904 124.222 54.5867 125.154C52.4201 126.339 49.8517 126.689 47.6252 126.874C39.7003 127.534 31.5922 126.367 24.1748 123.499C22.2961 122.772 20.1601 121.824 18.5786 120.307C17.0395 118.83 16.2429 116.94 16.4473 115.25C16.4508 115.223 16.4473 115.197 16.4485 115.17C18.1181 115.7 19.8288 116.116 21.4972 116.473ZM139.199 121.615C143.098 121.401 146.941 124.885 147.582 129.219C148.168 133.187 146.34 137.685 142.812 140.959C139.941 143.622 136.03 145.623 130.505 147.255C118.315 150.856 105.489 151.07 92.3254 150.976C71.8288 150.831 49.8647 150.079 28.1191 145.604C23.6285 144.681 18.4858 143.468 14.2807 140.754C9.91471 137.937 7.20767 133.748 7.03965 129.549C6.83992 124.585 10.7313 120.609 14.3442 120.371C14.4817 120.361 14.6109 120.327 14.7354 120.285C15.2078 121.066 15.7976 121.806 16.4967 122.477C18.4623 124.362 20.9332 125.47 23.0904 126.304C29.5043 128.784 36.4082 130.061 43.2945 130.061C44.8242 130.061 46.3528 129.998 47.8755 129.871C50.4157 129.66 53.3707 129.247 56.0307 127.793C57.3501 127.071 58.4687 126.138 59.3334 125.07C60.1418 126.735 61.4765 128.247 63.2119 129.382C65.8002 131.073 68.8503 131.765 71.7607 132.262C75.2373 132.855 78.3638 133.153 81.2294 133.153C84.4182 133.153 87.2862 132.785 89.9544 132.047C95.0889 130.629 99.4173 127.697 102.153 123.908C102.993 125.155 104.217 126.232 105.717 126.974C108.153 128.178 110.866 128.419 113.259 128.633C115.681 128.848 118.25 129.077 120.856 129.077C123.953 129.077 127.103 128.754 130.119 127.701C132.998 126.696 135.633 124.896 137.539 122.631C137.865 122.246 138.161 121.851 138.436 121.45C138.665 121.568 138.924 121.632 139.199 121.615ZM129.128 124.86C124.187 126.586 118.523 126.081 113.526 125.635C111.291 125.437 108.981 125.231 107.05 124.276C105.68 123.599 104.299 122.279 103.981 120.715C104.036 120.588 104.091 120.461 104.143 120.332C104.155 120.304 104.159 120.274 104.169 120.245C112.661 119.471 121.411 118.387 130.444 116.989C132.965 116.599 135.326 116.2 137.577 115.574C137.086 119.911 133.127 123.464 129.128 124.86Z" fill="#F4F4F4"/>
</g>
<defs>
<clipPath id="clip0_1110_5475">
<rect width="154" height="154" fill="white"/>
</clipPath>
</defs>
</svg>
