<svg width="42" height="40" viewBox="0 0 42 40" fill="none" xmlns="http://www.w3.org/2000/svg">
<ellipse cx="20.82" cy="20" rx="20.2734" ry="20" fill="#F4F4F4"/>
<g clip-path="url(#clip0_1107_4535)">
<path d="M14.7185 21.1371H17.4174V30.9837C17.4174 31.4215 17.7765 31.7768 18.2213 31.7768L22.5163 31.7778C22.9611 31.7778 23.3202 31.4215 23.3202 30.9848V21.1381H25.8787C26.2839 21.1381 26.6258 20.84 26.6762 20.4434L27.21 16.2138C27.27 15.7422 26.8959 15.3224 26.4125 15.3224H23.3202C23.4413 12.7095 22.8539 11.9365 24.5764 11.9365C25.7426 11.7991 27.5819 12.3817 27.5819 11.1435V7.36109C27.5819 6.96456 27.285 6.62936 26.8874 6.57543C26.5508 6.52996 25.2206 6.3999 23.571 6.3999C16.0572 6.3999 17.6039 14.6181 17.4185 15.3213H14.7185C14.2747 15.3213 13.9146 15.6766 13.9146 16.1144V20.344C13.9146 20.7818 14.2747 21.1371 14.7185 21.1371ZM15.5224 16.9085H18.2213C18.6651 16.9085 19.0252 16.5532 19.0252 16.1154V12.7835C19.0252 9.73499 20.6812 7.98708 23.5699 7.98708C24.511 7.98708 25.3771 8.03255 25.9731 8.07908V10.3515C25.5422 10.5682 21.7113 9.41671 21.7113 13.2033V16.1165C21.7113 16.5543 22.0715 16.9095 22.5152 16.9095H25.5014L25.167 19.5531H22.5152C22.0715 19.5531 21.7113 19.9084 21.7113 20.3461V30.1917H19.0263V20.3451C19.0263 19.9073 18.6661 19.552 18.2224 19.552H15.5224V16.9085Z" fill="#B52B65"/>
</g>
<defs>
<clipPath id="clip0_1107_4535">
<rect width="25.7248" height="25.3779" fill="white" transform="translate(8.41675 6.3999)"/>
</clipPath>
</defs>
</svg>
