<svg width="88" height="80" viewBox="0 0 88 80" fill="none" xmlns="http://www.w3.org/2000/svg">
<path d="M69.0405 63.575C66.1321 66.6102 60.6243 65.1225 59.4652 63.026C58.0101 60.3958 54.0668 60.5 51.5861 62.1717C49.3103 63.7055 46.655 65.2391 43.9999 65.2391C41.3448 65.2391 38.6895 63.7053 36.4137 62.1717C33.933 60.5 29.9897 60.3971 28.5346 63.026C27.3739 65.1225 21.8663 66.6087 18.9592 63.575C17.2524 61.7944 14.4986 61.1456 12.1377 61.7975V65.236C12.1377 72.0149 17.5739 79.1005 24.2786 79.1005H63.7208C70.4255 79.1005 75.8617 72.0149 75.8617 65.236V61.7975C73.5014 61.1456 70.7476 61.7945 69.0405 63.575Z" fill="#B52B65"/>
<path d="M82.3331 51.7407C80.9827 51.3849 79.7493 50.6948 78.766 49.6932C74.5011 45.3452 62.1431 34.623 44 34.623C25.8569 34.623 13.4989 45.3452 9.23244 49.6932C8.25086 50.6946 7.01577 51.3849 5.66534 51.7407C2.40642 52.6011 0 55.5979 0 59.1623C0 59.9845 0.127531 60.7758 0.364203 61.5181C1.79953 66.0179 6.2602 67.1422 10.0578 64.3846C10.1351 64.3293 10.214 64.2727 10.2945 64.2174C12.8829 62.4338 16.7791 62.8923 18.9594 65.1668C21.8678 68.202 27.3756 66.7143 28.5347 64.6177C29.9898 61.9891 33.9331 62.0917 36.4138 63.7635C38.6896 65.2972 41.3449 66.8308 44 66.8308C46.6551 66.8308 49.3104 65.2971 51.5862 63.7635C54.0669 62.0917 58.0102 61.9889 59.4653 64.6177C60.626 66.7143 66.1335 68.2004 69.0406 65.1668C71.2209 62.8923 75.1171 62.4337 77.7056 64.2174C77.786 64.2727 77.8649 64.3279 77.9422 64.3846C81.7413 67.1422 86.2006 66.0179 87.6358 61.5181C87.8725 60.7757 88 59.9843 88 59.1623C88 55.5979 85.5936 52.6011 82.3331 51.7407Z" fill="#F3B366"/>
<path d="M31.8621 46.893C31.4737 46.893 31.0853 46.7427 30.7895 46.4437C30.1962 45.844 30.1962 44.8747 30.7895 44.2751L32.3068 42.7413C32.8985 42.1416 33.8604 42.1416 34.4521 42.7413C35.0454 43.3411 35.0454 44.3104 34.4521 44.9099L32.9348 46.4437C32.639 46.7427 32.2506 46.893 31.8621 46.893Z" fill="#F4F4F4"/>
<path d="M50.0689 46.893C49.6805 46.893 49.2921 46.7427 48.9963 46.4437C48.4029 45.844 48.4029 44.8747 48.9963 44.2751L50.5136 42.7413C51.1053 42.1416 52.0671 42.1416 52.6589 42.7413C53.2522 43.3411 53.2522 44.3104 52.6589 44.9099L51.1416 46.4437C50.8458 46.7427 50.4574 46.893 50.0689 46.893Z" fill="#F4F4F4"/>
<path d="M42.4827 54.5615C42.0943 54.5615 41.7058 54.4112 41.41 54.1122L39.8927 52.5784C39.2994 51.9786 39.2994 51.0093 39.8927 50.4098C40.4845 49.81 41.4463 49.81 42.0381 50.4098L43.5554 51.9435C44.1487 52.5433 44.1487 53.5126 43.5554 54.1122C43.2596 54.4112 42.8712 54.5615 42.4827 54.5615Z" fill="#F4F4F4"/>
<path d="M15.1724 54.5615C14.784 54.5615 14.3956 54.4112 14.0998 54.1122C13.5065 53.5124 13.5065 52.5431 14.0998 51.9435L15.6171 50.4098C16.2088 49.81 17.1707 49.81 17.7624 50.4098C18.3557 51.0095 18.3557 51.9788 17.7624 52.5784L16.2451 54.1122C15.9493 54.4112 15.5609 54.5615 15.1724 54.5615Z" fill="#F4F4F4"/>
<path d="M28.8274 57.6286C28.439 57.6286 28.0506 57.4783 27.7548 57.1793L26.2375 55.6455C25.6442 55.0458 25.6442 54.0765 26.2375 53.4769C26.8292 52.8772 27.791 52.8772 28.3828 53.4769L29.9001 55.0107C30.4934 55.6104 30.4934 56.5797 29.9001 57.1793C29.6043 57.4783 29.2159 57.6286 28.8274 57.6286Z" fill="#F4F4F4"/>
<path d="M68.2757 51.4941C67.8873 51.4941 67.4988 51.3438 67.203 51.0448C66.6097 50.445 66.6097 49.4757 67.203 48.8762L68.7204 47.3424C69.3121 46.7426 70.2739 46.7426 70.8657 47.3424C71.459 47.9421 71.459 48.9114 70.8657 49.511L69.3484 51.0448C69.0526 51.344 68.6641 51.4941 68.2757 51.4941Z" fill="#F4F4F4"/>
<path d="M59.1724 57.6286C58.784 57.6286 58.3955 57.4783 58.0997 57.1793L56.5824 55.6455C55.9891 55.0458 55.9891 54.0765 56.5824 53.4769C57.1742 52.8772 58.136 52.8772 58.7278 53.4769L60.2451 55.0107C60.8384 55.6104 60.8384 56.5797 60.2451 57.1793C59.9493 57.4783 59.5609 57.6286 59.1724 57.6286Z" fill="#F4F4F4"/>
<path d="M54.6208 31.279C53.7833 31.279 53.1035 30.5919 53.1035 29.7453V14.4081C53.1035 13.5615 53.7833 12.8743 54.6208 12.8743C55.4584 12.8743 56.1381 13.5615 56.1381 14.4081V29.7451C56.1381 30.5921 55.4584 31.279 54.6208 31.279Z" fill="#B52B65"/>
<path d="M33.3794 31.279C32.5418 31.279 31.8621 30.5919 31.8621 29.7453V14.4081C31.8621 13.5615 32.5418 12.8743 33.3794 12.8743C34.2169 12.8743 34.8967 13.5615 34.8967 14.4081V29.7451C34.8965 30.5921 34.2169 31.279 33.3794 31.279Z" fill="#B52B65"/>
<path d="M44 15.9419C43.1624 15.9419 42.4827 15.2548 42.4827 14.4081V2.13851C42.4827 1.29188 43.1624 0.604736 44 0.604736C44.8375 0.604736 45.5173 1.29188 45.5173 2.13851V14.4081C45.5173 15.2548 44.8375 15.9419 44 15.9419Z" fill="#B52B65"/>
<path d="M39.5806 6.72243C38.9645 6.14889 39.0445 5.0468 39.7591 4.26245L42.3482 1.42075C43.0628 0.636404 44.1428 0.465317 44.7589 1.03887C45.375 1.61241 45.295 2.7145 44.5804 3.49885L41.9913 6.34055C41.2764 7.12494 40.1967 7.29598 39.5806 6.72243Z" fill="#B52B65"/>
<path d="M37.3816 9.15469C36.7656 8.58114 36.8455 7.47905 37.5602 6.69471L40.1492 3.853C40.8639 3.06865 41.9439 2.89757 42.5599 3.47112C43.176 4.04467 43.096 5.14675 42.3814 5.9311L39.7923 8.7728C39.0775 9.55719 37.9977 9.72824 37.3816 9.15469Z" fill="#B52B65"/>
<path d="M43.9704 25.5278C43.1329 25.5278 42.4531 24.8406 42.4531 23.994V8.65682C42.4531 7.81019 43.1329 7.12305 43.9704 7.12305C44.808 7.12305 45.4877 7.81019 45.4877 8.65682V23.9938C45.4876 24.8408 44.808 25.5278 43.9704 25.5278Z" fill="#B52B65"/>
</svg>
