<svg width="41" height="40" viewBox="0 0 41 40" fill="none" xmlns="http://www.w3.org/2000/svg">
<ellipse cx="20.2734" cy="20" rx="20.2734" ry="20" fill="#F4F4F4"/>
<g clip-path="url(#clip0_1107_4539)">
<path d="M20.5725 28.3085C24.294 28.3085 22.9671 25.9843 23.2543 25.316C23.25 24.8169 23.2457 24.3368 23.2629 24.045C23.4987 24.1105 24.055 24.3886 25.204 25.4905C26.978 27.2564 27.4314 28.3085 28.8645 28.3085H31.5023C32.3384 28.3085 32.7736 27.9669 32.9911 27.6804C33.2012 27.4033 33.407 26.9169 33.1819 26.1598C32.5935 24.3368 29.1614 21.1889 28.9481 20.8569C28.9802 20.7956 29.0317 20.7141 29.0585 20.6718H29.0563C29.7337 19.7889 32.3191 15.9674 32.6996 14.4384C32.7007 14.4363 32.7017 14.4331 32.7017 14.4299C32.9075 13.732 32.7189 13.2795 32.5238 13.0236C32.2301 12.6408 31.7628 12.4473 31.1315 12.4473H28.4936C27.6104 12.4473 26.9405 12.8861 26.6018 13.6866C26.0347 15.1088 24.4419 18.0336 23.2479 19.0688C23.2114 17.6022 23.2361 16.4824 23.2554 15.6502C23.294 14.027 23.4183 12.4473 21.7108 12.4473H17.5648C16.4951 12.4473 15.4715 13.5998 16.5798 14.9681C17.5488 16.1672 16.9282 16.8355 17.1372 20.1622C16.3226 19.3004 14.8734 16.973 13.8487 13.9985C13.5614 13.1938 13.1262 12.4483 11.9011 12.4483H9.26324C8.19352 12.4483 7.55469 13.0236 7.55469 13.9869C7.55469 16.1503 12.4092 28.3085 20.5725 28.3085ZM11.9011 14.0344C12.1337 14.0344 12.1573 14.0344 12.3299 14.5177C13.3792 17.5662 15.733 22.0771 17.4523 22.0771C18.7439 22.0771 18.7439 20.7712 18.7439 20.2795L18.7428 16.365C18.6721 15.0697 18.194 14.4246 17.88 14.0334L21.6401 14.0376C21.6422 14.0556 21.6186 18.3677 21.6508 19.4125C21.6508 20.896 22.8449 21.7462 24.7088 19.8851C26.6757 17.6952 28.0359 14.4215 28.0906 14.2882C28.171 14.0979 28.2406 14.0334 28.4936 14.0334H31.1315H31.1422C31.1411 14.0366 31.1411 14.0397 31.14 14.0429C30.8989 15.1532 28.5183 18.6913 27.7219 19.79C27.709 19.8069 27.6972 19.8248 27.6854 19.8428C27.3349 20.4075 27.0498 21.0314 27.7336 21.909H27.7347C27.7969 21.983 27.9587 22.1564 28.1945 22.3975C28.9277 23.1441 31.4423 25.6967 31.6652 26.7118C31.5173 26.735 31.3566 26.7181 28.8645 26.7234C28.3339 26.7234 27.9191 25.9409 26.3359 24.3654C24.9125 22.9992 23.9885 22.4409 23.1471 22.4409C21.5136 22.4409 21.6326 23.7489 21.6476 25.3308C21.6529 27.0459 21.6422 26.5035 21.654 26.6113C21.5586 26.6483 21.2853 26.7224 20.5725 26.7224C13.7715 26.7224 9.34256 16.0731 9.17213 14.0376C9.23109 14.0323 10.0425 14.0355 11.9011 14.0344Z" fill="#B52B65"/>
</g>
<defs>
<clipPath id="clip0_1107_4539">
<rect width="25.7248" height="25.3779" fill="white" transform="translate(7.55469 7.68872)"/>
</clipPath>
</defs>
</svg>
