<svg width="81" height="81" viewBox="0 0 81 81" fill="none" xmlns="http://www.w3.org/2000/svg">
<g clip-path="url(#clip0_1107_4120)">
<path d="M74.4423 44.2325C73.4986 43.9716 72.3596 43.9673 71.2428 44.027C78.2692 32.5355 79.579 17.7702 74.6253 5.23769C74.4811 4.87222 74.0891 4.66856 73.7064 4.76086C69.4436 5.78836 65.3159 7.71171 61.6652 10.3592C59.4932 7.98797 56.5809 6.37779 53.4048 5.80621C50.0956 5.21062 46.6594 5.77237 43.712 7.38438C42.658 4.97374 41.0777 3.35742 39.1688 2.7809C36.6905 2.03212 34.1326 3.13592 32.4241 4.03114C28.5805 6.04493 25.1209 8.85058 22.3436 12.1884C22.0952 11.1849 21.8443 10.1826 21.5879 9.18283C21.1669 7.54251 20.643 5.50165 19.5897 3.75488C18.3995 1.78293 16.6379 0.449633 14.7562 0.097696C13.1722 -0.199481 11.3909 0.188757 9.86913 1.16089C8.62532 1.95644 7.51156 3.1433 6.56053 4.68825C3.27905 10.019 3.45902 16.6073 4.06737 22.3491C4.95122 30.6811 6.72263 38.9344 9.33166 46.8991C8.96308 46.9336 8.59142 46.9662 8.22346 47.0012C7.32912 47.0868 6.31522 47.184 5.38699 47.67C4.23502 48.273 3.53853 49.3842 3.61311 50.5003C3.68584 51.5918 4.50067 52.5941 5.68838 53.0537C6.19934 53.2512 6.72263 53.3404 7.23359 53.3792C7.81604 57.1502 8.44534 61.0301 9.76003 64.7156C11.312 69.0637 13.6967 72.5739 16.6571 74.867C20.4815 77.8295 25.2731 78.91 29.4557 79.5763C33.9274 80.2888 38.4446 80.645 42.9656 80.645C45.966 80.645 48.9689 80.4875 51.9582 80.1731C55.1633 79.8353 58.8639 79.2496 62.0104 77.4641C66.1344 75.1236 69.2822 70.7533 70.873 65.1586C72.2518 60.3127 72.3596 55.2601 72.4459 50.3662C73.6256 50.1914 74.7542 49.8413 75.5881 48.9541C76.2815 48.2164 76.5323 47.1194 76.2433 46.0906C75.9795 45.1536 75.3231 44.4762 74.4423 44.2325ZM73.4068 6.46147C77.9993 18.7023 76.4793 33.0296 69.3839 44.0233C69.3555 44.067 69.3327 44.1125 69.3142 44.1593C68.8902 44.1876 68.4877 44.2085 68.1246 44.2091C66.7508 44.2061 65.3708 44.2091 63.9895 44.2159C63.9963 41.9591 63.6098 39.7736 63.0101 37.6054C62.9386 37.347 62.8862 37.0836 62.8363 36.8203C65.7862 34.7468 67.671 31.1752 68.5968 25.9054C68.7946 24.7794 68.9506 23.6295 69.1016 22.5177C69.501 19.5766 69.8776 16.7981 70.9759 14.2016C71.1041 13.8989 71.0301 13.5488 70.7916 13.323C70.5525 13.0972 70.1987 13.0431 69.9034 13.187C67.5822 14.3173 65.5661 16.1539 64.2274 18.3584C63.5889 19.4099 63.1032 20.534 62.6329 21.6206C62.2674 22.466 61.8896 23.3403 61.4514 24.1457C60.1552 26.528 58.6821 27.406 57.7261 27.7284C57.172 27.1482 56.4059 26.7237 55.8246 26.1878C54.7713 25.2169 53.6366 24.3339 52.4341 23.5556C54.4773 19.4468 57.4845 15.7115 61.1629 12.7293C64.7969 9.78395 69.0171 7.62495 73.4068 6.46147ZM62.4092 35.1461C62.0498 34.3026 61.4587 33.5778 60.9928 32.794C60.4658 31.908 59.9363 31.0041 59.3354 30.1649C59.0716 29.7957 58.8583 29.4278 58.6475 29.0672C59.9407 28.5295 61.4957 27.3642 62.8375 24.8981C63.3103 24.0294 63.7023 23.1225 64.0813 22.2451C64.551 21.1597 64.9942 20.1335 65.5766 19.1749C66.3939 17.8299 67.4953 16.6399 68.7743 15.7029C68.14 17.8686 67.8356 20.1156 67.5379 22.3066C67.3893 23.4037 67.2352 24.5382 67.0429 25.6334C66.2472 30.1606 64.7304 33.2874 62.4159 35.164C62.4135 35.1578 62.4116 35.1517 62.4092 35.1461ZM44.3635 8.82166C46.9805 7.35916 50.1739 6.82448 53.125 7.35608C55.8721 7.85076 58.4916 9.28312 60.406 11.3197C60.3271 11.3824 60.247 11.4433 60.1687 11.5067C56.3498 14.6028 53.2193 18.4759 51.0781 22.7404C50.7699 22.5681 50.4599 22.4001 50.1437 22.2414C48.3482 21.3363 46.448 20.6515 44.4886 20.1815C45.476 16.5015 45.3984 12.5016 44.2624 8.86535C44.2963 8.85243 44.3308 8.84012 44.3635 8.82166ZM49.433 23.6473C57.233 27.5764 62.4437 35.8426 62.4116 44.2264C59.4426 44.2473 56.47 44.2873 53.5232 44.3506C53.064 44.3611 52.6042 44.3728 52.1438 44.3863C53.3506 42.8888 54.2166 41.102 54.6252 39.2316C54.7448 38.6846 54.8619 37.9647 54.7047 37.2442C54.518 36.3884 53.9478 35.6888 53.2187 35.4187C52.6646 35.2138 52.0168 35.2409 51.2944 35.4999C50.1049 35.9263 49.1643 36.7354 48.4777 37.3931C46.8671 38.9356 45.5506 40.7322 44.5657 42.7325C44.2858 43.3004 43.9924 43.9673 43.8482 44.705C43.01 44.7383 42.1723 44.7703 41.3366 44.7973C39.1541 44.8687 36.9722 44.9548 34.7915 45.0576C34.2029 45.0853 28.9416 45.113 28.8769 45.3788C28.9004 45.2828 28.9065 45.1806 28.8905 45.076C27.8341 38.0945 26.5613 31.0983 25.0894 24.1518C28.7228 22.2457 32.8272 21.1622 36.9968 21.017C41.4124 20.8632 45.7121 21.7732 49.433 23.6473ZM49.9643 44.4583C48.4746 44.5131 46.9812 44.5764 45.4871 44.6386C45.6135 44.2079 45.8002 43.7944 45.9814 43.4271C46.885 41.5924 48.0924 39.9447 49.5699 38.5295C50.1431 37.9801 50.9178 37.3082 51.827 36.9821C52.1851 36.8541 52.4766 36.824 52.6701 36.8954C52.8932 36.9784 53.0917 37.2535 53.1632 37.5802C53.255 38.0004 53.1743 38.4809 53.0837 38.8956C52.6375 40.9389 51.5668 42.8691 50.0691 44.3316C50.029 44.3703 49.9939 44.4134 49.9643 44.4583ZM26.3573 39.6057C26.4466 40.0788 26.5372 40.5513 26.6223 41.0251C24.3566 42.0594 21.7469 43.1029 19.1595 42.8549C18.6491 42.8057 18.4149 42.6642 18.3822 42.5811C18.3533 42.5067 18.4118 42.2618 18.6953 41.9222C19.6883 40.731 21.0856 40.1729 22.0835 39.9145C23.2447 39.613 24.5871 39.5158 26.308 39.6081C26.3246 39.6087 26.3406 39.6057 26.3573 39.6057ZM23.7328 26.9341L23.7334 26.9335C23.9036 27.7924 24.0731 28.647 24.2703 29.4918C22.1636 31.1936 19.5268 32.1658 16.8155 32.2298C16.209 32.2445 16.0999 32.1184 16.0894 32.1036C16.0567 32.0581 16.0382 31.8532 16.1917 31.5123C16.7717 30.2215 18.1603 29.357 19.5324 28.5824C20.9272 27.7949 22.2986 27.0762 23.7328 26.9341ZM33.1575 5.42597C34.6201 4.65872 36.7879 3.70689 38.7115 4.28833C41.0586 4.99712 42.2346 7.69079 42.7258 9.23328C43.8131 12.6413 43.8864 16.4049 42.9428 19.8566C36.905 18.7713 30.4258 19.6831 24.7486 22.5533C24.1378 19.7305 23.4918 16.918 22.8157 14.1179C25.5739 10.5321 29.1475 7.52713 33.1575 5.42597ZM21.4277 15.4186C21.5207 15.8481 21.6119 16.2782 21.7032 16.7082C19.4282 18.6064 16.5812 19.899 13.6548 20.355C13.5297 20.3747 13.4175 20.3759 13.3293 20.3691C14.0924 18.7479 15.4915 17.7105 16.5363 17.1229C18.0987 16.2456 19.8529 15.7983 21.207 15.506C21.2871 15.4888 21.3599 15.4568 21.4277 15.4186ZM5.63661 22.1829C5.056 16.7052 4.87171 10.4411 7.9048 5.51334C8.73072 4.17142 9.67806 3.15376 10.7203 2.48742C11.9068 1.7294 13.272 1.42238 14.4653 1.64572C15.9051 1.91521 17.2796 2.98025 18.238 4.56766C19.1034 6.00186 19.5564 7.61449 20.0593 9.57414C20.4329 11.0286 20.778 12.4899 21.1059 13.9549C21.0301 13.9487 20.9524 13.95 20.8742 13.9666C19.4116 14.2816 17.5089 14.7695 15.7627 15.7509C14.501 16.4591 12.8017 17.7321 11.8686 19.7698C11.749 20.0313 11.6338 20.3488 11.6855 20.7217C11.7348 21.0791 11.9167 21.3831 12.21 21.6009C12.5866 21.8796 13.0557 21.9479 13.4243 21.9479C13.6203 21.9479 13.7885 21.9282 13.8976 21.911C16.8296 21.4545 19.6889 20.2313 22.0625 18.4359C22.3183 19.6788 22.7608 20.8472 23.0345 22.1005C23.2718 23.1871 23.3291 24.2896 23.4666 25.3799C21.7722 25.575 20.2701 26.3563 18.7551 27.2116C17.1551 28.1148 15.5279 29.1417 14.7519 30.8682C14.3815 31.6908 14.4012 32.4556 14.8061 33.0204C15.3214 33.7396 16.2312 33.8073 16.6897 33.8073C16.7532 33.8073 16.8081 33.8061 16.8524 33.8049C19.6766 33.7378 22.4292 32.7983 24.7048 31.1438C24.7985 31.4576 24.8971 31.7701 25.0062 32.0802C25.5048 33.4935 25.4494 35.1431 25.7594 36.6056C25.8593 37.075 25.9523 37.5476 26.0472 38.0189C24.3208 37.9487 22.9279 38.0681 21.6865 38.3899C19.9348 38.8446 18.4809 39.717 17.4824 40.9143C16.8463 41.6773 16.6441 42.4741 16.9135 43.1582C17.1125 43.6622 17.6371 44.291 19.0085 44.4226C19.3246 44.4528 19.639 44.4675 19.9521 44.4675C22.4305 44.4675 24.7991 43.5705 26.8984 42.6291C27.0494 43.5249 27.1955 44.4202 27.3299 45.3117C27.3385 45.3683 27.3539 45.4224 27.3736 45.4735C26.4522 45.5326 25.5307 45.5923 24.6117 45.655C20.0729 45.967 15.4891 46.3367 10.9441 46.7508C8.3079 38.7855 6.52108 30.5242 5.63661 22.1829ZM69.3549 64.7285C67.8775 69.9233 64.9923 73.9601 61.2307 76.0945C58.3437 77.7329 54.9882 78.2701 51.7924 78.6066C44.4387 79.3806 37.0067 79.1837 29.7041 78.0209C25.7187 77.3859 21.1669 76.367 17.6241 73.6229C14.9023 71.5144 12.697 68.2516 11.2467 64.1871C10.0103 60.7231 9.3933 57.0167 8.83303 53.4007C29.4501 53.1767 50.3156 52.2101 70.8643 50.5274C70.7805 55.2613 70.6603 60.1392 69.3549 64.7285ZM74.4374 47.8762C73.7057 48.6545 72.4496 48.8169 71.1171 48.927C50.3828 50.6338 29.3201 51.6109 8.51561 51.8293C7.73777 51.8373 6.93404 51.8459 6.25851 51.5844C5.76789 51.3949 5.22365 50.9421 5.18729 50.3951C5.14969 49.8364 5.64401 49.3141 6.11983 49.0649C6.77379 48.7222 7.58738 48.6446 8.37385 48.569C8.99082 48.5105 9.61149 48.4551 10.2309 48.3979C10.2876 48.4108 10.345 48.4194 10.4041 48.4194C10.4873 48.4194 10.5724 48.4065 10.6562 48.3782C10.6753 48.3721 10.692 48.3616 10.7105 48.3536C15.3676 47.9266 20.068 47.5464 24.7208 47.2264C34.2774 46.5699 43.9789 46.1325 53.5571 45.9257C58.3868 45.8211 63.2875 45.7738 68.1216 45.7842C68.7398 45.7855 69.411 45.7344 70.1253 45.6809C71.4678 45.5793 72.9889 45.4649 74.0213 45.7504C74.4811 45.8778 74.6592 46.2851 74.724 46.5164C74.8602 47.0019 74.7455 47.5488 74.4374 47.8762Z" fill="#621055"/>
<path d="M35.9003 26.2708C35.8023 26.3397 35.7012 26.4105 35.6525 26.4388C33.1248 27.9093 31.1907 29.8499 29.9038 32.2076C29.1247 33.6338 28.607 35.1443 28.3635 36.6972C28.2945 37.1341 28.2519 37.6035 28.4036 38.0767C28.6939 38.9836 29.6289 39.5878 30.6668 39.5878C30.795 39.5878 30.9245 39.5786 31.0551 39.5601C32.0216 39.4186 32.7945 38.8249 33.3609 38.3234C35.4011 36.5157 36.8051 34.1574 37.684 32.5411C38.4064 31.2127 39.1331 29.6321 39.0456 27.9807C39.0178 27.4626 38.9346 25.885 37.779 25.586C37.1201 25.4156 36.4439 25.89 35.9003 26.2708ZM36.2972 31.7898C34.9727 34.2257 33.7437 35.8777 32.3131 37.1458C31.9119 37.5014 31.3793 37.9204 30.8271 38.0016C30.4314 38.0588 29.9931 37.8663 29.9069 37.5974C29.8526 37.4282 29.8865 37.1698 29.9223 36.9409C30.1374 35.567 30.5972 34.2281 31.2887 32.9613C32.4358 30.8601 34.1714 29.1232 36.447 27.7998C36.553 27.7382 36.6707 27.6558 36.807 27.5598C36.9278 27.4755 37.162 27.3112 37.3438 27.2085C37.3906 27.3512 37.4461 27.6096 37.4695 28.0637C37.5361 29.3207 36.9456 30.5974 36.2972 31.7898Z" fill="#621055"/>
<path d="M36.4458 41.7314C37.003 42.4864 37.9799 42.9312 39.024 42.9312C39.1886 42.9312 39.3544 42.9202 39.5202 42.8974C40.6426 42.7454 41.6004 42.1351 42.2236 41.689C44.0498 40.3815 45.555 38.6342 46.5756 36.6357C47.539 34.7505 47.7492 33.0782 47.2012 31.6656C46.7834 30.5876 46.0702 30.1951 45.5457 30.056C43.8822 29.6149 41.8778 31.0318 40.515 32.1369C38.6629 33.6381 37.2243 35.5726 36.3558 37.7309C35.6951 39.3725 35.7265 40.7556 36.4458 41.7314ZM37.8197 38.3185C38.5889 36.4075 39.8648 34.6927 41.5098 33.3594C43.7293 31.5604 44.7377 31.4718 45.1408 31.5782C45.301 31.6207 45.5365 31.7351 45.73 32.2341C46.2021 33.4511 45.6862 34.9105 45.1704 35.9202C44.2631 37.6952 42.9268 39.2476 41.3046 40.4092C40.5212 40.9697 39.9054 41.2558 39.3082 41.3371C38.6598 41.425 38.0194 41.2078 37.7168 40.7975C37.2385 40.149 37.5084 39.0913 37.8197 38.3185Z" fill="#621055"/>
<path d="M29.418 14.3322C31.4896 14.8195 33.4638 15.7781 35.1267 17.1041C35.2722 17.2197 35.446 17.2763 35.6186 17.2763C35.8503 17.2763 36.0796 17.1748 36.2355 16.9804C36.5073 16.6408 36.4519 16.1448 36.1116 15.8735C34.2669 14.4024 32.0776 13.3398 29.7798 12.799C29.3564 12.6993 28.9311 12.9614 28.8312 13.3847C28.7314 13.808 28.994 14.2326 29.418 14.3322Z" fill="#621055"/>
<path d="M33.0132 11.0275C34.2903 11.444 35.5119 12.1177 36.5455 12.9748C36.6929 13.0972 36.8716 13.1569 37.0491 13.1569C37.2753 13.1569 37.5003 13.0597 37.6562 12.872C37.9348 12.538 37.8892 12.0414 37.5539 11.7633C36.3686 10.7801 34.9677 10.0079 33.5032 9.5305C33.089 9.39575 32.6434 9.62094 32.5078 10.0344C32.3728 10.4479 32.599 10.8927 33.0132 11.0275Z" fill="#621055"/>
<path d="M48.1121 73.655C48.2354 73.655 48.3605 73.6267 48.477 73.5658C49.4163 73.076 50.302 72.4915 51.1279 71.8325C51.2253 71.8571 51.3159 71.8664 51.3892 71.8664C51.449 71.8664 51.4977 71.8614 51.5316 71.8584C53.3 71.6953 55.0387 71.2923 56.6985 70.661C57.1053 70.5066 57.31 70.0513 57.1546 69.6452C56.9993 69.2385 56.5438 69.0343 56.1364 69.1893C55.1305 69.572 54.0926 69.8624 53.0325 70.0599C53.9897 69.0244 54.8261 67.8745 55.517 66.6439L59.5215 64.4677C59.9042 64.2597 60.0454 63.7811 59.837 63.399C59.6293 63.0175 59.1498 62.876 58.767 63.0839L56.6412 64.2394C56.8865 63.5946 57.0961 62.9375 57.2637 62.2693C58.624 60.9945 59.9917 59.6919 61.3311 58.3937C61.6436 58.091 61.651 57.592 61.3471 57.2801C61.0439 56.9681 60.544 56.9607 60.2315 57.2641C59.3969 58.0732 58.5501 58.8822 57.7014 59.6876C57.7476 59.1714 57.7722 58.6534 57.7685 58.1341C57.7655 57.7009 57.4129 57.3521 56.9796 57.3521C56.9778 57.3521 56.9759 57.3521 56.9741 57.3521C56.5383 57.3557 56.1876 57.7108 56.1907 58.1458C56.1956 58.8386 56.1494 59.5301 56.0569 60.2155C55.3284 59.4846 54.6861 58.6737 54.1419 57.7901C53.9138 57.4197 53.4275 57.3041 53.0565 57.5317C52.6854 57.7594 52.5696 58.2442 52.7976 58.6152C53.5884 59.8993 54.5629 61.0474 55.6963 62.0368C55.5201 62.7136 55.2988 63.3787 55.0356 64.0278C54.8156 63.3774 54.574 62.7351 54.3083 62.1063C54.1388 61.7051 53.6759 61.5175 53.2747 61.686C52.8734 61.8552 52.6848 62.3173 52.8543 62.7179C53.3172 63.8137 53.7055 64.9507 54.0162 66.1C53.3856 67.1835 52.6318 68.1944 51.7726 69.1044C51.6925 68.0769 51.6678 67.0432 51.7005 66.0163C51.7147 65.582 51.3726 65.2183 50.9375 65.2042C50.5054 65.1937 50.1374 65.5315 50.1239 65.9665C50.0758 67.4629 50.1436 68.9721 50.3217 70.4598C49.5248 71.1151 48.6637 71.691 47.7466 72.1697C47.3601 72.3709 47.2104 72.8465 47.4119 73.2323C47.553 73.5011 47.8279 73.655 48.1121 73.655Z" fill="#621055"/>
<path d="M23.2002 62.0227C23.2687 62.0959 23.4197 62.2571 23.6428 62.366C23.726 63.5467 23.9368 64.7206 24.2672 65.8607C23.4523 65.3956 22.6572 64.8929 21.8917 64.3582C21.5342 64.109 21.0424 64.1964 20.7928 64.5527C20.5431 64.9089 20.63 65.4005 20.9875 65.6497C22.2868 66.556 23.6644 67.3743 25.0826 68.0819C25.4013 68.7931 25.768 69.4816 26.1803 70.1412C24.9938 69.9911 23.8289 69.7099 22.701 69.2964C22.2917 69.1463 21.8387 69.3555 21.6883 69.764C21.5379 70.1726 21.7475 70.6248 22.1568 70.7749C23.8376 71.3914 25.5948 71.7409 27.3822 71.8221C28.0645 72.6577 28.83 73.4249 29.672 74.1011C29.8181 74.218 29.9925 74.2752 30.1663 74.2752C30.3968 74.2752 30.6255 74.1743 30.7814 73.9811C31.0545 73.6421 31.0009 73.1462 30.6612 72.8736C30.0122 72.3525 29.4125 71.7717 28.8676 71.1435C28.8868 71.1041 28.9022 71.0678 28.9151 71.037C29.5752 69.4742 30.4375 68.0025 31.4785 66.6624C31.7454 66.3185 31.6832 65.8238 31.3386 65.5574C30.9947 65.291 30.4991 65.3537 30.2316 65.6971C29.2658 66.9405 28.443 68.2892 27.7779 69.7148C27.2491 68.9279 26.7942 68.0899 26.4195 67.2168C27.0667 65.8269 27.8285 64.4844 28.6908 63.2187C28.9354 62.8594 28.8418 62.3697 28.4818 62.1248C28.1219 61.8799 27.6306 61.9734 27.3859 62.3334C26.7733 63.2329 26.2093 64.1693 25.6965 65.1329C25.4099 64.066 25.2385 62.9702 25.1911 61.8701C26.454 60.7232 27.651 59.4865 28.7512 58.1864C29.0322 57.8542 28.9903 57.357 28.6575 57.0765C28.3246 56.7959 27.8266 56.8377 27.5456 57.17C26.8275 58.0185 26.0645 58.8361 25.27 59.6212C25.3113 59.2687 25.3649 58.9174 25.4333 58.5685C25.5171 58.1421 25.2385 57.728 24.8108 57.6444C24.3837 57.5613 23.9688 57.8382 23.885 58.2652C23.7605 58.8977 23.6804 59.5376 23.6372 60.1793L21.8196 58.2301C21.5225 57.912 21.0233 57.8942 20.704 58.1907C20.3854 58.4873 20.3675 58.985 20.6646 59.3038L23.2002 62.0227Z" fill="#621055"/>
</g>
<defs>
<clipPath id="clip0_1107_4120">
<rect width="80.787" height="80.6452" fill="white" transform="translate(0.13623)"/>
</clipPath>
</defs>
</svg>
