<svg width="81" height="81" viewBox="0 0 81 81" fill="none" xmlns="http://www.w3.org/2000/svg">
<g clip-path="url(#clip0_1107_4130)">
<path d="M79.054 40.7728C77.5217 36.621 74.7192 32.933 71.1634 30.3882C70.1871 29.6899 69.1763 29.09 68.1383 28.5886C68.5316 25.786 68.9279 22.8905 68.7424 19.9766C68.5266 16.5938 67.5029 13.6651 65.7826 11.5061C63.1502 8.20392 59.0477 6.71127 55.3816 5.68745C40.3425 1.48636 24.0233 2.23023 9.42981 7.78184C6.89906 8.74475 4.31714 9.931 2.57409 12.0715C0.166599 15.0285 -0.071314 19.018 0.0137432 22.5306C0.169681 28.9946 1.41719 32.0402 2.48595 33.9722C4.5871 37.7678 8.25997 40.1471 11.9507 40.1465C12.111 40.1465 12.2724 40.1422 12.4327 40.1329C15.729 39.9459 18.3855 38.001 20.9544 36.1201C22.0731 35.3012 23.2214 34.4607 24.4103 33.779L24.7111 36.5594C24.713 36.5773 24.7185 36.5933 24.7216 36.6111C24.4948 36.6702 24.268 36.7416 24.0436 36.8308C21.8722 37.6983 20.5446 39.7232 20.6617 41.9892C20.6678 42.1043 20.6789 42.2187 20.6925 42.3325C18.3731 43.0376 16.2936 43.6985 14.1006 44.3956C13.287 44.654 12.458 44.9179 11.5938 45.1905C10.5842 45.5098 8.48309 46.1737 7.89632 47.9746C7.61403 48.8391 7.76134 49.7712 8.31113 50.5987C8.93426 51.5377 10.0104 52.2348 11.1328 52.4532C11.0792 52.5885 11.0607 52.7399 11.0909 52.8937L14.5172 70.4493L14.3976 70.4506C14.1073 70.4542 13.8423 70.6161 13.7079 70.8732C13.1853 71.8706 13.1853 73.0569 13.7067 74.2123C14.1684 75.2362 14.998 76.1234 15.9829 76.6457C17.4153 77.4056 19.0431 77.5508 20.5298 77.5508C21.0136 77.5508 21.4827 77.5354 21.9252 77.5207L59.5956 76.287C63.8676 76.1474 69.1849 75.9733 73.1918 72.9935C77.486 69.8002 79.0232 64.2818 79.8053 60.4093C81.3296 52.8623 81.0769 46.2561 79.054 40.7728ZM70.2438 31.6686C71.9252 32.8715 73.4119 34.3408 74.6544 35.9903C75.3115 36.8621 75.8761 37.7844 76.4086 38.7357C76.4887 38.879 76.5645 39.0236 76.6404 39.1682C74.1059 39.434 71.6855 40.5655 69.8598 42.3424C67.3278 38.9848 63.5884 36.9101 59.648 35.6968C59.481 35.6451 59.3134 35.5947 59.1457 35.5436C58.1207 35.2347 57.153 34.9425 56.3025 34.4423C55.2762 33.8387 54.6075 32.9872 54.4669 32.1061C54.348 31.3634 54.5107 30.7223 54.9643 30.1464C55.8143 29.0654 57.5253 28.4735 58.8437 28.3664C62.8297 28.0422 66.7719 29.1835 70.2438 31.6686ZM52.9082 32.354C52.955 32.6457 53.0376 32.9318 53.1498 33.2117C51.951 33.5249 50.7466 33.8418 49.5478 34.1599C49.3666 33.8627 49.162 33.5784 48.9327 33.312C47.0522 31.1278 44.0536 30.4288 41.293 31.532C38.6882 32.5725 37.0401 34.921 36.9883 37.5992C34.9285 38.1801 32.8507 38.775 30.7946 39.3718C30.601 38.9652 30.3576 38.5806 30.0599 38.2348C29.0811 37.0984 27.7189 36.4758 26.2804 36.4315C26.2798 36.4179 26.2816 36.4044 26.2798 36.3908L25.8551 32.4574C25.844 32.3546 25.8119 32.2574 25.7645 32.1688L25.7367 32.0439C25.4729 30.838 25.2819 29.9674 25.2665 28.7418C25.2566 27.9278 25.391 27.2097 25.6307 26.5606C27.7528 26.811 29.8706 26.9199 32.0057 26.9199C37.2225 26.9199 42.5405 26.2782 48.2491 25.506C51.4573 25.0729 55.0938 24.5807 58.5743 23.4984C62.0013 22.4327 64.8532 20.9038 67.072 18.9497C67.0905 19.1275 67.1072 19.3053 67.1189 19.4831C67.2095 20.8041 67.2304 22.119 67.1423 23.4436C67.1158 23.8442 66.5463 27.9056 66.6357 27.9401C64.0913 26.9692 61.4145 26.5766 58.7155 26.7963C57.1025 26.9273 54.9446 27.6207 53.723 29.1737C53.0037 30.088 52.722 31.1875 52.9082 32.354ZM48.2072 40.483C47.0534 42.3332 44.5898 43.3176 42.4757 42.7725C40.3623 42.2279 38.6833 40.176 38.5711 37.9992C38.4331 35.3387 40.1897 33.6695 41.8791 32.9945C43.5692 32.319 45.9958 32.3177 47.7357 34.3389C48.0094 34.657 48.2368 35.012 48.4193 35.391C48.4242 35.4021 48.4291 35.4138 48.4347 35.4249C49.1835 37.008 49.1324 38.9996 48.2072 40.483ZM9.99193 9.25358C24.2717 3.82133 40.2402 3.09346 54.9563 7.20472C58.379 8.16085 62.1954 9.53599 64.5474 12.4875C65.6211 13.8343 66.3441 15.4266 66.7509 17.0965C66.746 17.1008 66.7411 17.1039 66.7361 17.1082C64.6041 19.2321 61.7005 20.8761 58.1053 21.9947C54.7511 23.0376 51.1842 23.5199 48.0371 23.9451C40.3308 24.9874 33.3555 25.7884 26.4357 25.0661C27.261 23.9156 28.4222 22.9853 29.5884 22.05C29.5988 22.0556 29.6075 22.0623 29.6179 22.0679C31.2322 22.8234 33.0356 22.9834 34.7429 23.0437C35.3716 23.0659 35.9991 23.0769 36.6265 23.0769C42.1059 23.0769 47.5243 22.2309 52.7572 20.5555C54.2007 20.0935 55.8889 19.4936 57.4704 18.5454C58.0843 18.1775 58.8449 17.6521 59.2887 16.8454C59.9291 15.6807 59.7923 14.1069 58.9232 12.6339C57.5678 10.3377 55.0426 8.70291 51.2027 7.63541C47.6636 6.6522 43.6462 6.14152 38.5594 6.03016C30.585 5.85542 23.7891 6.68481 17.779 8.56509C15.496 9.27942 12.7138 10.4208 11.4564 12.9268C10.7969 14.2404 10.7125 15.8561 11.224 17.3604C11.5988 18.4624 12.2651 19.4167 13.1144 20.1002C12.4019 20.3636 11.7208 20.6952 11.086 21.1702C10.9726 21.2551 10.8709 21.3382 10.7766 21.4212C10.739 21.4046 10.7007 21.3874 10.6594 21.3763C7.31879 20.4669 4.425 18.0649 2.91925 14.9522C2.88226 14.8766 2.83296 14.8126 2.7781 14.7547C2.84467 14.628 2.91185 14.5019 2.9852 14.3782C4.59327 11.6722 7.10122 10.3537 9.99193 9.25358ZM37.6472 14.0835C37.4888 13.7623 37.1338 13.5882 36.7818 13.6596C31.9151 14.6501 27.0909 15.8481 22.324 17.2404C19.9109 17.9456 17.533 18.8795 15.1028 19.5077C15.088 19.5114 15.0726 19.5157 15.0578 19.5194C14.9887 19.4382 14.9031 19.3693 14.8007 19.3195C13.854 18.8611 13.0947 17.9622 12.7175 16.8547C12.3409 15.7459 12.3951 14.572 12.8666 13.6325C13.8583 11.6562 16.2652 10.6896 18.2511 10.0682C24.0942 8.24022 30.7255 7.43483 38.5243 7.60526C43.4761 7.71355 47.3702 8.20577 50.7793 9.15329C54.2062 10.1057 56.4257 11.5061 57.5635 13.4337C57.7823 13.8048 58.4535 15.0907 57.9056 16.0874C57.6455 16.5606 57.129 16.9131 56.6581 17.1949C55.2146 18.0606 53.6324 18.6217 52.2752 19.0561C46.617 20.8669 40.737 21.6796 34.7984 21.4698C33.3241 21.4175 32.0778 21.2951 30.9647 20.9136C31.1169 20.7801 31.2673 20.6454 31.414 20.5082C32.227 19.7477 32.9463 18.9294 33.8048 18.1861C35.0221 17.1328 36.2388 16.0794 37.4561 15.0267C37.7273 14.7917 37.8056 14.4047 37.6472 14.0835ZM3.8672 33.2099C2.00827 29.8523 1.67359 25.9084 1.591 22.493C1.54539 20.5974 1.54539 18.5485 2.04957 16.6572C3.79447 19.5779 6.6519 21.8212 9.91673 22.8025C9.91057 22.8327 9.90441 22.8634 9.89886 22.8942C9.81319 23.3889 9.85325 23.95 9.90009 24.6533C9.90749 24.7689 10.8178 38.4803 10.8178 38.4803C7.77736 37.9955 5.20593 35.6285 3.8672 33.2099ZM23.6411 28.7645C23.7416 29.8892 24.0214 32.1922 24.1404 32.1295C22.6858 32.9004 21.3341 33.8891 20.0219 34.8502C17.546 36.6622 15.2063 38.3745 12.4043 38.556L11.4743 24.5481C11.4391 24.0214 11.3997 23.4246 11.5975 22.9976C12.2003 21.6993 14.1326 21.6735 15.2285 21.1745C17.1706 20.2891 19.3759 19.7661 21.421 19.1515C23.5419 18.5141 25.6745 17.9154 27.8176 17.3574C28.8882 17.078 29.9619 16.8091 31.038 16.5501C31.7579 16.3766 33.5651 16.3089 34.1075 15.8395C34.1038 15.8425 27.0397 21.9559 27.0397 21.9559C26.3167 22.5816 25.497 23.2904 24.8985 24.1838C24.1108 25.3602 23.7182 26.7846 23.606 28.1849C23.6011 28.2502 23.6146 28.4655 23.6411 28.7645ZM24.6304 38.2933C25.8532 37.8047 27.6068 37.8023 28.8629 39.2617C29.891 40.4566 30.0377 42.3658 29.2037 43.7028C28.3698 45.0404 26.5885 45.7516 25.0606 45.3578C23.5327 44.9641 22.319 43.4813 22.2377 41.908C22.1385 39.9871 23.4088 38.7812 24.6304 38.2933ZM11.6832 50.9433C10.89 50.875 10.064 50.3871 9.62643 49.7288C9.42981 49.4322 9.23011 48.972 9.39653 48.4625C9.69238 47.5562 10.8561 47.0763 12.0703 46.6924C12.935 46.4192 13.7653 46.1552 14.5795 45.8962C16.7577 45.204 18.8237 44.5475 21.1209 43.8492C21.7828 45.3099 23.092 46.4776 24.6661 46.8831C25.084 46.9908 25.5112 47.0425 25.9383 47.0425C27.7609 47.0425 29.5692 46.0974 30.5437 44.5352C31.2223 43.4474 31.4528 42.1295 31.2581 40.8774C33.2156 40.3095 35.191 39.7435 37.1529 39.1897C37.7138 41.6108 39.6479 43.6702 42.0813 44.2977C42.612 44.4343 43.155 44.5002 43.6974 44.5002C46.013 44.5002 48.3095 43.2998 49.5472 41.3155C50.603 39.6229 50.8052 37.4922 50.2073 35.615C51.4819 35.2772 52.7627 34.9394 54.0324 34.609C54.4343 35.0582 54.928 35.4624 55.5012 35.7996C56.5151 36.3958 57.6202 36.7292 58.689 37.0517C58.8535 37.1015 59.0181 37.1513 59.1821 37.2018C63.3677 38.4926 66.301 40.2578 68.1494 42.599C69.5775 44.4079 70.3745 46.5342 70.7991 48.8588C69.5079 48.748 68.232 48.481 67.0005 48.0601C66.6788 47.95 66.3478 47.7869 65.9971 47.6134C65.1848 47.2129 64.2645 46.7588 63.1816 46.8702C61.2339 47.0702 60.1288 48.8501 59.24 50.28L59.065 50.5618C58.2964 51.7881 57.0143 52.8962 56.0146 52.4292C55.3822 52.1332 55.1098 51.3451 54.7948 50.432C54.5002 49.5786 54.1668 48.6114 53.4352 47.9106C52.7831 47.2849 51.8801 46.9637 50.8933 47.0062C49.6538 47.0591 48.3669 47.6805 47.5342 48.628C46.2509 50.0875 45.8189 52.0434 45.4379 53.7693L45.4059 53.9157C45.0422 55.5603 44.5905 57.2542 43.4422 58.31C42.4751 59.1978 41.0353 59.5338 39.7743 59.1634C38.5138 58.7936 37.4839 57.7347 37.1523 56.4654C36.9865 55.8329 36.9791 55.1481 36.9704 54.4233C36.9655 53.9526 36.96 53.4653 36.9094 52.9731C36.7276 51.1943 35.8616 49.8524 34.5938 49.3842C33.2384 48.884 31.7068 49.3959 30.042 50.9064L29.899 51.0368C28.9862 51.8674 28.0388 52.727 27.0262 52.6925C26.0819 52.6611 25.341 51.9105 24.4837 51.0411C23.7823 50.3299 23.0568 49.5946 22.1089 49.1572C20.1285 48.2429 17.8788 48.9867 16.3589 49.6254C16.1592 49.7097 15.9589 49.7958 15.7579 49.8826C14.3551 50.4874 13.0287 51.059 11.6832 50.9433ZM12.6392 52.5928C12.6336 52.5615 12.6219 52.5338 12.6127 52.5042C13.9415 52.3793 15.1792 51.8478 16.3842 51.3285C16.5808 51.2436 16.7768 51.1593 16.9715 51.0768C18.216 50.5538 20.0342 49.9342 21.4475 50.5871C22.1348 50.9045 22.7295 51.5075 23.3601 52.1462C24.3167 53.1158 25.4002 54.2147 26.9744 54.267C28.6305 54.3224 29.9243 53.146 30.9628 52.2009L31.104 52.0723C31.925 51.3272 33.1022 50.5132 34.0471 50.8615C34.86 51.1617 35.2483 52.2317 35.3402 53.1331C35.3833 53.5545 35.3883 53.9852 35.3932 54.4411C35.4024 55.2293 35.4117 56.0433 35.6262 56.8635C36.0952 58.6564 37.5492 60.1527 39.3305 60.6745C39.8112 60.816 40.3111 60.8843 40.811 60.8843C42.1614 60.8843 43.5143 60.3847 44.5109 59.4685C45.997 58.1039 46.5295 56.1448 46.9474 54.2553L46.9795 54.1083C47.3363 52.4926 47.7049 50.8221 48.7207 49.6666C49.2704 49.0415 50.15 48.6151 50.9611 48.58C51.3525 48.564 51.9091 48.6311 52.343 49.047C52.7997 49.4845 53.0444 50.1939 53.3033 50.9451C53.6805 52.0385 54.1082 53.2776 55.3459 53.856C57.2251 54.734 59.24 53.2537 60.4031 51.3974L60.5818 51.1107C61.3609 49.8555 62.1671 48.5579 63.3437 48.4373C63.9724 48.3733 64.6165 48.6902 65.2982 49.0261C65.6778 49.2138 66.0711 49.4076 66.4896 49.5509C67.9596 50.053 69.4875 50.3563 71.0321 50.456C71.3027 52.8716 71.2565 55.46 71.1511 58.1039C71.0099 61.6411 70.6814 65.2792 68.3935 67.4776C66.1389 69.6439 62.6848 69.8636 59.0452 69.9073L16.0926 70.4303C16.0963 70.3644 16.0951 70.2986 16.0821 70.2309L12.6392 52.5928ZM78.2583 60.098C77.0965 65.8495 75.187 69.5461 72.2488 71.7303C68.91 74.213 64.5197 74.5501 59.5433 74.7132L21.8734 75.9462C20.1754 76.0022 18.2505 76.0649 16.7232 75.2546C15.5595 74.6369 14.6627 73.2088 14.9499 72.0189L59.0643 71.4824C62.8753 71.4362 66.8193 71.176 69.4875 68.6121C72.197 66.0083 72.5742 62.0238 72.7277 58.166C72.7548 57.4867 72.7783 56.8075 72.7937 56.1282C72.8843 52.0557 72.8023 47.3636 70.7449 43.688C72.4664 41.9 74.8683 40.8079 77.351 40.6916C77.3541 40.6916 77.3566 40.691 77.359 40.6904C79.8818 46.6844 79.5181 53.8615 78.2583 60.098Z" fill="#621055"/>
</g>
<defs>
<clipPath id="clip0_1107_4130">
<rect width="80.787" height="80.6452" fill="white" transform="translate(0.177734)"/>
</clipPath>
</defs>
</svg>
