<svg width="37" height="34" viewBox="0 0 37 34" fill="none" xmlns="http://www.w3.org/2000/svg">
<path d="M28.8492 26.5654C27.6338 27.8337 25.3324 27.212 24.848 26.336C24.24 25.2369 22.5922 25.2805 21.5557 25.979C20.6047 26.6199 19.4952 27.2607 18.3857 27.2607C17.2762 27.2607 16.1667 26.6198 15.2157 25.979C14.1792 25.2805 12.5314 25.2375 11.9234 26.336C11.4384 27.212 9.13698 27.833 7.92223 26.5654C7.20899 25.8213 6.05829 25.5502 5.07178 25.8226V27.2594C5.07178 30.0921 7.34336 33.0529 10.145 33.0529H26.6263C29.4279 33.0529 31.6995 30.0921 31.6995 27.2594V25.8226C30.7132 25.5502 29.5625 25.8214 28.8492 26.5654Z" fill="#B52B65"/>
<path d="M34.4037 21.6204C33.8394 21.4717 33.324 21.1834 32.9131 20.7649C31.131 18.948 25.9671 14.4677 18.3858 14.4677C10.8045 14.4677 5.64064 18.948 3.85786 20.7649C3.4477 21.1833 2.93161 21.4717 2.36732 21.6204C1.00555 21.9799 0 23.2322 0 24.7216C0 25.0652 0.0532902 25.3959 0.152186 25.706C0.751952 27.5863 2.61589 28.0561 4.20274 26.9038C4.23506 26.8807 4.26803 26.857 4.30164 26.834C5.38324 26.0887 7.01132 26.2802 7.92235 27.2306C9.13768 28.4989 11.4391 27.8773 11.9235 27.0012C12.5315 25.9028 14.1793 25.9457 15.2159 26.6443C16.1668 27.2852 17.2764 27.926 18.3858 27.926C19.4953 27.926 20.6048 27.2851 21.5558 26.6443C22.5924 25.9457 24.2401 25.9027 24.8482 27.0012C25.3332 27.8773 27.6345 28.4983 28.8493 27.2306C29.7603 26.2802 31.3884 26.0886 32.47 26.834C32.5036 26.857 32.5366 26.8801 32.5689 26.9038C34.1564 28.0561 36.0198 27.5863 36.6195 25.706C36.7184 25.3958 36.7717 25.0651 36.7717 24.7216C36.7717 23.2322 35.7661 21.9799 34.4037 21.6204Z" fill="#F3B366"/>
<path d="M13.3139 19.5946C13.1515 19.5946 12.9892 19.5318 12.8656 19.4069C12.6177 19.1562 12.6177 18.7512 12.8656 18.5007L13.4997 17.8598C13.7469 17.6092 14.1488 17.6092 14.3961 17.8598C14.644 18.1104 14.644 18.5154 14.3961 18.7659L13.7621 19.4069C13.6385 19.5318 13.4762 19.5946 13.3139 19.5946Z" fill="#F4F4F4"/>
<path d="M20.9218 19.5946C20.7595 19.5946 20.5971 19.5318 20.4735 19.4069C20.2256 19.1562 20.2256 18.7512 20.4735 18.5007L21.1076 17.8598C21.3548 17.6092 21.7567 17.6092 22.004 17.8598C22.2519 18.1104 22.2519 18.5154 22.004 18.7659L21.37 19.4069C21.2464 19.5318 21.0841 19.5946 20.9218 19.5946Z" fill="#F4F4F4"/>
<path d="M17.7518 22.7989C17.5895 22.7989 17.4272 22.7361 17.3036 22.6112L16.6696 21.9703C16.4217 21.7197 16.4217 21.3147 16.6696 21.0641C16.9169 20.8135 17.3188 20.8135 17.566 21.0641L18.2001 21.705C18.448 21.9556 18.448 22.3607 18.2001 22.6112C18.0765 22.7361 17.9141 22.7989 17.7518 22.7989Z" fill="#F4F4F4"/>
<path d="M6.33998 22.7989C6.17767 22.7989 6.01535 22.7361 5.89175 22.6112C5.64383 22.3606 5.64383 21.9556 5.89175 21.705L6.52578 21.0641C6.77305 20.8135 7.17495 20.8135 7.42223 21.0641C7.67015 21.3147 7.67015 21.7198 7.42223 21.9703L6.7882 22.6112C6.6646 22.7361 6.50229 22.7989 6.33998 22.7989Z" fill="#F4F4F4"/>
<path d="M12.0458 24.0807C11.8835 24.0807 11.7212 24.0179 11.5976 23.8929L10.9635 23.252C10.7156 23.0014 10.7156 22.5964 10.9635 22.3459C11.2108 22.0952 11.6127 22.0952 11.86 22.3459L12.494 22.9868C12.7419 23.2374 12.7419 23.6424 12.494 23.8929C12.3704 24.0179 12.2081 24.0807 12.0458 24.0807Z" fill="#F4F4F4"/>
<path d="M28.5297 21.5172C28.3674 21.5172 28.2051 21.4544 28.0814 21.3295C27.8335 21.0789 27.8335 20.6738 28.0814 20.4233L28.7155 19.7824C28.9627 19.5318 29.3646 19.5318 29.6119 19.7824C29.8598 20.033 29.8598 20.438 29.6119 20.6886L28.9779 21.3295C28.8543 21.4545 28.692 21.5172 28.5297 21.5172Z" fill="#F4F4F4"/>
<path d="M24.7257 24.0807C24.5634 24.0807 24.4011 24.0179 24.2775 23.8929L23.6435 23.252C23.3955 23.0014 23.3955 22.5964 23.6435 22.3459C23.8907 22.0952 24.2926 22.0952 24.5399 22.3459L25.1739 22.9868C25.4219 23.2374 25.4219 23.6424 25.1739 23.8929C25.0503 24.0179 24.888 24.0807 24.7257 24.0807Z" fill="#F4F4F4"/>
<path d="M22.8237 13.0703C22.4737 13.0703 22.1897 12.7832 22.1897 12.4294V6.0206C22.1897 5.66683 22.4737 5.3797 22.8237 5.3797C23.1737 5.3797 23.4577 5.66683 23.4577 6.0206V12.4293C23.4577 12.7832 23.1737 13.0703 22.8237 13.0703Z" fill="#621055"/>
<path d="M13.9477 13.0703C13.5978 13.0703 13.3137 12.7832 13.3137 12.4294V6.0206C13.3137 5.66683 13.5978 5.3797 13.9477 5.3797C14.2977 5.3797 14.5818 5.66683 14.5818 6.0206V12.4293C14.5817 12.7832 14.2977 13.0703 13.9477 13.0703Z" fill="#621055"/>
<path d="M18.3857 6.66166C18.0358 6.66166 17.7517 6.37453 17.7517 6.02076V0.893769C17.7517 0.539996 18.0358 0.252869 18.3857 0.252869C18.7357 0.252869 19.0198 0.539996 19.0198 0.893769V6.02076C19.0198 6.37453 18.7357 6.66166 18.3857 6.66166Z" fill="#621055"/>
<path d="M16.5389 2.80911C16.2815 2.56945 16.3149 2.10893 16.6135 1.78118L17.6954 0.59375C17.994 0.266004 18.4453 0.194514 18.7027 0.434177C18.9601 0.673839 18.9267 1.13436 18.6281 1.4621L17.5462 2.64954C17.2475 2.9773 16.7963 3.04877 16.5389 2.80911Z" fill="#621055"/>
<path d="M15.6202 3.82547C15.3628 3.58581 15.3962 3.12529 15.6948 2.79754L16.7767 1.61011C17.0753 1.28236 17.5266 1.21087 17.784 1.45053C18.0414 1.6902 18.008 2.15071 17.7094 2.47846L16.6275 3.6659C16.3288 3.99366 15.8776 4.06513 15.6202 3.82547Z" fill="#621055"/>
<path d="M18.3733 10.6672C18.0233 10.6672 17.7393 10.38 17.7393 10.0262V3.61746C17.7393 3.26369 18.0233 2.97656 18.3733 2.97656C18.7233 2.97656 19.0073 3.26369 19.0073 3.61746V10.0262C19.0072 10.3801 18.7233 10.6672 18.3733 10.6672Z" fill="#621055"/>
</svg>
