<svg width="81" height="81" viewBox="0 0 81 81" fill="none" xmlns="http://www.w3.org/2000/svg">
<g clip-path="url(#clip0_1107_4110)">
<path d="M76.7525 64.085L75.4576 8.74358C75.3398 3.72049 73.709 0.789324 70.8645 0.489685C69.3199 0.327253 67.726 0.360478 66.1851 0.391857C65.4671 0.406623 64.7268 0.42262 64.0143 0.415852L13.8657 0.00177307C10.9898 -0.020992 7.75825 0.143286 5.80748 2.41734C4.0897 4.41944 4.13777 7.34814 4.16921 9.28625L5.13319 68.534C5.14983 69.5536 5.1751 71.0948 6.136 72.1826C6.88857 73.0335 7.93884 73.3461 9.01068 73.4649L8.84119 78.0499C8.82578 78.4701 8.79989 79.1728 9.22086 79.7419C9.82119 80.5534 10.8906 80.567 11.4046 80.5731L17.0529 80.6433C17.1133 80.6445 17.1805 80.6451 17.2538 80.6451C17.9787 80.6451 19.2946 80.5633 19.9227 79.5007C20.2444 78.9562 20.2462 78.355 20.2475 77.9157L20.2604 73.6562C23.0426 73.6771 25.828 73.6888 28.6157 73.6888C38.9619 73.6888 49.3345 73.5424 59.6474 73.255L59.6024 79.5302C59.5993 79.956 59.9359 80.3067 60.3618 80.3227L67.3648 80.5823C67.4665 80.586 67.5812 80.5903 67.7057 80.5903C68.1963 80.5903 68.8317 80.5239 69.3415 80.0975C70.139 79.4299 70.115 78.3532 70.1027 77.7748L69.9905 72.737C72.4467 72.3235 74.779 71.3791 75.958 69.1776C76.8333 67.5441 76.7883 65.6263 76.7525 64.085ZM7.00629 3.44177C8.43254 1.77868 11.0231 1.57503 13.43 1.57503C13.5717 1.57503 13.7129 1.57564 13.8528 1.57687L64.0014 1.99095C64.7342 1.99711 65.4886 1.98172 66.2178 1.96634C67.71 1.93558 69.2533 1.9042 70.6993 2.05617C73.3361 2.33366 73.8236 6.38832 73.8797 8.77989C73.9228 10.6183 73.966 12.4586 74.0091 14.3001C62.9961 14.9658 51.7642 14.7443 40.8966 14.5278C29.3997 14.2995 17.5195 14.0657 5.8383 14.8785C5.80748 13.0056 5.77728 11.1333 5.74708 9.26041C5.7101 7.01036 5.77913 4.87228 7.00629 3.44177ZM18.6696 77.9108C18.669 78.184 18.6677 78.5243 18.5636 78.7002C18.3602 79.0448 17.6169 79.0755 17.0732 79.0688L11.4243 78.9986C11.2265 78.9962 10.6249 78.9888 10.4906 78.8067C10.3969 78.6805 10.4104 78.3224 10.4184 78.1083L10.5867 73.5418C13.2808 73.5861 15.9798 73.6193 18.6825 73.6433L18.6696 77.9108ZM68.3276 78.8903C68.1544 79.0355 67.6976 79.0189 67.424 79.0085L61.1858 78.7771L61.2259 73.2114C63.0423 73.1578 64.8575 73.1018 66.6696 73.0397C67.2366 73.02 67.824 72.988 68.4169 72.9351L68.5248 77.8099C68.531 78.0788 68.5451 78.7088 68.3276 78.8903ZM74.5669 68.435C73.2405 70.9109 69.8031 71.3563 66.6153 71.4652C47.9558 72.1051 29.0293 72.2725 10.3617 71.963C9.17278 71.9433 7.95856 71.8639 7.3194 71.141C6.78749 70.538 6.7277 69.5517 6.71106 68.5082C6.65189 64.875 6.59272 61.2424 6.53355 57.6092C6.39055 48.8342 6.24818 40.0592 6.10518 31.2841C6.02444 26.341 5.94431 21.3985 5.86419 16.4554C17.5022 15.6402 29.3757 15.874 40.8652 16.1029C51.7445 16.3188 62.9881 16.5409 74.0461 15.8752C74.1632 20.894 74.2809 25.919 74.3987 30.9457C74.5996 39.5368 74.8005 48.1285 75.0015 56.7202C75.0594 59.1874 75.1167 61.6547 75.1753 64.1219C75.2086 65.5487 75.2468 67.1663 74.5669 68.435Z" fill="#621055"/>
<path d="M20.301 23.8254C21.0498 24.0973 21.816 24.1318 22.4915 24.1625C26.4997 24.3446 30.5343 24.4357 34.5708 24.4357C39.0561 24.4357 43.5438 24.3237 47.9982 24.0985C50.3748 23.9786 52.9758 23.8149 55.951 23.5977C56.6882 23.5442 57.6053 23.4771 58.4269 23.0673C59.818 22.3739 60.1145 21.2037 59.9277 20.3392C59.6812 19.1979 58.605 18.3654 57.3107 18.3156C55.6089 18.2497 53.8788 18.2454 52.2054 18.2417C51.3 18.2399 50.3631 18.2374 49.446 18.2257C43.9734 18.1538 38.4342 18.0879 32.9825 18.0301C29.8551 17.9969 26.7283 17.9655 23.6016 17.9366C22.5611 17.9273 21.2656 17.9144 20.1265 18.4885C18.5678 19.2742 18.0322 20.9096 18.4143 22.0361C18.6861 22.8366 19.3734 23.4882 20.301 23.8254ZM20.8378 19.895C21.5177 19.5523 22.3725 19.5092 23.1775 19.5092C23.3156 19.5092 23.4524 19.5104 23.5861 19.5117C26.7129 19.5406 29.8391 19.572 32.9652 19.6052C38.4157 19.663 43.9542 19.7289 49.425 19.8008C50.3508 19.8125 51.292 19.815 52.2017 19.8168C53.8609 19.8205 55.5763 19.8248 57.2497 19.8894C57.9196 19.9153 58.3079 20.3128 58.3856 20.6715C58.4663 21.048 58.2247 21.4073 57.7218 21.6584C57.1788 21.9291 56.4965 21.9789 55.8364 22.0269C52.8729 22.2429 50.283 22.4059 47.918 22.5253C39.5066 22.9504 30.9756 22.9714 22.563 22.5893C21.9731 22.5628 21.3629 22.5345 20.8409 22.345C20.3725 22.1752 20.0242 21.8706 19.909 21.531C19.7062 20.9342 20.2258 20.2032 20.8378 19.895Z" fill="#621055"/>
<path d="M15.8509 12.7952C16.7205 13.1767 17.5545 13.3681 18.3428 13.3681C18.6615 13.3681 18.9733 13.3367 19.2766 13.2739C20.717 12.9749 22.0052 11.8932 22.6382 10.4517C23.1966 9.17866 23.2644 7.66447 22.828 6.18843C22.3873 4.69516 21.2261 3.40617 19.798 2.82412C18.545 2.31282 17.2179 2.38666 16.0617 3.03085C14.5676 3.8627 13.3423 5.55162 12.9398 7.33407C12.6255 8.72398 12.8511 10.0487 13.5747 11.0645C14.0776 11.7708 14.8437 12.3529 15.8509 12.7952ZM14.4789 7.67986C14.7827 6.3361 15.7276 5.02003 16.8309 4.40599C17.7653 3.88546 18.6356 4.05097 19.2014 4.2817C19.3826 4.35553 19.557 4.44659 19.724 4.55119C19.1151 5.39965 18.5388 6.28195 18.0106 7.17964C17.7899 7.55434 17.9157 8.03733 18.2916 8.2576C18.4168 8.33082 18.5542 8.36589 18.6898 8.36589C18.9604 8.36589 19.2242 8.22683 19.3709 7.97703C19.8331 7.19133 20.3355 6.41793 20.8631 5.67037C21.0597 5.96816 21.2138 6.29303 21.3142 6.63328C21.6452 7.7543 21.6021 8.88579 21.1922 9.81916C20.7614 10.8018 19.904 11.5345 18.9548 11.7314C18.0537 11.9185 17.1144 11.6293 16.4857 11.353C15.743 11.0269 15.1957 10.6227 14.8604 10.1514C14.2705 9.32325 14.3272 8.3505 14.4789 7.67986Z" fill="#621055"/>
<path d="M37.1023 12.7952C37.964 13.1729 38.8158 13.3655 39.6103 13.3655C39.9264 13.3655 40.2334 13.3348 40.528 13.2738C41.9684 12.9748 43.2566 11.8932 43.8896 10.451C44.448 9.17858 44.5158 7.66439 44.0801 6.18835C43.6394 4.69508 42.4782 3.40608 41.0494 2.82342C39.7964 2.31274 38.4694 2.38657 37.3137 3.03015C35.8197 3.86262 34.5944 5.55154 34.1913 7.33337C33.8775 8.72389 34.1025 10.0486 34.8261 11.0644C35.3291 11.7707 36.0952 12.3528 37.1023 12.7952ZM35.7303 7.67977C35.8363 7.21155 36.0212 6.74763 36.2622 6.3151C36.7516 6.73656 37.2139 7.19186 37.6379 7.67731C37.7939 7.85574 38.0127 7.9468 38.2327 7.9468C38.4164 7.9468 38.6013 7.88343 38.7504 7.75299C39.079 7.46689 39.1129 6.96975 38.8269 6.64181C38.3326 6.07637 37.7914 5.54723 37.2182 5.05994C37.4875 4.79845 37.7784 4.57449 38.0823 4.4059C39.0161 3.88538 39.887 4.05089 40.4528 4.28162C41.4482 4.6877 42.2581 5.58846 42.5663 6.63319C42.8973 7.75422 42.8535 8.88571 42.4443 9.81908C42.0128 10.8017 41.1561 11.5345 40.2069 11.7314C39.3058 11.9184 38.3665 11.6292 37.7378 11.353C36.9951 11.0269 36.4477 10.6226 36.1124 10.1513C35.522 9.32317 35.5793 8.35042 35.7303 7.67977Z" fill="#621055"/>
<path d="M59.709 12.7952C60.5701 13.1729 61.4213 13.3655 62.2164 13.3655C62.5319 13.3655 62.8389 13.3348 63.1341 13.2738C64.5745 12.9748 65.8627 11.8932 66.4957 10.451C67.0541 9.17797 67.1219 7.66378 66.6862 6.18773C66.2455 4.69508 65.0843 3.40547 63.6555 2.82342C62.4025 2.31274 61.0755 2.38657 59.9198 3.03015C58.4258 3.86262 57.2004 5.55154 56.7973 7.33337C56.4836 8.72328 56.7092 10.0486 57.4322 11.0644C57.9358 11.7707 58.7013 12.3528 59.709 12.7952ZM58.337 7.67977C58.6403 6.33602 59.5857 5.01995 60.6884 4.4059C61.6228 3.88538 62.4931 4.05089 63.0589 4.28162C63.4367 4.43544 63.7874 4.66124 64.095 4.93934L61.5957 7.9105C61.3159 8.24336 61.359 8.73989 61.6931 9.01984C61.8404 9.14351 62.0204 9.20442 62.1997 9.20442C62.4247 9.20442 62.6484 9.10844 62.8044 8.92324L65.0405 6.26464C65.091 6.38524 65.1354 6.50829 65.1724 6.63319C65.5034 7.75422 65.4602 8.88571 65.0504 9.81908C64.6195 10.8017 63.7616 11.5345 62.813 11.7314C61.9119 11.9184 60.9725 11.6286 60.3439 11.353C59.6012 11.0269 59.0544 10.6226 58.7185 10.1513C58.1287 9.32317 58.1854 8.35042 58.337 7.67977Z" fill="#621055"/>
<path d="M70.579 29.3964C70.4533 28.2453 70.2536 27.0541 69.3309 26.2475C68.4365 25.4661 67.2088 25.407 66.3964 25.3683C48.6694 24.5198 30.7131 25.8808 13.3479 27.1968C12.5115 27.2602 9.96593 27.4528 9.31444 29.4857C8.88669 30.8183 8.86882 32.3535 8.85217 33.8381C8.84539 34.4355 8.83861 34.9997 8.80472 35.5203C8.53229 39.7171 8.32088 43.9809 8.17665 48.1931C8.09652 50.5286 8.0355 52.8913 7.99544 55.2164C7.94305 58.235 7.93874 60.9582 8.41579 63.7152C8.62597 64.9291 8.9699 66.3141 9.92525 67.3779C11.219 68.8183 13.1667 69.2059 15.0792 69.4096C18.0494 69.7258 21.0511 69.807 24.0225 69.807C25.6084 69.807 27.1857 69.7836 28.7438 69.7609C40.7776 69.5843 53.2212 69.4016 65.4441 68.5839C67.2753 68.4614 69.0326 68.2596 70.4144 67.1521C72.1815 65.7351 72.6062 63.3639 72.7714 61.7033C73.0506 58.9031 72.8971 56.1215 72.6839 53.0371C72.1408 45.1807 71.4327 37.227 70.579 29.3964ZM71.2009 61.5476C70.9827 63.7373 70.4187 65.1285 69.4264 65.924C68.4008 66.746 66.9684 66.9029 65.3387 67.0124C53.1565 67.8271 40.7338 68.0098 28.721 68.1864C24.2894 68.2516 19.7068 68.3187 15.2463 67.8437C13.6474 67.6733 12.0381 67.3712 11.1 66.327C10.4116 65.5598 10.1428 64.4406 9.97086 63.4469C9.51661 60.8259 9.52215 58.1814 9.57269 55.2435C9.61337 52.9276 9.67378 50.5736 9.75329 48.2466C9.89751 44.0504 10.1083 39.8032 10.3795 35.6224C10.4159 35.0594 10.4226 34.4749 10.4294 33.856C10.4455 32.4882 10.4615 31.0731 10.8165 29.9662C11.0409 29.2685 11.8828 28.8876 13.4674 28.7676C30.7846 27.4553 48.6916 26.098 66.3212 26.9421C67.1064 26.9797 67.8479 27.0455 68.2911 27.4325C68.7879 27.8663 68.9148 28.6895 69.0104 29.5675C69.8622 37.3772 70.5685 45.3099 71.1097 53.146C71.318 56.1578 71.4684 58.8687 71.2009 61.5476Z" fill="#621055"/>
<path d="M69.3439 53.6051C68.3288 52.991 67.0856 53.0212 65.9891 53.0476C65.6963 53.055 65.419 53.0611 65.1687 53.055C64.0223 53.0255 62.8765 52.9953 61.7301 52.9646L61.0847 52.9479L60.5436 52.9332C59.9741 52.9184 59.3959 52.903 58.8141 52.8883L61.6949 45.4613C61.7899 45.217 61.7566 44.9414 61.6062 44.726C61.4971 44.5698 61.3387 44.4615 61.1575 44.4147C62.5899 42.5135 63.025 39.8346 62.1023 37.6313C61.78 36.861 61.1643 35.8359 60.0622 35.3271C59.1001 34.8829 58.0837 34.9592 57.0408 35.0841C56.3148 35.1714 55.132 35.3136 54.1674 35.9178C53.8235 35.1591 53.384 34.3697 52.743 33.7286C51.5583 32.5436 49.8017 32.0089 48.1554 32.3332C47.0072 32.5596 45.9674 33.194 45.2247 34.0824C44.1158 32.5362 42.199 31.5561 40.2895 31.6779C38.3985 31.7985 36.6413 32.9897 35.7297 34.6362C34.8126 33.6671 33.5971 32.9805 32.2837 32.7202C30.4654 32.3603 28.5097 32.8272 27.0514 33.9686C26.3993 34.4799 25.7595 35.2496 25.4859 36.1479C23.8611 35.6071 21.9172 36.2371 20.6284 37.3298C19.2841 38.4687 18.4008 40.061 18.2042 41.6983C18.0206 43.2248 18.46 44.7968 19.3636 45.9603C19.3112 46.0027 19.2607 46.0495 19.2132 46.1042C18.8261 46.5485 18.8002 47.1477 19.1355 47.8855C19.9282 49.6298 20.788 51.3648 21.691 53.0611C21.0925 53.0845 20.486 53.1024 19.8937 53.1202C17.3906 53.1947 14.8026 53.2716 12.3365 53.7423C11.8533 53.8339 10.848 54.0259 10.2841 54.8184C9.5321 55.876 10.0184 57.3004 10.9004 58.0141C11.6776 58.6435 12.641 58.8213 13.5668 58.9204C15.1083 59.0853 16.6757 59.0921 18.076 59.0921H18.2776C34.7158 59.0884 51.3716 58.6232 67.7833 57.7102C68.399 57.6763 69.6792 57.6049 70.2876 56.5799C70.9206 55.513 70.3085 54.1791 69.3439 53.6051ZM19.771 41.8853C19.9202 40.6382 20.6056 39.415 21.6497 38.5296C23.1049 37.296 24.8276 37.3021 25.651 38.022C25.9031 38.2417 26.2674 38.2792 26.5589 38.1143C26.8511 37.9494 27.0064 37.6178 26.9466 37.2886C26.8018 36.4894 27.4372 35.668 28.0252 35.2077C29.1267 34.3457 30.6035 33.9932 31.9767 34.2651C33.3493 34.5371 34.5796 35.4256 35.2681 36.6419C35.4295 36.9274 35.7519 37.0831 36.0755 37.0326C36.4003 36.9822 36.6598 36.7367 36.727 36.4161C37.0838 34.7211 38.6586 33.3601 40.39 33.2493C42.1195 33.138 43.8564 34.2891 44.4265 35.9252C44.5343 36.2334 44.821 36.4438 45.1482 36.4537C45.4761 36.4654 45.7745 36.2703 45.9002 35.9688C46.3378 34.9192 47.3431 34.0984 48.4605 33.8781C49.5798 33.6579 50.8212 34.0356 51.6261 34.841C52.3417 35.5572 52.7639 36.61 53.1368 37.539C53.2441 37.8067 53.4888 37.9943 53.7748 38.0288C54.062 38.0626 54.3437 37.9383 54.5113 37.7039C55.0377 36.9674 56.1903 36.7724 57.2294 36.6475C58.0695 36.5466 58.8122 36.4851 59.3996 36.7564C59.9001 36.9877 60.3433 37.5138 60.6465 38.2386C61.5341 40.3582 60.7846 43.0519 58.9417 44.4239L34.6005 44.8448C30.1591 44.9211 25.5746 45.0011 21.0604 45.5222C21.0265 45.4656 20.9871 45.4108 20.9372 45.3628C20.0619 44.515 19.6151 43.1823 19.771 41.8853ZM20.5439 47.1705C25.203 46.5829 29.9939 46.4999 34.6283 46.4199L59.8003 45.9843L57.1388 52.8452C55.2066 52.796 53.2361 52.7492 51.2878 52.7098C43.9605 52.5615 38.3079 52.5462 32.961 52.6612C29.7991 52.7289 26.6015 52.839 23.4371 52.9836C22.4189 51.1089 21.4549 49.1757 20.5723 47.2345C20.5618 47.2111 20.5525 47.1902 20.5439 47.1705ZM68.9303 55.777C68.751 56.0785 67.9842 56.1209 67.6958 56.1369C51.313 57.0487 34.6862 57.5127 18.2776 57.5163C16.8649 57.5163 15.2673 57.5176 13.735 57.3539C13.0503 57.2807 12.3532 57.1613 11.894 56.7897C11.5488 56.5104 11.3886 55.9855 11.5704 55.7296C11.7436 55.4866 12.2046 55.3703 12.6324 55.2884C14.9751 54.8418 17.4997 54.7667 19.9405 54.6941C20.7818 54.6689 21.6515 54.643 22.4965 54.6024C25.9765 54.4338 29.5082 54.3108 32.9949 54.2357C35.3358 54.1859 37.7359 54.16 40.3111 54.16C43.5944 54.16 47.1625 54.2013 51.2557 54.2843C54.3615 54.3471 57.5265 54.4289 60.5017 54.5077L61.6882 54.539C62.8346 54.5692 63.981 54.5999 65.128 54.6295C65.4183 54.6369 65.7278 54.6295 66.0273 54.6221C66.9512 54.5999 67.906 54.5766 68.5316 54.9543C68.8434 55.1408 69.0524 55.5709 68.9303 55.777Z" fill="#621055"/>
</g>
<defs>
<clipPath id="clip0_1107_4110">
<rect width="80.787" height="80.6452" fill="white" transform="translate(0.057373)"/>
</clipPath>
</defs>
</svg>
