<svg width="110" height="110" viewBox="0 0 110 110" fill="none" xmlns="http://www.w3.org/2000/svg">
<circle cx="60" cy="50" r="50" fill="#F4F4F4"/>
<path d="M99.5574 69.3589C97.589 68.0725 95.7289 66.9579 93.9307 65.8798C92.1599 64.8178 90.3288 63.72 88.4062 62.4649L88.1873 50.7774C88.1804 50.3891 87.9431 50.0412 87.5838 49.8932L69.763 42.5301C70.2483 42.3706 70.6984 42.2287 71.1386 42.0898C72.0084 41.8152 72.9071 41.5321 74.0637 41.1179C74.4315 40.9866 74.6848 40.6486 74.7092 40.2588L75.8498 21.7209C75.8757 21.2997 75.6277 20.9091 75.2348 20.7535L54.6332 12.5747C53.0813 11.9583 51.3228 11.261 49.423 11.3807C47.6957 11.4898 46.1577 12.2612 44.8004 12.9425L7.48041 31.665C7.12182 31.8443 6.90973 32.225 6.94559 32.6248L8.76825 53.0151C8.80029 53.376 9.02917 53.6888 9.36334 53.8284L27.2322 61.3274C28.8732 62.0163 30.7333 62.7968 32.7307 62.8601C32.8245 62.8632 32.9176 62.8647 33.0107 62.8647C36.1212 62.8647 38.8159 61.2183 41.4793 59.2377L42.2216 62.2147C42.1911 62.2276 42.1599 62.2368 42.1301 62.2528L24.745 71.4539C24.5832 71.5393 24.4581 71.666 24.3696 71.8125L9.15353 62.8449C8.87659 62.6816 8.58743 62.5 8.28073 62.3093C6.83267 61.4044 5.19159 60.3783 3.40859 60.2806C2.14211 60.2104 1.36544 60.7552 0.937431 61.2229C0.172202 62.0598 -0.146707 63.3705 0.0631021 64.8201C0.417869 67.2737 2.23596 69.0811 3.96783 70.5246C7.6452 73.5901 11.9177 75.9407 16.4656 77.4498L7.17523 83.9806C6.9227 84.1584 6.76858 84.4452 6.76095 84.755C6.75256 85.064 6.89218 85.3585 7.13556 85.5492C14.105 90.9913 21.594 95.8619 28.8359 100.572C32.1684 102.739 35.6146 104.98 38.9647 107.248C39.7947 107.81 40.8278 108.508 42.0591 108.688C42.2766 108.72 42.491 108.735 42.7038 108.735C44.3686 108.735 45.8799 107.836 46.9206 107.218C54.0167 103.001 61.1288 98.478 68.0586 93.7729C69.7722 92.6095 71.5186 91.4391 73.2069 90.3069C78.237 86.9355 83.438 83.4496 88.4146 79.7188C88.6885 79.5136 88.9624 79.3084 89.2355 79.1024C92.7405 76.458 96.2416 73.7099 99.6413 70.9328C99.8824 70.736 100.015 70.4354 99.9983 70.1248C99.9816 69.8136 99.8183 69.529 99.5574 69.3589ZM86.4958 64.7522C86.5118 65.5945 86.5279 66.4658 86.2158 67.1532C85.8229 68.0207 84.8952 68.6402 83.8126 69.3024L66.49 79.9057C65.8072 80.3231 65.1648 80.6954 64.5445 80.9113L64.3454 61.5524L86.2624 52.2789L86.4958 64.7522ZM84.7052 50.8171L63.4611 59.8061C63.333 59.8602 63.2231 59.9388 63.1338 60.0342L43.0838 51.5335C43.3531 51.3619 43.6575 51.2016 43.9711 51.0422L62.5273 41.6542L84.7052 50.8171ZM45.7106 35.8505C47.1365 35.0349 48.6937 34.388 50.1738 33.6899C53.8496 31.9557 57.5545 30.2757 61.2829 28.6476L60.5765 40.4793C60.0065 40.744 59.4443 41.0248 58.8827 41.3086C55.2672 43.1381 51.6516 44.9676 48.0353 46.7972C47.1403 47.2504 46.234 47.6799 45.3375 48.1255L45.7106 35.8505ZM72.7995 39.492C71.9557 39.7842 71.2439 40.0085 70.5519 40.2267C69.6822 40.5006 68.7834 40.7844 67.6276 41.1987C67.4635 41.2567 67.3285 41.3574 67.2224 41.4802C66.0818 41.0095 64.942 40.538 63.8014 40.0673C63.4558 39.9239 62.9957 39.6568 62.5853 39.6141L63.291 27.7778C66.7723 26.2802 70.2719 24.826 73.7883 23.4253L72.7995 39.492ZM45.6762 14.6881C46.9252 14.0617 48.2161 13.414 49.5466 13.3293C51.0092 13.2377 52.5519 13.8496 53.9122 14.3898L72.5859 21.8033C71.7192 22.1496 70.8533 22.4991 69.9881 22.8515C67.9503 23.6824 65.9178 24.5353 63.8876 25.4013C62.7852 24.266 61.228 23.793 59.9646 23.4108C53.6787 21.5103 47.4104 19.3153 41.3 16.8838C42.758 16.1522 44.2152 15.4205 45.6762 14.6881ZM26.2075 24.4552C29.347 22.8798 32.4865 21.3051 35.626 19.7304C36.7415 19.1704 37.8538 18.6119 38.9669 18.0534C45.6343 20.7649 52.5076 23.1972 59.3985 25.2807C60.269 25.544 61.1609 25.8148 61.8674 26.2649C56.0019 28.8017 50.1852 31.4804 44.4586 34.272C44.4464 34.2674 44.4357 34.2605 44.4235 34.256C36.9543 31.6223 29.3104 29.1916 21.6787 27.0157C21.8405 26.9142 22.0007 26.8097 22.1556 26.7006C23.422 25.8072 24.8106 25.1564 26.2075 24.4552ZM14.8397 30.1582C16.2206 29.4655 17.7664 28.9131 19.2419 28.2684C19.3426 28.3516 19.4609 28.4157 19.5944 28.453C27.0986 30.558 34.6243 32.9208 41.9981 35.4797C41.0284 35.9604 40.0587 36.441 39.0951 36.9278C38.1666 37.397 37.2397 37.8693 36.315 38.3453C35.8946 38.562 34.107 39.8262 33.7027 39.7018L10.2278 32.4715C11.7651 31.7001 13.3024 30.9296 14.8397 30.1582ZM32.5972 46.3882C32.5804 47.9378 32.5644 49.4873 32.5483 51.0368C32.527 53.006 32.4453 54.9805 32.4156 56.9534C32.4034 57.7171 32.4018 58.4793 32.4118 59.2415C30.6753 55.5786 28.6566 52.0515 26.3784 48.7C28.4262 46.7033 30.554 44.7472 32.7177 42.8657C32.8077 44.0079 32.6086 45.2896 32.5972 46.3882ZM10.5665 50.7912C10.5039 49.5102 10.4643 48.2544 10.1881 46.965C9.97064 45.9473 9.99582 44.8105 9.90274 43.7729C9.70056 41.5054 9.74558 39.2303 9.53653 36.985L15.9674 46.0129L10.5665 50.7912ZM17.4391 44.7113L10.1194 34.436C10.3483 34.5276 10.5482 34.6138 10.6298 34.639C11.5881 34.9342 12.5463 35.2295 13.5046 35.5247C16.1566 36.3411 18.8078 37.1574 21.4598 37.9745C23.9996 38.7566 26.5402 39.5393 29.0808 40.3221C29.6873 40.509 30.8516 40.7524 31.6801 41.1789C29.4859 43.0801 27.3268 45.0584 25.2455 47.0795C24.4612 45.9854 23.6502 44.9097 22.8109 43.8568C22.5416 43.5196 22.0907 42.9543 21.3774 42.7399C20.0994 42.3569 19.0222 43.3098 18.5621 43.7172L17.4391 44.7113ZM11.4744 52.5963L19.8561 45.1805C20.5091 44.6022 20.7441 44.59 20.8158 44.6106C20.9448 44.6495 21.1744 44.9371 21.2843 45.0752C25.099 49.8581 28.3339 55.0926 30.9095 60.6415C29.8994 60.3714 28.903 59.9106 27.9882 59.5268C27.9867 59.5261 14.8962 54.0329 11.4744 52.5963ZM40.3662 51.7281C39.8947 52.8847 40.1953 54.0886 40.4142 54.9683L40.9659 57.1793C38.8006 58.8287 36.6552 60.3088 34.3985 60.7659L34.6022 41.4352C34.6045 41.201 36.9123 40.2344 37.203 40.0848C38.1231 39.611 39.0463 39.1411 39.9702 38.6742C41.1787 38.063 42.5009 37.6022 43.7216 37.0003L43.3523 49.1646C42.1827 49.8016 40.9002 50.4211 40.3662 51.7281ZM42.0775 53.228L62.3953 61.8424L62.5914 80.9395V80.9418C62.0276 80.7465 61.4691 80.41 60.9587 80.0995C59.5625 79.2504 58.1473 78.3738 56.7785 77.5261C54.0106 75.811 51.148 74.038 48.2748 72.3877C46.9061 71.6019 46.5384 71.3906 46.1714 69.9814C45.7548 68.3846 45.3535 66.7504 44.9659 65.1703C44.7676 64.3631 44.5692 63.5567 44.3678 62.751L42.3094 54.4952C42.1949 54.0352 42.0996 53.6087 42.0775 53.228ZM5.21829 69.0239C3.77099 67.8177 2.25579 66.3414 1.99563 64.5409C1.87356 63.6986 2.02081 62.9326 2.37863 62.542C2.50451 62.4047 2.72271 62.2284 3.19116 62.2284C3.22701 62.2284 3.26364 62.2292 3.30178 62.2315C4.58276 62.3017 5.99801 63.1859 7.24618 63.9656C7.56357 64.164 7.86264 64.3517 8.16171 64.5271L55.9096 92.6667C50.2035 93.8256 44.2556 93.7966 38.5649 92.5675C34.133 91.6108 31.1201 90.0139 29.3539 87.6877C27.3313 85.0243 26.9216 81.3988 26.5608 78.1998C26.5081 77.7344 26.132 77.3728 25.6658 77.3362C18.218 76.7594 10.9564 73.8076 5.21829 69.0239ZM88.0591 77.5429C87.7875 77.7474 87.5159 77.9526 87.2435 78.1563C82.3081 81.8558 77.1284 85.3279 72.119 88.6849C70.4283 89.8186 68.6796 90.9905 66.9615 92.157C60.0638 96.8407 52.986 101.343 45.9219 105.539C44.6837 106.275 43.4782 106.922 42.3422 106.756C41.5518 106.641 40.7927 106.127 40.0595 105.631C36.6941 103.352 33.2403 101.106 29.9009 98.935C23.0551 94.4825 15.988 89.8865 9.38089 84.8168L18.6277 78.3173C18.6987 78.2677 18.7567 78.209 18.8101 78.1456C20.7456 78.6545 22.7201 79.0146 24.7099 79.2122C25.0746 82.3372 25.6369 86.0215 27.7983 88.8688C29.8582 91.5825 33.2449 93.4166 38.1521 94.4764C41.21 95.1363 44.338 95.4659 47.4669 95.4659C51.2716 95.4659 55.0772 94.9784 58.7546 94.0072C59.136 93.9064 59.4191 93.5875 59.4725 93.1969C59.5267 92.8063 59.3405 92.4218 59.001 92.2219L26.2022 72.892L42.7046 64.1586C42.8259 64.6515 42.948 65.1436 43.0693 65.6365C43.4591 67.2226 43.862 68.8637 44.2816 70.4743C44.8301 72.5777 45.6946 73.1575 47.3021 74.0815C50.1471 75.7157 52.9959 77.4803 55.7509 79.187C57.1226 80.037 58.5417 80.9159 59.944 81.7688C60.8092 82.2945 61.8857 82.9491 63.143 83.0498C63.259 83.059 63.3742 83.0635 63.4878 83.0635C65.0717 83.0635 66.4702 82.2083 67.5093 81.5712L84.8326 70.9687C85.8832 70.3255 87.3229 69.4443 87.995 67.9596C88.4718 66.9083 88.4673 65.7585 88.4505 64.8155C89.9977 65.7982 91.4824 66.6893 92.9267 67.5553C94.3602 68.4143 95.8327 69.2978 97.3624 70.2683C94.3114 72.7402 91.1871 75.1839 88.0591 77.5429Z" fill="#B52B65"/>
</svg>
