<svg width="109" height="110" viewBox="0 0 109 110" fill="none" xmlns="http://www.w3.org/2000/svg">
<circle cx="50" cy="50" r="50" fill="#F4F4F4"/>
<g clip-path="url(#clip0_1636_1202)">
<path d="M20.6096 58.2491C25.9159 61.0384 32.6114 61.2497 38.0832 58.7999C38.4639 58.6298 38.8416 58.4467 39.2063 58.2689C40.2935 57.7417 41.3204 57.2427 42.4007 57.0764C45.0847 56.6614 47.7131 58.3002 50.1537 60.1343L50.4101 60.3265C52.8667 62.1752 55.6507 64.2702 58.9702 64.3541C59.0397 64.3556 59.1091 64.3564 59.1785 64.3564C62.553 64.3564 65.4545 62.2865 68.0202 60.4562L68.2957 60.2602C70.7722 58.4963 73.6805 56.7766 76.4782 57.3999C77.9339 57.7242 79.1965 58.6458 80.534 59.6208C81.554 60.3639 82.6084 61.133 83.8085 61.6739C87.4058 63.2944 92.0276 62.623 95.8698 59.9222C98.8911 57.7982 101.604 54.6304 102.95 51.6565C103.29 50.9042 103.678 50.1726 104.088 49.3982C105.387 46.9469 106.729 44.4124 106.433 41.3171C106.188 38.7628 104.862 36.5404 103.692 34.5796L99.2985 27.2142C98.7102 26.2285 98.0434 25.1108 96.9967 24.3005C95.306 22.9906 93.343 23.1683 91.6103 23.3263C91.1625 23.3667 90.7352 23.4041 90.3225 23.4186C88.8836 20.9489 86.8557 19.0935 84.5165 18.1291C81.4205 16.8542 77.7775 17.3334 75.4528 19.3208C74.2588 20.3409 73.3333 21.7821 72.7421 23.5239L67.918 24.0152C67.4404 23.0554 66.8804 22.1963 66.238 21.4456C64.2559 19.1316 61.4712 17.8743 58.7864 18.081C56.3266 18.2725 53.0018 19.9327 51.0471 24.019C50.9319 24.2601 50.8213 24.508 50.716 24.7606C50.6466 24.7491 50.5748 24.743 50.5016 24.7461C50.011 24.7705 49.3229 24.7461 48.6576 24.7232C48.1167 24.7041 47.5628 24.6858 47.0752 24.6896C47.0607 24.6301 47.0493 24.5691 47.034 24.5096C46.4817 22.3215 45.4433 20.5278 44.0311 19.3208C41.7057 17.3334 38.0634 16.8542 34.9659 18.1291C32.4291 19.1751 30.2585 21.2717 28.8074 24.0617L25.0827 23.797C24.744 23.771 24.4182 23.9259 24.2199 24.2013L10.4137 43.4229C10.2588 43.6388 10.1986 43.9081 10.2466 44.1698C11.3323 50.065 15.3034 55.4605 20.6096 58.2491ZM102.362 48.4842C101.956 49.251 101.536 50.0436 101.171 50.8516C99.9607 53.5257 97.4987 56.389 94.7468 58.3238C90.8253 61.0811 86.9396 60.9422 84.6111 59.8932C83.5956 59.4354 82.6671 58.7587 81.6845 58.0423C80.2448 56.9925 78.7556 55.9068 76.9031 55.4941C73.3585 54.7044 69.9901 56.656 67.1627 58.6694L66.8865 58.8663C64.4008 60.6394 61.8351 62.4727 59.0206 62.401C56.3259 62.3331 53.9158 60.5196 51.585 58.7663L51.3271 58.5726C48.6782 56.5828 45.5112 54.6182 42.1024 55.1462C40.7322 55.3583 39.5229 55.945 38.3533 56.5118C37.9863 56.6904 37.6384 56.859 37.2852 57.0177C32.3475 59.2272 26.3057 59.0364 21.5183 56.5202C17.3244 54.3161 14.056 50.3076 12.6506 45.7719C27.5669 50.3359 43.2148 52.6201 58.8657 52.6201C73.9635 52.6201 89.0636 50.4923 103.495 46.2366C103.157 46.9827 102.764 47.7266 102.362 48.4842ZM90.4941 29.8494C90.5826 29.8753 90.6719 29.899 90.7596 29.9287C90.8268 29.9509 90.8924 29.9776 90.9588 30.0012C91.045 30.0333 91.1327 30.063 91.2189 30.0973C91.2281 30.1019 91.2372 30.1057 91.2464 30.1096C93.4795 31.0289 95.3907 32.9622 96.6274 35.5524C96.6999 35.7057 96.7785 35.8667 96.8594 36.0345C97.533 37.4216 98.4539 39.3205 98.3181 40.6122C98.2693 41.0776 97.7673 42.0503 94.9535 43.3351C91.637 44.8488 87.772 44.7649 84.7759 44.5215C83.5903 44.4254 82.4749 44.285 81.8584 43.6281C81.1924 42.9163 81.1878 41.6483 81.2397 40.4108C81.3045 38.8643 81.3724 37.2652 81.6776 35.7645C81.7203 35.5638 81.7654 35.3632 81.8157 35.164C82.1339 33.9113 82.8045 32.168 84.1961 30.9808C84.3067 30.8862 84.4219 30.7962 84.5409 30.7107C84.5829 30.6802 84.6279 30.6535 84.6706 30.6245C84.7492 30.5711 84.8263 30.517 84.9079 30.4674C84.9628 30.4346 85.0201 30.4056 85.0765 30.3743C85.149 30.3331 85.2207 30.2904 85.2955 30.2522C85.3512 30.224 85.4091 30.2003 85.4656 30.1736C85.5442 30.137 85.6212 30.0989 85.7014 30.0653C85.757 30.0417 85.8158 30.0218 85.873 30.0005C85.9562 29.9684 86.0386 29.9348 86.1225 29.9058C86.1812 29.8868 86.2408 29.8708 86.3003 29.8532C86.3857 29.8265 86.4712 29.7983 86.5589 29.7754C86.6176 29.7601 86.6779 29.7487 86.7382 29.735C86.8275 29.7136 86.916 29.6915 87.006 29.6739C87.0663 29.6625 87.1273 29.6548 87.1876 29.6449C87.2791 29.6297 87.3707 29.6129 87.4637 29.6014C87.5248 29.5938 87.5866 29.59 87.6476 29.5839C87.7415 29.5747 87.8345 29.5641 87.9284 29.5579C87.9902 29.5541 88.0527 29.5549 88.1153 29.5526C88.2099 29.5488 88.3037 29.5442 88.3991 29.5442C88.4617 29.5442 88.5242 29.5488 88.5868 29.5503C88.6822 29.5534 88.7768 29.5541 88.8729 29.5602C88.937 29.5648 89.0011 29.5732 89.0652 29.5793C89.159 29.5877 89.2536 29.5946 89.3474 29.6068C89.4131 29.6152 89.4787 29.6281 89.5435 29.6381C89.6366 29.6526 89.7289 29.6655 89.822 29.6831C89.8884 29.696 89.954 29.7136 90.0204 29.7281C90.1111 29.7487 90.2027 29.767 90.2927 29.7906C90.3606 29.8074 90.427 29.8303 90.4941 29.8494ZM73.7659 30.2354C73.8392 28.4875 73.9147 26.6801 74.3427 24.9879C74.6593 23.7375 75.3277 21.9965 76.7216 20.8055C77.8263 19.8617 79.3346 19.3681 80.9017 19.3681C81.863 19.3681 82.8472 19.5535 83.7734 19.935C86.005 20.8551 87.9154 22.7876 89.1514 25.3778C89.5542 26.2224 89.8884 27.0181 90.1516 27.7605C89.9731 27.7269 89.7938 27.6994 89.6145 27.6765C89.5603 27.6697 89.5061 27.6651 89.4512 27.659C89.3185 27.6445 89.1857 27.6315 89.0529 27.6224C88.9866 27.6178 88.9202 27.6147 88.8531 27.6117C88.7287 27.6056 88.6043 27.6018 88.48 27.601C88.4151 27.6002 88.3503 27.5995 88.2854 27.6002C88.1458 27.6018 88.0062 27.6079 87.8673 27.6155C87.8216 27.6178 87.775 27.6186 87.73 27.6224C87.5469 27.6353 87.3646 27.6529 87.1837 27.6765C87.1395 27.6826 87.096 27.691 87.0518 27.6971C86.9144 27.717 86.7771 27.7391 86.6413 27.765C86.5787 27.7772 86.5169 27.791 86.4544 27.8039C86.3361 27.8299 86.2179 27.8574 86.1004 27.8871C86.0378 27.9031 85.9753 27.9199 85.9127 27.9375C85.7891 27.9718 85.667 28.0099 85.5457 28.0504C85.4954 28.0664 85.4442 28.0817 85.3947 28.0992C85.226 28.158 85.0597 28.2213 84.8965 28.2907C84.869 28.3021 84.8423 28.3159 84.8141 28.3281C84.679 28.3876 84.5447 28.4494 84.4135 28.5158C84.3601 28.5425 84.3075 28.5715 84.2548 28.5997C84.1495 28.6562 84.0458 28.7141 83.9435 28.7744C83.8886 28.8072 83.8344 28.84 83.781 28.8736C83.678 28.9384 83.5773 29.0056 83.4781 29.075C83.4324 29.1071 83.3858 29.1383 83.3408 29.1711C83.1997 29.2749 83.0616 29.3817 82.9288 29.4954C82.8411 29.5694 82.7556 29.6464 82.671 29.725C82.6435 29.751 82.6176 29.7784 82.5901 29.8044C82.5336 29.8585 82.4772 29.9127 82.4222 29.9684C82.3902 30.0012 82.3597 30.0363 82.3276 30.0691C82.2788 30.121 82.23 30.1721 82.1827 30.2248C82.1491 30.2621 82.1171 30.3003 82.085 30.3384C82.04 30.3903 81.995 30.4407 81.9515 30.4941C81.9187 30.5337 81.8874 30.5757 81.8546 30.6161C81.8127 30.6688 81.7707 30.7214 81.7295 30.7756C81.6982 30.8176 81.6677 30.861 81.6364 30.9038C81.5967 30.9587 81.5563 31.0136 81.5174 31.0693C81.4869 31.1136 81.4571 31.1594 81.4274 31.2044C81.3892 31.2608 81.3511 31.3173 81.3145 31.3753C81.2847 31.4218 81.2565 31.4699 81.2275 31.5164C81.1916 31.5752 81.1558 31.6331 81.1207 31.6927C81.0924 31.7415 81.0657 31.7911 81.0375 31.8407C81.0039 31.9002 80.9704 31.9604 80.9376 32.0215C80.9109 32.0718 80.8842 32.1237 80.8582 32.1756C80.8262 32.2374 80.7949 32.2984 80.7644 32.361C80.7384 32.4136 80.7133 32.4678 80.6888 32.5212C80.6591 32.5838 80.6293 32.6471 80.6003 32.7119C80.5759 32.7661 80.553 32.8218 80.5294 32.8767C80.5019 32.9416 80.4737 33.0064 80.4478 33.0728C80.4249 33.1285 80.4027 33.1857 80.3806 33.2429C80.3547 33.3101 80.3295 33.3765 80.3043 33.4436C80.2837 33.5016 80.2631 33.5603 80.2425 33.6191C80.2189 33.6877 80.1952 33.7564 80.1723 33.8251C80.1525 33.8846 80.1342 33.9456 80.1151 34.0059C80.0938 34.0753 80.0716 34.1455 80.051 34.2165C80.0335 34.2775 80.0159 34.3393 79.9991 34.4011C79.9854 34.4484 79.9717 34.4949 79.9587 34.543C79.0684 34.4911 78.1727 34.4179 77.3006 34.3469C76.115 34.2508 74.9996 34.1104 74.3862 33.4543C74.3854 33.4535 74.3854 33.4535 74.3847 33.4528C73.7163 32.7402 73.7125 31.4737 73.7659 30.2354ZM51.2806 30.6436C51.4545 28.6111 51.9977 26.5581 52.8095 24.8621C54.124 22.1132 56.5296 20.2158 58.9374 20.0288C59.074 20.0181 59.2106 20.0128 59.3479 20.0128C61.2667 20.0128 63.3045 21.0229 64.7548 22.7159C66.0946 24.2807 67.0276 26.4345 67.5289 29.1185C67.7349 30.2126 67.8997 31.6034 67.3435 32.6578C67.1428 33.0392 66.8392 33.3887 66.4379 33.7022C66.373 33.6214 66.3059 33.5413 66.238 33.4611C64.2559 31.1479 61.4704 29.8914 58.7856 30.0973C58.6292 30.1096 58.4736 30.1279 58.3179 30.15C58.266 30.1569 58.2149 30.1675 58.163 30.1759C58.0593 30.1927 57.9555 30.2103 57.8525 30.2316C57.7915 30.2438 57.7312 30.2591 57.671 30.2728C57.5771 30.2949 57.484 30.3171 57.391 30.3422C57.3269 30.3598 57.2643 30.3789 57.201 30.3979C57.111 30.4246 57.0217 30.4521 56.9332 30.4826C56.8691 30.504 56.8058 30.5261 56.7425 30.5498C56.6539 30.5818 56.567 30.6154 56.48 30.6505C56.4167 30.6764 56.3541 30.7016 56.2923 30.7283C56.2038 30.7664 56.1168 30.8076 56.0291 30.8488C55.9696 30.8771 55.9101 30.9045 55.8506 30.9351C55.759 30.9808 55.669 31.0297 55.5782 31.0793C55.5248 31.1082 55.4706 31.1365 55.4172 31.167C55.3089 31.2295 55.2021 31.2952 55.0953 31.3623C55.0617 31.3837 55.0266 31.4035 54.993 31.4249C54.8549 31.5149 54.7184 31.6087 54.5833 31.7064C54.5383 31.7392 54.4948 31.7743 54.4498 31.8079C54.3598 31.8758 54.269 31.9437 54.1797 32.0161C54.1256 32.0596 54.0729 32.1062 54.0188 32.1512C53.9417 32.216 53.8639 32.2816 53.7876 32.3495C53.7311 32.3999 53.6762 32.4518 53.6205 32.5037C53.5488 32.5708 53.4771 32.6379 53.4069 32.7081C53.3512 32.7631 53.2955 32.8188 53.2406 32.8752C53.1727 32.9462 53.1048 33.0179 53.0376 33.0904C52.9834 33.1491 52.93 33.2079 52.8766 33.2681C52.8095 33.3437 52.7439 33.4215 52.679 33.5001C52.6279 33.5603 52.5776 33.6198 52.528 33.6816C52.5104 33.7038 52.4921 33.7251 52.4738 33.7472C51.5621 32.9637 51.1707 31.9414 51.2806 30.6436ZM67.5289 41.1317C67.7341 42.2273 67.8989 43.6189 67.3443 44.6726C66.8728 45.5652 65.842 46.2801 64.2811 46.7981C59.7019 48.3171 54.3995 47.2856 52.6142 45.8772C51.6002 45.0784 51.1646 44.0256 51.2806 42.6599C51.4545 40.6274 51.997 38.5744 52.8087 36.8776C53.0155 36.4465 53.252 36.03 53.5145 35.6378C54.9259 33.513 56.9027 32.2038 58.9374 32.0444C59.0694 32.0345 59.2037 32.0299 59.3372 32.0291C59.4211 32.0291 59.5058 32.0337 59.5897 32.0367C59.6737 32.0406 59.7576 32.0459 59.8415 32.0535C59.9201 32.0604 59.9987 32.0665 60.078 32.0764C60.1413 32.0848 60.2039 32.0962 60.2665 32.1069C60.329 32.1168 60.3916 32.1252 60.4542 32.1374C60.5182 32.1497 60.5831 32.1657 60.6479 32.1802C60.7082 32.1939 60.7692 32.2069 60.8295 32.2221C60.8944 32.2389 60.9585 32.258 61.0233 32.2763C61.0836 32.2938 61.1439 32.3106 61.2041 32.3297C61.2682 32.3503 61.3315 32.3724 61.3949 32.3953C61.4551 32.4167 61.5162 32.438 61.5764 32.4609C61.639 32.4846 61.7008 32.5105 61.7634 32.5365C61.8244 32.5616 61.8854 32.5868 61.9457 32.6143C62.0067 32.6418 62.067 32.67 62.1273 32.699C62.1883 32.7287 62.2501 32.7585 62.3104 32.7898C62.3691 32.8203 62.4279 32.8508 62.4859 32.8828C62.5477 32.9164 62.6087 32.9515 62.6697 32.9874C62.7262 33.0202 62.7826 33.0537 62.8383 33.0881C62.9001 33.1262 62.9612 33.1659 63.0222 33.2056C63.0756 33.2414 63.1298 33.2765 63.1832 33.3139C63.245 33.3566 63.306 33.4009 63.3671 33.4459C63.4182 33.4833 63.4693 33.5207 63.5196 33.5588C63.5814 33.6069 63.6425 33.6572 63.7035 33.7068C63.7508 33.7457 63.7989 33.7839 63.8454 33.8243C63.9087 33.8785 63.9705 33.9349 64.0323 33.9906C64.0751 34.0303 64.1186 34.0684 64.1605 34.1081C64.2284 34.173 64.2948 34.2401 64.3604 34.3072C64.3947 34.3416 64.4298 34.3752 64.4634 34.4102C64.5618 34.514 64.6587 34.6208 64.7526 34.7299C64.9914 35.0099 65.2004 35.283 65.3942 35.5692C66.3929 37.0287 67.1108 38.9001 67.5289 41.1317ZM30.3318 25.3786C31.5685 22.7884 33.4789 20.8551 35.7105 19.9358C38.1458 18.9325 40.9801 19.2827 42.7623 20.8063C44.1555 21.9965 44.8246 23.7375 45.1404 24.9887C45.5684 26.6801 45.644 28.4875 45.7172 30.237C45.7714 31.4737 45.7676 32.7402 45.0985 33.4535C45.0985 33.4535 45.0977 33.4535 45.0977 33.4543C44.4835 34.1104 43.3689 34.2508 42.1825 34.3469C41.3105 34.4179 40.4155 34.4911 39.5244 34.543C39.5122 34.4949 39.4977 34.4484 39.4848 34.4003C39.4672 34.3385 39.4504 34.2775 39.4329 34.2172C39.4115 34.1455 39.3902 34.0753 39.368 34.0051C39.349 33.9449 39.3306 33.8853 39.3116 33.8258C39.2887 33.7564 39.2643 33.6877 39.2406 33.6191C39.22 33.5603 39.2002 33.5023 39.1788 33.4444C39.1544 33.3765 39.1285 33.3101 39.1025 33.2422C39.0804 33.1857 39.059 33.1285 39.0361 33.0728C39.0094 33.0072 38.982 32.9423 38.9537 32.8767C38.9301 32.8218 38.9072 32.7661 38.8828 32.7119C38.8546 32.6471 38.8248 32.5845 38.7951 32.5212C38.7699 32.4678 38.7455 32.4136 38.7195 32.361C38.689 32.2984 38.657 32.2374 38.6257 32.1756C38.599 32.1245 38.573 32.0726 38.5463 32.0215C38.5135 31.9604 38.4792 31.9017 38.4464 31.8414C38.4182 31.7918 38.3907 31.7415 38.3625 31.6927C38.3281 31.6339 38.2923 31.5759 38.2564 31.5179C38.2274 31.4706 38.1992 31.4226 38.1687 31.3753C38.1328 31.3181 38.0947 31.2624 38.0573 31.2059C38.0268 31.1609 37.997 31.1143 37.9657 31.0693C37.9276 31.0136 37.8879 30.9602 37.8482 30.9061C37.817 30.8626 37.7857 30.8183 37.7536 30.7756C37.7124 30.7214 37.6705 30.6696 37.6285 30.6161C37.5965 30.5757 37.5644 30.5345 37.5316 30.4948C37.4881 30.4414 37.4431 30.3896 37.3981 30.3377C37.3653 30.3003 37.334 30.2621 37.3012 30.2255C37.2532 30.1721 37.2036 30.1202 37.1547 30.0684C37.1235 30.0355 37.0929 30.0012 37.0617 29.9692C37.006 29.9127 36.9487 29.8578 36.8915 29.8029C36.8656 29.7777 36.8396 29.751 36.8129 29.7258C36.7283 29.6472 36.6428 29.5702 36.5551 29.4962C36.4261 29.3855 36.2911 29.281 36.153 29.1795C36.124 29.1582 36.0943 29.136 36.0645 29.1147C35.9287 29.0178 35.7898 28.9247 35.6472 28.837C35.625 28.8232 35.6022 28.811 35.58 28.7973C35.448 28.718 35.313 28.6424 35.1757 28.5707C35.1497 28.557 35.1246 28.5425 35.0986 28.5295C34.9476 28.4532 34.7942 28.3815 34.6386 28.3144C34.6058 28.2999 34.5737 28.2869 34.5409 28.2732C34.3868 28.2091 34.2312 28.148 34.0725 28.0931C34.0648 28.0908 34.0564 28.087 34.0488 28.0847C33.8833 28.0275 33.7162 27.9771 33.5468 27.9306C33.5109 27.9207 33.4751 27.9108 33.4392 27.9008C33.2714 27.8566 33.102 27.8162 32.9303 27.7818C32.9097 27.7772 32.8891 27.7742 32.8685 27.7704C32.7091 27.7391 32.5489 27.7132 32.3879 27.6903C32.3551 27.6857 32.3223 27.6804 32.2895 27.6758C32.1163 27.6537 31.9423 27.6361 31.7669 27.6239C31.7325 27.6208 31.6974 27.6193 31.6623 27.6178C31.4968 27.6071 31.3312 27.601 31.1649 27.5995C31.1466 27.5995 31.1283 27.5987 31.11 27.5987C31.1016 27.5987 31.0932 27.598 31.0856 27.598C30.9131 27.598 30.7399 27.6041 30.5675 27.614C30.5187 27.6163 30.4706 27.6201 30.4226 27.6239C30.2822 27.6331 30.1418 27.646 30.0022 27.662C29.9526 27.6681 29.903 27.6727 29.8526 27.6796C29.6787 27.7017 29.5047 27.7284 29.3316 27.7605C29.5948 27.0189 29.9289 26.2224 30.3318 25.3786ZM28.2642 30.0981C28.3428 30.0661 28.4221 30.0394 28.5015 30.0104C28.5755 29.9829 28.6495 29.9532 28.7235 29.928C28.8067 29.9005 28.8913 29.8784 28.9745 29.854C29.0462 29.8326 29.1179 29.809 29.1896 29.7899C29.2774 29.767 29.3666 29.7494 29.4551 29.7296C29.5238 29.7144 29.5917 29.696 29.6604 29.6831C29.755 29.6648 29.8496 29.6518 29.9434 29.6365C30.0075 29.6266 30.0708 29.6144 30.1349 29.606C30.2333 29.5938 30.3325 29.5862 30.431 29.577C30.4905 29.5717 30.55 29.5641 30.6095 29.5602C30.7132 29.5534 30.817 29.5518 30.92 29.5488C30.9742 29.548 31.0291 29.5442 31.0833 29.5435C31.1908 29.5435 31.2984 29.5488 31.4052 29.5526C31.4548 29.5549 31.5044 29.5541 31.5532 29.5572C31.6631 29.5641 31.7722 29.5763 31.8805 29.5877C31.9263 29.5923 31.9729 29.5946 32.0186 29.6007C32.1293 29.6144 32.2384 29.6335 32.3475 29.6526C32.3902 29.6602 32.4337 29.6648 32.4756 29.6732C32.584 29.6938 32.6893 29.7197 32.7953 29.7456C32.838 29.7555 32.8815 29.7639 32.9235 29.7746C33.0303 29.8029 33.134 29.8364 33.2386 29.8692C33.279 29.8814 33.3194 29.8921 33.3591 29.9051C33.4606 29.9394 33.559 29.9783 33.6574 30.0172C33.6986 30.0333 33.7406 30.047 33.7818 30.0645C33.8756 30.1034 33.9672 30.1485 34.058 30.192C34.1007 30.2126 34.1449 30.2301 34.1877 30.2515C34.2724 30.2942 34.3532 30.343 34.4356 30.3896C34.4822 30.4155 34.5302 30.4399 34.5752 30.4666C34.6546 30.5154 34.7301 30.5681 34.8072 30.62C34.8522 30.6505 34.8987 30.6787 34.943 30.71C35.0612 30.7954 35.1764 30.8862 35.2871 30.9808C36.6787 32.1672 37.3493 33.9105 37.6682 35.164C37.7178 35.3609 37.762 35.56 37.8048 35.7584C38.1107 37.2682 38.1786 38.8651 38.2442 40.41C38.2961 41.6475 38.2908 42.9155 37.6247 43.6273C37.009 44.2842 35.8936 44.4246 34.7072 44.5207C32.1254 44.7328 29.4567 44.951 26.8764 44.6283C23.479 44.2049 21.5892 43.4015 21.2589 42.2388C20.8759 40.8899 21.4428 38.5156 22.8565 35.5524C24.0932 32.9622 26.0044 31.0289 28.2367 30.1096C28.2459 30.1057 28.255 30.1019 28.2642 30.0981ZM25.4886 25.7837L27.9369 25.9584C27.5623 26.8617 27.2663 27.7116 27.0557 28.4982C24.5655 29.6617 22.4598 31.8498 21.0933 34.7116C19.4286 38.2021 18.8518 40.9143 19.3805 42.7736C20.2312 45.7689 24.8836 46.3487 26.6346 46.5669C27.6706 46.6966 28.7059 46.7462 29.7359 46.7462C31.4685 46.7462 33.1852 46.6058 34.8659 46.4685C36.3842 46.3449 37.9581 46.1275 39.0499 44.964C40.3324 43.5938 40.2469 41.5498 40.1958 40.3284C40.1424 39.068 40.086 37.774 39.9051 36.4763C40.7268 36.4244 41.5432 36.3588 42.3412 36.2939C43.8595 36.1711 45.4334 35.9537 46.5229 34.7902C47.8107 33.4177 47.7222 31.3737 47.6688 30.1546C47.6207 29.0018 47.5719 27.8253 47.4254 26.6443C47.7909 26.6481 48.1945 26.6618 48.5904 26.6756C49.0757 26.6923 49.5731 26.7099 50.0225 26.7099C50.0286 26.7099 50.0332 26.7091 50.0393 26.7091C49.6875 27.926 49.4434 29.2062 49.3351 30.4781C49.1626 32.5006 49.8714 34.176 51.3881 35.3792C51.2684 35.5943 51.1539 35.8133 51.0471 36.0361C50.1362 37.9388 49.5281 40.233 49.3351 42.4936C49.1634 44.5078 49.879 46.2083 51.4049 47.4115C53.3565 48.9504 56.2908 49.4707 59.0366 49.4707C61.3636 49.4707 63.5547 49.0968 64.8968 48.652C66.9811 47.9601 68.3468 46.9568 69.0716 45.585C69.0716 45.585 69.0716 45.585 69.0716 45.5843C69.9085 43.9973 69.7132 42.1793 69.4492 40.7724C69.0555 38.6743 68.4109 36.8471 67.535 35.3189C68.2056 34.8169 68.7221 34.2325 69.0716 33.5687C69.9085 31.981 69.7132 30.1637 69.4492 28.7592C69.2585 27.7406 69.009 26.787 68.7023 25.8989L72.2309 25.5395C71.9471 27.0883 71.8784 28.6424 71.8151 30.153C71.7624 31.3737 71.6732 33.4177 72.9618 34.7902C74.0505 35.9537 75.6245 36.1711 77.1427 36.2939C77.9407 36.3588 78.7578 36.4244 79.5795 36.4763C79.3987 37.7718 79.3423 39.0665 79.2888 40.3284C79.237 41.5498 79.1515 43.5945 80.434 44.964H80.4348C81.5258 46.1275 83.0997 46.3449 84.618 46.4685C85.6121 46.5486 86.6962 46.6127 87.8292 46.6127C90.3828 46.6127 93.185 46.29 95.7653 45.1112C97.5887 44.2789 100.039 42.9277 100.261 40.8167C100.456 38.9703 99.3931 36.7807 98.6172 35.1816C98.5378 35.0183 98.4615 34.8611 98.3906 34.7116C97.0241 31.8498 94.9184 29.6617 92.4282 28.4982C92.1688 27.5285 91.7805 26.4619 91.2723 25.316C91.4448 25.3015 91.6172 25.287 91.7873 25.271C93.3605 25.1283 94.7185 25.0055 95.8012 25.8447C96.5557 26.4291 97.0974 27.337 97.6215 28.2152L102.015 35.5806C103.08 37.3643 104.287 39.3869 104.49 41.5033C104.572 42.3639 104.488 43.1841 104.298 43.9836C104.229 43.989 104.159 44.0004 104.09 44.021C74.5472 52.9901 42.0971 52.8749 12.6102 43.7143L25.4886 25.7837Z" fill="#B52B65"/>
<path d="M29.5745 78.6597L34.7991 75.6834C35.2752 75.4118 35.9275 75.0403 36.312 74.3453C37.1222 72.8781 36.1281 71.2958 35.7032 70.6198C35.4323 70.1888 35.1478 69.6723 34.8472 69.1252C33.5059 66.6907 31.8366 63.6603 28.8283 63.333C24.4864 62.86 19.448 65.4204 17.4827 66.5435C17.4804 66.545 17.4781 66.5465 17.475 66.548C13.4917 68.8727 10.5773 72.4532 9.47789 76.3701C8.2343 80.802 9.47026 85.7328 12.5541 88.6396C14.6293 90.5958 17.5391 91.7204 20.5375 91.7234H20.5535C23.3382 91.7234 26.1954 90.7705 28.6002 89.0379C30.7853 87.4647 31.9838 85.5139 31.9762 83.5455C31.9686 81.6076 30.8806 80.0551 29.5745 78.6597ZM20.5398 89.7703C18.0335 89.7672 15.6112 88.8372 13.8938 87.219C11.325 84.7967 10.3057 80.6494 11.3585 76.898C12.3214 73.4656 14.9085 70.3086 18.4562 68.2372C20.5871 67.0195 22.8995 66.0025 25.3135 65.5066C26.084 65.3487 26.9988 65.1839 27.8769 65.2045C25.714 67.0211 23.6579 68.9826 21.7513 71.0578C21.3683 71.4736 20.7282 72.1709 20.6183 73.1085C20.4841 74.2461 21.1738 75.1921 21.5857 75.7582L22.7698 77.384C22.8713 77.5229 23.0811 77.8105 23.0842 77.9295C23.0872 78.0554 22.8675 78.3018 22.4296 78.6612C21.3042 79.5843 20.2109 80.5723 19.1779 81.597C18.9864 81.7862 18.5882 82.1806 18.5477 82.7879C18.5035 83.4486 18.9055 83.9132 19.0986 84.136L23.5473 89.2782C22.4341 89.5994 21.3729 89.7703 20.5542 89.7703C20.5535 89.7703 20.5398 89.7703 20.5398 89.7703ZM25.5111 88.5633L20.6229 82.9145C21.5918 81.9578 22.6165 81.0354 23.6686 80.171C24.1568 79.7705 25.067 79.0236 25.0365 77.8769C25.0167 77.1521 24.6146 76.5997 24.3483 76.2343L23.1643 74.6077C22.8347 74.156 22.5165 73.6853 22.5577 73.3367C22.5913 73.0506 22.8881 72.7065 23.1894 72.3792C25.3241 70.0553 27.6511 67.8786 30.1093 65.8965C31.4879 66.8738 32.3592 68.656 33.1359 70.0675C33.4517 70.6397 33.7493 71.1798 34.0499 71.659C34.249 71.9763 34.8563 72.9422 34.603 73.4007C34.4848 73.6144 34.1231 73.8204 33.8325 73.9859L27.5054 77.59C27.2391 77.7418 27.0591 78.0096 27.0202 78.3125C26.9805 78.6162 27.0858 78.9213 27.3047 79.1357C28.6765 80.4823 30.017 81.9334 30.0231 83.5531C30.0322 85.7771 27.9021 87.5006 25.5111 88.5633Z" fill="#B52B65"/>
<path d="M108.077 74.7573C106.447 70.4436 102.678 67.4834 100.576 66.1033C97.9639 64.3874 93.7776 63.9609 88.1319 64.8368C85.4585 65.2511 82.8912 66.0438 80.5024 67.1935C79.9973 67.4369 78.4585 68.1777 78.3166 69.6822C78.1983 70.9388 79.1261 71.8604 79.6243 72.3548L84.9542 77.6495C84.6284 77.8616 84.3126 78.1111 84.0303 78.4201C83.2307 79.296 82.9576 80.4854 83.3337 81.4497C83.9502 83.0275 85.8339 83.3372 86.638 83.47L92.0961 84.3687C91.4934 86.6728 92.3982 89.3965 94.4338 90.9307C95.6797 91.8707 97.2475 92.3513 98.8672 92.3513C100.058 92.3513 101.277 92.0912 102.416 91.5624C104.698 90.502 106.603 88.4497 107.779 85.7817C109.306 82.3172 109.414 78.2996 108.077 74.7573ZM94.2995 84.0834C94.4567 83.8057 94.4689 83.4685 94.3308 83.1801C94.1934 82.8924 93.9234 82.6895 93.6083 82.6384L86.9554 81.5428C86.2726 81.4299 85.3425 81.2247 85.1533 80.7394C85.0503 80.4747 85.1846 80.0528 85.473 79.7362C85.8484 79.325 86.4351 79.0343 87.0027 78.7527C87.285 78.6124 87.4826 78.3453 87.5329 78.0341C87.5833 77.7228 87.4803 77.4069 87.2568 77.1849L80.9999 70.9693C80.7496 70.7206 80.2293 70.2033 80.2606 69.8645C80.2751 69.7135 80.4353 69.3931 81.3493 68.9536C83.7205 67.8122 86.342 67.0608 88.9925 66.6701L88.6995 71.7841C88.6728 72.2441 88.6323 72.9407 89.0291 73.5694C89.4006 74.1576 89.9911 74.4246 90.3818 74.6009C92.8346 75.7102 95.3562 76.7523 97.8777 77.6976C98.9023 78.0821 99.7774 78.4544 100.111 79.1197C100.369 79.6355 100.299 80.3686 100.212 81.0164C99.7858 84.223 98.8466 87.3167 97.4222 90.2182C96.7928 90.0366 96.1893 89.7306 95.6369 89.2851C94.0752 88.0239 93.2474 85.9396 94.2995 84.0834ZM105.992 84.9943C105.007 87.2274 103.446 88.9311 101.593 89.7909C100.916 90.1052 100.211 90.3067 99.5066 90.3837C100.839 87.4945 101.728 84.4359 102.149 81.2735C102.283 80.2695 102.339 79.2075 101.857 78.2446C101.154 76.8401 99.5951 76.2557 98.5636 75.8689C96.0825 74.9381 93.6006 73.9127 91.1867 72.8217C91.0532 72.7607 90.7396 72.6187 90.6816 72.5264C90.619 72.428 90.6404 72.0549 90.6496 71.8955L90.9624 66.4451C91.7535 66.3825 92.5417 66.3505 93.3222 66.3505C96.0054 66.3505 98.1035 66.8151 99.5035 67.7352C101.408 68.9856 104.815 71.6506 106.249 75.4477C107.408 78.5147 107.314 81.9945 105.992 84.9943Z" fill="#B52B65"/>
<path d="M80.8958 87.7657C80.1245 87.1867 79.302 86.7007 78.5063 86.2307C77.6266 85.7112 76.7958 85.2198 76.0473 84.6224C74.5283 83.4094 73.7249 81.8888 73.8996 80.5545C73.9874 79.877 74.3215 79.2071 74.6755 78.4976C74.9929 77.8613 75.3218 77.2037 75.5178 76.4621C75.9695 74.7562 75.6094 72.8938 74.555 71.4786C73.5441 70.1221 71.6467 69.0707 68.7544 68.2628C66.374 67.5983 63.7724 67.1924 61.0235 67.0574C55.6959 66.7957 50.3095 67.6875 45.4466 69.6361C43.9329 70.2426 42.2262 71.0559 41.0391 72.4956C39.6528 74.1771 39.3667 76.4827 40.3433 78.1016C40.9887 79.1728 42.0622 79.8289 43.0097 80.408C44.0092 81.0183 44.8721 81.5455 45.0735 82.3687C45.3451 83.4826 44.2091 84.6522 43.038 85.2671C41.8768 85.8775 40.5966 86.2361 39.2423 86.6152C38.1323 86.9258 36.9848 87.2469 35.8823 87.723C33.206 88.8789 30.6837 91.4179 31.0835 94.4819C31.2734 95.9376 32.1272 97.3177 33.4882 98.3683C34.6471 99.2632 35.9899 99.7995 37.2678 100.246C42.5047 102.073 48.1611 102.987 54.4561 102.987C60.9106 102.987 68.0357 102.027 76.0664 100.104C77.8356 99.6805 79.5484 99.2197 81.0476 98.2485C82.8825 97.0606 84.0223 95.2524 84.0971 93.4107C84.1772 91.4111 83.0107 89.3534 80.8958 87.7657ZM79.9864 96.6097C78.7443 97.4138 77.2703 97.8075 75.6117 98.205C60.127 101.911 48.1474 101.974 37.911 98.4018C36.7887 98.0097 35.6199 97.5474 34.6815 96.8226C33.7461 96.1008 33.1411 95.1555 33.0198 94.2293C32.7535 92.1854 34.7189 90.3536 36.6575 89.5159C37.6386 89.0925 38.6732 88.8026 39.7688 88.4959C41.1619 88.106 42.6023 87.7032 43.9466 86.9959C45.8296 86.0072 47.4943 84.0495 46.9702 81.9056C46.578 80.2996 45.2238 79.4719 44.0283 78.741C43.1982 78.2336 42.4146 77.7545 42.0156 77.093C41.3961 76.0654 41.8134 74.6272 42.5459 73.7384C43.453 72.6375 44.8889 71.9638 46.1729 71.4488C50.2523 69.8146 54.7224 68.9662 59.2001 68.9662C59.7761 68.9662 60.3529 68.98 60.9281 69.0082C63.5313 69.1364 65.9879 69.5178 68.2295 70.1442C70.6556 70.8217 72.257 71.6632 72.9894 72.6459C73.6807 73.5728 73.9256 74.8439 73.6296 75.9616C73.4846 76.5101 73.2145 77.0518 72.9284 77.6256C72.518 78.448 72.0938 79.2987 71.9625 80.3012C71.6993 82.3191 72.7712 84.5057 74.8289 86.1491C75.6849 86.8319 76.6142 87.3812 77.5129 87.9122C78.2972 88.3761 79.038 88.8133 79.7232 89.3282C80.4769 89.8936 82.2225 91.4172 82.1455 93.3314C82.0974 94.5223 81.2704 95.7789 79.9864 96.6097Z" fill="#B52B65"/>
<path d="M62.2962 81.2564C58.615 80.6796 54.8141 81.2892 51.5907 82.9722C49.2782 84.18 47.9545 85.8454 47.863 87.662C47.7951 89.0071 48.4146 90.378 49.5635 91.4225C50.5683 92.3373 51.7852 92.8591 52.8427 93.2497C55.59 94.2629 58.467 94.8054 61.3944 94.8603C61.5104 94.8626 61.6256 94.8641 61.74 94.8641C65.1923 94.8633 67.7802 93.8624 69.2382 91.9588C70.3864 90.4589 70.7557 88.4043 70.2018 86.5977C69.0078 82.7075 64.2753 81.5661 62.2962 81.2564ZM67.6871 90.7717C66.281 92.6089 63.5085 92.9468 61.431 92.9079C58.7226 92.8568 56.0607 92.3556 53.5194 91.4172C52.6382 91.0922 51.6349 90.6664 50.8773 89.9775C50.1731 89.3374 49.7756 88.5089 49.8138 87.7612C49.8886 86.2803 51.5258 85.2099 52.4955 84.7033C54.6462 83.5803 57.0914 82.9974 59.5657 82.9974C60.3751 82.9974 61.1877 83.0592 61.9941 83.1859C63.6107 83.4392 67.4636 84.3341 68.3341 87.1707C68.7064 88.3845 68.4584 89.7639 67.6871 90.7717Z" fill="#B52B65"/>
</g>
<defs>
<clipPath id="clip0_1636_1202">
<rect width="100" height="100" fill="white" transform="translate(9 10)"/>
</clipPath>
</defs>
</svg>
