<svg width="110" height="110" viewBox="0 0 110 110" fill="none" xmlns="http://www.w3.org/2000/svg">
<circle cx="50" cy="50" r="50" fill="#F4F4F4"/>
<g clip-path="url(#clip0_1636_1204)">
<path d="M101.948 11.2133C100.104 9.82776 96.8145 9.33033 93.6247 11.3422C91.258 12.8345 89.694 15.1378 88.2956 17.3687C85.5803 21.6983 83.0511 26.4034 80.7775 31.3518C79.8109 33.4552 78.8702 35.6472 77.9821 37.8673C77.8814 38.1168 77.7784 38.3686 77.6747 38.6211C77.0231 40.208 76.3494 41.8499 76.2083 43.6367C76.1656 44.1738 76.2007 44.6933 76.3151 45.1816C76.2159 45.2449 76.1259 45.3243 76.0527 45.425C75.0837 46.7441 74.1461 48.1136 73.2626 49.4953C72.489 49.3663 71.6879 49.3351 70.8776 49.4129C67.7549 49.7104 64.9229 51.7238 63.5641 54.5299C63.0537 54.0622 62.5769 53.5579 62.1481 53.0071C60.3109 50.6458 59.4114 46.8753 61.2455 44.2371C61.4775 43.9045 61.479 43.4619 61.2493 43.1278C61.0197 42.7929 60.607 42.6349 60.2125 42.7311C56.9921 43.5169 54.3966 46.3718 52.4977 51.2172C52.3062 51.7055 52.12 52.2007 51.9331 52.6981C50.8596 55.5492 49.7511 58.4972 47.5164 60.3252C45.9265 61.6268 43.9169 62.2615 41.7891 62.9329C39.9954 63.499 38.1414 64.0842 36.4836 65.1111C34.7738 66.1701 33.3921 67.7089 32.4293 69.4835C32.2859 69.4225 32.128 69.3912 31.9616 69.4065C27.2894 69.8383 22.8453 71.4229 18.7544 74.1169C18.5629 74.2435 18.4339 74.4274 18.3676 74.6295C18.1623 74.7936 17.9701 75.0156 17.7999 75.3147C17.1362 76.4781 17.4154 78.3321 17.787 80.2906C17.8236 80.4805 17.8564 80.6537 17.8823 80.8025C18.1547 82.3802 18.6018 83.9687 19.2106 85.5243C19.3502 85.8829 19.5021 86.2384 19.6592 86.5924C18.4149 87.3683 17.6405 88.7821 17.6741 90.2538C17.6992 91.3677 18.1852 92.4259 18.9733 93.188C18.5522 93.5443 18.1692 93.9151 17.8366 94.2943C15.2792 97.2057 14.723 101.547 16.5152 104.617C18.0891 107.315 21.2332 109.048 25.8604 109.767C26.8698 109.922 27.8059 110 28.6711 110C31.2208 110 33.1549 109.321 34.5396 107.95C35.8122 106.689 36.537 104.836 36.672 102.537C42.3468 104.892 48.9981 106.082 56.5008 106.082C57.3545 106.082 58.219 106.066 59.0948 106.036C68.009 105.725 75.2432 103.965 81.2109 100.653C85.7328 98.1441 89.739 94.5056 92.7961 90.1302C95.8517 85.7563 97.8903 80.746 98.6906 75.6404C98.6906 75.6366 98.6914 75.6328 98.6921 75.6298C98.7364 75.3421 98.6479 75.0675 98.4755 74.86C98.3931 74.7226 98.2794 74.6013 98.1298 74.5151C92.8823 71.4969 88.323 69.9039 84.1948 69.6437C83.2243 67.4839 81.8159 65.5269 80.0467 63.9835C79.8094 63.7767 79.5652 63.5791 79.3188 63.3869C81.1598 60.5594 81.262 56.7531 79.5485 53.8395C79.2814 53.3847 78.9793 52.9613 78.6489 52.5684C79.4828 51.1241 80.3839 49.6982 81.3337 48.3272C81.3643 48.2837 81.3871 48.2379 81.4093 48.1922C82.5193 47.8794 83.547 47.1378 84.4351 46.2627C90.8957 39.8922 96.6352 32.7518 101.494 25.04C102.759 23.0327 104.027 20.866 104.428 18.3925C104.895 15.5124 103.921 12.6941 101.948 11.2133ZM77.3024 47.031C77.577 47.3201 77.9036 47.5772 78.285 47.7932C78.5559 47.9473 78.8259 48.0655 79.093 48.1533C78.4323 49.1451 77.7983 50.1598 77.1955 51.1859C76.5882 50.7267 75.9268 50.3482 75.2264 50.0576C75.8924 49.0329 76.5875 48.0197 77.3024 47.031ZM31.5817 71.4115C30.9072 73.3692 30.7104 75.4871 31.0919 77.5066C29.656 77.1801 28.2255 76.8283 26.7988 76.4507L26.4059 76.3462C24.8632 75.9388 23.2679 75.5176 21.7894 74.9439C21.6726 74.8981 21.5429 74.8401 21.4079 74.7798C24.6138 72.9473 28.0264 71.8174 31.5817 71.4115ZM20.5244 88.3647C21.0264 89.307 21.5872 90.2278 22.2059 91.1235C21.6505 91.3875 21.1111 91.6835 20.5984 92.0055C20.03 91.5996 19.6424 90.9015 19.6264 90.2095C19.6112 89.5137 19.9697 88.795 20.5244 88.3647ZM19.3045 95.5822C20.3871 94.3485 22.2067 93.1514 24.053 92.4579C24.1842 92.4091 24.3139 92.3633 24.4436 92.3198C24.4833 92.3061 24.5222 92.2939 24.5611 92.2809C24.6542 92.2512 24.7465 92.2222 24.8388 92.1947C25.6033 91.9658 26.3304 91.859 27.0178 91.8529C27.0231 91.8636 27.0262 91.8758 27.0323 91.8865C27.1376 92.0742 27.1086 92.3938 26.9606 92.6631C26.7942 92.9676 26.4852 93.2621 26.016 93.5649C25.8673 93.6618 25.7338 93.7107 25.6506 93.7305C25.3492 93.4688 24.9098 93.4131 24.5474 93.6092C24.1316 93.8327 23.9355 94.3225 24.0828 94.7719C24.1987 95.1252 24.0133 95.5913 23.6868 95.7691C23.3602 95.9468 22.8682 95.8499 22.6347 95.5608C22.3921 95.2617 21.9961 95.1335 21.6238 95.2327C21.2515 95.3319 20.9722 95.6417 20.912 96.0216C20.822 96.5824 20.3802 97.0882 19.837 97.253C19.3365 97.4056 18.7483 97.266 18.3569 96.9173C18.6254 96.442 18.9436 95.9934 19.3045 95.5822ZM33.1655 106.562C31.8006 107.914 29.4432 108.343 26.1595 107.836C22.1426 107.212 19.4654 105.798 18.202 103.632C17.3155 102.114 17.185 100.383 17.6046 98.7712C18.1532 99.0917 18.7864 99.2664 19.4212 99.2664C19.7531 99.2664 20.085 99.2191 20.4039 99.1222C21.2019 98.8803 21.8893 98.3356 22.3364 97.6383C23.0764 97.9 23.9225 97.8656 24.6214 97.4849C25.318 97.105 25.8047 96.416 25.9878 95.6554C26.3426 95.5905 26.7126 95.441 27.0758 95.206C27.8242 94.7223 28.3468 94.1982 28.6734 93.6023C28.9244 93.1446 29.0457 92.6433 29.0441 92.1581C32.4491 93.2537 34.4938 97.1393 34.7242 100.998C34.725 101.016 34.7265 101.033 34.7265 101.051C34.7265 101.067 34.7273 101.082 34.728 101.098C34.8104 102.803 34.606 105.136 33.1655 106.562ZM95.5595 75.3253C94.7508 75.5481 93.6361 75.822 92.2148 76.1478C91.8036 76.2416 91.5327 76.3034 91.39 76.3416C89.5277 76.8428 87.6043 77.3075 85.6672 77.7301C85.8137 75.6992 85.5604 73.6339 84.9585 71.6724C88.1315 72.0272 91.6212 73.2296 95.5595 75.3253ZM85.5513 79.755C87.6997 79.2964 89.8344 78.7822 91.8959 78.2283C92.0027 78.1993 92.3025 78.1307 92.6504 78.0513C94.3426 77.6638 95.5564 77.3647 96.4293 77.1091C94.4532 86.1873 88.3841 94.44 80.2641 98.9452C74.5718 102.103 67.6252 103.785 59.0261 104.084C50.3813 104.388 42.8534 103.151 36.6407 100.403C36.6407 100.399 36.64 100.396 36.64 100.392C36.6346 100.332 36.6278 100.273 36.6224 100.213C36.6125 100.109 36.6034 100.004 36.5919 99.9012C36.5843 99.8355 36.5751 99.7715 36.5667 99.7066C36.5545 99.6105 36.5431 99.5136 36.5293 99.419C36.5202 99.3511 36.508 99.2855 36.4981 99.2183C36.4836 99.1275 36.4698 99.0352 36.4538 98.9452C36.4424 98.8773 36.4286 98.8102 36.4157 98.7422C36.3989 98.6553 36.3829 98.5675 36.3653 98.4813C36.3508 98.4134 36.3356 98.3463 36.3203 98.2784C36.302 98.1945 36.2829 98.109 36.2631 98.0258C36.2471 97.9587 36.2295 97.8931 36.2127 97.8267C36.1914 97.7436 36.1708 97.6612 36.1479 97.5795C36.1296 97.5139 36.1097 97.4491 36.0914 97.3835C36.0678 97.3033 36.0441 97.2225 36.0197 97.1431C35.9999 97.0783 35.9777 97.015 35.9571 96.9509C35.9312 96.8723 35.906 96.7945 35.8786 96.7174C35.8564 96.6541 35.8335 96.5908 35.8099 96.5274C35.7824 96.4519 35.7542 96.3764 35.7252 96.3016C35.7008 96.239 35.6756 96.1772 35.6512 96.1162C35.6207 96.0422 35.5909 95.9682 35.5597 95.8957C35.5337 95.8347 35.5062 95.7752 35.4795 95.7149C35.4475 95.6432 35.4147 95.5715 35.3811 95.5005C35.3529 95.441 35.3247 95.383 35.2957 95.3243C35.2613 95.2541 35.2262 95.1847 35.1904 95.116C35.1606 95.058 35.1301 95.0016 35.0996 94.9451C35.063 94.8772 35.0264 94.8093 34.9882 94.7429C34.9569 94.6872 34.9249 94.6315 34.8921 94.5766C34.8532 94.511 34.8143 94.4454 34.7746 94.3813C34.741 94.3271 34.7067 94.2729 34.6724 94.2195C34.6319 94.1562 34.5907 94.0929 34.5488 94.0311C34.5137 93.9785 34.4778 93.9258 34.4412 93.8739C34.3985 93.8129 34.3557 93.7526 34.3115 93.6924C34.2749 93.642 34.2367 93.5909 34.1993 93.5413C34.1543 93.4818 34.1085 93.4238 34.0628 93.3658C34.0239 93.317 33.9849 93.2682 33.9453 93.2201C33.8987 93.1636 33.8507 93.1072 33.8034 93.0515C33.7629 93.0042 33.7217 92.9576 33.6805 92.9119C33.6317 92.8569 33.5821 92.8028 33.5325 92.7494C33.4898 92.7043 33.4478 92.6593 33.4051 92.6151C33.354 92.5632 33.3021 92.5113 33.2502 92.4602C33.2067 92.4175 33.1625 92.374 33.1182 92.332C33.0656 92.2817 33.0114 92.2328 32.958 92.184C32.9123 92.1428 32.8672 92.1016 32.8215 92.0612C32.7665 92.0139 32.7108 91.9673 32.6544 91.9208C32.6078 91.8819 32.5613 91.843 32.514 91.8048C32.4568 91.7591 32.3988 91.7148 32.3408 91.6706C32.2927 91.6339 32.2447 91.5966 32.1959 91.5607C32.1371 91.518 32.0768 91.4768 32.0173 91.4348C31.9677 91.4005 31.9181 91.3654 31.8678 91.3311C31.8068 91.2906 31.7442 91.2509 31.6816 91.2113C31.6313 91.1792 31.5809 91.1464 31.5298 91.1151C31.4665 91.0762 31.4009 91.0396 31.336 91.0022C31.2849 90.9725 31.2338 90.9427 31.1819 90.9137C31.1155 90.8771 31.0476 90.8428 30.9797 90.8069C30.9286 90.7802 30.8767 90.7527 30.8248 90.7268C30.7547 90.6917 30.6837 90.6597 30.6128 90.6261C30.5609 90.6024 30.5098 90.5773 30.4579 90.5536C30.3831 90.5208 30.3061 90.4895 30.2305 90.4583C30.1809 90.4377 30.1313 90.4163 30.0817 90.3965C29.9955 90.3629 29.9086 90.3316 29.8223 90.3003C29.7796 90.2851 29.7384 90.2683 29.6957 90.2538C29.566 90.2088 29.4348 90.166 29.3013 90.1264C29.1777 90.089 29.0533 90.0569 28.9289 90.028C28.8877 90.018 28.8473 90.0104 28.8069 90.002C28.7222 89.9837 28.6375 89.9669 28.5528 89.9517C28.5048 89.9433 28.4574 89.9364 28.4094 89.9295C28.3308 89.9173 28.2522 89.9066 28.1729 89.8975C28.124 89.8914 28.0745 89.886 28.0256 89.8815C27.9463 89.8738 27.8677 89.8677 27.7891 89.8632C27.7418 89.8601 27.6945 89.8571 27.6464 89.8548C27.5618 89.851 27.4771 89.8494 27.3916 89.8479C27.3519 89.8471 27.3123 89.8464 27.2718 89.8464C27.1482 89.8464 27.0239 89.8487 26.9011 89.854C26.8995 89.854 26.898 89.8548 26.8965 89.8548C26.7744 89.8601 26.6531 89.8685 26.5326 89.8792C26.4921 89.883 26.4524 89.8868 26.412 89.8914C26.3304 89.8998 26.2487 89.9082 26.1671 89.9181C26.1213 89.9234 26.0756 89.9303 26.0298 89.9364C25.955 89.9471 25.8795 89.9578 25.8055 89.97C25.7597 89.9776 25.7132 89.9852 25.6674 89.9929C25.5934 90.0058 25.5194 90.0196 25.4461 90.0341C25.4034 90.0424 25.3599 90.0508 25.3172 90.0592C25.2378 90.076 25.1593 90.0936 25.0807 90.1111C25.0463 90.1195 25.0113 90.1271 24.9769 90.1348C24.7534 90.1882 24.5352 90.2469 24.3254 90.3087C24.2926 90.3186 24.2605 90.3286 24.2277 90.3385C24.1751 90.3545 24.1217 90.3705 24.0698 90.3865C22.8086 88.6219 21.7871 86.7496 21.0287 84.8125C20.4679 83.3797 20.0567 81.9187 19.8065 80.4691C19.779 80.3112 19.7439 80.1281 19.7058 79.9266C19.5349 79.0264 19.1343 76.9176 19.4975 76.2805C19.528 76.2279 19.5509 76.2004 19.5623 76.1882C19.7439 76.1699 20.2475 76.3988 20.5236 76.5232C20.7045 76.6056 20.8914 76.6902 21.0813 76.7643C22.6629 77.3777 24.3124 77.8141 25.9069 78.2352L26.2983 78.339C41.3916 82.336 56.9929 83.5071 72.6683 81.818C77.004 81.3495 81.3391 80.6552 85.5513 79.755ZM83.666 78.1505C79.9856 78.8898 76.2228 79.4696 72.4585 79.8763C59.2245 81.3022 46.0447 80.656 33.1884 77.9628C33.1831 77.9155 33.1778 77.8682 33.1648 77.8209C32.0524 73.7461 33.9209 68.996 37.512 66.7713C37.5532 66.7461 37.5967 66.7232 37.6379 66.698C37.7295 66.6851 37.821 66.6629 37.9095 66.6217C39.2416 66.0038 41.8493 66.0564 44.4265 67.6311C45.4946 68.2842 46.4636 69.0746 47.489 69.9108C48.3862 70.6417 49.3132 71.3985 50.3164 72.0569C53.1828 73.9398 56.6191 74.9622 60.0492 74.9622C60.2285 74.9622 60.4078 74.9591 60.5871 74.9538C64.1943 74.8401 67.7702 73.5851 70.6564 71.4199C71.0882 71.0956 71.1752 70.4837 70.8517 70.0527C70.5282 69.6208 69.9156 69.5339 69.4845 69.8574C66.9165 71.7845 63.735 72.9007 60.5261 73.0014C57.3156 73.1037 54.0724 72.1874 51.3891 70.425C50.4698 69.8215 49.6214 69.1295 48.7234 68.3971C47.6927 67.5563 46.6261 66.6873 45.4451 65.9648C44.6531 65.4811 43.6789 65.0295 42.6275 64.7159C44.7584 64.0415 46.9435 63.3174 48.7532 61.8366C51.3937 59.6759 52.5969 56.4785 53.7603 53.3855C53.9442 52.8965 54.1273 52.4097 54.3158 51.9298C55.4808 48.9582 56.8869 46.8601 58.5134 45.6615C58.2792 46.6434 58.2258 47.7001 58.3601 48.8033C58.5928 50.7251 59.3908 52.6439 60.607 54.2064C61.9108 55.8818 63.5511 57.1651 65.2792 58.2157C64.2813 58.8642 63.3947 59.6462 62.5318 60.4099L62.3281 60.5899C61.1464 61.6344 59.9745 62.6148 58.6409 63.1397C57.572 63.5601 56.0263 63.7378 54.8948 62.9734C54.4477 62.672 53.8412 62.7887 53.5391 63.2358C53.237 63.6829 53.3545 64.2902 53.8015 64.5916C54.653 65.1676 55.6936 65.459 56.7984 65.459C57.6323 65.459 58.5028 65.2927 59.3565 64.957C60.9854 64.3161 62.303 63.2183 63.6213 62.054L63.8258 61.8732C64.9557 60.873 66.0238 59.9285 67.2728 59.3219C68.0899 59.7377 68.9062 60.1154 69.6959 60.4702C70.0834 60.6441 70.4733 60.8173 70.8639 60.9897C73.6402 62.2203 76.5112 63.4922 78.7634 65.456C82.2973 68.5375 84.2016 73.492 83.666 78.1505ZM70.1612 55.3325C69.7889 56.2023 69.3174 57.056 68.8353 57.8907C68.4385 57.6969 68.0448 57.4993 67.655 57.2948C68.2829 56.1557 69.261 55.1883 70.41 54.5826C70.3688 54.8221 70.2658 55.0876 70.1612 55.3325ZM74.7602 60.667C74.6489 60.6182 74.5367 60.5709 74.4261 60.5205C73.9874 60.3237 73.5502 60.1215 73.1138 59.9201C73.2702 58.8901 73.7051 57.8853 74.3566 57.0736C74.4841 56.9141 74.6771 56.6906 74.8709 56.5929C74.9647 56.5456 75.0441 56.5448 75.0502 56.5448C75.0517 56.5456 75.1554 56.6265 75.2485 57.0407C75.5201 58.2538 75.3355 59.5645 74.7602 60.667ZM77.7197 62.2623C77.3222 62.0098 76.9491 61.7031 76.5409 61.4734C77.2863 59.9865 77.5175 58.2363 77.1543 56.6135C77.0819 56.2892 76.8606 55.3012 75.9794 54.8267C75.3912 54.5101 74.6481 54.5177 73.9927 54.8481C73.464 55.1143 73.0947 55.524 72.8323 55.8513C72.0762 56.7943 71.5536 57.8937 71.2889 59.0648C71.118 58.984 70.9471 58.9046 70.7762 58.8222C70.7182 58.7947 70.6594 58.7665 70.6007 58.7383C71.0875 57.8937 71.5628 57.0209 71.9564 56.1016C72.2448 55.4287 72.5126 54.626 72.3143 53.7723C72.1952 53.2596 71.9099 52.8568 71.5109 52.6371C70.7838 52.2365 70.0468 52.5867 69.805 52.7019C68.1745 53.4771 66.8249 54.7542 65.9544 56.3282C65.6805 56.1557 65.4089 55.9803 65.1442 55.7933C66.1108 53.4099 68.5019 51.6017 71.063 51.3568C73.7173 51.1035 76.5135 52.5318 77.8654 54.8297C79.1769 57.0598 79.1059 60.0788 77.7197 62.2623ZM102.5 18.0805C102.158 20.1915 100.999 22.1614 99.8419 23.9986C95.0628 31.5837 89.4178 38.6066 83.0633 44.8719C81.4116 46.5 80.2977 46.8921 79.0907 46.2711C78.3689 45.8988 78.0539 45.0649 78.1546 43.7908C78.2721 42.3084 78.887 40.8107 79.4813 39.3627C79.5874 39.1048 79.6926 38.8485 79.7949 38.5929C80.6715 36.4032 81.5985 34.2411 82.5521 32.1674C84.7906 27.2953 87.2793 22.665 89.9496 18.4063C91.2291 16.3662 92.6466 14.2673 94.6661 12.994C96.3415 11.9373 98.9683 11.4177 100.776 12.775C102.176 13.8256 102.852 15.9084 102.5 18.0805Z" fill="#B52B65"/>
</g>
<defs>
<clipPath id="clip0_1636_1204">
<rect width="100" height="100" fill="white" transform="translate(10 10)"/>
</clipPath>
</defs>
</svg>
