<svg width="30" height="30" viewBox="0 0 30 30" fill="none" xmlns="http://www.w3.org/2000/svg">
<circle cx="15" cy="15" r="14" transform="rotate(-90 15 15)" fill="#F4F4F4" stroke="#B52B65" stroke-width="2"/>
<path d="M15.71 8.68C15.6433 8.34667 15.4233 8.18 15.05 8.18C14.9433 8.18 14.8633 8.18667 14.81 8.2C13.85 10.7333 12.9033 13.3733 11.97 16.12C11.9433 16.28 11.93 16.4 11.93 16.48C11.93 16.8 11.9967 16.9933 12.13 17.06C12.2633 17.1267 12.5433 17.16 12.97 17.16L15.85 17.18C15.81 18.78 15.79 20.3467 15.79 21.88C15.83 22.0533 15.9433 22.14 16.13 22.14C16.3567 22.14 16.53 22.0933 16.65 22C16.7833 21.8933 16.8633 21.78 16.89 21.66C16.9167 21.5267 16.9367 21.3467 16.95 21.12L17.05 17.16H17.71C18.1233 17.16 18.39 17.08 18.51 16.92C18.6567 16.7067 18.73 16.58 18.73 16.54C18.73 16.3267 18.57 16.22 18.25 16.22C17.65 16.22 17.2833 16.2133 17.15 16.2V11.72C17.03 11.68 16.9367 11.66 16.87 11.66C16.4433 11.66 16.19 11.8867 16.11 12.34C16.0433 12.6867 15.9967 13.0667 15.97 13.48C15.9567 13.88 15.9433 14.34 15.93 14.86C15.9167 15.3667 15.9033 15.7733 15.89 16.08H13.75C13.4167 16.08 13.25 16.0267 13.25 15.92L13.27 15.84C13.6433 14.9333 14.4567 12.5467 15.71 8.68Z" fill="#621055"/>
</svg>
