<svg width="30" height="30" viewBox="0 0 30 30" fill="none" xmlns="http://www.w3.org/2000/svg">
<circle cx="15" cy="15" r="14" transform="rotate(-90 15 15)" fill="#F4F4F4" stroke="#B52B65" stroke-width="2"/>
<path d="M13.1907 8.32H15.3507C15.5507 8.32 15.8174 8.32 16.1507 8.32C16.4974 8.30667 16.7774 8.3 16.9907 8.3C17.1507 8.3 17.2907 8.36 17.4107 8.48C17.5307 8.6 17.6107 8.72 17.6507 8.84L17.7107 9.02L14.6707 21.44C14.5507 21.7733 14.2774 21.94 13.8507 21.94C13.504 21.94 13.3307 21.84 13.3307 21.64C13.3307 21.5867 13.344 21.5067 13.3707 21.4L16.4907 9.46C15.9174 9.44667 15.164 9.44 14.2307 9.44C13.7507 9.44 13.4507 9.42667 13.3307 9.4C13.064 9.34667 12.9307 9.20667 12.9307 8.98C12.9307 8.88667 12.9507 8.78667 12.9907 8.68C13.044 8.56 13.0907 8.46667 13.1307 8.4L13.1907 8.32Z" fill="#621055"/>
</svg>
