<svg width="30" height="30" viewBox="0 0 30 30" fill="none" xmlns="http://www.w3.org/2000/svg">
<circle cx="15" cy="15" r="14" transform="rotate(-90 15 15)" fill="#F4F4F4" stroke="#B52B65" stroke-width="2"/>
<path d="M13.5364 11.74C13.6697 11.8867 13.8031 11.96 13.9364 11.96C14.0964 11.96 14.2297 11.8933 14.3364 11.76C14.4431 11.6267 14.5097 11.4933 14.5364 11.36L14.5764 11.18C14.6031 10.62 14.6964 10.1733 14.8564 9.84C15.0164 9.50667 15.1631 9.30667 15.2964 9.24C15.4297 9.16 15.5697 9.12 15.7164 9.12C16.4231 9.12 16.7764 9.65333 16.7764 10.72C16.7764 12.2667 16.0431 14.4267 14.5764 17.2C14.4297 17.4667 14.2231 17.8733 13.9564 18.42C13.6897 18.9533 13.5097 19.3133 13.4164 19.5C13.3764 19.62 13.2897 19.7867 13.1564 20C13.0364 20.2 12.9431 20.4 12.8764 20.6C12.8097 20.7867 12.7764 20.9933 12.7764 21.22C12.8031 21.42 12.8964 21.58 13.0564 21.7C13.2164 21.82 13.3964 21.88 13.5964 21.88C13.6897 21.88 14.2897 21.8733 15.3964 21.86C16.5031 21.8333 17.2164 21.82 17.5364 21.82C17.6964 21.82 17.8297 21.7667 17.9364 21.66C18.0431 21.5533 18.0964 21.4 18.0964 21.2C18.0964 20.88 17.8964 20.72 17.4964 20.72H17.2364C17.0764 20.72 16.7431 20.72 16.2364 20.72C15.7297 20.7067 15.0564 20.7 14.2164 20.7C15.2697 18.4733 15.9164 17.12 16.1564 16.64C17.4097 14.2667 18.0364 12.2667 18.0364 10.64C18.0364 9.70667 17.8097 9.04 17.3564 8.64C16.9031 8.24 16.4097 8.04 15.8764 8.04C15.3831 8.04 14.9631 8.13333 14.6164 8.32C14.2831 8.49333 14.0364 8.74 13.8764 9.06C13.7164 9.36667 13.6031 9.66667 13.5364 9.96C13.4831 10.24 13.4564 10.54 13.4564 10.86L13.5364 11.74Z" fill="#621055"/>
</svg>
