<svg width="100" height="100" viewBox="0 0 100 100" fill="none" xmlns="http://www.w3.org/2000/svg">
<g clip-path="url(#clip0_1107_4975)">
<circle cx="60" cy="40" r="50" fill="#F4F4F4"/>
<path d="M97.4959 68.4954C98.4961 65.6649 97.5539 62.3759 95.304 60.8447C95.2742 60.8248 95.243 60.8111 95.2117 60.7951C96.2477 58.4071 95.6717 55.53 93.8582 53.9988C93.9322 53.9507 94.0062 53.9049 94.0787 53.8554C96.6971 52.0762 98.3016 49.3189 98.2673 46.66C98.2459 45.0182 97.4944 43.3435 96.2569 42.1793C95.2246 41.2088 93.9559 40.687 92.6696 40.6954C93.283 39.126 93.4409 37.4216 93.035 35.8362C93.7117 35.3617 94.348 34.8215 94.9187 34.1944C96.1699 32.8211 96.9741 30.9595 97.1267 29.088C97.296 27.0113 96.6567 25.1665 95.3269 23.8931C95.3078 23.8748 95.2864 23.8618 95.2666 23.8458C95.5481 23.1599 95.6992 22.4199 95.6794 21.631C95.613 19.0843 93.8094 16.7863 90.3182 14.8019C87.6372 13.2776 84.7449 12.0919 81.5047 11.1779C81.7992 9.44606 81.6214 7.64247 80.8905 6.03647C79.3845 2.72607 75.8047 0.753868 71.7703 1.0064C67.7504 1.2597 64.4575 3.6622 63.3818 7.12672C63.3299 7.29304 63.2856 7.46089 63.2452 7.63026C63.1948 7.615 63.1437 7.60127 63.0896 7.5944C61.334 7.37467 59.5594 7.38078 57.8054 7.60737C57.6452 7.24192 57.4583 6.88792 57.2416 6.54993C55.3411 3.58591 51.8423 2.26754 48.3289 3.1907C46.1446 3.76443 44.3922 5.09119 43.3309 6.8574C41.7058 6.58808 40.0586 6.56214 38.4275 6.77882C38.1864 5.67942 37.766 4.61969 37.1595 3.66144C36.2577 2.23855 35.0789 1.18646 33.7491 0.61959C31.2947 -0.42564 28.1117 -0.135722 25.2355 1.39321C22.3927 2.90613 20.3999 5.33762 19.9063 7.89881C19.8216 8.33598 19.7766 8.77849 19.7636 9.22099C16.2305 10.5241 12.9475 12.1751 10.0033 14.1427C6.45718 16.5117 4.73599 19.3658 5.21969 22.03C2.84389 23.694 1.65828 27.0738 2.44335 30.1828C3.13915 32.9408 5.24487 35.4875 8.21881 37.1683C8.35233 37.2438 8.48813 37.3163 8.62317 37.388C8.33478 38.2845 8.33631 39.2733 8.61097 40.2399C6.03146 40.5321 3.63735 42.2586 2.57763 44.6322C1.46907 47.1163 1.86046 50.2176 3.55114 52.3493C4.75125 53.8607 6.37478 54.7701 8.15473 55.3912C8.16312 56.3197 8.29053 57.2474 8.52018 58.1499C6.22143 58.7946 4.22787 60.5296 3.28869 62.7245C2.3228 64.9806 2.47463 67.7096 3.68465 69.8451C4.85348 71.9096 6.76694 73.2318 8.92759 74.1435C8.83069 74.2747 8.76127 74.4296 8.74067 74.6035C8.67505 75.1445 8.70557 75.6999 8.82306 76.2492C5.32574 76.7039 2.46318 80.321 2.61882 84.2013C2.75387 87.5621 4.84585 90.8664 8.21424 93.04C11.2279 94.9855 14.7763 95.8263 17.8654 96.4618C32.1508 99.3999 46.5284 99.8943 59.9378 99.9897C60.8091 99.9958 61.6773 100 62.5448 100C70.3344 100 77.9433 99.6654 85.2972 97.4933C89.1844 96.3451 91.9699 94.9054 94.0634 92.9637C96.82 90.4063 98.2383 86.8266 97.7645 83.6223C97.238 80.0601 94.1535 77.1647 90.8583 77.019C91.1765 76.1607 91.3321 75.2734 91.3207 74.3769C91.5465 74.2846 91.7708 74.1893 91.9936 74.0863C94.7127 72.8251 96.6674 70.8392 97.4959 68.4954ZM87.8279 43.5564C85.0623 45.1815 82.9939 45.4462 80.5357 44.4796C81.2239 43.0582 81.4078 41.4591 80.9927 40.0591C82.5812 39.6929 84.1597 39.3 85.723 38.8758C87.5296 38.386 89.4705 37.8023 91.2581 36.8967C91.6098 39.3862 90.2251 42.1473 87.8279 43.5564ZM49.7312 43.5266C52.0704 43.5266 54.3989 43.4717 56.7137 43.3619C55.7714 45.4538 53.4849 47.5786 49.9479 48.1638C46.4521 48.7436 42.8419 47.7907 39.462 46.6745C38.2283 46.2671 37.0473 45.8407 36.1455 45.0968C35.3727 44.4597 34.9004 43.5907 34.876 42.7996C39.861 43.2833 44.8209 43.5266 49.7312 43.5266ZM79.077 40.4871C79.5378 41.8268 79.1853 43.8189 77.5503 45.2349C76.1885 46.4144 74.2026 47.0659 71.6482 47.1727C67.1988 47.3581 62.6905 45.9261 59.1505 43.2245C65.943 42.7881 72.608 41.8749 79.077 40.4871ZM65.2472 7.70579C65.9101 5.57032 68.0044 3.20062 71.8939 2.95572C75.112 2.75125 77.9455 4.27942 79.1128 6.84519C80.4961 9.88399 79.2601 13.9924 76.4151 15.8166C73.5884 17.6286 69.3678 17.1121 67.0057 14.6638C65.2327 12.8259 64.5254 10.0297 65.2472 7.70579ZM48.8256 5.07975C50.8596 4.54416 53.8542 4.88519 55.5975 7.60432C56.9853 9.76802 56.8037 12.8991 55.1763 14.8889C53.549 16.8771 50.5148 17.6751 48.1199 16.7436C45.7242 15.8113 44.0267 13.1738 44.1709 10.608C44.3525 7.38306 46.7916 5.61457 48.8256 5.07975ZM21.8243 8.2696C22.2073 6.28138 23.8255 4.35571 26.1533 3.11822C27.6067 2.34536 29.1326 1.9494 30.5387 1.9494C31.416 1.9494 32.2469 2.10351 32.9839 2.41708C34.2015 2.93588 35.0293 3.9483 35.5092 4.70667C37.296 7.52879 37.0969 11.4373 35.0354 14.0008C32.958 16.5841 29.1265 17.5615 26.1243 16.2729C23.0977 14.9736 21.2087 11.4579 21.8243 8.2696ZM11.089 15.767C13.7669 13.9779 16.7409 12.4589 19.9406 11.239C20.5365 14.1778 22.5621 16.8695 25.3537 18.0673C26.4806 18.551 27.6982 18.7814 28.9235 18.7814C31.8074 18.7814 34.7272 17.5004 36.5575 15.2246C38.017 13.4095 38.7281 11.0551 38.6632 8.71745C39.9473 8.54426 41.2427 8.54121 42.5252 8.71058C42.3597 9.28203 42.2559 9.88017 42.2208 10.4989C42.0286 13.9276 44.2113 17.3188 47.4119 18.564C48.3259 18.9195 49.2971 19.0896 50.2691 19.0896C52.6998 19.0896 55.1344 18.0238 56.6877 16.1256C58.1846 14.2953 58.7614 11.8165 58.3708 9.50633C59.8585 9.33925 61.3607 9.34688 62.8477 9.53227C62.9026 9.53914 62.9568 9.53837 63.011 9.53609C62.9866 11.8829 63.9021 14.2595 65.6004 16.0203C67.3979 17.8827 69.9675 18.8623 72.5195 18.8623C74.2621 18.8623 75.9962 18.4053 77.4695 17.4608C79.093 16.4193 80.2985 14.8393 80.9851 13.0609C84.0682 13.9314 86.814 15.056 89.3531 16.4995C92.208 18.123 93.6797 19.8663 93.727 21.6821C93.7888 24.0816 91.268 25.9775 88.8991 26.7244C85.5719 27.7719 82.0708 27.5842 78.3636 27.3843C75.1211 27.2096 71.7688 27.0288 68.5156 27.746C67.1255 28.0527 65.7621 28.5204 64.4438 28.9728C61.9375 29.8326 59.5701 30.6451 57.1478 30.3774C55.5609 30.2026 54.0441 29.5679 52.4374 28.8965C50.4545 28.0672 48.4052 27.2119 46.14 27.2386C44.1678 27.2646 42.362 27.9626 40.6156 28.6378C39.0165 29.2558 37.5058 29.8395 35.9426 29.9043C33.3249 30.0157 30.9354 28.679 28.407 27.2676C26.1563 26.0103 23.8286 24.711 21.1964 24.3867C19.4432 24.1716 17.7228 24.4142 16.0596 24.6484C14.9495 24.8056 13.9004 24.9528 12.8468 24.9742C10.4428 25.0291 7.72672 23.9824 7.18884 21.8996C6.48694 19.185 9.68214 16.7062 11.089 15.767ZM4.33697 29.7044C3.78841 27.5285 4.48574 25.1993 5.97806 23.9107C6.5228 24.7293 7.31778 25.4167 8.33707 25.9363C9.65238 26.6077 11.2675 26.9579 12.8857 26.9273C14.0568 26.9037 15.2135 26.7404 16.3319 26.5825C17.941 26.3559 19.4608 26.1415 20.9576 26.3254C23.2098 26.6023 25.2721 27.7544 27.4549 28.9728C30.1084 30.4544 32.8519 31.9849 36.0227 31.8559C37.9087 31.7781 39.6428 31.1075 41.3198 30.4598C42.9777 29.8181 44.544 29.2131 46.1652 29.1917C48.023 29.1727 49.8022 29.9112 51.6836 30.6978C53.3468 31.3936 55.0672 32.113 56.9334 32.319C57.3248 32.3625 57.7123 32.3816 58.0984 32.3816C60.5245 32.3816 62.834 31.5897 65.0778 30.8199C66.3443 30.3857 67.6542 29.9364 68.9352 29.6533C71.929 28.9941 75.1471 29.1673 78.2584 29.3344C81.9762 29.5343 85.8206 29.7418 89.4858 28.5867C91.2574 28.0283 93.0258 26.9807 94.2168 25.5594C95.9296 27.5377 95.2491 30.9305 93.4745 32.879C91.3886 35.1702 88.1156 36.2024 85.211 36.9913C76.5425 39.3434 67.4543 40.7892 58.1266 41.3301C58.0541 41.3263 57.984 41.3301 57.9145 41.3416C44.5829 42.0946 30.7622 40.9983 16.9659 38.0403C14.3284 37.4742 11.5552 36.8105 9.18012 35.4685C6.66852 34.0486 4.90307 31.9482 4.33697 29.7044ZM16.5562 39.95C21.9235 41.1005 27.2939 41.971 32.639 42.5661C31.9806 44.1484 29.762 44.9053 28.7755 45.1685C23.7836 46.5036 18.3461 45.801 13.8562 43.2421C12.5157 42.4776 11.6246 41.7307 11.0524 40.893C10.4703 40.0408 10.2421 39.0474 10.4199 38.2166C12.4241 39.0215 14.5306 39.5159 16.5562 39.95ZM5.0816 51.1355C3.83114 49.5592 3.54198 47.2658 4.36215 45.4287C5.18231 43.5915 7.0828 42.2754 9.09086 42.1541C9.23047 42.1457 9.36094 42.1076 9.47767 42.0473C10.4565 43.4519 11.8901 44.3689 12.8895 44.9389C16.1816 46.8157 19.9376 47.7839 23.7027 47.7839C25.5788 47.7839 27.4564 47.5435 29.2798 47.056C31.0964 46.57 32.5078 45.8017 33.4485 44.816C33.7865 45.4752 34.2794 46.0901 34.9035 46.6044C36.0662 47.5626 37.4334 48.0616 38.8501 48.5293C41.6875 49.4661 44.6912 50.2932 47.7438 50.2932C48.5815 50.2932 49.4237 50.2306 50.2668 50.091C53.7008 49.5226 56.6381 47.5153 58.1281 44.8984C61.7742 47.6236 66.326 49.1427 70.8784 49.1427C71.1622 49.1427 71.4461 49.1366 71.7299 49.1251C74.7366 48.9985 77.1246 48.1867 78.829 46.7119C79.0419 46.5273 79.2418 46.3305 79.4279 46.1245C79.4669 46.1474 79.5042 46.171 79.547 46.1893C80.818 46.7234 82.0296 46.9935 83.2465 46.9935C85.0257 46.9935 86.8163 46.4159 88.8167 45.2402C90.0481 44.5162 91.0681 43.5068 91.8189 42.3471C92.0089 42.544 92.2751 42.6645 92.5681 42.65C93.389 42.6088 94.2237 42.9483 94.9187 43.6022C95.7778 44.4101 96.2996 45.5629 96.3141 46.6852C96.3401 48.6963 95.0629 50.8249 92.9808 52.2394C90.9758 53.6028 88.4993 54.2559 86.1357 54.8075C64.4735 59.8635 39.7016 59.7529 12.5088 54.4787C9.65391 53.9248 6.72879 53.2107 5.0816 51.1355ZM12.1365 56.3959C26.1456 59.1135 39.5215 60.4723 52.1803 60.4716C64.3385 60.4716 75.8345 59.2173 86.5798 56.7095C88.4101 56.2823 90.3075 55.7932 92.079 54.9753C92.1508 55.1119 92.2522 55.2363 92.3888 55.3294C93.9292 56.3845 94.1001 58.7443 93.2936 60.2862C92.4552 61.8891 90.6821 63.1007 88.4276 63.6103C86.3402 64.0826 84.0788 63.9491 81.893 63.8209L81.8007 63.8156C79.5798 63.6851 77.0621 63.5371 74.613 64.152C73.667 64.39 72.7568 64.7357 71.8764 65.0698C70.4092 65.6268 69.0237 66.1532 67.6001 66.1532C67.5985 66.1532 67.597 66.1532 67.5947 66.1532C66.1711 66.1517 64.7863 65.623 63.3207 65.0637C62.2168 64.6426 61.0754 64.2069 59.8631 63.9834C56.9288 63.4409 54.0662 64.2039 51.2968 64.9417C48.8569 65.5909 46.552 66.2058 44.2411 65.9793C42.4215 65.8007 40.6873 65.108 38.8524 64.374C36.7162 63.5203 34.5075 62.6368 32.0989 62.6025C29.8589 62.5651 27.7753 63.2746 25.7558 63.9567C24.1071 64.5136 22.5507 65.0393 20.9409 65.1835C18.2179 65.4276 15.3836 64.4763 13.3603 62.6368C11.4941 60.9393 10.3161 58.4834 10.1338 55.9656C10.7976 56.1266 11.4689 56.2662 12.1365 56.3959ZM5.38449 68.8822C4.46819 67.2663 4.35375 65.2011 5.08465 63.4928C5.81021 61.7976 7.36661 60.4632 9.15113 60.0001C9.82099 61.545 10.8059 62.9534 12.0465 64.0818C14.4665 66.2829 17.8578 67.4227 21.1156 67.129C22.9558 66.9634 24.6968 66.3752 26.3806 65.8068C28.3292 65.1492 30.1709 64.5228 32.0699 64.5548C34.1176 64.5838 36.0646 65.3628 38.1269 66.1875C40.0083 66.9398 41.9538 67.7172 44.0504 67.9232C46.7145 68.1834 49.2994 67.4945 51.7995 66.8284C54.4775 66.1151 57.0066 65.4414 59.5083 65.9037C60.5459 66.0952 61.5553 66.4805 62.6242 66.8879C64.1905 67.4861 65.8102 68.104 67.5932 68.1056H67.6001C69.3823 68.1056 71.0028 67.4906 72.5699 66.8955C73.4358 66.5667 74.2537 66.2562 75.0891 66.0464C77.2467 65.5039 79.6057 65.6428 81.6862 65.7649L81.7778 65.7702C84.1002 65.9068 86.5012 66.0479 88.8587 65.5154C91.0842 65.0126 92.9518 63.9201 94.184 62.4415C94.1916 62.4468 94.197 62.4537 94.2046 62.459C95.7457 63.5081 96.3683 65.8228 95.6542 67.8439C95.0118 69.6612 93.3783 71.2909 91.1719 72.3147C89.1532 73.2508 86.9132 73.6483 84.4054 74.0367C57.6406 78.1787 34.731 78.0757 14.3674 73.7216C10.8555 72.9716 7.04236 71.8089 5.38449 68.8822ZM39.9144 78.8493C42.5176 78.9615 45.1581 79.0202 47.8429 79.0202C53.5024 79.0202 59.3489 78.7715 65.399 78.2756C63.9975 80.8757 61.2631 82.9311 57.8916 83.8626C54.8872 84.6927 51.4028 84.7232 46.9259 83.9587C44.9819 83.6276 43.4202 83.2316 42.1148 82.3794C40.772 81.5013 39.9244 80.1311 39.9144 78.8493ZM13.9592 75.632C21.51 77.2464 29.4042 78.2802 37.7027 78.741C37.3693 79.7336 36.5522 80.6636 35.4459 81.2686C34.039 82.0384 32.3712 82.2658 30.9255 82.3855C25.7794 82.8143 20.5144 82.0567 15.6979 80.1944C14.478 79.7221 13.091 79.1064 12.064 78.1215C11.0646 77.1625 10.5473 75.9349 10.6801 74.8378C10.6824 74.8202 10.6801 74.8034 10.6808 74.7859C11.765 75.13 12.8758 75.4001 13.9592 75.632ZM90.3891 78.9706C92.9206 78.8318 95.4161 81.0939 95.8327 83.9084C96.2127 86.4848 95.0263 89.4061 92.7352 91.5317C90.8705 93.2613 88.3315 94.5606 84.7434 95.6203C76.8278 97.9587 68.4996 98.0976 59.9516 98.0365C46.6421 97.9419 32.3796 97.4536 18.2591 94.5484C15.3432 93.9487 12.0038 93.1613 9.2732 91.3989C6.43811 89.5694 4.68029 86.8495 4.57119 84.1228C4.44149 80.8993 6.96835 78.3175 9.3144 78.1627C9.40366 78.1566 9.48759 78.1344 9.56846 78.107C9.87516 78.6143 10.2582 79.095 10.7121 79.5306C11.9885 80.7544 13.593 81.4738 14.9937 82.0155C19.1586 83.6261 23.6417 84.4554 28.1133 84.4554C29.1066 84.4554 30.0992 84.4142 31.088 84.3318C32.7375 84.1945 34.6563 83.9267 36.3836 82.9822C37.2403 82.5137 37.9667 81.9079 38.5282 81.2144C39.0531 82.2955 39.9198 83.2774 41.0467 84.0144C42.7274 85.1123 44.708 85.5617 46.5978 85.8844C48.8554 86.2697 50.8855 86.4627 52.7464 86.4627C54.817 86.4627 56.6793 86.2239 58.412 85.7448C61.746 84.8239 64.5567 82.9204 66.3328 80.4599C66.8783 81.2694 67.6733 81.969 68.6476 82.4504C70.2292 83.2324 71.9908 83.3888 73.5449 83.5277C75.1173 83.6673 76.7859 83.8161 78.4781 83.8161C80.4892 83.8161 82.5346 83.6062 84.4931 82.9227C86.3623 82.2703 88.0736 81.1015 89.3111 79.6306C89.5224 79.3803 89.7147 79.124 89.8932 78.8638C90.042 78.9401 90.2106 78.9821 90.3891 78.9706ZM83.8492 81.0779C80.641 82.1986 76.9629 81.8706 73.7181 81.5814C72.267 81.4525 70.767 81.319 69.5128 80.6987C68.6232 80.2592 67.7267 79.4017 67.52 78.3862C67.5558 78.3038 67.5917 78.2214 67.6252 78.1375C67.6329 78.1192 67.6359 78.1001 67.642 78.081C73.1566 77.5783 78.8382 76.8748 84.7037 75.9669C86.341 75.7136 87.8737 75.4542 89.3355 75.0483C89.0166 77.8644 86.4462 80.1715 83.8492 81.0779Z" fill="#B52B65"/>
</g>
<defs>
<clipPath id="clip0_1107_4975">
<rect width="100" height="100" fill="white"/>
</clipPath>
</defs>
</svg>
