<svg width="30" height="30" viewBox="0 0 30 30" fill="none" xmlns="http://www.w3.org/2000/svg">
<circle cx="15" cy="15" r="14" transform="rotate(-90 15 15)" fill="#F4F4F4" stroke="#B52B65" stroke-width="2"/>
<path d="M16.082 8.16C16.122 8.2 16.142 8.74 16.142 9.78C16.142 10.8733 16.122 12.4133 16.082 14.4C16.0553 16.3733 16.022 18.08 15.982 19.52L15.922 21.66C15.5753 21.9133 15.262 22.04 14.982 22.04C14.8353 22.04 14.7286 21.9867 14.662 21.88C14.6486 21.8667 14.642 21.7067 14.642 21.4L14.902 10.96L12.722 14.8H12.482C12.322 14.7867 12.182 14.7533 12.062 14.7C11.9553 14.6467 11.902 14.5533 11.902 14.42C11.902 14.2733 11.9486 14.0933 12.042 13.88L14.922 8.32C15.082 8.12 15.322 8.02 15.642 8.02C15.7753 8.02 15.922 8.06667 16.082 8.16Z" fill="#621055"/>
</svg>
