<svg width="110" height="110" viewBox="0 0 110 110" fill="none" xmlns="http://www.w3.org/2000/svg">
<circle cx="60" cy="50" r="50" fill="#F4F4F4"/>
<g clip-path="url(#clip0_1636_1203)">
<path d="M99.9437 24.8056C99.8087 24.4272 99.457 24.1709 99.0564 24.1571C74.0229 23.3217 48.6483 23.5659 23.6383 24.8827C20.537 25.046 16.6765 25.2489 13.1357 26.4421L12.9717 26.4971C11.6838 26.9297 9.91992 27.5217 8.82892 28.5234C7.76004 29.5046 7.57083 31.0419 7.41977 32.2771C7.38086 32.5945 7.34348 32.8951 7.29617 33.156L0.49762 70.4477C0.154297 72.3307 -0.234802 74.4638 0.177948 76.5696C0.667755 79.0644 2.32333 81.0259 4.39624 81.5668C7.1619 82.2886 9.86957 80.4102 11.1124 78.1817C12.3453 75.9707 12.5231 73.4232 12.6802 71.1748L14.6112 43.4877C14.7058 42.1343 14.8127 40.5993 15.542 39.4754C16.1165 38.5889 17.3922 37.9595 18.2367 38.4447C19.0088 38.8887 19.3018 40.0827 19.5162 41.1676L26.8373 78.1962C27.7071 82.5945 28.7889 88.0686 32.5663 91.733C36.9074 95.9444 43.4107 96.48 49.7011 96.6684C50.6235 96.6959 51.5398 96.7157 52.4454 96.7157C57.2344 96.7157 61.7098 96.1596 65.1674 93.2444C68.5709 90.375 69.903 86.1239 71.1779 81.27L76.7916 59.9031C77.91 55.6475 79.0659 51.2476 80.9809 47.2467C85.1351 38.5706 92.8553 31.8224 99.6668 25.8684C99.9682 25.6044 100.078 25.1833 99.9437 24.8056ZM79.2193 46.4037C77.2242 50.5716 76.0439 55.0638 74.9025 59.4072L69.2888 80.7741C68.0994 85.3006 66.8741 89.2504 63.9078 91.7513C60.3243 94.7725 55.1706 94.8778 49.7591 94.7161C43.6075 94.5322 37.768 94.0584 33.9258 90.3307C30.8382 87.3354 29.7564 82.8913 28.7531 77.817L21.4327 40.7892C21.1351 39.2824 20.6934 37.604 19.2095 36.7517C18.7326 36.4771 18.1551 36.3321 17.5455 36.3321C16.2622 36.3321 14.8355 36.9761 13.9032 38.4134C12.9 39.9599 12.7687 41.8413 12.6635 43.3519L10.7317 71.039C10.589 73.0837 10.4273 75.4 9.40647 77.2303C8.55121 78.7645 6.6759 80.1424 4.8891 79.677C3.35254 79.2757 2.37827 77.6384 2.09445 76.1942C1.75342 74.4509 2.0914 72.5939 2.4187 70.7987L9.21802 33.5062C9.27524 33.1888 9.31568 32.8615 9.3584 32.5144C9.47666 31.55 9.61093 30.4567 10.1496 29.9623C10.9354 29.2414 12.472 28.7249 13.5942 28.348L13.759 28.293C17.0473 27.1852 20.759 26.9899 23.7413 26.8328C47.8724 25.5625 72.3436 25.2924 96.5181 26.0302C90.0614 31.711 83.1637 38.1639 79.2193 46.4037Z" fill="#B52B65"/>
<path d="M44.5012 50.7507C40.8459 51.2695 36.9992 52.0179 32.7427 53.0387C32.5855 53.0761 32.4299 53.1128 32.275 53.1494C29.7237 53.749 26.5499 54.496 27.1427 58.6166C27.5761 61.6272 28.056 64.6789 28.5206 67.6307C28.7571 69.1322 28.9928 70.6337 29.2248 72.1359C29.9297 76.7189 30.8079 82.4226 34.3334 86.5287C36.5139 89.0693 40.7887 92.2172 48.766 92.7909C49.4092 92.8367 50.0928 92.865 50.8038 92.865C54.4911 92.865 58.9108 92.1051 62.1305 89.1433C65.4691 86.0748 66.6692 81.4331 67.7289 77.3384C69.7103 69.68 71.9572 61.9842 74.4077 54.4654C74.5306 54.0886 74.4131 53.6743 74.1109 53.4179C72.4821 52.037 70.4023 51.4671 68.398 51.0566C61.2172 49.5864 53.4001 49.4857 44.5012 50.7507ZM32.7221 55.0506C32.8793 55.0132 33.038 54.9758 33.1982 54.9377C37.3944 53.9321 41.1816 53.1951 44.7758 52.684C53.4497 51.4518 61.0486 51.5449 68.0066 52.9701C69.2685 53.2287 70.5533 53.556 71.6588 54.1282C70.5732 54.9392 69.2464 55.4481 68.0692 55.838C61.5155 58.0093 54.4415 58.3061 48.3777 58.3061C48.3578 58.3061 48.3372 58.3061 48.3174 58.3061C44.0991 58.3046 39.1354 58.1688 34.3052 57.1724C32.98 56.8992 31.4869 56.5269 30.1449 55.8395C30.7369 55.545 31.5807 55.3192 32.7221 55.0506ZM65.8376 76.8501C64.7977 80.87 63.722 85.0273 60.8083 87.706C57.4803 90.7661 52.4976 91.101 48.9064 90.8432C45.6044 90.6059 39.513 89.5645 35.8151 85.2569C32.6534 81.5742 31.8226 76.1764 31.1543 71.8391C30.9231 70.3346 30.6866 68.8316 30.4501 67.3271C29.9862 64.3821 29.5071 61.3365 29.076 58.3389C29.0287 58.0062 29.0104 57.7156 29.0249 57.4585C30.6309 58.329 32.378 58.7692 33.9108 59.0858C38.9126 60.1173 43.9999 60.2577 48.3166 60.2592H48.3784C54.5979 60.2592 61.8672 59.9502 68.6834 57.6919C69.6538 57.3707 70.7204 56.974 71.7336 56.4056C69.5875 63.1492 67.6061 70.0134 65.8376 76.8501Z" fill="#B52B65"/>
</g>
<defs>
<clipPath id="clip0_1636_1203">
<rect width="100" height="100" fill="white" transform="translate(0 10)"/>
</clipPath>
</defs>
</svg>
