<svg width="30" height="30" viewBox="0 0 30 30" fill="none" xmlns="http://www.w3.org/2000/svg">
<circle cx="15" cy="15" r="14" transform="rotate(-90 15 15)" fill="#F4F4F4" stroke="#B52B65" stroke-width="2"/>
<path d="M14.8406 12.48C16.5206 12.48 17.3606 13.7267 17.3606 16.22C17.3606 16.7667 17.3473 17.22 17.3206 17.58C17.3073 17.9267 17.2406 18.3333 17.1206 18.8C17.014 19.2533 16.8606 19.62 16.6606 19.9C16.4606 20.1667 16.1673 20.4 15.7806 20.6C15.394 20.7867 14.9273 20.88 14.3806 20.88C13.914 20.88 13.5206 20.7467 13.2006 20.48C12.894 20.2133 12.6673 19.8333 12.5206 19.34C12.374 18.8333 12.274 18.3333 12.2206 17.84C12.1806 17.3333 12.1606 16.7267 12.1606 16.02V12.6C12.1606 11.7333 12.1873 11.0133 12.2406 10.44C12.3073 9.85333 12.4273 9.28 12.6006 8.72C12.774 8.16 13.054 7.74 13.4406 7.46C13.8273 7.18 14.314 7.04 14.9006 7.04C15.354 7.04 15.734 7.12 16.0406 7.28C16.3473 7.42667 16.574 7.63333 16.7206 7.9C16.8673 8.16667 16.9673 8.42 17.0206 8.66C17.074 8.88667 17.1006 9.13333 17.1006 9.4C17.1006 9.88 16.9673 10.12 16.7006 10.12C16.594 10.12 16.474 10.0867 16.3406 10.02C16.2206 9.95333 16.1206 9.89333 16.0406 9.84L15.9206 9.74V9.46C15.9206 8.96667 15.834 8.58 15.6606 8.3C15.5006 8.02 15.3406 7.86667 15.1806 7.84L14.9406 7.78C14.6073 7.79333 14.3273 7.98 14.1006 8.34C13.874 8.7 13.714 9.16 13.6206 9.72C13.5406 10.2667 13.4873 10.7267 13.4606 11.1C13.434 11.4733 13.4206 11.84 13.4206 12.2V12.84C13.8873 12.6 14.3606 12.48 14.8406 12.48ZM14.6406 20.12C14.934 20.12 15.1806 20 15.3806 19.76C15.5806 19.5067 15.7206 19.18 15.8006 18.78C15.894 18.38 15.954 18.0267 15.9806 17.72C16.0206 17.4 16.0406 17.0933 16.0406 16.8C16.0406 16.1867 16.0273 15.72 16.0006 15.4C15.9873 15.0667 15.9406 14.72 15.8606 14.36C15.794 14 15.6673 13.74 15.4806 13.58C15.294 13.42 15.054 13.3267 14.7606 13.3C14.2273 13.3 13.7673 13.48 13.3806 13.84C13.354 14.4533 13.3406 14.8933 13.3406 15.16C13.3406 16.72 13.454 17.94 13.6806 18.82C13.9073 19.6867 14.2273 20.12 14.6406 20.12Z" fill="#621055"/>
</svg>
