<svg width="30" height="30" viewBox="0 0 30 30" fill="none" xmlns="http://www.w3.org/2000/svg">
<circle cx="15" cy="15" r="14" transform="rotate(-90 15 15)" fill="#F4F4F4" stroke="#B52B65" stroke-width="2"/>
<path d="M13.6852 10.74C13.7386 10.82 13.8186 10.86 13.9252 10.86C14.0719 10.86 14.2452 10.8133 14.4452 10.72C14.6452 10.6133 14.7452 10.5 14.7452 10.38C14.7452 9.99333 14.8252 9.62667 14.9852 9.28C15.1452 8.92 15.4052 8.74 15.7652 8.74C16.0986 8.74 16.3386 8.92 16.4852 9.28C16.6452 9.64 16.7252 10.0667 16.7252 10.56C16.7252 11.28 16.6586 11.8733 16.5252 12.34C16.3919 12.7933 16.2652 13.0867 16.1452 13.22C16.0252 13.34 15.8719 13.4533 15.6852 13.56C15.6052 13.6 15.4719 13.62 15.2852 13.62C15.0986 13.62 14.9452 13.6533 14.8252 13.72C14.7186 13.7733 14.6652 13.9 14.6652 14.1C14.6652 14.4067 14.7852 14.56 15.0252 14.56C16.2786 14.56 16.9052 15.48 16.9052 17.32V17.72C16.9052 20.0667 16.4519 21.24 15.5452 21.24C15.1986 21.24 14.9519 21.1267 14.8052 20.9C14.6586 20.66 14.5919 20.3933 14.6052 20.1C14.6186 19.8067 14.6119 19.5133 14.5852 19.22C14.5586 18.9133 14.4852 18.7067 14.3652 18.6C14.2586 18.4933 14.1319 18.44 13.9852 18.44C13.8652 18.44 13.7452 18.4733 13.6252 18.54C13.5052 18.5933 13.4186 18.6533 13.3652 18.72L13.2652 18.8C13.2652 20.0267 13.4319 20.8733 13.7652 21.34C14.1119 21.8067 14.7186 22.04 15.5852 22.04C16.5986 22.04 17.2852 21.62 17.6452 20.78C18.0052 19.9267 18.1852 18.6267 18.1852 16.88C18.1852 16.3867 18.1252 15.9533 18.0052 15.58C17.8852 15.1933 17.7386 14.9133 17.5652 14.74C17.3919 14.5533 17.2119 14.4067 17.0252 14.3C16.8519 14.18 16.7052 14.1067 16.5852 14.08L16.4052 14.06C17.4186 13.9533 17.9252 12.9267 17.9252 10.98C17.9252 8.94 17.2452 7.92 15.8852 7.92C15.0586 7.92 14.4719 8.14667 14.1252 8.6C13.7919 9.05333 13.6252 9.55333 13.6252 10.1L13.6852 10.74Z" fill="#621055"/>
</svg>
