<svg width="105" height="110" viewBox="0 0 105 110" fill="none" xmlns="http://www.w3.org/2000/svg">
<circle cx="50" cy="50" r="50" fill="#F4F4F4"/>
<g clip-path="url(#clip0_1636_1206)">
<path d="M99.9347 89.4656L98.3317 20.8421C98.186 14.6134 96.1673 10.9788 92.6463 10.6072C90.7344 10.4058 88.7614 10.447 86.8541 10.4859C85.9652 10.5042 85.049 10.5241 84.167 10.5157L22.0919 10.0022C18.5321 9.97397 14.532 10.1777 12.1173 12.9975C9.99097 15.4801 10.0505 19.1117 10.0894 21.515L11.2826 94.9825C11.3032 96.2467 11.3345 98.1578 12.5239 99.5067C13.4555 100.562 14.7555 100.949 16.0823 101.097L15.8725 106.782C15.8534 107.303 15.8213 108.174 16.3424 108.88C17.0855 109.887 18.4092 109.903 19.0455 109.911L26.0371 109.998C26.1119 109.999 26.195 110 26.2858 110C27.183 110 28.8119 109.899 29.5894 108.581C29.9876 107.906 29.9899 107.161 29.9914 106.616L30.0074 101.334C33.4514 101.36 36.8991 101.374 40.3499 101.374C53.1566 101.374 65.9961 101.193 78.7616 100.837L78.7059 108.618C78.7021 109.146 79.1186 109.581 79.6458 109.6L88.3143 109.922C88.4402 109.927 88.5821 109.932 88.7362 109.932C89.3435 109.932 90.1301 109.85 90.7611 109.321C91.7483 108.493 91.7186 107.158 91.7033 106.441L91.5645 100.194C94.6048 99.6814 97.4917 98.5103 98.9512 95.7805C100.035 93.7549 99.9789 91.3768 99.9347 89.4656ZM13.6012 14.2678C15.3666 12.2056 18.5733 11.953 21.5526 11.953C21.728 11.953 21.9027 11.9538 22.0759 11.9553L84.151 12.4688C85.0581 12.4764 85.992 12.4573 86.8945 12.4383C88.7416 12.4001 90.652 12.3612 92.4418 12.5497C95.7057 12.8937 96.3092 17.9215 96.3786 20.8871C96.432 23.1668 96.4854 25.4487 96.5388 27.7322C82.9066 28.5577 69.0036 28.283 55.5514 28.0145C41.3203 27.7314 26.6147 27.4415 12.1554 28.4494C12.1173 26.127 12.0799 23.8053 12.0425 21.4829C11.9967 18.6929 12.0822 16.0416 13.6012 14.2678ZM28.0383 106.61C28.0375 106.948 28.036 107.37 27.9071 107.589C27.6553 108.016 26.7352 108.054 26.0623 108.046L19.0699 107.959C18.825 107.956 18.0804 107.946 17.9141 107.721C17.7981 107.564 17.8149 107.12 17.8248 106.855L18.0331 101.192C21.3679 101.247 24.7088 101.288 28.0543 101.318L28.0383 106.61ZM89.5061 107.824C89.2917 108.004 88.7263 107.984 88.3876 107.971L80.6659 107.684L80.7155 100.782C82.9638 100.716 85.2107 100.647 87.4537 100.569C88.1556 100.545 88.8827 100.505 89.6167 100.44L89.7502 106.485C89.7578 106.818 89.7754 107.599 89.5061 107.824ZM97.2293 94.8596C95.5874 97.9297 91.3325 98.4821 87.3866 98.6171C64.2894 99.4106 40.8618 99.6181 17.7546 99.2343C16.2829 99.2099 14.7799 99.1115 13.9888 98.2151C13.3304 97.4674 13.2563 96.2444 13.2357 94.9504C13.1625 90.4453 13.0893 85.9408 13.016 81.4357C12.839 70.5546 12.6628 59.6735 12.4858 48.7924C12.3858 42.663 12.2867 36.5343 12.1875 30.4048C26.5933 29.3939 41.2906 29.6838 55.5125 29.9676C68.9792 30.2354 82.8967 30.5108 96.5846 29.6853C96.7296 35.9086 96.8753 42.1396 97.021 48.3728C97.2697 59.0258 97.5184 69.6795 97.7672 80.3332C97.8389 83.3926 97.9098 86.452 97.9823 89.5114C98.0235 91.2807 98.0708 93.2865 97.2293 94.8596Z" fill="#B52B65"/>
<path d="M30.0508 39.5434C30.9777 39.8806 31.9261 39.9234 32.7623 39.9615C37.7237 40.1873 42.7179 40.3003 47.7143 40.3003C53.2663 40.3003 58.8212 40.1614 64.335 39.8822C67.2769 39.7334 70.4965 39.5305 74.1792 39.2611C75.0917 39.1948 76.2269 39.1116 77.2439 38.6035C78.9659 37.7437 79.3328 36.2926 79.1017 35.2206C78.7965 33.8054 77.4644 32.7731 75.8622 32.7113C73.7558 32.6297 71.6142 32.6244 69.5428 32.6198C68.4221 32.6175 67.2624 32.6144 66.1271 32.5999C59.353 32.5107 52.4964 32.4291 45.7482 32.3573C41.8771 32.3161 38.0067 32.2772 34.1363 32.2414C32.8485 32.2299 31.2448 32.2139 29.8349 32.9257C27.9054 33.9 27.2424 35.9279 27.7154 37.3248C28.0519 38.3174 28.9025 39.1253 30.0508 39.5434ZM30.7153 34.6698C31.5568 34.2448 32.615 34.1914 33.6114 34.1914C33.7823 34.1914 33.9517 34.193 34.1172 34.1945C37.9876 34.2303 41.8573 34.2693 45.7269 34.3104C52.4736 34.3822 59.3293 34.4638 66.1012 34.5531C67.2471 34.5676 68.4121 34.5706 69.5382 34.5729C71.5921 34.5775 73.7153 34.5828 75.7867 34.6629C76.616 34.695 77.0967 35.1878 77.1928 35.6326C77.2927 36.0995 76.9937 36.5451 76.3711 36.8564C75.699 37.1921 74.8544 37.2539 74.0373 37.3134C70.3691 37.5812 67.1632 37.7833 64.2358 37.9313C53.824 38.4585 43.2641 38.4845 32.8508 38.0107C32.1206 37.9779 31.3653 37.9428 30.7191 37.7078C30.1393 37.4972 29.7082 37.1196 29.5655 36.6984C29.3145 35.9584 29.9577 35.052 30.7153 34.6698Z" fill="#B52B65"/>
<path d="M24.5557 25.866C25.6322 26.339 26.6644 26.5763 27.6402 26.5763C28.0347 26.5763 28.4207 26.5373 28.7961 26.4595C30.579 26.0887 32.1736 24.7475 32.9571 22.9599C33.6483 21.3814 33.7322 19.5038 33.1921 17.6735C32.6466 15.8219 31.2092 14.2235 29.4415 13.5018C27.8905 12.8678 26.2479 12.9593 24.8166 13.7581C22.9672 14.7896 21.4505 16.8839 20.9523 19.0941C20.5632 20.8176 20.8425 22.4602 21.7381 23.7198C22.3607 24.5957 23.309 25.3174 24.5557 25.866ZM22.8574 19.5229C23.2335 17.8566 24.4031 16.2247 25.7687 15.4633C26.9253 14.8178 28.0026 15.0231 28.703 15.3092C28.9273 15.4007 29.1432 15.5136 29.3499 15.6433C28.5962 16.6954 27.8828 17.7895 27.229 18.9026C26.9559 19.3672 27.1115 19.9661 27.5769 20.2393C27.7318 20.3301 27.9019 20.3736 28.0697 20.3736C28.4047 20.3736 28.7312 20.2011 28.9128 19.8914C29.485 18.9171 30.1068 17.9581 30.7599 17.0311C31.0032 17.4004 31.194 17.8032 31.3183 18.2251C31.728 19.6152 31.6746 21.0182 31.1673 22.1756C30.634 23.394 29.5727 24.3027 28.3978 24.5468C27.2824 24.7788 26.1197 24.4202 25.3415 24.0776C24.4222 23.6733 23.7447 23.172 23.3296 22.5876C22.5995 21.5607 22.6697 20.3545 22.8574 19.5229Z" fill="#B52B65"/>
<path d="M50.8545 25.8662C51.9211 26.3346 52.9755 26.5734 53.9589 26.5734C54.3503 26.5734 54.7302 26.5353 55.0949 26.4597C56.8778 26.0889 58.4724 24.7477 59.2559 22.9594C59.9471 21.3816 60.031 19.504 59.4916 17.6737C58.9461 15.8221 57.5088 14.2237 55.7403 13.5012C54.1893 12.868 52.5467 12.9595 51.1162 13.7575C49.2668 14.7898 47.7501 16.8841 47.2512 19.0935C46.8629 20.8178 47.1413 22.4604 48.037 23.72C48.6596 24.5959 49.6079 25.3176 50.8545 25.8662ZM49.1562 19.5231C49.2874 18.9425 49.5163 18.3672 49.8146 17.8309C50.4204 18.3535 50.9926 18.9181 51.5175 19.52C51.7105 19.7413 51.9814 19.8542 52.2537 19.8542C52.4811 19.8542 52.71 19.7756 52.8946 19.6139C53.3012 19.2591 53.3432 18.6426 52.9892 18.236C52.3773 17.5349 51.7075 16.8787 50.9979 16.2745C51.3313 15.9502 51.6914 15.6725 52.0676 15.4635C53.2234 14.818 54.3014 15.0233 55.0018 15.3094C56.2339 15.8129 57.2364 16.9298 57.6179 18.2253C58.0276 19.6154 57.9734 21.0184 57.4668 22.1758C56.9328 23.3942 55.8723 24.3029 54.6974 24.547C53.582 24.779 52.4193 24.4204 51.6411 24.0778C50.7218 23.6735 50.0443 23.1722 49.6292 22.5878C48.8984 21.5609 48.9693 20.3547 49.1562 19.5231Z" fill="#B52B65"/>
<path d="M78.8338 25.8662C79.8997 26.3346 80.9533 26.5734 81.9375 26.5734C82.3281 26.5734 82.7081 26.5353 83.0735 26.4597C84.8565 26.0889 86.4511 24.7477 87.2346 22.9594C87.9258 21.3808 88.0098 19.5032 87.4704 17.6729C86.9249 15.8221 85.4875 14.2229 83.719 13.5012C82.1679 12.868 80.5253 12.9595 79.0948 13.7575C77.2454 14.7898 75.7287 16.8841 75.2297 19.0935C74.8413 20.817 75.1206 22.4604 76.0155 23.72C76.6388 24.5959 77.5864 25.3176 78.8338 25.8662ZM77.1355 19.5231C77.5109 17.8568 78.6812 16.2249 80.0462 15.4635C81.2028 14.818 82.2801 15.0233 82.9804 15.3094C83.4481 15.5001 83.8822 15.7801 84.2629 16.1249L81.1692 19.8092C80.8228 20.2219 80.8762 20.8376 81.2898 21.1848C81.4721 21.3381 81.6949 21.4136 81.9169 21.4136C82.1954 21.4136 82.4723 21.2946 82.6653 21.065L85.4333 17.7683C85.4959 17.9179 85.5508 18.0704 85.5966 18.2253C86.0063 19.6154 85.9529 21.0184 85.4455 22.1758C84.9122 23.3942 83.8502 24.3029 82.676 24.547C81.5606 24.779 80.3979 24.4196 79.6197 24.0778C78.7003 23.6735 78.0236 23.1722 77.6078 22.5878C76.8776 21.5609 76.9478 20.3547 77.1355 19.5231Z" fill="#B52B65"/>
<path d="M92.3008 46.4518C92.1451 45.0243 91.8979 43.5473 90.7558 42.5471C89.6488 41.5781 88.129 41.5049 87.1235 41.4568C65.1806 40.4047 42.9539 42.0924 21.4588 43.7243C20.4235 43.8029 17.2725 44.0417 16.4661 46.5624C15.9366 48.2149 15.9145 50.1185 15.8939 51.9595C15.8855 52.7003 15.8771 53.3999 15.8352 54.0453C15.498 59.2493 15.2363 64.5365 15.0577 69.7596C14.9586 72.6557 14.883 75.5854 14.8334 78.4685C14.7686 82.2115 14.7632 85.5883 15.3538 89.007C15.6139 90.5123 16.0396 92.2297 17.2222 93.5488C18.8236 95.3348 21.2345 95.8155 23.6019 96.068C27.2785 96.4602 30.994 96.5609 34.6721 96.5609C36.6352 96.5609 38.5875 96.5319 40.5163 96.5037C55.4119 96.2847 70.8149 96.0581 85.9447 95.0442C88.2114 94.8923 90.3866 94.6421 92.0971 93.2688C94.2844 91.5118 94.8101 88.5714 95.0146 86.5122C95.3602 83.0401 95.1702 79.5908 94.9062 75.7662C94.2341 66.0242 93.3575 56.1617 92.3008 46.4518ZM93.0706 86.3192C92.8005 89.0345 92.1024 90.7595 90.8741 91.746C89.6046 92.7653 87.8315 92.9598 85.8143 93.0956C70.7348 94.1058 55.3577 94.3323 40.488 94.5513C35.0025 94.6322 29.33 94.7153 23.8087 94.1264C21.8296 93.915 19.8376 93.5404 18.6764 92.2457C17.8242 91.2943 17.4915 89.9065 17.2787 88.6744C16.7164 85.4243 16.7232 82.1451 16.7858 78.5021C16.8361 75.6304 16.9109 72.7114 17.0093 69.826C17.1879 64.6227 17.4488 59.3561 17.7845 54.172C17.8295 53.4739 17.8379 52.7491 17.8463 51.9816C17.8661 50.2856 17.886 48.5308 18.3254 47.1583C18.6031 46.2931 19.6453 45.8208 21.6068 45.6721C43.0424 44.0447 65.208 42.3617 87.0304 43.4084C88.0024 43.455 88.9202 43.5366 89.4688 44.0165C90.0837 44.5544 90.2408 45.5752 90.3591 46.6639C91.4135 56.3479 92.2878 66.1845 92.9577 75.9013C93.2155 79.6358 93.4017 82.9974 93.0706 86.3192Z" fill="#B52B65"/>
<path d="M90.7621 76.4707C89.5056 75.7093 87.9667 75.7467 86.6095 75.7795C86.2471 75.7886 85.9037 75.7963 85.594 75.7886C84.1749 75.752 82.7566 75.7146 81.3376 75.6765L80.5388 75.6559L79.8689 75.6376C79.1639 75.6193 78.4483 75.6002 77.7281 75.5819L81.2941 66.3724C81.4116 66.0695 81.3704 65.7277 81.1842 65.4607C81.0492 65.2669 80.8531 65.1326 80.6288 65.0746C82.4019 62.7171 82.9405 59.3953 81.7984 56.6632C81.3994 55.708 80.6372 54.4369 79.273 53.806C78.0821 53.2551 76.824 53.3497 75.5331 53.5046C74.6344 53.6129 73.1703 53.7892 71.9763 54.5384C71.5506 53.5977 71.0066 52.6188 70.2131 51.8238C68.7468 50.3544 66.5724 49.6914 64.5346 50.0935C63.1132 50.3742 61.8261 51.1608 60.9068 52.2625C59.5343 50.3453 57.1615 49.1299 54.7979 49.281C52.4572 49.4305 50.2821 50.9075 49.1537 52.9492C48.0185 51.7475 46.5139 50.8961 44.8881 50.5734C42.6375 50.1271 40.2166 50.7061 38.4115 52.1214C37.6043 52.7554 36.8124 53.7098 36.4737 54.8237C34.4626 54.1531 32.0562 54.9344 30.4609 56.2893C28.797 57.7015 27.7037 59.676 27.4603 61.7062C27.2329 63.5991 27.7769 65.5484 28.8954 66.9911C28.8305 67.0438 28.768 67.1018 28.7092 67.1697C28.2301 67.7205 28.1981 68.4636 28.6131 69.3784C29.5942 71.5413 30.6585 73.6928 31.7762 75.7963C31.0354 75.8253 30.2847 75.8474 29.5515 75.8695C26.4532 75.9618 23.2496 76.0572 20.1971 76.6408C19.599 76.7545 18.3546 76.9926 17.6565 77.9752C16.7257 79.2867 17.3277 81.0529 18.4195 81.938C19.3815 82.7184 20.574 82.9389 21.7199 83.0618C23.628 83.2662 25.5682 83.2746 27.3016 83.2746H27.5511C47.8987 83.2701 68.5156 82.6933 88.8304 81.5611C89.5926 81.5191 91.1772 81.4306 91.9302 80.1595C92.7137 78.8366 91.9561 77.1825 90.7621 76.4707ZM29.3997 61.9382C29.5843 60.3917 30.4327 58.875 31.7251 57.7771C33.5264 56.2474 35.6588 56.255 36.6781 57.1477C36.9902 57.42 37.4411 57.4666 37.8019 57.2621C38.1636 57.0576 38.3558 56.6464 38.2818 56.2382C38.1025 55.2472 38.8891 54.2286 39.617 53.658C40.9803 52.5891 42.8083 52.1519 44.5082 52.4891C46.2072 52.8263 47.7301 53.928 48.5823 55.4364C48.7822 55.7904 49.1812 55.9834 49.5817 55.9208C49.9838 55.8583 50.305 55.5539 50.3882 55.1564C50.8299 53.0545 52.7792 51.3668 54.9223 51.2295C57.0631 51.0914 59.2131 52.5189 59.9188 54.5475C60.0523 54.9298 60.4071 55.1907 60.8122 55.2029C61.2181 55.2174 61.5873 54.9756 61.743 54.6017C62.2847 53.3001 63.529 52.2824 64.9122 52.0092C66.2977 51.7361 67.8343 52.2045 68.8307 53.2032C69.7165 54.0913 70.2391 55.3967 70.7007 56.5487C70.8334 56.8806 71.1363 57.1133 71.4903 57.156C71.8458 57.198 72.1945 57.0439 72.402 56.7532C73.0536 55.84 74.4803 55.5981 75.7666 55.4432C76.8065 55.3181 77.7258 55.2418 78.4529 55.5783C79.0724 55.8651 79.6209 56.5175 79.9963 57.4162C81.0949 60.0445 80.1672 63.3847 77.886 65.0861L47.756 65.6079C42.2583 65.7025 36.5835 65.8017 30.9958 66.4479C30.9538 66.3777 30.905 66.3098 30.8432 66.2503C29.7598 65.199 29.2067 63.5465 29.3997 61.9382ZM30.3564 68.4918C36.1235 67.7632 42.0538 67.6602 47.7903 67.5611L78.9488 67.0209L75.6544 75.5285C73.2626 75.4674 70.8235 75.4095 68.4118 75.3606C59.342 75.1768 52.3451 75.1577 45.7266 75.3004C41.8127 75.3843 37.8546 75.5208 33.9377 75.7001C32.6773 73.3754 31.484 70.9783 30.3915 68.5712C30.3785 68.5422 30.3671 68.5163 30.3564 68.4918ZM90.2502 79.1639C90.0282 79.5377 89.0791 79.5904 88.722 79.6102C68.4431 80.7409 47.8621 81.3162 27.5511 81.3207C25.8024 81.3207 23.8249 81.3223 21.9282 81.1193C21.0806 81.0285 20.2177 80.8805 19.6493 80.4197C19.2221 80.0733 19.0237 79.4225 19.2488 79.1051C19.4632 78.8038 20.0338 78.6596 20.5633 78.5581C23.4633 78.0042 26.5883 77.9111 29.6095 77.8211C30.6509 77.7898 31.7274 77.7578 32.7734 77.7074C37.081 77.4984 41.4526 77.3458 45.7686 77.2527C48.6662 77.1909 51.6371 77.1589 54.8246 77.1589C58.8888 77.1589 63.3055 77.21 68.3722 77.313C72.2166 77.3908 76.1343 77.4923 79.817 77.5899L81.2857 77.6289C82.7047 77.6662 84.1238 77.7044 85.5436 77.741C85.903 77.7502 86.286 77.741 86.6568 77.7318C87.8004 77.7044 88.9822 77.6754 89.7566 78.1438C90.1426 78.375 90.4013 78.9083 90.2502 79.1639Z" fill="#B52B65"/>
</g>
<defs>
<clipPath id="clip0_1636_1206">
<rect width="100" height="100" fill="white" transform="translate(5 10)"/>
</clipPath>
</defs>
</svg>
