<svg width="110" height="110" viewBox="0 0 110 110" fill="none" xmlns="http://www.w3.org/2000/svg">
<circle cx="60" cy="50" r="50" fill="#F4F4F4"/>
<path d="M99.5143 47.9177C98.4554 44.206 95.7004 41.0925 92.1451 39.588C88.8317 38.1864 84.9994 38.2597 81.7402 39.7535C80.9475 38.5717 79.9488 37.3792 78.561 36.6728C78.4771 36.63 78.3916 36.5919 78.307 36.5537C78.0056 31.3162 74.4129 26.1831 69.3028 23.728C68.2469 23.2214 67.1322 22.8208 65.9771 22.5263C67.0178 21.0035 67.4641 19.1595 67.1559 17.4833C66.6691 14.8374 64.2773 12.7164 61.5925 12.5494C58.9077 12.3815 56.2718 14.1904 55.4608 16.7547C54.8565 18.6658 55.3227 20.8151 56.5472 22.3684C55.4783 22.5858 54.4117 22.8803 53.3581 23.2549C50.4277 24.2956 48.0435 25.7688 46.2712 27.635C44.2555 29.7575 43.0592 32.4514 42.9494 35.079C41.2267 36.0533 39.6291 37.6829 38.2413 39.9114C36.0158 43.4843 34.7524 47.5691 34.4258 51.7294C32.3484 50.308 30.7172 47.8826 29.9581 45.0056C29.057 41.5869 29.3676 37.911 29.7383 35.0904C29.7963 34.6502 29.5499 34.2268 29.1394 34.0589C28.7282 33.8911 28.256 34.0215 27.9897 34.3763C26.6362 36.1761 25.1027 38.2162 23.039 39.2545C21.2255 40.167 19.0801 40.296 17.0041 40.4218C16.5388 40.4493 16.1581 40.8033 16.0955 41.2657C16.0329 41.7272 16.3061 42.1697 16.7478 42.32C18.6468 42.9693 20.561 43.7307 21.2812 45.2673C21.7313 46.2293 21.6733 47.4066 21.6115 48.6524C21.6016 48.8455 21.5917 49.0385 21.5841 49.23C21.2888 56.6343 24.233 63.6427 29.7109 68.7338C25.4842 68.8559 21.272 69.2427 17.1003 69.8988C15.6942 70.1193 14.1057 70.4557 13.0506 71.6528C12.1984 72.6202 11.9443 73.8089 11.968 75.0654C10.8739 74.4307 9.69749 74.1995 8.78502 74.082C6.88302 73.8386 4.9154 74.3628 3.38724 75.5201C1.82932 76.7012 0.709324 78.5399 0.236303 80.6997C-0.749413 85.1919 1.42115 90.132 5.39681 92.4444C7.04094 93.4004 8.92235 93.8666 10.806 93.8666C13.2139 93.8666 15.6232 93.1021 17.5435 91.6304C17.9944 92.2133 18.4842 92.771 19.0183 93.2974C19.6973 93.9673 20.4137 94.5547 21.15 95.0712C19.46 95.2025 17.793 95.2978 16.1642 95.3902C13.7266 95.5282 11.2066 95.6717 8.62633 95.9364C8.28606 95.9707 7.98851 96.1821 7.84279 96.4911C7.69707 96.8008 7.72377 97.1647 7.91374 97.4493C10.922 101.961 15.592 104.259 18.9786 105.393C23.4243 106.882 28.1995 107.252 32.2843 107.418C33.5996 107.471 35.0339 107.513 36.5506 107.513C40.2005 107.513 44.3234 107.271 48.3761 106.372C54.218 105.075 59.2266 102.529 62.8598 99.0072C63.1062 98.7684 63.2092 98.4167 63.1306 98.0818C63.0513 97.7469 62.8018 97.4791 62.4737 97.3753C57.9548 95.9479 52.5837 94.9652 47.7429 94.6341C48.7851 93.9406 49.7716 93.1669 50.6878 92.314C53.7793 89.4362 56.0757 85.5589 57.1537 81.3963C57.4673 80.187 57.6764 78.9663 57.7809 77.7487C58.6697 77.8036 59.5448 77.8334 60.4061 77.8334C64.8213 77.8326 68.8717 77.1093 72.4781 75.6712C75.2033 74.5848 77.6462 73.081 79.7016 71.2606C80.4523 72.5317 81.5174 74.0332 82.9967 75.1471C84.4097 76.2114 86.0485 76.7759 87.614 76.7759C88.1847 76.7759 88.7462 76.7012 89.2826 76.5478C91.7041 75.8551 93.3796 73.5045 93.0973 71.1966C93.0133 70.5091 92.7814 69.908 92.5571 69.3258C92.4053 68.9314 92.2611 68.5591 92.1802 68.1959C91.7614 66.3198 92.9523 64.4186 93.6992 63.452C94.2256 62.7714 94.8131 62.1443 95.4357 61.4798C96.1948 60.6695 96.9799 59.831 97.6497 58.8819C99.876 55.7287 100.573 51.6294 99.5143 47.9177ZM51.6575 34.7807L51.1868 34.6693C49.3802 34.2413 47.5125 33.7988 45.58 34.1238C45.3824 34.1573 45.1863 34.2008 44.9902 34.2504C45.0497 34.2352 45.3252 33.0099 45.4579 32.5277C51.199 32.4743 57.2773 32.456 63.2199 32.7764C63.8104 32.8085 64.4009 32.8436 64.9914 32.8787C66.9293 32.9939 68.9037 33.1114 70.8851 33.1114C72.4049 33.1114 73.9292 33.0404 75.4452 32.8481C75.8762 33.8667 76.1723 34.9272 76.3004 35.9998C74.9508 35.8244 73.5684 35.9609 72.2935 36.0876L71.9868 36.1181C65.1692 36.7895 58.3294 36.3386 51.6575 34.7807ZM57.3224 17.3437C57.8625 15.637 59.6875 14.388 61.4712 14.4987C63.2572 14.6101 64.9105 16.0764 65.2348 17.8365C65.498 19.267 64.954 20.8974 63.8165 22.1052C62.2517 21.8908 60.6358 21.8565 59.0054 22.006C57.5306 21.0477 56.7921 19.0214 57.3224 17.3437ZM47.6872 28.98C49.2459 27.339 51.3737 26.032 54.012 25.0951C58.9909 23.3274 64.2559 23.4708 68.4567 25.4888C70.8485 26.637 73.0206 28.6253 74.4823 30.9919C71.3909 31.3009 68.2018 31.1125 65.1081 30.9293C64.513 30.8935 63.9187 30.8584 63.3251 30.8263C57.6794 30.5219 51.9322 30.5196 46.4627 30.5654C46.8281 29.9932 47.2394 29.4515 47.6872 28.98ZM24.7487 57.6811C24.0293 55.5761 23.6211 53.3674 23.5349 51.145C23.5105 50.5239 23.5097 49.9128 23.5112 49.3078C23.5151 47.434 23.5364 45.6159 22.939 43.7353C22.9223 43.6842 22.9062 43.6331 22.8895 43.5819C22.7559 43.1784 22.5995 42.7717 22.3249 42.4467C22.051 42.1224 21.6367 41.8882 21.2133 41.9294C22.1105 41.8417 23.1244 41.3976 23.9164 40.9994C25.3217 40.2921 26.4714 39.2652 27.4732 38.149C26.8644 38.8288 27.0902 40.9124 27.239 41.6967C27.7234 44.2495 28.2926 46.9969 29.6064 49.2681C30.7309 51.2136 32.3377 52.9013 34.3381 53.9534C34.348 59.2222 35.8525 64.4896 38.8173 68.8826C36.7337 68.7536 34.6494 68.6911 32.5658 68.6926C32.5093 68.601 32.4407 68.5156 32.3529 68.4446C28.8831 65.6424 26.1937 61.9085 24.7487 57.6811ZM17.4039 71.8283C22.4294 71.0379 27.5151 70.6419 32.6131 70.6419C36.1745 70.6419 39.7412 70.8349 43.2965 71.2217C45.4488 71.456 47.6178 71.7649 49.7449 72.1395C50.1965 72.2197 50.6672 72.2845 51.1647 72.3532C52.3785 72.521 53.5069 72.7797 54.4064 73.4556C52.2046 74.6145 49.6236 75.1005 47.1341 75.4446C36.5003 76.914 25.6643 76.2732 15.7972 73.5945C15.3455 73.4716 14.9244 73.3488 14.5437 73.1939C15.2235 72.2448 16.1992 72.0175 17.4039 71.8283ZM13.3016 82.2554C13.6198 83.4776 13.9905 84.6975 14.4376 85.8877C14.4338 85.9053 14.4262 85.9205 14.4224 85.9389C14.2408 86.8735 13.4511 87.6959 12.457 87.9858C11.4812 88.2704 10.3414 88.0652 9.40834 87.438C8.52257 86.8422 7.82219 85.8793 7.43691 84.7273C7.24389 84.1505 6.98601 83.0481 7.42928 82.1425C7.84813 81.2857 8.92235 80.7112 10.0347 80.7425C11.0868 80.7722 12.2114 81.2834 13.2009 82.1806C13.2322 82.2096 13.2673 82.2317 13.3016 82.2554ZM6.37871 90.7568C3.16827 88.8891 1.3479 84.7464 2.14365 81.1186C2.51749 79.4127 3.37808 77.9776 4.56674 77.0773C5.69055 76.2266 7.13784 75.8406 8.5363 76.0199C10.2422 76.2381 11.3287 76.7485 12.0595 77.6754C12.1404 77.7777 12.2381 77.8586 12.3449 77.9188C12.4418 78.4262 12.5433 78.9389 12.6508 79.4554C11.8146 79.0434 10.9441 78.8145 10.0904 78.7901C8.20595 78.7375 6.43059 79.7377 5.67452 81.2834C5.1191 82.4186 5.08706 83.8614 5.5845 85.346C6.10558 86.9047 7.0768 88.2231 8.31886 89.0585C9.29771 89.7169 10.4421 90.0618 11.5621 90.0618C12.0527 90.0618 12.5387 89.9954 13.0033 89.8604C13.9722 89.5781 14.8267 88.9822 15.4386 88.2155C15.7415 88.8327 16.0718 89.4354 16.4327 90.0206C13.6533 92.1965 9.43199 92.5329 6.37871 90.7568ZM54.6772 102.212C52.5303 103.214 50.2644 103.953 47.9527 104.465C42.4359 105.691 36.7238 105.644 32.3644 105.466C28.4162 105.306 23.8126 104.952 19.5989 103.541C17.8907 102.97 16.2404 102.213 14.713 101.256C14.06 100.846 13.5091 100.4 12.9995 99.9205C16.4899 101.139 20.1749 101.678 23.7195 102.112C28.4871 102.695 33.5835 103.17 38.7845 103.17C44.9498 103.17 51.2608 102.498 57.3407 100.553C57.2682 100.616 57.2155 100.661 57.1904 100.682C56.3992 101.317 55.6088 101.777 54.6772 102.212ZM52.3274 97.1007C53.6717 97.2967 55.0236 97.5119 56.3488 97.8117C56.9004 97.9361 57.417 98.1177 57.9388 98.2931C46.7519 102.219 34.5326 101.468 23.9568 100.172C20.1276 99.7038 16.1352 99.1125 12.4967 97.6454C13.7594 97.5477 15.0159 97.4119 16.2748 97.3402C18.7116 97.2021 21.2316 97.0595 23.8118 96.7947C23.9003 96.7856 23.9835 96.7612 24.0628 96.7306C26.2662 97.7362 28.4574 98.2466 30.2289 98.5022C31.4427 98.6777 32.6596 98.7639 33.8719 98.7639C37.5592 98.7639 41.187 97.9666 44.4585 96.4636C47.0914 96.4743 49.7235 96.72 52.3274 97.1007ZM55.2639 80.9065C54.2775 84.7136 52.1802 88.2574 49.3573 90.8842C47.7711 92.3613 45.9584 93.5805 43.9984 94.5227C43.8031 94.5509 43.6284 94.6356 43.488 94.7607C39.5184 96.5491 34.9843 97.2159 30.5074 96.5697C27.6258 96.1539 23.5311 95.0072 20.3901 91.9081C16.4968 88.0652 15.1327 82.2004 14.1592 77.0048C14.0455 76.3945 13.9356 75.7185 13.9547 75.0608C14.3865 75.2264 14.8321 75.3561 15.2852 75.4789C21.8633 77.265 28.8564 78.1675 35.938 78.1675C39.7511 78.1675 43.5895 77.9059 47.4011 77.3794C50.1927 76.9941 53.1079 76.4326 55.6477 75.0036C56.3893 76.6935 55.6996 79.2242 55.2639 80.9065ZM71.7548 73.8569C67.7036 75.4721 63.0291 76.1221 57.8579 75.7956C57.8579 75.7551 57.8595 75.7147 57.8587 75.6743C57.8427 74.4299 57.8183 72.5493 56.11 71.6208C54.7375 70.8754 52.982 70.6327 51.4325 70.4184C50.9534 70.3527 50.5009 70.2894 50.0836 70.2162C47.9153 69.8339 45.7028 69.5189 43.5078 69.2808C42.7274 69.1954 41.9453 69.1236 41.1641 69.0565C41.1488 68.8841 41.0909 68.7124 40.9802 68.5629C38.1764 64.7596 36.5239 59.9119 36.3286 54.9147C36.1325 49.9174 37.4005 44.956 39.8991 40.9445C41.1313 38.9654 43.1737 36.5103 45.9042 36.0502C47.4469 35.7908 49.0445 36.1692 50.7367 36.5705L51.2135 36.6827C55.8461 37.7744 60.6198 38.3337 65.3881 38.3688C65.5873 40.0038 65.8589 41.6456 66.2014 43.2562C66.2564 43.5125 66.3067 43.8169 66.3609 44.1389C66.528 45.1399 66.7286 46.34 67.236 47.2822C66.2556 47.4882 65.2691 47.6995 64.2933 47.9139C63.9431 47.9902 63.5083 48.0856 63.0932 48.348C62.3989 48.786 61.9587 49.552 61.7832 50.6254C61.5238 52.2161 61.8275 53.7992 62.0945 55.1969L63.2725 61.3523C63.3465 61.7384 63.4701 62.3846 63.9851 62.8523C64.41 63.2391 64.9243 63.349 65.324 63.4016C65.6758 63.4474 66.0237 63.4649 66.3655 63.4649C66.8339 63.4649 67.2909 63.4321 67.7311 63.3955C70.8065 63.1414 73.8827 62.6265 76.8734 61.8643C77.3403 61.7453 78.0453 61.566 78.603 61.064C79.1607 60.5604 79.491 59.8295 79.6108 58.8285C79.8122 57.1562 79.4567 55.5029 79.0432 53.9656C78.3428 51.3616 77.5028 48.6807 75.6306 47.022C74.1932 45.7487 72.1279 46.1805 71.2467 46.3652C70.9988 46.417 70.7531 46.4887 70.5143 46.5589C69.5942 46.8283 69.3119 46.8443 69.141 46.6383C68.6619 46.06 68.4544 44.8164 68.2873 43.8169C68.2301 43.4728 68.1751 43.1486 68.1126 42.8503C67.7967 41.3671 67.545 39.8573 67.355 38.352C68.9671 38.3146 70.5769 38.22 72.1783 38.0628L72.488 38.0316C74.3114 37.85 76.1974 37.6615 77.6752 38.4138C78.8937 39.0333 79.7893 40.2906 80.5035 41.4381C82.8045 45.13 84.2418 49.1056 84.6607 52.9356C85.12 57.1409 84.3532 61.3287 82.5016 64.7253C80.3219 68.7201 76.5057 71.9633 71.7548 73.8569ZM65.3004 61.4042C65.2546 61.3188 65.2088 61.0784 65.1905 60.9846L64.0126 54.8292C63.7638 53.5307 63.5075 52.1887 63.7104 50.939C63.7882 50.4629 63.9431 50.1203 64.1354 49.999C64.2605 49.9197 64.4894 49.8693 64.7106 49.8213C66.0038 49.5382 67.3153 49.2582 68.6085 48.9904C68.8122 48.9477 68.9869 48.8447 69.1197 48.7043C69.8322 48.7928 70.5479 48.5838 71.0629 48.4327C71.2742 48.3709 71.4741 48.3122 71.6465 48.2763C72.6284 48.0703 73.7156 47.9345 74.3343 48.4831C75.9251 49.8922 76.6659 52.6487 77.1572 54.4729C77.5761 56.0301 77.824 57.3271 77.6714 58.5951C77.6112 59.0994 77.4845 59.4419 77.2945 59.6121C77.1107 59.7784 76.7765 59.873 76.3905 59.9714C73.505 60.7069 70.5372 61.2036 67.5694 61.4485C66.9148 61.5026 66.2205 61.5484 65.5773 61.4645C65.4049 61.4416 65.3301 61.4172 65.3004 61.4042ZM86.6016 52.722C86.3392 50.3233 85.7067 47.8765 84.7408 45.4725C85.9386 44.9697 87.4408 45.072 88.6745 45.767C89.9677 46.4941 90.9809 47.83 91.4531 49.4314C91.8834 50.8879 91.885 52.5816 91.4585 54.328C90.6765 57.53 88.5334 60.391 85.7158 62.1061C86.639 59.1749 86.9541 55.9507 86.6016 52.722ZM96.0544 57.7551C95.4616 58.5943 94.7567 59.3473 94.0097 60.1454C93.3841 60.8129 92.7372 61.5042 92.1543 62.2572C90.5025 64.3942 89.8349 66.654 90.2736 68.6216C90.3866 69.1267 90.5635 69.5852 90.7344 70.0285C90.9244 70.5214 91.1037 70.9867 91.1586 71.4338C91.3219 72.7675 90.2164 74.2491 88.7455 74.6702C87.3218 75.0776 85.6128 74.6725 84.1717 73.5868C82.7984 72.5531 81.8134 71.047 81.1474 69.8591C82.3566 68.5743 83.3927 67.1682 84.2151 65.6599C84.3815 65.3547 84.5371 65.0419 84.6874 64.7261C84.814 64.7245 84.9422 64.6994 85.0658 64.646C89.1277 62.8729 92.3038 59.0971 93.3559 54.7918C93.864 52.7105 93.8533 50.6658 93.3261 48.8783C92.7112 46.7939 91.3646 45.0392 89.632 44.0649C87.8734 43.0746 85.7067 42.9449 83.9565 43.6857C83.5956 42.9273 83.2012 42.1766 82.7747 41.435C85.4717 40.2822 88.6905 40.2471 91.3845 41.387C94.3553 42.6435 96.751 45.352 97.636 48.4541C98.521 51.5562 97.9152 55.1199 96.0544 57.7551Z" fill="#B52B65"/>
</svg>
