<svg width="30" height="30" viewBox="0 0 30 30" fill="none" xmlns="http://www.w3.org/2000/svg">
<circle cx="15" cy="15" r="14" transform="rotate(-90 15 15)" fill="#F4F4F4" stroke="#B52B65" stroke-width="2"/>
<path d="M12.7429 13.1C12.7829 13.4067 12.9562 13.5733 13.2629 13.6H13.6429C14.6562 13.6 15.2829 13.8067 15.5229 14.22C15.7762 14.62 15.9029 15.48 15.9029 16.8C15.9029 18.3467 15.8696 19.3133 15.8029 19.7C15.6429 20.6733 15.2229 21.16 14.5429 21.16C14.0896 21.16 13.7629 20.9933 13.5629 20.66C13.3762 20.3267 13.2829 19.9267 13.2829 19.46C13.2829 18.9533 13.2562 18.6467 13.2029 18.54C13.1629 18.42 13.0229 18.36 12.7829 18.36C12.6362 18.36 12.5096 18.4 12.4029 18.48C12.3096 18.56 12.2496 18.64 12.2229 18.72L12.1829 18.86C12.1829 19.3533 12.2096 19.7667 12.2629 20.1C12.3162 20.4333 12.4162 20.76 12.5629 21.08C12.7229 21.4 12.9629 21.64 13.2829 21.8C13.6029 21.96 14.0096 22.04 14.5029 22.04C14.8629 22.04 15.1762 22 15.4429 21.92C15.7229 21.8267 15.9562 21.7133 16.1429 21.58C16.3429 21.4467 16.5029 21.24 16.6229 20.96C16.7429 20.6667 16.8362 20.4 16.9029 20.16C16.9829 19.9067 17.0362 19.5467 17.0629 19.08C17.1029 18.6 17.1229 18.18 17.1229 17.82C17.1362 17.4467 17.1429 16.9333 17.1429 16.28C17.1429 15.72 17.0829 15.22 16.9629 14.78C16.8562 14.34 16.7229 14.0067 16.5629 13.78C16.4029 13.5533 16.2429 13.3733 16.0829 13.24C15.9362 13.1067 15.8029 13.0133 15.6829 12.96L15.5029 12.86C15.1296 12.7267 14.7296 12.6467 14.3029 12.62C14.0496 12.62 13.8829 12.6267 13.8029 12.64V9.5C13.8029 9.46 14.3829 9.44 15.5429 9.44H16.3229C16.4296 9.44 16.5362 9.38 16.6429 9.26C16.7629 9.12667 16.8229 8.98667 16.8229 8.84C16.8229 8.70667 16.7429 8.58667 16.5829 8.48C16.3829 8.36 15.9829 8.3 15.3829 8.3C13.9296 8.3 13.0962 8.35333 12.8829 8.46C12.8296 8.48667 12.7896 8.54 12.7629 8.62C12.7362 8.7 12.7229 8.77333 12.7229 8.84V8.94L12.7429 13.1Z" fill="#621055"/>
</svg>
