<svg width="82" height="81" viewBox="0 0 82 81" fill="none" xmlns="http://www.w3.org/2000/svg">
<g clip-path="url(#clip0_1107_4106)">
<path d="M81.0055 64.3067C80.9155 63.9769 80.5106 62.1397 80.2122 60.7861C79.8381 59.0873 79.6058 58.0376 79.5367 57.7885C78.8957 55.4664 78.1302 53.1481 77.2636 50.8986C76.0167 47.6641 74.3778 44.5324 72.7932 41.504C72.178 40.3288 71.542 39.1137 70.9423 37.917C70.6748 37.3835 70.3413 36.7209 69.8384 36.1665L79.8806 11.243C79.9953 10.9581 79.9343 10.6339 79.7241 10.4099C76.8408 7.34032 73.5722 3.86095 69.1752 2.37691C66.2388 1.38509 63.0313 1.40539 60.1998 1.42262L19.8981 1.66996C17.4006 1.68534 14.5697 1.70318 11.9816 2.6064C8.01785 3.99015 5.00017 7.32002 2.57543 9.99523C2.37265 10.2186 2.31594 10.5379 2.42812 10.8172L12.3989 35.598C12.439 35.6977 12.4975 35.7844 12.5684 35.8564L0.450233 65.1299C0.253 65.3748 0.21232 65.7236 0.377504 66.0134C1.22807 67.5067 1.90853 69.0849 2.56618 70.6108C3.24109 72.1766 3.93942 73.7954 4.83314 75.365C5.40882 76.3753 6.12564 77.6329 7.31089 78.4038C8.51957 79.1901 9.98341 79.32 11.2426 79.32C11.5767 79.32 11.8966 79.3107 12.1937 79.3027L68.8713 77.676C70.7407 77.6224 73.0674 77.5554 74.9325 76.3193C77.4559 74.6476 78.418 71.741 79.3481 68.9305C79.7635 67.6759 80.1931 66.3814 80.7546 65.2179C80.9426 65.0721 81.064 64.8463 81.0616 64.5903C81.0603 64.49 81.0406 64.3947 81.0055 64.3067ZM77.9927 11.7075C77.8775 11.9943 77.7622 12.281 77.6464 12.5677C76.0112 16.6266 74.376 20.6856 72.7402 24.7446C71.8594 26.9306 70.9786 29.1167 70.0978 31.3028C69.8026 32.0362 69.5068 32.769 69.2115 33.5024C69.1061 33.7645 69.0137 34.0106 68.9107 34.2302C67.2441 31.5021 65.3353 28.9069 63.2224 26.5086C63.0541 26.3178 62.8002 26.0299 62.7965 25.8564C62.794 25.7579 62.8686 25.577 62.9339 25.4177C64.849 20.7693 66.3553 15.9228 67.4148 11.008C68.3412 11.0597 69.267 11.1113 70.1946 11.1679C71.5204 11.2498 72.8449 11.3359 74.1701 11.4276C74.5282 11.4528 77.9286 11.8669 77.9927 11.7075ZM48.7183 64.1461C48.5525 62.8196 48.8175 61.5287 49.4579 60.5757C50.1784 59.5051 51.4321 58.8566 52.581 58.9618C52.8614 58.9876 53.1561 59.0559 53.4679 59.1279C53.9888 59.2479 54.5792 59.3845 55.2067 59.331C56.3833 59.2307 57.335 58.5083 58.111 57.8149C58.1898 57.7442 58.2687 57.6728 58.3482 57.6014C58.9356 57.0698 59.491 56.5678 60.1314 56.3475C60.6676 56.1629 61.4202 56.2675 61.6427 56.7136C61.7271 56.8834 61.7635 57.1369 61.8023 57.4045C61.8738 57.8998 61.9626 58.5157 62.4267 59.0086C62.9013 59.5131 63.6612 59.7352 64.5124 59.6177C64.7959 59.5783 65.0567 59.5118 65.3088 59.4479C65.543 59.3882 65.7642 59.3316 65.972 59.307C66.7553 59.2116 67.5868 59.5832 68.0398 60.2293C68.7727 61.2746 68.462 62.8319 67.8297 63.9111C67.8235 63.9215 67.8204 63.932 67.8149 63.943C67.5634 63.9455 67.3119 63.948 67.0592 63.951C66.0089 63.9627 64.9587 63.9732 63.909 63.9843C61.8473 64.0064 59.7862 64.0286 57.7251 64.0501C54.7198 64.0821 51.7187 64.1141 48.7183 64.1461ZM69.3323 59.326C68.5434 58.2001 67.1504 57.5787 65.784 57.7429C65.4739 57.7799 65.1917 57.8518 64.9186 57.922C64.6992 57.978 64.4915 58.0309 64.2961 58.058C63.9737 58.1023 63.6914 58.0524 63.5768 57.9306C63.4535 57.7995 63.4104 57.4993 63.3648 57.1812C63.3124 56.8188 63.2532 56.409 63.0554 56.0122C62.4328 54.7632 60.818 54.4451 59.6173 54.8585C58.6712 55.184 57.9371 55.8485 57.2887 56.4349C57.2123 56.5038 57.1359 56.5733 57.0594 56.6416C56.448 57.188 55.7848 57.7017 55.0729 57.762C54.6933 57.7946 54.2704 57.6968 53.8236 57.5934C53.4741 57.5128 53.1129 57.4291 52.7265 57.3941C50.9939 57.2347 49.1966 58.1392 48.1482 59.6983C47.3278 60.9184 46.9672 62.5255 47.133 64.1633C46.3811 64.1713 45.6291 64.1793 44.8772 64.1873C44.7225 60.6655 46.688 56.9455 49.8918 54.7023C52.8103 52.6577 56.6958 51.72 60.8334 52.0615C63.374 52.2713 66.9526 53.0564 69.5709 55.6036C70.4775 56.4853 71.1728 57.543 71.6264 58.6628C72.329 60.3991 72.4511 62.2849 71.8803 63.9C71.1093 63.908 70.345 63.916 69.5813 63.924C70.2667 62.2861 70.1909 60.5504 69.3323 59.326ZM43.2993 64.2039L39.4674 64.2445C39.6024 61.6641 38.7549 58.9735 37.132 56.7468C39.3146 54.039 39.5506 49.8693 37.7053 46.604C37.6868 46.572 37.6658 46.5413 37.6473 46.5093C37.6584 46.4994 37.6707 46.492 37.6812 46.4816C39.7164 44.4112 40.3278 41.0629 39.2024 38.1502C38.9232 37.4266 38.5441 36.7412 38.0849 36.1025L45.2155 36.0896C44.4642 37.0162 43.8639 38.0253 43.4454 39.086C42.3427 41.8781 42.5289 44.9705 43.9434 47.359C43.9816 47.4236 44.0278 47.4802 44.0796 47.5294C43.679 48.1945 43.3597 48.8916 43.1397 49.6109C42.2447 52.5322 43.0133 55.7082 45.0491 57.6254C43.8405 59.6484 43.2099 61.9317 43.2993 64.2039ZM28.4655 64.3337C28.5277 62.2535 29.5256 60.2071 31.1472 58.896C31.2656 58.8 31.374 58.7384 31.4566 58.7021C31.448 58.7667 31.4314 58.8541 31.3981 58.9698C31.2286 59.5543 31.0048 60.1283 30.7676 60.735C30.3269 61.8653 29.8732 63.03 29.7814 64.2968C29.5003 64.303 29.2193 64.3104 28.9388 64.3196C28.781 64.3251 28.6232 64.3288 28.4655 64.3337ZM32.2382 61.3066C32.4773 60.6938 32.7245 60.0601 32.9137 59.4072C33.2274 58.3244 32.8915 57.7386 32.555 57.4384C31.9454 56.8939 31.003 56.9855 30.1537 57.6722C28.1579 59.2854 26.9363 61.8142 26.8845 64.375C26.1541 64.3916 25.4225 64.4051 24.6909 64.415C24.8259 63.3462 25.1821 62.304 25.7332 61.3792C25.8459 61.1891 25.968 61.0002 26.0974 60.799C26.633 59.9708 27.2389 59.0319 27.2334 57.8888C27.2309 57.4205 27.1021 57.0391 26.85 56.7548C26.3846 56.2318 25.5803 56.1321 24.8006 56.5013C23.6943 57.0261 23.0132 58.0561 22.493 58.9956C21.5407 60.7147 20.8109 62.5513 20.3203 64.4543C19.4642 64.4605 18.6105 64.4666 17.76 64.4753C17.7834 63.9098 18.0669 63.457 18.5538 62.7365C18.6426 62.6054 18.7332 62.4707 18.825 62.331C19.0697 61.9563 19.336 61.597 19.6177 61.2168C20.0719 60.6027 20.5422 59.9678 20.9213 59.2584C21.4914 58.1902 21.3946 57.1517 20.6735 56.6127C20.3604 56.3783 19.8057 56.1537 18.9421 56.4158C17.8142 56.7585 16.963 57.5633 16.4206 58.1392C14.7633 59.8989 13.5854 62.16 13.0868 64.5251C11.8195 64.5386 10.5529 64.5522 9.2857 64.5657C9.30973 64.4611 9.31343 64.3504 9.29124 64.2384C8.96396 62.5987 9.19571 60.8722 9.94396 59.3771C10.948 57.3695 12.9666 56.0165 14.9482 54.8025C18.5939 52.5697 23.0921 51.7557 27.2907 52.5691C30.3669 53.1653 33.1042 54.6093 34.9995 56.6354C36.9915 58.7649 38.0547 61.5952 37.8834 64.2611C37.5358 64.2648 37.1875 64.2685 36.8399 64.2722C35.0093 64.2919 33.1867 64.2661 31.366 64.2771C31.4628 63.2933 31.8406 62.3243 32.2382 61.3066ZM23.1032 64.4328C22.7216 64.4365 22.3395 64.4396 21.9586 64.4426C22.4122 62.8128 23.0539 61.2383 23.8742 59.758C24.2724 59.0381 24.7747 58.2573 25.4774 57.9251C25.5445 57.8931 25.6062 57.8746 25.6549 57.8648C25.6555 57.8746 25.6555 57.8857 25.6555 57.8968C25.6592 58.5723 25.2277 59.2393 24.7716 59.9462C24.6404 60.1499 24.5041 60.3603 24.3766 60.575C23.6782 61.7471 23.2431 63.0761 23.1032 64.4328ZM17.5036 61.4709C17.4167 61.6032 17.3304 61.7311 17.2459 61.856C16.7294 62.6196 16.1975 63.4065 16.179 64.4919C15.6884 64.4974 15.1984 64.5023 14.7078 64.5079C15.1848 62.5464 16.1889 60.6846 17.5701 59.2184C18.2352 58.512 18.817 58.1004 19.4007 57.9232C19.5585 57.8752 19.662 57.8709 19.7114 57.8758C19.7225 57.9761 19.6849 58.2247 19.5283 58.5176C19.2041 59.1248 18.7887 59.686 18.3486 60.2803C18.0663 60.6624 17.7735 61.0574 17.5036 61.4709ZM36.7296 45.184C34.9692 43.0176 32.2881 41.4363 29.2643 40.8401C26.1677 40.2304 22.7623 40.5639 19.1437 41.8326C17.9024 42.2676 16.7769 42.7727 15.7661 43.3437C15.7451 43.3554 15.5448 41.8683 15.5454 41.7255C15.546 41.2961 15.5842 40.8463 15.6742 40.4187C15.8388 40.4088 16.0021 40.3498 16.1371 40.2341C19.1197 37.6893 23.0797 36.2773 27.0035 36.3591C30.9266 36.4409 34.8244 38.0179 37.6979 40.6851C37.8372 40.8143 38.011 40.8807 38.1872 40.8912C38.3117 42.3635 37.9006 43.8599 36.7296 45.184ZM19.7952 51.0524C19.2454 48.9574 18.2346 46.9756 16.857 45.3046C16.7146 45.1317 16.563 44.9582 16.3954 44.7939C17.4308 44.1897 18.5458 43.711 19.6664 43.3185C20.3314 43.0859 21.0119 42.8712 21.7016 42.6872C20.3653 44.8689 19.9431 47.6032 20.6402 50.076C20.7043 50.3037 20.7844 50.5547 20.9046 50.8045C20.5348 50.8746 20.1644 50.9577 19.7952 51.0524ZM22.5632 50.5824C22.5392 50.4845 22.4973 50.3904 22.4344 50.3049C22.3044 50.1277 22.2224 49.8742 22.1589 49.6496C21.4378 47.0907 22.1595 44.194 23.9975 42.2706C24.0154 42.2522 24.0283 42.2307 24.0437 42.211C24.8974 42.0971 25.7566 42.0535 26.6139 42.1058C25.899 43.2219 25.3769 44.5656 25.0644 46.1198C24.7661 47.6057 24.681 49.1137 24.6151 50.5824C24.1929 50.5498 23.7694 50.5325 23.3454 50.5405C23.0865 50.5455 22.8252 50.5615 22.5632 50.5824ZM26.6115 46.4299C26.9387 44.7994 27.5138 43.4483 28.3194 42.4146C28.3471 42.3783 28.3693 42.3402 28.3903 42.3014C29.051 42.4023 29.708 42.5395 30.3299 42.7395C30.9044 42.9241 31.4659 43.1517 32.0058 43.4212C32.277 43.5566 32.5408 43.7061 32.7978 43.866C30.3219 45.5827 28.4673 48.1404 27.6106 51.0272C27.6038 51.026 27.5976 51.0241 27.5909 51.0229C27.1249 50.9331 26.6565 50.8469 26.1856 50.7725C26.2503 49.326 26.3279 47.8407 26.6115 46.4299ZM34.1594 44.856C34.205 44.8948 34.2512 44.9323 34.2968 44.9717C35.026 45.5974 35.7791 46.2478 36.3074 47.0599C34.1464 48.2357 32.3405 50.0317 31.1559 52.1839C30.4933 51.8954 29.8282 51.6345 29.1391 51.4179C29.9546 48.7193 31.7617 46.3518 34.1594 44.856ZM36.928 48.5151C37.0593 48.9753 37.1561 49.4466 37.235 49.8699C37.4186 50.8531 37.4217 51.8732 37.227 52.8552C37.1789 53.097 36.1872 55.5987 36.0972 55.504C35.1973 54.5534 34.0798 53.564 32.8909 52.9899C32.791 52.942 32.6924 52.8946 32.5932 52.8472C33.609 51.0432 35.1215 49.5296 36.928 48.5151ZM27.0367 34.784C23.4434 34.7095 19.8229 35.777 16.8206 37.7558C17.0906 37.3361 17.3926 36.9467 17.7162 36.612C19.8217 34.4351 22.8209 33.5651 24.9658 33.2187C25.9766 33.0557 26.964 32.9775 27.9144 32.9843C29.5804 32.996 31.1343 33.2667 32.502 33.7916C34.5933 34.5939 36.52 36.3788 37.5105 38.4689C34.5249 36.1893 30.7916 34.8627 27.0367 34.784ZM15.0351 45.7026C15.2354 45.8405 15.4246 46.0453 15.6385 46.305C16.8841 47.8161 17.7945 49.6115 18.2833 51.5077C17.5658 51.7545 16.8619 52.0387 16.1852 52.3544C15.501 50.4938 14.4711 48.8122 13.4535 47.1873C13.5429 47.0895 13.6341 46.9898 13.7247 46.892C14.1272 46.4564 14.5673 46.062 15.0351 45.7026ZM12.402 48.4812C13.3136 49.9499 14.2018 51.4678 14.7694 53.0822C14.55 53.2059 14.333 53.3314 14.1229 53.46C13.3142 53.9553 12.4988 54.4746 11.732 55.053C10.8636 53.1148 11.112 50.5701 12.402 48.4812ZM70.9262 49.3414C70.9614 49.3672 70.999 49.3869 71.0372 49.406C71.6159 51.1047 71.648 52.9758 70.8153 54.6192C70.7678 54.5712 70.721 54.5226 70.6723 54.4752C67.7181 51.6013 63.7617 50.7227 60.9634 50.4919C60.0895 50.4199 59.2247 50.4003 58.3754 50.4329C54.8473 50.5682 51.5807 51.5945 48.9852 53.4126C47.8123 54.2334 46.7934 55.2135 45.9533 56.3001C45.1175 55.424 44.63 54.2796 44.458 53.0798C45.9459 50.703 47.8979 48.8707 50.1063 47.7798C52.5274 46.5837 55.2591 46.321 57.6018 47.0581C57.8792 47.1455 58.1541 47.247 58.445 47.354C58.9874 47.5546 59.5483 47.7613 60.1554 47.8826C61.3875 48.1287 62.5986 47.9816 63.7703 47.8401C64.4637 47.7558 65.1183 47.6764 65.7679 47.6758H65.7778C67.4284 47.6758 69.5918 48.3754 70.9262 49.3414ZM65.7778 46.1007C65.7735 46.1007 65.7692 46.1007 65.7649 46.1007C65.0215 46.102 64.2887 46.1906 63.5805 46.2767C62.484 46.409 61.4491 46.5345 60.4648 46.3382C59.9797 46.241 59.4996 46.0644 58.9917 45.8768C58.6965 45.7679 58.3908 45.6546 58.0764 45.5562C55.3491 44.6973 52.189 44.9932 49.4062 46.3684C47.6384 47.2421 46.0236 48.5323 44.6454 50.1566C44.7034 49.9462 44.7675 49.7388 44.8439 49.5376C45.6606 47.3928 47.4918 45.6737 49.4746 44.6271C51.4574 43.5799 53.9037 42.9659 56.9534 42.7499C60.0192 42.5334 62.5666 42.7906 64.7405 43.5363C66.6271 44.1835 68.4602 45.3107 69.7034 46.9178C68.4195 46.4096 67 46.1007 65.7778 46.1007ZM49.7507 38.7353C50.2475 38.3723 50.8595 38.08 51.7347 37.7871C53.7724 37.1067 55.9821 36.8255 58.1257 36.9725C58.6712 37.0101 59.3073 37.0777 59.8873 37.2943C61.4177 37.8659 62.4445 39.6397 62.1764 41.2487C62.1727 41.2721 62.174 41.2954 62.1721 41.3188C60.41 41.0672 58.6028 41.0549 56.8419 41.1798C54.9509 41.3133 53.0581 41.6043 51.2503 42.1857C50.1236 42.5487 49.1565 43.049 48.2123 43.6427C47.6514 41.9267 48.2912 39.8028 49.7507 38.7353ZM65.3482 42.0811C65.3162 42.0701 65.2853 42.0578 65.2533 42.0467C64.7454 41.8726 64.2289 41.7267 63.7062 41.6049C63.7161 41.5729 63.7272 41.5409 63.7327 41.5071C64.1254 39.1537 62.6788 36.655 60.4402 35.8195C59.666 35.5303 58.8543 35.4442 58.2336 35.4011C55.8865 35.2405 53.4661 35.5488 51.2343 36.2939C50.5366 36.5271 49.6311 36.871 48.8188 37.4654C46.6782 39.03 45.8399 42.1144 46.8674 44.5502C46.8427 44.5675 46.8187 44.5841 46.794 44.6013C46.574 44.7588 44.9413 45.8688 45.0781 46.1438C44.1357 44.2487 44.0648 41.8129 44.9129 39.6643C45.7573 37.5257 47.4653 35.6158 49.723 34.2862C53.169 32.2552 57.3048 31.974 60.5154 33.5516C63.7931 35.1624 65.7975 38.7568 65.3482 42.0811ZM65.3556 35.3544C65.2533 35.374 65.1541 35.3931 65.0585 35.411C64.0797 34.0524 62.7681 32.9031 61.2118 32.1383C57.5297 30.3288 52.8202 30.6321 48.9205 32.9296C48.081 33.4236 47.3087 33.9927 46.6141 34.6197C46.4988 34.5539 46.3669 34.5133 46.2233 34.5133L37.1222 34.5293C36.9958 34.5293 36.8787 34.5619 36.7727 34.6148C35.7397 33.6513 34.4836 32.865 33.0678 32.3217C30.6246 31.3846 27.8146 31.1631 24.7137 31.6639C21.5142 32.1802 18.8441 33.383 16.9532 35.1525C16.2998 35.0793 15.8234 35.035 15.363 34.9926C15.0831 34.9667 14.8378 34.9618 14.6153 34.9372C16.4712 32.1666 18.2395 29.3007 19.8833 26.4009C19.9283 26.4046 19.9739 26.4064 20.0208 26.4021C33.7322 25.1211 47.6311 25.1537 61.3376 26.4956C61.504 26.9429 61.8116 27.2924 62.0371 27.549C64.1229 29.9159 66.004 32.4816 67.6417 35.179C67.5535 35.1864 67.4617 35.1907 67.3612 35.1888C66.6783 35.1735 66.0515 35.2208 65.3556 35.3544ZM61.4744 24.8196C61.4608 24.8529 61.4467 24.8873 61.4325 24.9224C47.7648 23.5885 33.9079 23.5479 20.2328 24.8024C19.781 19.7369 18.6401 15.0054 16.8354 10.7182C24.4758 10.3804 32.134 10.213 39.7898 10.2216C41.7183 10.2235 43.6469 10.2364 45.5755 10.261C49.4105 10.309 53.2454 10.4001 57.0786 10.5354C58.9936 10.6025 60.908 10.6813 62.8224 10.7705C63.8227 10.8166 64.8212 10.8683 65.8191 10.9212C64.7818 15.6607 63.3222 20.3337 61.4744 24.8196ZM12.5025 4.09352C14.8428 3.27644 17.4179 3.26044 19.908 3.24567L60.2096 2.99772C63.048 2.97988 65.9837 2.96203 68.6697 3.86895C72.0542 5.01151 74.8025 7.54705 77.2315 10.0709C53.2263 8.26385 28.8988 8.17525 4.8806 9.8088C7.02922 7.49229 9.46506 5.15364 12.5025 4.09352ZM11.6094 29.409C10.0709 25.5863 8.53313 21.7636 6.9947 17.9409C6.12071 15.7677 5.2461 13.5952 4.37211 11.4227C4.4812 11.694 10.2343 11.051 10.8438 11.0166C12.2787 10.9354 13.7154 10.8634 15.1516 10.7945C17.0703 15.1715 18.2623 20.05 18.6944 25.3032C17.037 28.2455 15.2459 31.1563 13.3666 33.9681C13.1139 33.4452 12.9974 32.8582 12.7817 32.3223C12.3903 31.3514 12.0001 30.3799 11.6094 29.409ZM14.0329 36.4452C14.4884 36.4932 14.8576 36.5277 15.2169 36.5609C15.3673 36.5744 15.5201 36.5892 15.6792 36.604C14.0396 38.9045 13.5188 41.8098 14.391 44.2118C13.1601 45.0812 12.1481 46.073 11.3684 47.1836C9.44595 49.9222 9.1162 53.4982 10.4888 56.1002C9.70913 56.8397 9.02991 57.6789 8.53189 58.6732C7.62832 60.4797 7.34849 62.5654 7.74357 64.546C7.74604 64.5583 7.75159 64.5694 7.75467 64.5817L2.36094 64.6389L14.0329 36.4452ZM77.8498 68.4358C76.9647 71.1104 76.1289 73.6361 74.0598 75.0069C72.6804 75.9212 70.9478 76.0406 68.8257 76.1015L12.1481 77.7276C10.5837 77.7732 9.20434 77.7553 8.17194 77.0841C7.30781 76.5217 6.72166 75.493 6.20453 74.5861C5.35396 73.0928 4.6735 71.5146 4.01585 69.9881C3.48086 68.7471 2.92922 67.4723 2.27896 66.2153L78.9432 65.4C78.5253 66.3968 78.1832 67.4292 77.8498 68.4358ZM73.5383 63.8821C74.2527 61.2752 73.6259 58.3016 71.9019 55.9033C73.4366 53.4729 73.4619 50.1468 71.9555 47.3953C70.8751 45.4208 69.0919 43.7934 66.8453 42.7026C67.2102 40.7386 66.849 38.6787 65.93 36.8489C66.7165 36.7018 67.67 36.556 68.1582 36.8132C68.7437 37.1208 69.1265 37.8142 69.5314 38.6221C70.1373 39.8311 70.7765 41.0524 71.3947 42.2331C72.959 45.2227 74.5763 48.3139 75.7905 51.4641C76.6392 53.6661 77.3881 55.9346 78.0162 58.2075C78.0784 58.4345 78.3934 59.8638 78.6714 61.1245C78.8661 62.0062 79.0671 62.918 79.2224 63.6096C79.239 63.6828 79.255 63.7535 79.2705 63.8212L73.5383 63.8821ZM80.8687 64.0827C80.918 64.1387 80.958 64.1996 80.9864 64.2624C80.9556 64.1972 80.9155 64.1369 80.8687 64.0827Z" fill="#621055"/>
</g>
<defs>
<clipPath id="clip0_1107_4106">
<rect width="80.787" height="80.6452" fill="white" transform="translate(0.274658)"/>
</clipPath>
</defs>
</svg>
