<svg width="154" height="154" viewBox="0 0 154 154" fill="none" xmlns="http://www.w3.org/2000/svg">
<g clip-path="url(#clip0_1110_5477)">
<path d="M150.358 77.7231C147.437 69.8086 142.095 62.7785 135.317 57.9275C133.456 56.5963 131.529 55.4527 129.55 54.4969C130.3 49.1545 131.055 43.635 130.702 38.0803C130.29 31.6319 128.339 26.0491 125.06 21.9335C120.041 15.6387 112.221 12.7933 105.233 10.8417C76.5644 2.83338 45.4559 4.25138 17.6372 14.8341C12.8129 16.6697 7.89113 18.9309 4.56844 23.0113C-0.0208221 28.6481 -0.474344 36.253 -0.312204 42.9488C-0.0149475 55.2709 2.3631 61.0766 4.40043 64.7594C8.40575 71.9948 15.4071 76.5303 22.4426 76.5291C22.7481 76.5291 23.0559 76.5209 23.3614 76.5033C29.6449 76.1468 34.7088 72.4393 39.6059 68.8539C41.7384 67.2928 43.9273 65.6907 46.1937 64.3911L46.7671 69.6913C46.7706 69.7253 46.7812 69.7558 46.7871 69.7898C46.3547 69.9024 45.9223 70.0385 45.4947 70.2085C41.3554 71.8623 38.8246 75.7222 39.0478 80.0418C39.0596 80.2612 39.0807 80.4793 39.1066 80.6963C34.6853 82.0404 30.7211 83.3001 26.5407 84.6289C24.9898 85.1215 23.4096 85.6247 21.7623 86.1442C19.8378 86.753 15.8325 88.0185 14.7139 91.4515C14.1758 93.0993 14.4566 94.8762 15.5047 96.4537C16.6925 98.2435 18.7439 99.5724 20.8835 99.9887C20.7813 100.247 20.746 100.535 20.8036 100.828L27.335 134.294L27.1071 134.296C26.5537 134.303 26.0485 134.612 25.7923 135.102C24.796 137.003 24.796 139.264 25.79 141.467C26.67 143.419 28.2514 145.11 30.129 146.106C32.8595 147.554 35.9625 147.831 38.7964 147.831C39.7187 147.831 40.6128 147.802 41.4564 147.774L113.266 145.422C121.409 145.156 131.545 144.824 139.183 139.144C147.369 133.056 150.299 122.537 151.79 115.155C154.696 100.769 154.214 88.1756 150.358 77.7231V77.7231ZM133.564 60.3682C136.769 62.6612 139.603 65.462 141.971 68.6064C143.224 70.2684 144.3 72.0265 145.315 73.8397C145.468 74.113 145.613 74.3886 145.757 74.6643C140.926 75.1709 136.312 77.3278 132.832 80.7151C128.005 74.3147 120.877 70.3598 113.365 68.047C113.047 67.9484 112.727 67.8523 112.408 67.7549C110.454 67.1661 108.609 66.609 106.988 65.6555C105.032 64.5049 103.757 62.8817 103.489 61.2021C103.262 59.7865 103.572 58.5644 104.437 57.4666C106.057 55.4058 109.319 54.2775 111.832 54.0735C119.43 53.4554 126.945 55.631 133.564 60.3682V60.3682ZM100.518 61.6748C100.607 62.2307 100.764 62.7761 100.978 63.3098C98.693 63.9067 96.3972 64.5108 94.112 65.1171C93.7665 64.5506 93.3764 64.0088 92.9394 63.5009C89.3547 59.3373 83.6387 58.0049 78.3762 60.1078C73.4109 62.0912 70.2692 66.568 70.1705 71.6735C66.2439 72.7806 62.2832 73.9148 58.3636 75.0525C57.9947 74.2772 57.5306 73.5442 56.9631 72.885C55.0973 70.7187 52.5008 69.5318 49.7585 69.4474C49.7573 69.4216 49.7608 69.3958 49.7573 69.3699L48.9478 61.8718C48.9266 61.676 48.8655 61.4906 48.7751 61.3218L48.7222 61.0837C48.2193 58.7849 47.8551 57.1252 47.8257 54.7889C47.8069 53.2372 48.0631 51.8685 48.5201 50.6311C52.5654 51.1085 56.6024 51.3161 60.6724 51.3161C70.6169 51.3161 80.7542 50.0928 91.6364 48.6208C97.7519 47.7951 104.684 46.8568 111.319 44.7938C117.851 42.7624 123.288 39.8478 127.517 36.1228C127.553 36.4617 127.584 36.8007 127.607 37.1396C127.779 39.6578 127.819 42.1642 127.651 44.6894C127.601 45.4529 126.515 53.195 126.686 53.2607C121.836 51.4099 116.733 50.6616 111.588 51.0803C108.513 51.3301 104.4 52.6519 102.071 55.6123C100.7 57.3551 100.163 59.451 100.518 61.6748V61.6748ZM91.5565 77.1707C89.357 80.6975 84.6608 82.574 80.6308 81.5349C76.602 80.4969 73.4015 76.5854 73.1877 72.4358C72.9245 67.3644 76.273 64.1824 79.4935 62.8957C82.7152 61.6079 87.3409 61.6056 90.6577 65.4584C91.1793 66.0648 91.6129 66.7416 91.9607 67.464C91.9701 67.4852 91.9795 67.5074 91.99 67.5286C93.4176 70.5463 93.3201 74.3429 91.5565 77.1707ZM18.7087 17.6396C45.9294 7.2844 76.3694 5.89691 104.422 13.734C110.946 15.5566 118.221 18.178 122.705 23.8042C124.752 26.3716 126.13 29.407 126.905 32.5901C126.896 32.5983 126.887 32.6042 126.877 32.6124C122.813 36.6611 117.278 39.795 110.425 41.9273C104.031 43.9153 97.2314 44.8348 91.2322 45.6453C76.5421 47.6321 63.2455 49.1592 50.0546 47.7822C51.6278 45.589 53.8413 43.8156 56.0643 42.0328C56.0843 42.0434 56.1007 42.0563 56.1207 42.0668C59.1978 43.5071 62.6357 43.8121 65.8902 43.927C67.0886 43.9692 68.2847 43.9903 69.4808 43.9903C79.9259 43.9903 90.2547 42.3777 100.23 39.184C102.981 38.3031 106.2 37.1596 109.214 35.3522C110.385 34.6508 111.835 33.6492 112.68 32.1116C113.901 29.8914 113.64 26.8912 111.984 24.0833C109.4 19.7062 104.586 16.5899 97.2666 14.555C90.5202 12.6807 82.862 11.7073 73.1654 11.495C57.9642 11.1619 45.0094 12.7429 33.5527 16.3272C29.2008 17.6889 23.8972 19.8645 21.5003 24.6416C20.2431 27.1457 20.0822 30.2256 21.0574 33.0933C21.7717 35.1939 23.0418 37.013 24.6609 38.316C23.3026 38.818 22.0044 39.4502 20.7942 40.3556C20.578 40.5175 20.3841 40.6758 20.2044 40.8342C20.1327 40.8025 20.0598 40.7697 19.9811 40.7486C13.613 39.0151 8.09675 34.4362 5.2264 28.5027C5.1559 28.3584 5.06191 28.2364 4.95734 28.1262C5.08423 27.8846 5.2123 27.6441 5.35212 27.4084C8.4175 22.2501 13.1983 19.7367 18.7087 17.6396V17.6396ZM71.4265 26.8466C71.1245 26.2344 70.4478 25.9024 69.7769 26.0385C60.4997 27.9268 51.3035 30.2104 42.2166 32.8646C37.6168 34.2087 33.0839 35.9891 28.4512 37.1866C28.423 37.1936 28.3936 37.2018 28.3654 37.2088C28.2338 37.054 28.0705 36.9227 27.8755 36.8277C26.0708 35.9539 24.6233 34.2403 23.9042 32.1292C23.1863 30.0157 23.2897 27.7779 24.1885 25.9869C26.079 22.2196 30.6671 20.3771 34.4527 19.1925C45.591 15.7079 58.232 14.1726 73.0984 14.4975C82.5378 14.7039 89.9609 15.6422 96.4595 17.4484C102.992 19.264 107.223 21.9335 109.392 25.6081C109.809 26.3153 111.088 28.7666 110.044 30.6666C109.548 31.5685 108.564 32.2406 107.666 32.7778C104.914 34.428 101.898 35.4976 99.311 36.3257C88.5252 39.7774 77.3164 41.3268 65.996 40.9268C63.1855 40.8271 60.8098 40.5937 58.6879 39.8666C58.9781 39.612 59.2648 39.3552 59.5444 39.0936C61.0942 37.644 62.4653 36.0841 64.102 34.6673C66.4225 32.6593 68.7418 30.6514 71.0622 28.6446C71.5792 28.1966 71.7284 27.4588 71.4265 26.8466ZM7.03344 63.3062C3.48986 56.9059 2.85187 49.3879 2.69443 42.8773C2.60749 39.2637 2.60749 35.3581 3.56858 31.7527C6.8948 37.3203 12.3418 41.5965 18.5653 43.4672C18.5536 43.5247 18.5418 43.5834 18.5313 43.642C18.368 44.585 18.4443 45.6546 18.5336 46.9952C18.5477 47.2157 20.2831 73.353 20.2831 73.353C14.4872 72.4288 9.58538 67.9168 7.03344 63.3062ZM44.7274 54.8323C44.9189 56.9763 45.4524 61.3663 45.6791 61.2467C42.9063 62.7163 40.3297 64.6011 37.8283 66.4331C33.1086 69.8872 28.6486 73.1513 23.3073 73.4973L21.5344 46.7947C21.4674 45.7907 21.3922 44.653 21.7694 43.839C22.9184 41.3643 26.6018 41.315 28.6909 40.3639C32.3931 38.6761 36.5969 37.6792 40.4954 36.5075C44.5383 35.2924 48.6035 34.1512 52.6887 33.0874C54.7296 32.5549 56.7763 32.0424 58.8277 31.5486C60.2 31.2179 63.6449 31.0888 64.6789 30.1939C64.6718 30.1998 51.206 41.8534 51.206 41.8534C49.8278 43.0462 48.2651 44.3973 47.1243 46.1003C45.6227 48.3428 44.8743 51.058 44.6605 53.7275C44.6511 53.8518 44.6769 54.2623 44.7274 54.8323ZM46.6132 72.9964C48.9442 72.0652 52.2869 72.0605 54.6814 74.8425C56.6412 77.1202 56.9208 80.7596 55.3311 83.3083C53.7415 85.8581 50.3459 87.2139 47.4333 86.4633C44.5206 85.7126 42.2072 82.886 42.0521 79.887C41.863 76.2253 44.2845 73.9265 46.6132 72.9964ZM21.9327 97.1105C20.4206 96.9803 18.8461 96.0503 18.012 94.7953C17.6372 94.23 17.2565 93.3527 17.5737 92.3815C18.1377 90.6539 20.3559 89.7391 22.6705 89.0072C24.319 88.4865 25.9016 87.9833 27.4537 87.4895C31.6059 86.17 35.5442 84.9186 39.9232 83.5874C41.185 86.3718 43.6806 88.5979 46.6813 89.3708C47.4779 89.576 48.2922 89.6746 49.1064 89.6746C52.5806 89.6746 56.0279 87.873 57.8854 84.8951C59.179 82.8215 59.6185 80.3092 59.2472 77.9225C62.9787 76.8399 66.7444 75.7609 70.4842 74.7053C71.5534 79.3205 75.2403 83.2461 79.8789 84.4424C80.8905 84.7028 81.9256 84.8283 82.9595 84.8283C87.3737 84.8283 91.7515 82.54 94.1108 78.7575C96.1234 75.531 96.5088 71.4694 95.3691 67.891C97.7989 67.2471 100.24 66.6032 102.661 65.9733C103.427 66.8295 104.368 67.6001 105.461 68.2428C107.393 69.3793 109.5 70.015 111.537 70.6296C111.851 70.7246 112.165 70.8196 112.477 70.9158C120.456 73.3765 126.048 76.7414 129.571 81.2041C132.294 84.6524 133.813 88.7058 134.622 93.1369C132.161 92.9257 129.729 92.4167 127.381 91.6145C126.768 91.4045 126.137 91.0937 125.468 90.763C123.92 89.9994 122.166 89.1339 120.101 89.3462C116.389 89.7273 114.282 93.1204 112.588 95.8462L112.254 96.3833C110.789 98.7209 108.345 100.833 106.439 99.943C105.234 99.3788 104.714 97.8764 104.114 96.1359C103.552 94.5091 102.917 92.6654 101.522 91.3295C100.279 90.1367 98.5579 89.5244 96.6768 89.6054C94.314 89.7062 91.8608 90.8908 90.2735 92.697C87.8273 95.4791 87.0036 99.2076 86.2775 102.497L86.2164 102.777C85.5232 105.912 84.662 109.141 82.4731 111.153C80.6297 112.846 77.885 113.486 75.4811 112.78C73.0784 112.075 71.1151 110.057 70.483 107.637C70.1669 106.431 70.1528 105.126 70.1364 103.744C70.127 102.847 70.1164 101.918 70.0201 100.98C69.6735 97.589 68.0227 95.031 65.6059 94.1385C63.0222 93.1849 60.1025 94.1608 56.929 97.0401L56.6565 97.2888C54.9164 98.8722 53.1105 100.511 51.1801 100.445C49.3801 100.385 47.9679 98.9543 46.3336 97.297C44.9965 95.9412 43.6136 94.5396 41.8066 93.7057C38.0315 91.9628 33.743 93.3808 30.8457 94.5982C30.465 94.7589 30.0831 94.9231 29.7001 95.0885C27.026 96.2414 24.4975 97.331 21.9327 97.1105V97.1105ZM23.755 100.255C23.7444 100.195 23.7221 100.142 23.7045 100.086C26.2376 99.848 28.5969 98.8346 30.8938 97.8447C31.2686 97.6829 31.6423 97.5222 32.0136 97.365C34.3857 96.3681 37.8518 95.187 40.5459 96.4314C41.8559 97.0366 42.9897 98.186 44.1917 99.4035C46.0152 101.252 48.0807 103.347 51.0814 103.446C54.2385 103.552 56.7046 101.309 58.6844 99.5079L58.9534 99.2627C60.5185 97.8424 62.7626 96.2907 64.5637 96.9545C66.1135 97.5269 66.8537 99.5665 67.0287 101.285C67.111 102.088 67.1204 102.909 67.1298 103.778C67.1474 105.281 67.165 106.832 67.5739 108.396C68.468 111.814 71.2397 114.666 74.6352 115.661C75.5516 115.93 76.5045 116.06 77.4574 116.06C80.0316 116.06 82.6106 115.108 84.5105 113.362C87.3432 110.76 88.3583 107.026 89.1549 103.424L89.216 103.144C89.8963 100.064 90.5989 96.8795 92.5352 94.6768C93.5832 93.4852 95.2599 92.6724 96.8061 92.6056C97.5521 92.5751 98.6131 92.7029 99.4402 93.4958C100.311 94.3297 100.777 95.682 101.271 97.114C101.99 99.1982 102.805 101.56 105.164 102.663C108.747 104.337 112.588 101.515 114.805 97.9761L115.145 97.4295C116.631 95.0369 118.167 92.5633 120.41 92.3334C121.609 92.2115 122.837 92.8155 124.136 93.4559C124.86 93.8136 125.609 94.1831 126.407 94.4563C129.209 95.4134 132.122 95.9916 135.066 96.1816C135.582 100.786 135.494 105.721 135.293 110.76C135.024 117.503 134.398 124.438 130.037 128.629C125.739 132.759 119.154 133.177 112.216 133.261L30.3381 134.257C30.3452 134.132 30.3428 134.006 30.3181 133.877L23.755 100.255ZM148.841 114.562C146.626 125.525 142.987 132.572 137.386 136.736C131.021 141.468 122.652 142.111 113.166 142.422L41.3577 144.772C38.1208 144.879 34.4515 144.999 31.5401 143.454C29.3218 142.276 27.6123 139.554 28.1598 137.286L112.253 136.263C119.517 136.175 127.036 135.679 132.122 130.792C137.287 125.828 138.006 118.233 138.299 110.879C138.35 109.584 138.395 108.289 138.424 106.994C138.597 99.2311 138.441 90.2868 134.519 83.2801C137.8 79.8718 142.379 77.7899 147.112 77.5683C147.118 77.5683 147.122 77.5671 147.127 77.5659C151.936 88.992 151.243 102.673 148.841 114.562V114.562Z" fill="#F4F4F4"/>
</g>
<defs>
<clipPath id="clip0_1110_5477">
<rect width="154" height="153.73" fill="white"/>
</clipPath>
</defs>
</svg>
