<svg width="154" height="154" viewBox="0 0 154 154" fill="none" xmlns="http://www.w3.org/2000/svg">
<path d="M153.809 95.5639C153.292 86.7002 151.675 78.6708 148.983 71.546C148.972 71.4579 148.957 71.3709 148.93 71.284C148.884 71.1371 148.811 71.0067 148.728 70.8869C146.948 66.3258 144.723 62.1407 142.054 58.3563C139.767 55.1135 137.115 52.1809 134.164 49.6172C136.497 43.9399 136.055 37.5648 132.93 32.7276C130.957 29.6693 128.102 27.4064 124.693 26.1081C128.451 25.2762 132.288 23.985 133.538 23.2894C139.51 19.9714 144.226 14.669 146.814 8.35845C146.999 7.90728 146.953 7.39384 146.691 6.98144C146.427 6.57022 145.98 6.31173 145.491 6.28706C141.272 6.0838 137.019 6.66421 132.85 8.01185C127.298 9.80714 120.328 13.5176 116.069 18.8364C117.459 12.224 121.639 6.21421 127.555 2.80693C128.276 2.391 128.524 1.47104 128.106 0.751981C127.691 0.0329256 126.768 -0.213809 126.047 0.202115C117.296 5.24255 111.92 15.3399 112.611 25.3878C106.645 26.6756 101.199 30.1874 98.2222 34.9071C97.1865 36.5485 96.4006 38.4013 95.9186 40.3106C79.9903 44.4416 64.1079 49.8063 48.7392 54.9983L47.7318 55.3391C37.431 58.8192 27.01 62.5437 16.7588 66.4116C12.6441 67.966 7.00946 70.095 3.6395 74.5609C-0.386779 79.9021 -0.255986 86.7695 0.260112 93.9272C1.38068 109.464 2.50479 125.002 3.62889 140.539C3.9058 144.368 4.4702 148.662 7.6917 151.166C10.3311 153.215 13.8413 153.256 16.4029 153.286C53.3111 153.729 90.8449 153.968 127.963 154H128.155C134.65 154 141.344 153.591 145.856 149.099C149.92 145.055 150.71 138.886 151.286 134.381C152.903 121.704 154.574 108.595 153.809 95.5639ZM123.019 16.3644C126.248 13.9288 129.936 12.117 133.781 10.874C136.854 9.87998 139.972 9.34069 143.082 9.2655C140.635 14.0427 136.788 18.041 132.07 20.6623C131.301 21.09 127.85 22.3319 123.995 23.1825C122.063 23.609 119.812 24.1577 117.822 23.8957C117.69 23.8781 117.552 23.8546 117.444 23.777C117.32 23.6865 117.253 23.5373 117.212 23.3893C116.584 21.1064 121.489 17.5182 123.019 16.3644ZM98.6676 41.8251C99.04 39.9452 99.7682 38.1064 100.776 36.5097C104.018 31.3694 110.724 27.8916 117.463 27.8564H117.569C123.135 27.8564 127.687 30.1616 130.395 34.3561C133.111 38.5611 133.338 44.4581 130.972 49.3798C130.972 49.3798 130.972 49.381 130.971 49.3822C130.51 50.3456 129.958 51.2515 129.322 52.0833C129.11 52.3606 128.89 52.6297 128.66 52.8905C124.332 57.8076 116.876 59.9953 110.107 58.3328C105.536 57.2095 101.816 54.5554 99.899 51.0494C99.7163 50.7169 99.5514 50.375 99.4017 50.0249C98.3542 47.574 98.0914 44.7072 98.6676 41.8251ZM17.8275 69.2255C28.0458 65.3706 38.4326 61.6566 48.7003 58.1883L49.7078 57.8475C64.6122 52.8118 79.9997 47.6116 95.3967 43.5546C95.3813 43.766 95.3707 43.9775 95.3637 44.189C95.3625 44.2395 95.3625 44.2889 95.3613 44.3394C95.3566 44.5156 95.3542 44.6907 95.3542 44.8658C95.3542 44.9421 95.3566 45.0185 95.3578 45.0961C95.3601 45.2476 95.3648 45.3992 95.3707 45.5508C95.3743 45.6283 95.3778 45.707 95.3825 45.7846C95.3908 45.9467 95.4037 46.1077 95.4167 46.2698C95.4226 46.3309 95.4261 46.392 95.432 46.4531C95.4532 46.6728 95.478 46.8925 95.5086 47.1099C95.5133 47.151 95.5204 47.191 95.5263 47.2309C95.5522 47.4095 95.5793 47.5869 95.6111 47.762C95.6241 47.8348 95.6382 47.9077 95.6524 47.9793C95.6795 48.1262 95.7089 48.2707 95.7407 48.4164C95.7572 48.4916 95.7749 48.5668 95.7914 48.642C95.8267 48.7924 95.8644 48.9416 95.9045 49.0896C95.921 49.1531 95.9363 49.2165 95.954 49.28C96.0117 49.4879 96.0742 49.6947 96.1402 49.9003C96.1472 49.9238 96.1555 49.9473 96.1637 49.9708C96.2238 50.1529 96.2863 50.3327 96.3534 50.5113C96.377 50.5771 96.4029 50.6429 96.4289 50.7087C96.4819 50.8461 96.5361 50.9836 96.5938 51.1199C96.6233 51.1892 96.6527 51.2597 96.6834 51.329C96.7435 51.4653 96.8059 51.6016 96.8695 51.7367C96.8978 51.7967 96.9261 51.8578 96.9556 51.9177C97.0498 52.1104 97.1476 52.3007 97.2501 52.4887C99.5714 56.7337 103.995 59.9283 109.386 61.2536C109.616 61.31 109.85 61.3629 110.083 61.4123C110.158 61.4275 110.235 61.4416 110.31 61.4569C110.468 61.4886 110.627 61.5192 110.787 61.5474C110.876 61.5627 110.966 61.5768 111.055 61.592C111.201 61.6155 111.347 61.639 111.494 61.6602C111.589 61.6731 111.682 61.6848 111.777 61.6978C111.92 61.7166 112.064 61.733 112.208 61.7495C112.302 61.7589 112.396 61.7694 112.492 61.7788C112.636 61.7929 112.783 61.8047 112.928 61.8164C113.019 61.8235 113.111 61.8305 113.203 61.8364C113.356 61.847 113.51 61.854 113.663 61.8611C113.746 61.8646 113.83 61.8693 113.915 61.8717C114.09 61.8775 114.266 61.8799 114.442 61.8822C114.503 61.8822 114.564 61.8846 114.625 61.8846C114.638 61.8846 114.65 61.8858 114.663 61.8858C114.694 61.8858 114.724 61.8834 114.754 61.8834C115.066 61.8822 115.376 61.8728 115.687 61.8587C115.766 61.8552 115.845 61.8529 115.923 61.8482C116.259 61.8294 116.593 61.8047 116.927 61.7718C116.99 61.7659 117.053 61.7577 117.115 61.7506C117.411 61.7189 117.707 61.6813 118 61.6378C118.067 61.6284 118.136 61.619 118.203 61.6085C118.533 61.558 118.861 61.4992 119.189 61.4334C119.262 61.4181 119.335 61.4029 119.408 61.3876C119.705 61.3241 120.001 61.2572 120.294 61.1832C120.34 61.1714 120.387 61.1608 120.433 61.1491C120.757 61.0657 121.08 60.9728 121.4 60.8741C121.475 60.8518 121.55 60.8271 121.626 60.8036C121.943 60.7026 122.259 60.598 122.571 60.4829C122.579 60.4805 122.586 60.4782 122.593 60.4758C122.911 60.3584 123.225 60.2326 123.536 60.101C123.608 60.0717 123.68 60.0411 123.753 60.0094C124.058 59.8766 124.362 59.7392 124.661 59.5935C124.696 59.577 124.729 59.5582 124.764 59.5418C125.038 59.4067 125.308 59.2645 125.575 59.1176C125.639 59.0824 125.704 59.0483 125.768 59.0119C126.054 58.8509 126.337 58.6841 126.615 58.5102C126.667 58.4785 126.716 58.4444 126.767 58.4127C127.014 58.2552 127.258 58.0919 127.497 57.9251C127.548 57.8898 127.6 57.8546 127.649 57.8193C127.916 57.629 128.177 57.4328 128.433 57.2307C128.488 57.1872 128.542 57.1426 128.598 57.0979C128.831 56.9099 129.06 56.7173 129.284 56.5187C129.315 56.4917 129.347 56.4646 129.378 56.4376C129.621 56.2191 129.856 55.9935 130.088 55.7632C130.143 55.7103 130.196 55.6551 130.249 55.6011C130.481 55.3637 130.709 55.1241 130.929 54.875C131.084 54.6987 131.235 54.5178 131.383 54.3345C131.43 54.2769 131.476 54.2182 131.522 54.1594C131.625 54.0302 131.725 53.901 131.824 53.7694C131.874 53.7024 131.923 53.6342 131.973 53.5661C132.068 53.4357 132.161 53.3029 132.253 53.169C132.298 53.1044 132.342 53.0409 132.385 52.9751C132.496 52.8094 132.604 52.6414 132.709 52.4722C132.727 52.444 132.745 52.417 132.763 52.39C135.3 54.6717 137.591 57.2542 139.587 60.0858C141.877 63.3344 143.826 66.8992 145.431 70.7659C135.954 73.3589 125.769 73.1028 115.902 72.8537C111.872 72.7515 107.705 72.6457 103.62 72.7327C92.1068 72.9759 80.5771 74.7818 69.4268 76.5277C64.2599 77.336 58.9163 78.1726 53.6575 78.84C40.0339 80.5683 22.4205 81.8125 6.08095 76.3327C8.71211 72.8713 12.9576 71.0643 17.8275 69.2255ZM4.53619 78.9809C13.9886 82.2461 23.8121 83.3211 33.0936 83.3211C40.5912 83.3211 47.7353 82.6232 54.0381 81.8243C59.3404 81.151 64.7053 80.311 69.8945 79.4991C80.9459 77.7684 92.3731 75.979 103.684 75.7393C107.698 75.6547 111.829 75.7593 115.825 75.8603C126.014 76.1176 136.534 76.382 146.519 73.5857C147.034 73.4412 149.484 84.6629 149.657 85.6604C150.126 88.3792 150.274 91.0956 150.263 93.8438C142.104 96.6236 133.511 95.0375 124.415 93.3585C121.203 92.7652 117.88 92.1519 114.616 91.7606C106.465 90.7831 98.2611 91.1649 90.2357 92.8944C85.123 93.9965 80.1105 95.652 75.2629 97.2534C72.4055 98.1969 69.4515 99.1721 66.5293 100.016C56.9933 102.769 49.4886 103.45 42.909 102.158C38.1686 101.227 33.7924 99.2684 29.1605 97.1958C27.3317 96.3757 25.4394 95.5298 23.5435 94.7637C15.7018 91.5926 9.14455 90.7161 3.55584 92.0884C3.61004 86.3348 3.85513 78.7448 4.53619 78.9809ZM5.59195 125.85C15.1975 123.18 25.5077 125.441 35.2417 128.307C36.5791 128.7 37.92 129.107 39.2621 129.512C47.5102 132.01 56.0188 134.587 64.7677 134.586C65.4347 134.586 66.1051 134.571 66.7767 134.54C75.224 134.146 83.319 131.196 91.1465 128.342C100.443 124.953 109.222 121.751 118.542 122.458C122.793 122.78 127.106 123.959 131.277 125.1C137.038 126.677 142.983 128.301 149.073 127.803C148.894 129.267 148.478 130.692 148.165 132.128C148.125 132.312 148.089 132.496 148.053 132.681C136.644 128.175 123.79 126.832 111.709 128.904C105.204 130.019 98.8503 132.097 92.7066 134.108C85.143 136.584 77.3226 139.144 69.369 139.809C63.8734 140.269 58.3695 139.839 53.0129 138.531C48.6662 137.47 44.3736 135.804 40.2236 134.193C36.691 132.822 33.0383 131.405 29.3066 130.333C19.9838 127.659 12.1457 127.888 5.9643 131.006C5.8394 129.287 5.71568 127.569 5.59195 125.85ZM147.696 138.005C147.201 141.212 146.076 144.631 143.725 146.97C139.984 150.695 133.887 150.999 127.966 150.992C90.859 150.962 53.3358 150.721 16.4383 150.279C13.6728 150.246 11.2443 150.112 9.54517 148.794C7.3005 147.048 6.87749 143.652 6.63711 140.323C6.49218 138.316 6.34725 136.31 6.20232 134.306C11.8947 130.914 19.1849 130.559 28.4711 133.225C32.0721 134.258 35.66 135.65 39.1289 136.996C43.3708 138.643 47.7565 140.344 52.2953 141.453C56.5007 142.48 60.7921 142.996 65.1024 142.996C66.6071 142.996 68.1153 142.933 69.6212 142.806C77.9271 142.112 85.9184 139.497 93.648 136.967C99.688 134.99 105.933 132.945 112.221 131.868C124.064 129.838 136.687 131.244 147.795 135.824C147.803 136.545 147.809 137.268 147.696 138.005ZM149.44 124.743C143.687 125.372 138.041 123.833 132.075 122.201C127.767 121.022 123.312 119.803 118.77 119.458C108.801 118.704 99.2992 122.168 90.1108 125.517C82.4965 128.293 74.6231 131.163 66.6353 131.535C57.7002 131.951 48.7722 129.248 40.1387 126.635C38.7884 126.226 37.4404 125.818 36.0948 125.422C26.1192 122.485 15.5239 120.17 5.37043 122.795C4.8508 115.613 4.33234 108.43 3.81389 101.248C10.0954 100.296 16.443 102.103 21.3294 103.819C23.1452 104.457 24.9869 105.165 26.7673 105.849C31.0234 107.485 35.4255 109.178 40.0209 110.131C43.3614 110.824 46.7078 111.115 50.053 111.115C59.1519 111.115 68.232 108.958 77.0893 106.853C86.6795 104.573 96.5985 102.217 106.337 102.666C111.021 102.881 115.765 103.755 120.352 104.601C122.961 105.082 125.658 105.579 128.341 105.957C137.766 107.284 144.965 106.649 150.967 103.968C150.875 110.905 150.24 117.863 149.44 124.743ZM150.922 101.004C150.596 101.006 150.266 101.057 149.932 101.137C148.697 101.434 147.428 102.149 146.258 102.478C144.626 102.938 142.953 103.235 141.268 103.414C137.11 103.854 132.892 103.56 128.763 102.979C126.143 102.61 123.478 102.119 120.9 101.644C116.213 100.781 111.366 99.8864 106.476 99.662C96.311 99.1932 86.1846 101.599 76.3906 103.927C64.0537 106.858 52.4014 109.628 40.6348 107.186C36.281 106.283 31.9955 104.635 27.8514 103.042C26.0509 102.35 24.1892 101.635 22.331 100.983C17.1676 99.1697 10.4513 97.2663 3.59708 98.2392C3.56998 97.8691 3.54995 96.74 3.54641 95.2031C8.64141 93.7145 14.8205 94.4794 22.4111 97.5495C24.2552 98.2944 26.1216 99.1298 27.9268 99.9381C32.5092 101.99 37.2484 104.11 42.328 105.108C44.7848 105.591 47.2522 105.79 49.6713 105.79C56.3947 105.79 62.734 104.242 67.3694 102.904C70.347 102.045 73.3281 101.059 76.2115 100.107C80.9836 98.5305 85.9195 96.9009 90.8743 95.8329C98.571 94.1739 106.439 93.8085 114.257 94.7461C117.426 95.1268 120.7 95.7307 123.867 96.3158C132.705 97.9466 141.837 99.6303 150.534 96.9174C150.782 98.2897 151.088 99.6549 150.922 101.004Z" fill="#F4F4F4"/>
</svg>
