<svg width="186" height="150" viewBox="0 0 186 150" fill="none" xmlns="http://www.w3.org/2000/svg">
<path d="M183.044 69.2933C180.4 65.7556 176.593 63.3829 173.234 61.2898L113.65 24.167C113.117 23.8335 112.559 23.5227 112.02 23.2205C110.206 22.2058 108.495 21.2465 107.916 19.704C107.608 18.8881 107.509 17.8905 107.404 16.8347C107.273 15.5291 107.125 14.0476 106.541 12.6158C103.843 6.0086 97.7766 1.12559 91.0871 0.173397C82.5628 -1.0399 73.6525 4.24044 70.2169 12.0567C65.4247 8.23654 58.572 7.21055 52.8972 9.71662C47.3174 12.1801 43.493 17.784 42.9808 23.7853C37.9842 21.634 32.027 21.9305 27.3029 24.7502C22.5277 27.6011 19.4257 32.7878 19.0042 38.2725C16.6102 37.4409 13.9197 37.2792 11.2703 37.844C7.4913 38.6514 4.24022 40.8481 2.3486 43.8707C-1.57938 50.1473 0.181686 58.0259 2.14 64.9155L13.4783 104.815C15.7162 112.691 18.2393 120.126 24.4506 124.521C28.0422 127.062 32.4428 128.149 35.9791 129.023C75.2276 138.723 115.541 145.523 155.798 149.236C157.115 149.359 158.567 149.492 160.068 149.492C162.174 149.492 164.381 149.228 166.459 148.298C171.211 146.176 172.811 141.321 171.568 138.04C171.087 136.767 170.265 135.696 169.123 134.832C172.449 129.929 174.195 124.034 174.057 118.102C173.911 111.787 171.633 105.612 167.646 100.713C167.578 100.629 167.501 100.558 167.423 100.49C170.92 97.3185 173.876 93.5466 176.074 89.3277C176.211 89.0666 176.269 88.7856 176.272 88.5103C179.745 87.7639 183.077 86.0752 184.892 82.5275C186.878 78.645 186.153 73.4498 183.044 69.2933ZM110.245 26.3892C110.771 26.6844 111.268 26.9625 111.73 27.2506L171.313 64.3734C174.551 66.3913 177.899 68.4774 180.135 71.4673C182.005 73.9706 182.889 77.7169 181.669 80.6302C160.528 79.6412 139.269 76.1389 118.705 72.7459L22.7534 56.9205C33.6419 47.3404 46.0232 39.5256 59.6065 33.6634C74.1222 27.401 89.3176 23.6731 104.784 22.5677C104.92 22.8118 105.076 23.0388 105.261 23.2389C106.446 24.5274 108.735 25.5449 110.245 26.3892ZM170.426 118.186C170.549 123.529 168.919 128.835 165.834 133.192C164.051 132.619 162.18 132.374 160.846 132.237L137.051 129.815C139.147 123.364 138.009 116.073 134.171 110.521C136.24 110.842 138.334 111.012 140.431 111.012C143.191 111.012 145.955 110.73 148.671 110.153C154.497 108.915 159.97 106.351 164.676 102.776C164.721 102.854 164.769 102.934 164.828 103.008C168.31 107.283 170.298 112.674 170.426 118.186ZM58.9609 94.5882C48.6882 96.9084 37.8224 95.6355 28.3629 91.0036C27.9174 90.7865 27.4278 90.7681 26.9921 90.9128C25.407 84.8236 24.584 78.4974 23.8602 72.2748L84.172 79.2623C77.684 86.9451 68.7879 92.3702 58.9609 94.5882ZM87.8957 80.4642C88.0716 80.2428 88.1809 79.9917 88.2391 79.7334L134.682 85.1131C133.208 90.3296 127.2 93.2798 122.099 95.2708C114.971 98.0536 105.556 101.281 95.9375 101.529C86.4865 101.769 77.738 98.9149 71.8517 93.6899C78.0303 90.4658 83.5235 85.9659 87.8957 80.4642ZM48.7876 99.352C52.463 99.352 56.1469 98.949 59.7612 98.133C62.8051 97.4448 65.7653 96.4713 68.6077 95.2381C68.6886 95.5801 68.8702 95.9008 69.1498 96.1563C72.6662 99.3619 76.9859 101.762 81.8447 103.279C78.8037 111.616 72.2774 118.701 64.2057 122.386C57.5333 121.641 50.4294 120.49 44.5204 117.087C37.7118 113.167 32.1135 105.907 28.7574 96.643C28.5503 96.074 28.3558 95.5006 28.1671 94.9245C34.6593 97.8549 41.7107 99.352 48.7876 99.352ZM85.3697 104.204C88.3554 104.844 91.5029 105.177 94.7654 105.177C95.1854 105.177 95.6083 105.172 96.0312 105.16C102.6 104.991 109.009 103.534 114.72 101.746C114.832 101.942 114.98 102.122 115.167 102.271C119.24 105.508 123.923 107.889 128.874 109.342C128.924 109.717 129.084 110.079 129.368 110.371C134.108 115.244 135.734 123.076 133.337 129.438L70.5092 123.04C77.3052 118.582 82.6621 111.855 85.3697 104.204ZM147.917 106.599C137.844 108.739 127.058 106.425 118.728 100.408C120.375 99.8245 121.948 99.23 123.421 98.6552C129.403 96.3195 136.496 92.7462 138.268 85.7857C138.29 85.702 138.297 85.6183 138.305 85.5345L165.368 88.6693C166.793 88.8339 169.302 89.1234 172.099 89.0141C166.942 97.9287 158.01 104.454 147.917 106.599ZM165.785 85.0592L22.0041 68.4021C21.4521 68.3369 20.9029 68.5284 20.5112 68.9201C20.1182 69.3118 19.9266 69.8624 19.989 70.413C21.0349 79.539 22.1148 88.9758 25.3417 97.8804C28.9888 107.949 35.1574 115.888 42.7083 120.236C50.3599 124.641 59.4206 125.564 67.4143 126.378L160.478 135.852C165.065 136.319 167.439 137.39 168.171 139.326C168.978 141.457 167.135 144.017 164.977 144.982C162.488 146.095 159.498 145.927 156.132 145.618C116.054 141.921 75.923 135.151 36.8504 125.497C32.7308 124.478 29.3563 123.541 26.5494 121.555C23.5551 119.436 20.5708 116.486 16.9721 103.822L5.63374 63.9221C3.80882 57.5023 2.29042 50.8128 5.4294 45.7978C6.80163 43.6039 9.20695 41.999 12.0295 41.3973C12.8284 41.2256 13.6288 41.1419 14.4135 41.1419C16.4073 41.1419 18.3103 41.6811 19.8528 42.7156C20.4403 43.1101 21.2037 43.1271 21.8083 42.7582C22.4128 42.3906 22.7491 41.7038 22.6682 41.0014C22.0864 35.9013 24.7585 30.5017 29.1661 27.8693C33.5738 25.2384 39.5949 25.447 43.8081 28.3774C44.397 28.7875 45.1718 28.8102 45.7848 28.4412C46.0928 28.2553 46.3298 27.9885 46.4802 27.6778C46.6306 27.3684 46.693 27.0165 46.6476 26.6603C45.9594 21.143 49.2772 15.2865 54.3645 13.0401C59.4519 10.7923 66.0136 12.288 69.628 16.514C70.0707 17.0319 70.7661 17.2575 71.4274 17.1014C72.0887 16.9454 72.608 16.4317 72.7727 15.7718C74.6614 8.16275 82.814 2.6667 90.5763 3.77073C96.0127 4.54412 100.958 8.55441 103.178 13.988C103.564 14.9331 103.673 16.0315 103.789 17.1951C103.843 17.7344 103.877 18.3516 103.931 18.9902C88.2618 20.1766 72.872 23.9825 58.1676 30.3286C43.0333 36.8577 29.3535 45.7538 17.5057 56.7686C16.9976 57.2398 16.8032 57.9592 17.0033 58.6234C17.2034 59.2861 17.7639 59.7785 18.4465 59.8906L118.115 76.3305C137.732 79.5659 157.978 82.9036 178.246 84.0885C174.561 85.9319 169.634 85.5047 165.785 85.0592Z" fill="#F4F4F4"/>
<path d="M95.9761 26.1216C84.4774 28.0147 73.166 31.1792 62.3542 35.5286C58.4049 37.1165 53.8355 39.1359 49.8806 42.0748C46.4748 44.6064 46.2165 47.551 47.4696 49.3461C48.0003 50.1067 48.8177 50.6828 49.9004 51.0589C52.7797 52.0565 55.3709 51.1454 57.7422 50.0145C60.183 48.848 62.8352 47.6489 66.3403 46.1248C72.1784 43.5889 78.1697 41.1921 84.1482 39.0053C87.4064 37.8133 90.7256 36.6596 94.0121 35.5754C95.522 35.0788 96.7694 34.707 97.9245 34.8418C99.2655 34.9979 100.964 35.7727 101.269 36.2381C101.317 36.7192 100.922 37.924 98.0196 40.7735C92.7307 45.963 91.0463 50.8361 93.0145 55.2551C94.8409 59.3519 99.4911 62.1106 104.864 62.2837C109.176 62.4185 113.246 61.0917 117.178 59.8046L117.652 59.6499C121.577 58.3671 125.41 57.2489 129.117 57.6505C131.449 57.903 133.686 58.7602 135.591 60.1253C136.773 60.9753 137.831 62.0169 138.953 63.1195C139.624 63.7808 140.318 64.4648 141.051 65.1147C144.698 68.3445 149.144 70.5881 153.908 71.6041C155.439 71.9305 156.888 72.0937 158.249 72.0937C160.61 72.0937 162.708 71.6027 164.517 70.6236C165.58 70.0474 166.324 69.3748 166.792 68.5673C168.052 66.3919 167.095 63.7893 165.5 62.3433C164.087 61.0619 162.281 60.5297 160.829 60.1012C154.95 58.3685 149.752 56.6642 145.672 53.3649C144.934 52.7689 144.229 52.1175 143.484 51.4293C141.795 49.8711 140.049 48.2591 137.812 47.2217C134.464 45.6693 130.262 45.5685 125.324 46.9251C123.818 47.3381 122.34 47.8419 120.911 48.3286C118.711 49.0793 116.633 49.7874 114.479 50.1876C111.76 50.6913 108.396 50.2784 107.438 48.1768C106.582 46.2993 107.996 43.789 109.835 42.2791C110.822 41.4674 111.945 40.7891 113.131 40.0696C114.611 39.1756 116.141 38.2504 117.498 37.0002C119.543 35.1157 120.465 32.9289 120.095 30.8429C119.606 28.0941 117.031 26.1443 113.026 25.4972C107.134 24.545 101.102 25.2787 95.9761 26.1216ZM116.517 31.4772C116.659 32.2775 116.106 33.3433 115.037 34.3281C113.947 35.3314 112.637 36.1232 111.251 36.9619C110.006 37.7154 108.719 38.4945 107.529 39.4722C103.482 42.7957 102.907 46.9961 104.133 49.6852C106.032 53.8488 111.25 54.4831 115.142 53.7594C117.556 53.3109 119.858 52.5276 122.083 51.7684C123.462 51.2987 124.887 50.8134 126.285 50.4288C130.373 49.3063 133.737 49.3361 136.283 50.5182C138.003 51.3157 139.468 52.6681 141.019 54.0999C141.775 54.7967 142.557 55.519 143.387 56.1902C147.988 59.911 153.543 61.7402 159.803 63.5864C161.012 63.9426 162.262 64.3116 163.06 65.0339C163.602 65.5263 163.883 66.3422 163.649 66.7453C163.528 66.9539 163.237 67.1837 162.786 67.4292C160.717 68.5503 157.985 68.7589 154.666 68.0508C150.514 67.1667 146.64 65.2112 143.461 62.3958C142.798 61.8083 142.168 61.1882 141.5 60.5312C140.33 59.3789 139.12 58.1883 137.708 57.1751C135.296 55.4438 132.46 54.3596 129.507 54.0389C128.842 53.9666 128.179 53.9339 127.519 53.9339C123.803 53.9339 120.19 54.9982 116.523 56.1973L116.047 56.352C112.415 57.5412 108.657 58.7687 104.98 58.6537C101.711 58.5487 97.7684 57.0005 96.3323 53.7778C95.8526 52.6993 94.3924 49.4227 100.564 43.3661C103.079 40.8984 105.336 38.2405 104.834 35.5272C104.289 32.5741 99.8544 31.4091 98.3431 31.2331C96.2997 30.9975 94.4009 31.6233 92.8754 32.1257C89.5506 33.2226 86.1931 34.3891 82.8994 35.5939C76.8542 37.8062 70.7962 40.2286 64.8914 42.7942C61.3466 44.3339 58.6575 45.5501 56.1755 46.7364C54.1378 47.7099 52.6506 48.1668 51.0896 47.6262C50.6 47.4559 50.4695 47.2969 50.4482 47.2671C50.2524 46.9847 50.8498 45.8807 52.0475 44.991C55.6703 42.299 59.9758 40.4003 63.7108 38.8989C74.2743 34.6488 85.3288 31.5566 96.5664 29.7062C101.401 28.9115 107.07 28.2147 112.446 29.0832C114.261 29.377 116.283 30.1603 116.517 31.4772Z" fill="#F4F4F4"/>
</svg>
