<svg width="36" height="35" viewBox="0 0 36 35" fill="none" xmlns="http://www.w3.org/2000/svg">
<ellipse cx="18.0001" cy="17.375" rx="17.6125" ry="17.375" fill="#B52B65"/>
<g clip-path="url(#clip0_1107_4673)">
<path d="M12.6992 18.3632H15.044V26.9175C15.044 27.2978 15.3559 27.6064 15.7424 27.6064L19.4736 27.6073C19.8601 27.6073 20.172 27.2978 20.172 26.9184V18.3641H22.3947C22.7467 18.3641 23.0438 18.105 23.0875 17.7606L23.5513 14.086C23.6034 13.6763 23.2784 13.3116 22.8585 13.3116H20.172C20.2772 11.0417 19.7669 10.3702 21.2634 10.3702C22.2765 10.2508 23.8744 10.7569 23.8744 9.6812V6.39526C23.8744 6.05077 23.6165 5.75957 23.271 5.71272C22.9786 5.67322 21.823 5.56023 20.3899 5.56023C13.8623 5.56023 15.206 12.6998 15.0449 13.3107H12.6992C12.3137 13.3107 12.0009 13.6194 12.0009 13.9997V17.6742C12.0009 18.0545 12.3137 18.3632 12.6992 18.3632V18.3632ZM13.3976 14.6896H15.7424C16.1279 14.6896 16.4407 14.3809 16.4407 14.0006V11.106C16.4407 8.45759 17.8794 6.93909 20.389 6.93909C21.2066 6.93909 21.959 6.97859 22.4767 7.01901V8.99315C22.1024 9.18147 18.7743 8.18108 18.7743 11.4707V14.0015C18.7743 14.3818 19.0872 14.6905 19.4727 14.6905H22.067L21.7764 16.9871H19.4727C19.0872 16.9871 18.7743 17.2957 18.7743 17.676V26.2294H16.4417V17.6751C16.4417 17.2948 16.1288 16.9861 15.7433 16.9861H13.3976V14.6896Z" fill="#F4F4F4"/>
</g>
<defs>
<clipPath id="clip0_1107_4673">
<rect width="22.3484" height="22.0471" fill="white" transform="translate(7.22473 5.56013)"/>
</clipPath>
</defs>
</svg>
