<svg width="50" height="50" viewBox="0 0 50 50" fill="none" xmlns="http://www.w3.org/2000/svg">
<g clip-path="url(#clip0_1107_4424)">
<path d="M49.9652 39.8701C49.9095 39.6657 49.6589 38.5266 49.4743 37.6874C49.2427 36.6341 49.0989 35.9833 49.0562 35.8288C48.6595 34.3892 48.1857 32.9518 47.6493 31.5571C46.8776 29.5518 45.8633 27.6101 44.8825 25.7325C44.5018 25.0039 44.1081 24.2505 43.737 23.5085C43.5714 23.1778 43.365 22.7669 43.0538 22.4232L49.2691 6.97066C49.34 6.79404 49.3022 6.593 49.1722 6.45415C47.3876 4.55099 45.3647 2.39378 42.6433 1.47368C40.826 0.858748 38.8408 0.871336 37.0883 0.882017L12.1452 1.03537C10.5995 1.0449 8.84737 1.05597 7.24558 1.61597C4.79235 2.47389 2.92468 4.53841 1.42397 6.19704C1.29847 6.33551 1.26337 6.53349 1.3328 6.70668L7.50384 22.0708C7.52863 22.1326 7.56487 22.1863 7.60874 22.231L0.108666 40.3805C-0.0134048 40.5324 -0.0385817 40.7487 0.0636522 40.9283C0.59008 41.8542 1.01122 42.8326 1.41825 43.7787C1.83596 44.7495 2.26817 45.7532 2.8213 46.7263C3.17759 47.3527 3.62124 48.1324 4.3548 48.6104C5.10287 49.0979 6.00886 49.1784 6.7882 49.1784C6.99496 49.1784 7.19294 49.1727 7.37681 49.1677L42.4552 48.1591C43.6122 48.1259 45.0523 48.0843 46.2066 47.318C47.7683 46.2815 48.3638 44.4794 48.9395 42.7369C49.1966 41.9591 49.4625 41.1565 49.81 40.4351C49.9263 40.3447 50.0015 40.2047 49.9999 40.046C49.9992 39.9838 49.987 39.9247 49.9652 39.8701ZM48.1006 7.25867C48.0293 7.43643 47.9579 7.6142 47.8862 7.79196C46.8742 10.3085 45.8621 12.8251 44.8497 15.3416C44.3046 16.697 43.7595 18.0524 43.2144 19.4077C43.0316 19.8624 42.8485 20.3168 42.6658 20.7715C42.6006 20.934 42.5434 21.0866 42.4797 21.2227C41.4482 19.5313 40.2667 17.9223 38.9591 16.4353C38.8549 16.317 38.6978 16.1385 38.6955 16.0309C38.6939 15.9699 38.7401 15.8578 38.7805 15.759C39.9658 12.877 40.8981 9.87212 41.5538 6.82493C42.1272 6.85698 42.7001 6.88902 43.2743 6.92412C44.0948 6.97485 44.9146 7.02826 45.7347 7.0851C45.9564 7.10074 48.0609 7.35747 48.1006 7.25867ZM29.9823 39.7706C29.8797 38.9481 30.0437 38.1478 30.4401 37.5569C30.886 36.8931 31.6619 36.4911 32.373 36.5563C32.5466 36.5723 32.7289 36.6147 32.9219 36.6593C33.2443 36.7337 33.6097 36.8184 33.9981 36.7852C34.7263 36.723 35.3153 36.2752 35.7955 35.8452C35.8444 35.8014 35.8932 35.7571 35.9424 35.7129C36.3059 35.3833 36.6497 35.072 37.046 34.9354C37.3779 34.821 37.8437 34.8859 37.9814 35.1624C38.0336 35.2677 38.0561 35.4249 38.0802 35.5908C38.1244 35.8979 38.1793 36.2797 38.4666 36.5853C38.7603 36.8981 39.2307 37.0358 39.7575 36.963C39.933 36.9385 40.0943 36.8973 40.2503 36.8577C40.3953 36.8207 40.5322 36.7856 40.6608 36.7703C41.1457 36.7112 41.6603 36.9416 41.9406 37.3421C42.3942 37.9903 42.2019 38.9558 41.8106 39.6249C41.8067 39.6313 41.8048 39.6378 41.8014 39.6447C41.6458 39.6462 41.4901 39.6477 41.3337 39.6496C40.6837 39.6569 40.0337 39.6634 39.384 39.6702C38.108 39.684 36.8324 39.6977 35.5567 39.7111C33.6967 39.7309 31.8393 39.7507 29.9823 39.7706ZM42.7406 36.7821C42.2523 36.084 41.3902 35.6988 40.5445 35.8006C40.3526 35.8235 40.1779 35.8681 40.0089 35.9116C39.8731 35.9463 39.7445 35.9791 39.6236 35.9959C39.4241 36.0234 39.2494 35.9925 39.1784 35.917C39.1021 35.8357 39.0754 35.6496 39.0472 35.4523C39.0148 35.2276 38.9781 34.9736 38.8557 34.7275C38.4704 33.9532 37.471 33.7559 36.7279 34.0123C36.1423 34.2141 35.688 34.6261 35.2867 34.9896C35.2394 35.0323 35.1921 35.0754 35.1448 35.1178C34.7663 35.4565 34.3559 35.7751 33.9153 35.8124C33.6803 35.8327 33.4186 35.772 33.142 35.7079C32.9257 35.6579 32.7022 35.6061 32.463 35.5843C31.3907 35.4855 30.2783 36.0463 29.6295 37.0129C29.1217 37.7694 28.8986 38.7658 29.0012 39.7813C28.5358 39.7862 28.0704 39.7912 27.605 39.7961C27.5093 37.6126 28.7258 35.3062 30.7086 33.9154C32.5149 32.6478 34.9197 32.0664 37.4805 32.2781C39.0529 32.4082 41.2677 32.895 42.8882 34.4742C43.4493 35.0209 43.8796 35.6766 44.1604 36.3709C44.5953 37.4474 44.6708 38.6166 44.3176 39.618C43.8404 39.6229 43.3673 39.6279 42.8947 39.6329C43.3189 38.6174 43.272 37.5413 42.7406 36.7821ZM26.6284 39.8064L24.2568 39.8316C24.3404 38.2317 23.8159 36.5636 22.8115 35.183C24.1622 33.5042 24.3083 30.9189 23.1662 28.8945C23.1548 28.8747 23.1418 28.8556 23.1304 28.8357C23.1372 28.8296 23.1449 28.8251 23.1513 28.8186C24.411 27.5349 24.7894 25.459 24.0928 23.6531C23.92 23.2045 23.6854 22.7795 23.4012 22.3836L27.8144 22.3756C27.3494 22.95 26.9779 23.5757 26.7188 24.2333C26.0364 25.9644 26.1516 27.8817 27.0271 29.3626C27.0507 29.4026 27.0793 29.4377 27.1114 29.4682C26.8634 29.8806 26.6658 30.3128 26.5296 30.7587C25.9757 32.5699 26.4514 34.5391 27.7114 35.7278C26.9634 36.982 26.5731 38.3977 26.6284 39.8064ZM17.4476 39.8869C17.4861 38.5972 18.1037 37.3284 19.1074 36.5155C19.1806 36.456 19.2478 36.4178 19.2989 36.3953C19.2935 36.4354 19.2832 36.4896 19.2626 36.5613C19.1577 36.9237 19.0193 37.2796 18.8724 37.6557C18.5996 38.3565 18.3189 39.0786 18.262 39.864C18.0881 39.8678 17.9141 39.8724 17.7406 39.8781C17.6429 39.8816 17.5453 39.8839 17.4476 39.8869ZM19.7826 38.0101C19.9306 37.6301 20.0836 37.2372 20.2007 36.8325C20.3948 36.1611 20.1869 35.7979 19.9787 35.6118C19.6014 35.2742 19.0181 35.331 18.4925 35.7567C17.2573 36.757 16.5012 38.3248 16.4691 39.9125C16.0171 39.9228 15.5643 39.9312 15.1115 39.9373C15.195 39.2747 15.4155 38.6285 15.7566 38.0551C15.8264 37.9372 15.9019 37.8201 15.982 37.6954C16.3135 37.1819 16.6885 36.5998 16.6851 35.891C16.6835 35.6007 16.6038 35.3642 16.4478 35.188C16.1598 34.8637 15.6619 34.8019 15.1794 35.0308C14.4947 35.3562 14.0731 35.9948 13.7512 36.5773C13.1618 37.6431 12.7101 38.7818 12.4065 39.9617C11.8766 39.9655 11.3483 39.9693 10.8219 39.9747C10.8364 39.6241 11.0118 39.3433 11.3132 38.8966C11.3681 38.8154 11.4242 38.7318 11.481 38.6452C11.6325 38.4129 11.7973 38.1901 11.9716 37.9544C12.2528 37.5737 12.5438 37.18 12.7784 36.7402C13.1313 36.0779 13.0714 35.434 12.6251 35.0999C12.4313 34.9545 12.088 34.8153 11.5535 34.9778C10.8554 35.1903 10.3286 35.6892 9.99293 36.0463C8.96716 37.1373 8.23817 38.5392 7.92956 40.0056C7.14526 40.014 6.36134 40.0223 5.57703 40.0307C5.59191 39.9659 5.5942 39.8972 5.58047 39.8278C5.37791 38.8112 5.52134 37.7408 5.98444 36.8138C6.60586 35.5691 7.85517 34.7302 9.0816 33.9776C11.338 32.5932 14.122 32.0885 16.7205 32.5928C18.6244 32.9625 20.3186 33.8578 21.4916 35.114C22.7245 36.4342 23.3825 38.189 23.2765 39.8419C23.0613 39.8442 22.8458 39.8465 22.6306 39.8488C21.4977 39.861 20.3697 39.845 19.2428 39.8518C19.3027 39.2419 19.5365 38.641 19.7826 38.0101ZM14.1288 39.9483C13.8927 39.9506 13.6562 39.9525 13.4204 39.9544C13.7012 38.9439 14.0983 37.9677 14.606 37.0499C14.8525 36.6036 15.1634 36.1195 15.5982 35.9135C15.6398 35.8937 15.678 35.8823 15.7081 35.8761C15.7085 35.8823 15.7085 35.8891 15.7085 35.896C15.7108 36.3148 15.4437 36.7284 15.1615 37.1667C15.0802 37.2929 14.9959 37.4234 14.9169 37.5565C14.4847 38.2832 14.2154 39.1072 14.1288 39.9483ZM10.6632 38.1119C10.6094 38.194 10.556 38.2733 10.5037 38.3507C10.184 38.8241 9.85484 39.312 9.84339 39.985C9.53974 39.9884 9.23647 39.9914 8.93282 39.9949C9.22808 38.7788 9.84949 37.6244 10.7044 36.7154C11.116 36.2775 11.4761 36.0223 11.8373 35.9124C11.935 35.8826 11.9991 35.88 12.0296 35.883C12.0365 35.9452 12.0132 36.0993 11.9163 36.2809C11.7156 36.6574 11.4585 37.0053 11.1862 37.3738C11.0115 37.6107 10.8303 37.8556 10.6632 38.1119ZM22.5624 28.0141C21.4729 26.6709 19.8135 25.6905 17.942 25.3209C16.0255 24.9428 13.9179 25.1496 11.6783 25.9362C10.91 26.2059 10.2134 26.5191 9.58781 26.8731C9.57484 26.8803 9.45086 25.9583 9.45124 25.8698C9.45162 25.6035 9.47527 25.3247 9.53097 25.0596C9.63282 25.0535 9.73391 25.0168 9.81745 24.9451C11.6634 23.3674 14.1143 22.4919 16.5428 22.5426C18.9708 22.5934 21.3832 23.5711 23.1616 25.2247C23.2479 25.3049 23.3554 25.3461 23.4645 25.3525C23.5416 26.2654 23.2871 27.1931 22.5624 28.0141ZM12.0815 31.6525C11.7412 30.3536 11.1156 29.1249 10.263 28.0888C10.1749 27.9816 10.081 27.8741 9.97729 27.7722C10.6182 27.3976 11.3082 27.1008 12.0017 26.8574C12.4134 26.7132 12.8345 26.5801 13.2614 26.4661C12.4343 27.8187 12.173 29.514 12.6045 31.0471C12.6441 31.1883 12.6937 31.3439 12.7681 31.4988C12.5392 31.5423 12.31 31.5938 12.0815 31.6525ZM13.7947 31.3611C13.7798 31.3004 13.7538 31.2421 13.7149 31.189C13.6344 31.0792 13.5837 30.922 13.5444 30.7828C13.0981 29.1962 13.5448 27.4003 14.6823 26.2078C14.6934 26.1964 14.7014 26.183 14.7109 26.1708C15.2393 26.1002 15.771 26.0731 16.3017 26.1056C15.8592 26.7975 15.5361 27.6307 15.3427 28.5943C15.158 29.5155 15.1054 30.4505 15.0646 31.3611C14.8033 31.3409 14.5412 31.3302 14.2787 31.3351C14.1185 31.3382 13.9568 31.3481 13.7947 31.3611ZM16.3001 28.7865C16.5027 27.7756 16.8586 26.9379 17.3572 26.2971C17.3744 26.2746 17.3881 26.2509 17.4011 26.2269C17.81 26.2894 18.2167 26.3745 18.6016 26.4985C18.9571 26.6129 19.3046 26.7541 19.6388 26.9211C19.8066 27.0051 19.9699 27.0978 20.129 27.1969C18.5966 28.2612 17.4488 29.847 16.9185 31.6369C16.9143 31.6361 16.9105 31.635 16.9063 31.6342C16.6179 31.5785 16.328 31.5251 16.0366 31.4789C16.0766 30.5821 16.1247 29.6612 16.3001 28.7865ZM20.9716 27.8107C20.9999 27.8348 21.0285 27.858 21.0567 27.8824C21.508 28.2704 21.9741 28.6736 22.301 29.1772C20.9636 29.9061 19.8459 31.0197 19.1127 32.354C18.7026 32.1751 18.291 32.0134 17.8646 31.8791C18.3692 30.206 19.4877 28.7381 20.9716 27.8107ZM22.6852 30.0793C22.7664 30.3647 22.8263 30.6569 22.8752 30.9193C22.9888 31.5289 22.9907 32.1614 22.8702 32.7702C22.8404 32.9201 22.2267 34.4712 22.171 34.4124C21.614 33.8231 20.9224 33.2097 20.1866 32.8538C20.1248 32.824 20.0637 32.7946 20.0023 32.7653C20.631 31.6468 21.5671 30.7084 22.6852 30.0793ZM16.5634 21.5661C14.3394 21.5199 12.0986 22.1818 10.2405 23.4086C10.4076 23.1484 10.5945 22.9069 10.7948 22.6994C12.0979 21.3498 13.9541 20.8104 15.2816 20.5956C15.9072 20.4945 16.5183 20.4461 17.1066 20.4503C18.1377 20.4575 19.0994 20.6254 19.9459 20.9508C21.2402 21.4482 22.4327 22.5548 23.0457 23.8507C21.1978 22.4373 18.8873 21.6149 16.5634 21.5661ZM9.13538 28.3356C9.25936 28.4211 9.37647 28.5481 9.50884 28.7091C10.2798 29.646 10.8432 30.7591 11.1457 31.9348C10.7017 32.0878 10.2661 32.264 9.84721 32.4597C9.42377 31.3061 8.78634 30.2636 8.15653 29.2561C8.21185 29.1955 8.2683 29.1337 8.32438 29.073C8.57348 28.8029 8.84585 28.5584 9.13538 28.3356ZM7.50574 30.0584C8.06994 30.9689 8.61964 31.91 8.97097 32.911C8.83517 32.9877 8.70089 33.0655 8.57081 33.1452C8.07032 33.4523 7.56564 33.7743 7.09109 34.1328C6.5536 32.9312 6.70733 31.3534 7.50574 30.0584ZM43.7271 30.5916C43.7488 30.6077 43.7721 30.6199 43.7957 30.6317C44.1539 31.6849 44.1738 32.845 43.6584 33.8639C43.629 33.8341 43.6 33.804 43.5699 33.7746C41.7415 31.9928 39.2929 31.448 37.561 31.305C37.0201 31.2604 36.4849 31.2482 35.9592 31.2684C33.7757 31.3523 31.7539 31.9886 30.1475 33.1158C29.4216 33.6247 28.791 34.2324 28.271 34.9061C27.7538 34.3629 27.452 33.6533 27.3456 32.9095C28.2665 31.4358 29.4746 30.2998 30.8414 29.6235C32.3398 28.8819 34.0305 28.719 35.4804 29.176C35.6521 29.2302 35.8222 29.2931 36.0023 29.3595C36.338 29.4839 36.6851 29.612 37.0609 29.6872C37.8234 29.8398 38.573 29.7486 39.2982 29.6609C39.7273 29.6086 40.1325 29.5594 40.5345 29.559H40.5406C41.5622 29.559 42.9012 29.9927 43.7271 30.5916ZM40.5406 28.5824C40.538 28.5824 40.5353 28.5824 40.5326 28.5824C40.0726 28.5832 39.619 28.6381 39.1807 28.6915C38.5021 28.7736 37.8616 28.8514 37.2524 28.7297C36.9522 28.6694 36.655 28.5599 36.3407 28.4436C36.1579 28.3761 35.9687 28.3059 35.7742 28.2448C34.0862 27.7123 32.1304 27.8958 30.408 28.7484C29.314 29.2901 28.3145 30.09 27.4616 31.0971C27.4974 30.9666 27.5371 30.8381 27.5844 30.7133C28.0899 29.3835 29.2232 28.3177 30.4504 27.6688C31.6776 27.0196 33.1916 26.6389 35.0791 26.505C36.9766 26.3707 38.5532 26.5301 39.8986 26.9925C41.0663 27.3938 42.2008 28.0926 42.9702 29.089C42.1756 28.7739 41.2971 28.5824 40.5406 28.5824ZM30.6213 24.0159C30.9287 23.7908 31.3075 23.6096 31.8492 23.428C33.1104 23.0061 34.4779 22.8318 35.8047 22.923C36.1423 22.9462 36.536 22.9882 36.8949 23.1225C37.8421 23.4769 38.4777 24.5766 38.3117 25.5742C38.3094 25.5887 38.3102 25.6032 38.309 25.6177C37.2184 25.4616 36.1 25.454 35.0101 25.5315C33.8397 25.6142 32.6683 25.7947 31.5494 26.1552C30.8521 26.3802 30.2535 26.6904 29.6691 27.0585C29.322 25.9946 29.718 24.6777 30.6213 24.0159ZM40.2748 26.0903C40.2549 26.0834 40.2358 26.0758 40.216 26.0689C39.9017 25.961 39.582 25.8706 39.2585 25.795C39.2646 25.7752 39.2715 25.7554 39.2749 25.7344C39.5179 24.2753 38.6226 22.7261 37.2371 22.2081C36.758 22.0288 36.2556 21.9754 35.8715 21.9487C34.4188 21.8491 32.9208 22.0402 31.5395 22.5022C31.1077 22.6468 30.5473 22.86 30.0445 23.2285C28.7197 24.1986 28.2009 26.1109 28.8368 27.6211C28.8215 27.6318 28.8066 27.6421 28.7914 27.6528C28.6552 27.7505 27.6447 28.4386 27.7294 28.6091C27.1461 27.4342 27.1022 25.924 27.6271 24.5919C28.1497 23.2659 29.2068 22.0818 30.6041 21.2575C32.7369 19.9982 35.2966 19.8239 37.2837 20.802C39.3123 21.8007 40.5528 24.0292 40.2748 26.0903ZM40.2793 21.9197C40.216 21.9319 40.1546 21.9437 40.0955 21.9548C39.4897 21.1125 38.6779 20.3999 37.7147 19.9258C35.4358 18.8038 32.521 18.9919 30.1074 20.4163C29.5879 20.7226 29.1099 21.0755 28.68 21.4642C28.6087 21.4234 28.527 21.3982 28.4381 21.3982L22.8054 21.4081C22.7271 21.4081 22.6547 21.4284 22.5891 21.4612C21.9497 20.8638 21.1723 20.3763 20.296 20.0394C18.7839 19.4585 17.0448 19.3211 15.1256 19.6316C13.1454 19.9517 11.4929 20.6975 10.3225 21.7946C9.91816 21.7492 9.62328 21.7217 9.33833 21.6954C9.16514 21.6794 9.01331 21.6763 8.8756 21.6611C10.0242 19.9433 11.1186 18.1664 12.136 16.3685C12.1639 16.3708 12.1921 16.372 12.2211 16.3693C20.7073 15.5751 29.3094 15.5953 37.7925 16.4273C37.8955 16.7046 38.0859 16.9213 38.2255 17.0804C39.5164 18.5479 40.6806 20.1386 41.6942 21.811C41.6397 21.8156 41.5828 21.8182 41.5206 21.8171C41.098 21.8075 40.71 21.8369 40.2793 21.9197ZM37.8772 15.3882C37.8688 15.4088 37.8601 15.4301 37.8513 15.4519C29.3922 14.6248 20.816 14.5997 12.3523 15.3775C12.0727 12.2368 11.3666 9.30334 10.2497 6.64526C14.9784 6.43584 19.7181 6.33208 24.4564 6.33742C25.65 6.33856 26.8436 6.34657 28.0372 6.36183C30.4107 6.39159 32.7842 6.44804 35.1566 6.53197C36.3418 6.57355 37.5266 6.62237 38.7115 6.67769C39.3306 6.7063 39.9486 6.73834 40.5662 6.77115C39.9242 9.70961 39.0209 12.6069 37.8772 15.3882ZM7.56792 2.53798C9.01637 2.03139 10.6101 2.02147 12.1513 2.01231L37.0944 1.85858C38.8511 1.84752 40.6681 1.83645 42.3305 2.39874C44.4251 3.10713 46.1261 4.67917 47.6295 6.24396C32.7724 5.12358 17.7158 5.06865 2.85067 6.08145C4.18047 4.64522 5.68804 3.19525 7.56792 2.53798ZM7.01517 18.2336C6.06303 15.8635 5.11126 13.4934 4.15911 11.1233C3.61819 9.77598 3.07688 8.42902 2.53596 7.08205C2.60348 7.25027 6.16412 6.85164 6.54139 6.83028C7.42945 6.77992 8.31866 6.73529 9.20748 6.69256C10.395 9.40634 11.1328 12.431 11.4002 15.688C10.3744 17.5122 9.26585 19.3169 8.10275 21.0602C7.94634 20.736 7.87424 20.3721 7.74073 20.0398C7.4985 19.4379 7.25703 18.8355 7.01517 18.2336ZM8.51511 22.596C8.79702 22.6258 9.02552 22.6472 9.24792 22.6678C9.341 22.6761 9.4356 22.6853 9.53402 22.6945C8.51931 24.1208 8.19697 25.9221 8.73675 27.4113C7.97495 27.9503 7.34858 28.5653 6.86602 29.2538C5.67622 30.9518 5.47213 33.1689 6.32166 34.7821C5.8391 35.2406 5.41872 35.7609 5.1105 36.3774C4.55126 37.4974 4.37807 38.7906 4.6226 40.0185C4.62412 40.0262 4.62756 40.033 4.62946 40.0407L1.29122 40.0761L8.51511 22.596ZM48.0121 42.4302C47.4643 44.0884 46.947 45.6544 45.6665 46.5043C44.8127 47.0711 43.7404 47.1451 42.427 47.1829L7.34858 48.1911C6.38041 48.2194 5.52668 48.2083 4.88772 47.7921C4.3529 47.4435 3.99012 46.8056 3.67007 46.2434C3.14364 45.3175 2.7225 44.3391 2.31547 43.3926C1.98435 42.6232 1.64294 41.8328 1.24049 41.0535L48.6888 40.548C48.4302 41.166 48.2185 41.8061 48.0121 42.4302ZM45.3437 39.6069C45.7859 37.9906 45.3979 36.147 44.3309 34.66C45.2808 33.1532 45.2964 31.091 44.3641 29.3851C43.6954 28.1609 42.5918 27.1519 41.2013 26.4756C41.4272 25.2579 41.2036 23.9808 40.6349 22.8463C41.1216 22.7551 41.7118 22.6647 42.0139 22.8242C42.3763 23.0149 42.6132 23.4448 42.8638 23.9457C43.2388 24.6953 43.6344 25.4525 44.017 26.1845C44.9851 28.0381 45.9861 29.9546 46.7376 31.9077C47.2629 33.273 47.7264 34.6795 48.1151 36.0886C48.1536 36.2294 48.3486 37.1155 48.5206 37.8972C48.6412 38.4438 48.7655 39.0092 48.8616 39.4379C48.8719 39.4833 48.8819 39.5272 48.8914 39.5692L45.3437 39.6069ZM49.8805 39.7313C49.9111 39.766 49.9359 39.8038 49.9534 39.8427C49.9343 39.8022 49.9095 39.7649 49.8805 39.7313Z" fill="#621055"/>
</g>
<defs>
<clipPath id="clip0_1107_4424">
<rect width="50" height="50" fill="white"/>
</clipPath>
</defs>
</svg>
