<svg width="36" height="35" viewBox="0 0 36 35" fill="none" xmlns="http://www.w3.org/2000/svg">
<ellipse cx="17.6125" cy="17.3756" rx="17.6125" ry="17.375" fill="#B52B65"/>
<g clip-path="url(#clip0_1107_4677)">
<path d="M17.8724 24.593C21.1054 24.593 19.9526 22.5738 20.2022 21.9932C20.1985 21.5596 20.1947 21.1426 20.2096 20.889C20.4145 20.946 20.8978 21.1876 21.896 22.1448C23.4371 23.6789 23.831 24.593 25.076 24.593H27.3676C28.094 24.593 28.472 24.2962 28.6611 24.0473C28.8436 23.8066 29.0224 23.384 28.8268 22.7263C28.3156 21.1426 25.3339 18.4078 25.1486 18.1194C25.1766 18.0661 25.2213 17.9954 25.2445 17.9586H25.2427C25.8312 17.1916 28.0772 13.8716 28.4078 12.5433C28.4087 12.5414 28.4096 12.5387 28.4096 12.5359C28.5884 11.9296 28.4245 11.5365 28.2551 11.3142C27.9999 10.9816 27.5939 10.8135 27.0455 10.8135H24.7538C23.9865 10.8135 23.4045 11.1947 23.1103 11.8901C22.6177 13.1257 21.2339 15.6666 20.1966 16.566C20.1649 15.2918 20.1863 14.319 20.2031 13.596C20.2366 12.1859 20.3447 10.8135 18.8613 10.8135H15.2594C14.3301 10.8135 13.4408 11.8148 14.4037 13.0035C15.2455 14.0452 14.7063 14.6258 14.8879 17.5158C14.1802 16.7671 12.9212 14.7452 12.031 12.1611C11.7815 11.4621 11.4034 10.8144 10.3391 10.8144H8.04742C7.1181 10.8144 6.56311 11.3142 6.56311 12.151C6.56311 14.0305 10.7804 24.593 17.8724 24.593V24.593ZM10.3391 12.1924C10.5411 12.1924 10.5616 12.1924 10.7115 12.6122C11.6232 15.2606 13.6681 19.1795 15.1617 19.1795C16.2838 19.1795 16.2838 18.045 16.2838 17.6178L16.2828 14.217C16.2214 13.0917 15.8061 12.5313 15.5332 12.1915L18.7998 12.1951C18.8017 12.2107 18.7812 15.9569 18.8091 16.8645C18.8091 18.1534 19.8465 18.8919 21.4658 17.2751C23.1745 15.3727 24.3562 12.5286 24.4037 12.4128C24.4735 12.2475 24.5341 12.1915 24.7538 12.1915H27.0455H27.0548C27.0538 12.1942 27.0538 12.197 27.0529 12.1997C26.8434 13.1643 24.7752 16.238 24.0834 17.1925C24.0722 17.2072 24.0619 17.2228 24.0517 17.2384C23.7472 17.729 23.4995 18.2709 24.0936 19.0334H24.0945C24.1485 19.0977 24.2892 19.2484 24.494 19.4578C25.1309 20.1064 27.3155 22.3239 27.5092 23.2058C27.3807 23.226 27.241 23.2113 25.076 23.2159C24.6151 23.2159 24.2547 22.5361 22.8793 21.1674C21.6427 19.9805 20.84 19.4955 20.1091 19.4955C18.6899 19.4955 18.7933 20.6318 18.8063 22.0061C18.811 23.4961 18.8017 23.0249 18.8119 23.1186C18.729 23.1507 18.4916 23.215 17.8724 23.215C11.964 23.215 8.11633 13.9635 7.96827 12.1951C8.01948 12.1905 8.72439 12.1933 10.3391 12.1924V12.1924Z" fill="#F4F4F4"/>
</g>
<defs>
<clipPath id="clip0_1107_4677">
<rect width="22.3484" height="22.0471" fill="white" transform="translate(6.56311 6.67957)"/>
</clipPath>
</defs>
</svg>
