<svg width="50" height="50" viewBox="0 0 50 50" fill="none" xmlns="http://www.w3.org/2000/svg">
<path d="M48.9276 25.2747C47.9792 22.7005 46.2447 20.414 44.044 18.8362C43.4397 18.4033 42.8141 18.0313 42.1717 17.7204C42.4151 15.9828 42.6604 14.1876 42.5456 12.381C42.4121 10.2837 41.7784 8.46787 40.7138 7.12929C39.0845 5.08195 36.5454 4.1565 34.2765 3.52174C24.9686 0.91706 14.8684 1.37826 5.83637 4.82026C4.27005 5.41726 2.67208 6.15273 1.59328 7.47987C0.103261 9.31321 -0.0439859 11.7867 0.0086569 13.9645C0.105169 17.9722 0.877263 19.8605 1.53873 21.0583C2.83916 23.4116 5.11234 24.8867 7.39658 24.8863C7.49576 24.8863 7.59571 24.8837 7.69489 24.8779C9.73499 24.762 11.3791 23.5561 12.9691 22.39C13.6615 21.8823 14.3721 21.3612 15.108 20.9385L15.2941 22.6624C15.2953 22.6734 15.2987 22.6833 15.3006 22.6944C15.1603 22.731 15.0199 22.7753 14.881 22.8306C13.5371 23.3685 12.7154 24.6239 12.7879 26.0288C12.7917 26.1002 12.7986 26.1711 12.807 26.2417C11.3715 26.6789 10.0844 27.0886 8.72715 27.5208C8.22361 27.681 7.71053 27.8446 7.17571 28.0136C6.55086 28.2116 5.25043 28.6232 4.88727 29.7398C4.71256 30.2757 4.80373 30.8537 5.144 31.3667C5.52967 31.9489 6.19571 32.3811 6.89037 32.5165C6.85718 32.6004 6.84574 32.6943 6.86443 32.7896L8.98502 43.6741L8.91102 43.6749C8.73134 43.6771 8.56731 43.7775 8.48415 43.9369C8.16066 44.5553 8.16066 45.2908 8.48339 46.0072C8.76911 46.6419 9.28257 47.192 9.89216 47.5159C10.7787 47.987 11.7862 48.077 12.7063 48.077C13.0057 48.077 13.296 48.0675 13.5699 48.0583L36.8846 47.2935C39.5285 47.2069 42.8195 47.0989 45.2994 45.2515C47.9571 43.2716 48.9085 39.8502 49.3926 37.4493C50.336 32.7702 50.1796 28.6743 48.9276 25.2747ZM43.4748 19.6301C44.5155 20.3758 45.4356 21.2868 46.2046 22.3095C46.6113 22.85 46.9607 23.4219 47.2903 24.0116C47.3399 24.1005 47.3868 24.1901 47.4337 24.2798C45.8651 24.4446 44.3671 25.1461 43.2372 26.2478C41.6701 24.1661 39.3557 22.8798 36.917 22.1275C36.8136 22.0955 36.7099 22.0642 36.6061 22.0326C35.9717 21.8411 35.3728 21.6599 34.8464 21.3497C34.2112 20.9755 33.7973 20.4475 33.7104 19.9013C33.6367 19.4408 33.7374 19.0434 34.0182 18.6863C34.5443 18.0161 35.6032 17.6491 36.4192 17.5827C38.8861 17.3817 41.326 18.0893 43.4748 19.6301ZM32.7456 20.055C32.7746 20.2358 32.8257 20.4132 32.8952 20.5868C32.1532 20.781 31.4078 20.9774 30.6659 21.1746C30.5537 20.9904 30.4271 20.8141 30.2851 20.649C29.1213 19.2947 27.2654 18.8614 25.5568 19.5454C23.9447 20.1904 22.9247 21.6465 22.8926 23.307C21.6178 23.6672 20.3318 24.036 19.0593 24.4061C18.9395 24.1539 18.7888 23.9155 18.6045 23.7011C17.9988 22.9965 17.1557 22.6105 16.2654 22.583C16.265 22.5746 16.2661 22.5662 16.265 22.5578L16.0022 20.1191C15.9953 20.0554 15.9755 19.9951 15.9461 19.9402L15.9289 19.8628C15.7656 19.1151 15.6474 18.5753 15.6379 17.8154C15.6317 17.3107 15.7149 16.8655 15.8633 16.4631C17.1767 16.6184 18.4874 16.6859 19.8088 16.6859C23.0376 16.6859 26.3289 16.288 29.8621 15.8093C31.8476 15.5407 34.0983 15.2355 36.2525 14.5645C38.3734 13.9038 40.1385 12.9559 41.5118 11.7443C41.5232 11.8546 41.5335 11.9648 41.5408 12.075C41.5969 12.8941 41.6098 13.7093 41.5553 14.5306C41.5389 14.7789 41.1864 17.297 41.2417 17.3184C39.667 16.7164 38.0103 16.473 36.3398 16.6092C35.3415 16.6905 34.006 17.1204 33.2499 18.0832C32.8048 18.6501 32.6304 19.3317 32.7456 20.055ZM29.8362 25.095C29.122 26.2421 27.5973 26.8524 26.2889 26.5144C24.9808 26.1768 23.9417 24.9046 23.8723 23.555C23.7868 21.9055 24.874 20.8706 25.9196 20.4521C26.9656 20.0333 28.4674 20.0325 29.5443 21.2856C29.7137 21.4829 29.8545 21.703 29.9674 21.938C29.9704 21.9448 29.9735 21.9521 29.9769 21.9589C30.4404 22.9405 30.4087 24.1753 29.8362 25.095ZM6.18427 5.73273C15.0222 2.36474 24.9053 1.91346 34.0132 4.46244C36.1315 5.05524 38.4936 5.90783 39.9493 7.73774C40.6138 8.57278 41.0613 9.56002 41.3131 10.5953C41.31 10.598 41.3069 10.5999 41.3039 10.6026C39.9844 11.9194 38.1873 12.9387 35.9622 13.6322C33.8862 14.2788 31.6787 14.5779 29.7309 14.8415C24.9614 15.4877 20.6443 15.9844 16.3615 15.5365C16.8723 14.8232 17.591 14.2464 18.3127 13.6665C18.3192 13.67 18.3245 13.6742 18.331 13.6776C19.3301 14.146 20.4463 14.2452 21.5029 14.2826C21.892 14.2963 22.2804 14.3032 22.6687 14.3032C26.06 14.3032 29.4135 13.7787 32.6522 12.74C33.5456 12.4535 34.5904 12.0815 35.5693 11.4937C35.9492 11.2656 36.4199 10.9398 36.6946 10.4397C37.0909 9.71757 37.0063 8.74177 36.4684 7.82853C35.6295 6.40488 34.0667 5.39132 31.6901 4.72947C29.4997 4.11988 27.0133 3.80326 23.865 3.73421C18.9296 3.62588 14.7235 4.1401 11.0038 5.30587C9.59079 5.74876 7.86884 6.45638 7.09064 8.01011C6.68247 8.82455 6.63021 9.82628 6.94683 10.759C7.17876 11.4422 7.59113 12.0339 8.1168 12.4577C7.67582 12.6209 7.25429 12.8265 6.86138 13.121C6.79119 13.1737 6.72825 13.2252 6.66988 13.2767C6.64661 13.2664 6.62296 13.2557 6.5974 13.2488C4.52984 12.685 2.73884 11.1958 1.80691 9.26591C1.78402 9.21899 1.7535 9.17931 1.71955 9.14345C1.76075 9.06487 1.80233 8.98667 1.84772 8.90999C2.84298 7.23229 4.39518 6.4148 6.18427 5.73273ZM23.3004 8.72727C23.2024 8.52814 22.9827 8.42019 22.7649 8.46444C19.7528 9.0786 16.767 9.82133 13.8167 10.6846C12.3233 11.1218 10.8516 11.7008 9.34742 12.0903C9.33826 12.0926 9.32872 12.0953 9.31957 12.0976C9.27684 12.0472 9.22382 12.0045 9.1605 11.9736C8.57456 11.6894 8.10459 11.1321 7.87113 10.4454C7.63805 9.758 7.67162 9.03016 7.96344 8.44765C8.57723 7.22237 10.0669 6.62308 11.296 6.2378C14.9123 5.10445 19.0165 4.60511 23.8433 4.71078C26.908 4.77792 29.3181 5.08309 31.428 5.67055C33.549 6.26107 34.9227 7.12929 35.6269 8.32444C35.7623 8.55446 36.1777 9.35174 35.8386 9.96972C35.6776 10.2631 35.3579 10.4817 35.0665 10.6564C34.1731 11.1931 33.1939 11.541 32.3539 11.8103C28.852 12.933 25.2127 13.4369 21.5373 13.3068C20.6248 13.2744 19.8535 13.1985 19.1645 12.962C19.2588 12.8792 19.3518 12.7956 19.4426 12.7106C19.9458 12.2391 20.391 11.7317 20.9224 11.2709C21.6758 10.6178 22.4288 9.96476 23.1822 9.31206C23.35 9.16634 23.3985 8.9264 23.3004 8.72727ZM2.39361 20.5856C1.24309 18.504 1.03595 16.0587 0.984838 13.9412C0.956609 12.7659 0.956609 11.4956 1.26865 10.323C2.34859 12.1338 4.11709 13.5246 6.13773 14.1331C6.13392 14.1518 6.1301 14.1708 6.12667 14.1899C6.07364 14.4966 6.09844 14.8445 6.12743 15.2805C6.13201 15.3523 6.69544 23.8533 6.69544 23.8533C4.81365 23.5527 3.22216 22.0852 2.39361 20.5856ZM14.6319 17.8295C14.6941 18.5268 14.8673 19.9547 14.9409 19.9158C14.0406 20.3938 13.2041 21.0068 12.3919 21.6026C10.8596 22.7261 9.4115 23.7877 7.67734 23.9002L7.1017 15.2153C7.07996 14.8888 7.05555 14.5187 7.178 14.254C7.55108 13.4491 8.74698 13.4331 9.42524 13.1237C10.6272 12.5748 11.9921 12.2505 13.2579 11.8694C14.5705 11.4742 15.8904 11.1031 17.2168 10.7571C17.8794 10.5839 18.5439 10.4172 19.2099 10.2566C19.6555 10.149 20.774 10.107 21.1097 9.81599C21.1074 9.81789 16.7353 13.6082 16.7353 13.6082C16.2879 13.9961 15.7805 14.4356 15.4101 14.9895C14.9226 15.7188 14.6796 16.602 14.6102 17.4702C14.6071 17.5106 14.6155 17.6441 14.6319 17.8295ZM15.2442 23.7373C16.001 23.4345 17.0863 23.4329 17.8637 24.3378C18.5 25.0786 18.5908 26.2623 18.0747 27.0912C17.5586 27.9205 16.4561 28.3615 15.5104 28.1174C14.5648 27.8732 13.8137 26.9539 13.7633 25.9785C13.7019 24.7875 14.4881 24.0398 15.2442 23.7373ZM7.23102 31.5804C6.74007 31.538 6.2289 31.2355 5.95806 30.8273C5.83637 30.6435 5.71277 30.3581 5.81577 30.0423C5.99888 29.4804 6.71909 29.1828 7.47059 28.9448C8.00579 28.7754 8.51963 28.6118 9.02355 28.4512C10.3717 28.022 11.6503 27.615 13.0721 27.182C13.4818 28.0876 14.292 28.8117 15.2663 29.063C15.5249 29.1298 15.7893 29.1618 16.0537 29.1618C17.1817 29.1618 18.3009 28.5759 18.904 27.6074C19.324 26.9329 19.4667 26.1158 19.3461 25.3395C20.5577 24.9874 21.7803 24.6365 22.9945 24.2931C23.3416 25.7942 24.5387 27.071 26.0447 27.4601C26.3732 27.5448 26.7092 27.5856 27.0449 27.5856C28.4781 27.5856 29.8995 26.8414 30.6655 25.6111C31.3189 24.5617 31.444 23.2407 31.074 22.0768C31.8629 21.8674 32.6556 21.658 33.4414 21.4531C33.6901 21.7316 33.9957 21.9822 34.3505 22.1912C34.978 22.5609 35.662 22.7676 36.3234 22.9675C36.4253 22.9984 36.5271 23.0293 36.6286 23.0606C39.2192 23.8609 41.0346 24.9554 42.1786 26.4069C43.0625 27.5284 43.5557 28.8467 43.8185 30.2879C43.0194 30.2193 42.2297 30.0537 41.4675 29.7928C41.2684 29.7245 41.0636 29.6234 40.8465 29.5158C40.3437 29.2675 39.7742 28.986 39.104 29.055C37.8985 29.179 37.2145 30.2826 36.6645 31.1691L36.5561 31.3438C36.0804 32.1041 35.287 32.7911 34.6682 32.5016C34.2768 32.3181 34.1082 31.8295 33.9133 31.2634C33.731 30.7343 33.5246 30.1346 33.0718 29.7001C32.6682 29.3121 32.1093 29.113 31.4986 29.1393C30.7315 29.1721 29.935 29.5574 29.4196 30.1449C28.6254 31.0497 28.358 32.2624 28.1222 33.3325L28.1024 33.4232C27.8773 34.4429 27.5977 35.4931 26.887 36.1477C26.2885 36.6982 25.3974 36.9064 24.6169 36.6768C23.8368 36.4475 23.1993 35.791 22.9941 35.0041C22.8915 34.6119 22.8869 34.1873 22.8816 33.738C22.8785 33.4461 22.8751 33.144 22.8438 32.8388C22.7313 31.736 22.1953 30.904 21.4106 30.6137C20.5718 30.3036 19.6238 30.621 18.5935 31.5575L18.505 31.6383C17.94 32.1533 17.3537 32.6862 16.7269 32.6649C16.1425 32.6454 15.684 32.18 15.1534 31.641C14.7193 31.2 14.2703 30.7442 13.6836 30.473C12.4579 29.9061 11.0656 30.3673 10.1249 30.7633C10.0013 30.8155 9.87728 30.8689 9.75292 30.9227C8.88469 31.2977 8.06377 31.6521 7.23102 31.5804ZM7.82268 32.6031C7.81925 32.5836 7.812 32.5665 7.80628 32.5481C8.62873 32.4707 9.39472 32.1411 10.1405 31.8192C10.2622 31.7665 10.3835 31.7143 10.504 31.6631C11.2742 31.3389 12.3996 30.9548 13.2743 31.3595C13.6996 31.5563 14.0677 31.9302 14.458 32.3261C15.05 32.9273 15.7206 33.6086 16.6949 33.6411C17.7199 33.6754 18.5206 32.946 19.1634 32.3601L19.2508 32.2804C19.7589 31.8184 20.4875 31.3137 21.0723 31.5296C21.5754 31.7158 21.8158 32.3792 21.8726 32.938C21.8993 33.1993 21.9023 33.4663 21.9054 33.749C21.9111 34.2377 21.9168 34.7424 22.0496 35.2509C22.3399 36.3625 23.2398 37.2902 24.3422 37.6137C24.6398 37.7014 24.9491 37.7438 25.2585 37.7438C26.0943 37.7438 26.9316 37.434 27.5485 36.866C28.4682 36.0199 28.7978 34.8053 29.0564 33.6338L29.0763 33.5426C29.2971 32.5409 29.5253 31.5052 30.1539 30.7888C30.4942 30.4012 31.0385 30.1369 31.5406 30.1151C31.7828 30.1052 32.1273 30.1468 32.3958 30.4047C32.6785 30.6759 32.8299 31.1157 32.9901 31.5815C33.2236 32.2594 33.4883 33.0277 34.2543 33.3862C35.4174 33.9306 36.6645 33.0128 37.3843 31.8619L37.4949 31.6841C37.9771 30.9059 38.4761 30.1014 39.2043 30.0266C39.5934 29.987 39.992 30.1834 40.4139 30.3917C40.6489 30.508 40.8923 30.6282 41.1513 30.7171C42.0611 31.0284 43.0068 31.2164 43.9627 31.2782C44.1302 32.7759 44.1016 34.3807 44.0364 36.0199C43.949 38.213 43.7457 40.4686 42.3297 41.8316C40.9343 43.1748 38.7965 43.3109 36.5439 43.338L9.96006 43.6623C9.96235 43.6215 9.96158 43.5806 9.95357 43.5387L7.82268 32.6031ZM48.4351 37.2562C47.716 40.8222 46.5342 43.1141 44.7158 44.4683C42.6493 46.0075 39.9321 46.2166 36.8521 46.3177L13.5379 47.0821C12.4869 47.1169 11.2956 47.1558 10.3503 46.6534C9.63009 46.2704 9.07505 45.385 9.25281 44.6472L36.5557 44.3146C38.9144 44.286 41.3554 44.1246 43.0068 42.535C44.6837 40.9206 44.9172 38.4502 45.0122 36.0584C45.0289 35.6373 45.0434 35.2161 45.053 34.795C45.1091 32.2701 45.0583 29.361 43.785 27.0821C44.8504 25.9735 46.337 25.2964 47.8736 25.2243C47.8755 25.2243 47.877 25.2239 47.8785 25.2235C49.4399 28.9398 49.2148 33.3897 48.4351 37.2562Z" fill="#621055"/>
</svg>
