<svg width="36" height="35" viewBox="0 0 36 35" fill="none" xmlns="http://www.w3.org/2000/svg">
<ellipse cx="18.3875" cy="17.375" rx="17.6125" ry="17.375" fill="#B52B65"/>
<g clip-path="url(#clip0_1107_4667)">
<path d="M11.9692 28.7266H25.4713C27.9101 28.7266 29.8945 26.769 29.8945 24.3631V11.043C29.8945 8.63706 27.9101 6.67946 25.4713 6.67946H11.9692C9.53038 6.67946 7.54602 8.63706 7.54602 11.043V24.3631C7.54602 26.769 9.53038 28.7266 11.9692 28.7266ZM8.9428 11.043C8.9428 9.39677 10.3005 8.0574 11.9692 8.0574H25.4713C27.14 8.0574 28.4977 9.39677 28.4977 11.043V24.3631C28.4977 26.0093 27.14 27.3486 25.4713 27.3486H11.9692C10.3005 27.3486 8.9428 26.0093 8.9428 24.3631V11.043Z" fill="#F4F4F4"/>
<path d="M18.7203 23.334C21.8677 23.334 24.4284 20.8078 24.4284 17.7028C24.4284 14.5979 21.8677 12.0716 18.7203 12.0716C15.5728 12.0716 13.0121 14.5979 13.0121 17.7028C13.0121 20.8078 15.5728 23.334 18.7203 23.334ZM18.7203 13.4496C21.0976 13.4496 23.0316 15.3576 23.0316 17.7028C23.0316 20.0481 21.0976 21.9561 18.7203 21.9561C16.3429 21.9561 14.4089 20.0481 14.4089 17.7028C14.4089 15.3576 16.3429 13.4496 18.7203 13.4496V13.4496Z" fill="#F4F4F4"/>
<path d="M25.6091 13.1617C26.5272 13.1617 27.2191 12.4819 27.2191 11.5807C27.2191 10.641 26.4909 9.99977 25.61 9.99977C24.6919 9.99977 24 10.6796 24 11.5807C24 12.5187 24.7245 13.1617 25.6091 13.1617ZM25.7739 11.4292C26.0682 11.6855 25.3968 11.9969 25.3968 11.5817C25.3968 11.3336 25.7385 11.3979 25.7739 11.4292Z" fill="#F4F4F4"/>
</g>
<defs>
<clipPath id="clip0_1107_4667">
<rect width="22.3484" height="22.0471" fill="white" transform="translate(7.54602 6.67946)"/>
</clipPath>
</defs>
</svg>
