<svg width="41" height="40" viewBox="0 0 41 40" fill="none" xmlns="http://www.w3.org/2000/svg">
<ellipse cx="20.3669" cy="20" rx="20.2734" ry="20" fill="#F4F4F4"/>
<g clip-path="url(#clip0_1107_4529)">
<path d="M12.9788 33.0667H28.5209C31.3281 33.0667 33.6123 30.8133 33.6123 28.0439V12.7114C33.6123 9.94207 31.3281 7.68872 28.5209 7.68872H12.9788C10.1716 7.68872 7.88745 9.94207 7.88745 12.7114V28.0439C7.88745 30.8133 10.1716 33.0667 12.9788 33.0667ZM9.49525 12.7114C9.49525 10.8166 11.058 9.27484 12.9788 9.27484H28.5209C30.4417 9.27484 32.0044 10.8166 32.0044 12.7114V28.0439C32.0044 29.9388 30.4417 31.4805 28.5209 31.4805H12.9788C11.058 31.4805 9.49525 29.9388 9.49525 28.0439V12.7114Z" fill="#B52B65"/>
<path d="M20.7497 26.8595C24.3726 26.8595 27.3203 23.9516 27.3203 20.3776C27.3203 16.8035 24.3726 13.8956 20.7497 13.8956C17.1268 13.8956 14.1792 16.8035 14.1792 20.3776C14.1792 23.9516 17.1268 26.8595 20.7497 26.8595ZM20.7497 15.4818C23.4862 15.4818 25.7125 17.678 25.7125 20.3776C25.7125 23.0772 23.4862 25.2734 20.7497 25.2734C18.0133 25.2734 15.787 23.0772 15.787 20.3776C15.787 17.678 18.0133 15.4818 20.7497 15.4818Z" fill="#B52B65"/>
<path d="M27.5648 15.4735C28.6217 15.4735 29.4181 14.691 29.4181 13.6537C29.4181 12.5719 28.5799 11.8339 27.5659 11.8339C26.509 11.8339 25.7126 12.6163 25.7126 13.6537C25.7126 14.7333 26.5466 15.4735 27.5648 15.4735ZM27.7546 13.4792C28.0933 13.7742 27.3204 14.1327 27.3204 13.6547C27.3204 13.3692 27.7138 13.4432 27.7546 13.4792Z" fill="#B52B65"/>
</g>
<defs>
<clipPath id="clip0_1107_4529">
<rect width="25.7248" height="25.3779" fill="white" transform="translate(7.88745 7.68872)"/>
</clipPath>
</defs>
</svg>
