<svg width="50" height="50" viewBox="0 0 50 50" fill="none" xmlns="http://www.w3.org/2000/svg">
<path d="M47.4675 39.7327L46.666 5.42105C46.5931 2.30673 45.5838 0.489411 43.8233 0.303635C42.8673 0.202927 41.8808 0.223527 40.9272 0.242982C40.4827 0.252137 40.0246 0.262055 39.5836 0.257859L8.5461 0.00112982C6.76616 -0.0129845 4.76611 0.0888679 3.55876 1.49878C2.49561 2.74008 2.52536 4.55588 2.54481 5.75751L3.14143 42.4911C3.15173 43.1232 3.16737 44.0788 3.76208 44.7533C4.22786 45.2808 4.87788 45.4746 5.54126 45.5482L5.43636 48.391C5.42682 48.6515 5.4108 49.0871 5.67134 49.44C6.04289 49.9432 6.70474 49.9515 7.02289 49.9554L10.5187 49.9989C10.5561 49.9996 10.5976 50 10.643 50C11.0916 50 11.9061 49.9493 12.2948 49.2905C12.4939 48.9529 12.4951 48.5802 12.4958 48.3078L12.5038 45.6669C14.2258 45.6799 15.9497 45.6871 17.675 45.6871C24.0784 45.6871 30.4982 45.5963 36.8809 45.4182L36.8531 49.3088C36.8512 49.5728 37.0594 49.7902 37.323 49.8001L41.6573 49.9611C41.7202 49.9634 41.7912 49.966 41.8682 49.966C42.1719 49.966 42.5652 49.9248 42.8807 49.6605C43.3743 49.2466 43.3594 48.579 43.3518 48.2204L43.2823 45.097C44.8025 44.8406 46.246 44.2551 46.9757 42.8902C47.5174 41.8774 47.4896 40.6883 47.4675 39.7327ZM4.30072 2.13393C5.18344 1.10281 6.78676 0.976548 8.2764 0.976548C8.36414 0.976548 8.45149 0.97693 8.53809 0.977693L39.5756 1.23442C40.0292 1.23824 40.4961 1.2287 40.9474 1.21916C41.8709 1.20009 42.8261 1.18063 43.721 1.27486C45.353 1.4469 45.6547 3.96079 45.6894 5.44356C45.7161 6.58339 45.7428 7.72437 45.7695 8.86611C38.9534 9.27886 32.0019 9.14153 25.2758 9.00725C18.1603 8.86572 10.8074 8.72077 3.57783 9.22469C3.55876 8.06349 3.54007 6.90268 3.52138 5.74149C3.49849 4.34645 3.54121 3.02084 4.30072 2.13393ZM11.5193 48.3047C11.5189 48.4741 11.5181 48.6851 11.4537 48.7942C11.3278 49.0078 10.8677 49.0269 10.5313 49.0227L7.03509 48.9792C6.91264 48.9777 6.54033 48.9731 6.45717 48.8602C6.39918 48.782 6.40758 48.5599 6.41254 48.4272L6.51668 45.5959C8.18408 45.6234 9.85454 45.644 11.5273 45.6589L11.5193 48.3047ZM42.2531 48.912C42.146 49.0021 41.8633 48.9918 41.6939 48.9853L37.8331 48.8419L37.8578 45.3911C38.982 45.3579 40.1055 45.3232 41.227 45.2846C41.5779 45.2724 41.9415 45.2526 42.3085 45.2198L42.3752 48.2422C42.379 48.4089 42.3878 48.7995 42.2531 48.912ZM46.1148 42.4297C45.2938 43.9648 43.1664 44.2409 41.1934 44.3085C29.6448 44.7052 17.931 44.809 6.37744 44.6171C5.64159 44.6049 4.89009 44.5557 4.49451 44.1074C4.1653 43.7336 4.1283 43.1221 4.118 42.4751C4.08137 40.2225 4.04475 37.9703 4.00813 35.7178C3.91963 30.2772 3.83151 24.8367 3.74301 19.3962C3.69304 16.3315 3.64345 13.2671 3.59386 10.2024C10.7968 9.69695 18.1454 9.84191 25.2564 9.98381C31.9897 10.1177 38.9485 10.2554 45.7924 9.84267C45.8649 12.9543 45.9378 16.0698 46.0106 19.1864C46.135 24.5129 46.2593 29.8397 46.3837 35.1665C46.4196 36.6962 46.455 38.2259 46.4913 39.7556C46.5119 40.6403 46.5355 41.6431 46.1148 42.4297Z" fill="#621055"/>
<path d="M12.529 14.7717C12.9925 14.9403 13.4667 14.9616 13.8848 14.9807C16.3655 15.0936 18.8626 15.1501 21.3608 15.1501C24.1368 15.1501 26.9143 15.0806 29.6712 14.941C31.1421 14.8666 32.7519 14.7652 34.5933 14.6305C35.0495 14.5973 35.6171 14.5557 36.1256 14.3017C36.9866 13.8718 37.1701 13.1462 37.0545 12.6102C36.9019 11.9026 36.2359 11.3865 35.4348 11.3556C34.3815 11.3148 33.3108 11.3121 32.2751 11.3098C31.7147 11.3087 31.1348 11.3071 30.5672 11.2999C27.1802 11.2553 23.7519 11.2144 20.3778 11.1786C18.4422 11.158 16.507 11.1385 14.5718 11.1206C13.9279 11.1149 13.126 11.1069 12.4211 11.4628C11.4564 11.9499 11.1249 12.9639 11.3614 13.6623C11.5296 14.1586 11.9549 14.5626 12.529 14.7717ZM12.8613 12.3348C13.2821 12.1223 13.8112 12.0956 14.3094 12.0956C14.3948 12.0956 14.4795 12.0964 14.5623 12.0972C16.4975 12.1151 18.4323 12.1346 20.3671 12.1552C23.7404 12.191 27.1683 12.2318 30.5543 12.2765C31.1272 12.2837 31.7097 12.2852 32.2728 12.2864C33.2997 12.2887 34.3613 12.2913 35.397 12.3314C35.8117 12.3474 36.052 12.5938 36.1001 12.8162C36.15 13.0497 36.0005 13.2725 35.6892 13.4281C35.3531 13.596 34.9309 13.6269 34.5223 13.6566C32.6882 13.7905 31.0853 13.8916 29.6216 13.9656C24.4156 14.2292 19.1357 14.2422 13.929 14.0053C13.564 13.9889 13.1863 13.9713 12.8632 13.8538C12.5733 13.7486 12.3578 13.5597 12.2864 13.3492C12.1609 12.9791 12.4825 12.5259 12.8613 12.3348Z" fill="#621055"/>
<path d="M9.77473 7.93304C10.313 8.16955 10.8291 8.28819 11.317 8.28819C11.5142 8.28819 11.7073 8.26873 11.8949 8.22982C12.7864 8.04443 13.5837 7.3738 13.9755 6.48002C14.3211 5.69076 14.363 4.75196 14.093 3.83682C13.8202 2.91099 13.1015 2.11181 12.2177 1.75094C11.4421 1.43394 10.6208 1.47972 9.90519 1.87911C8.98051 2.39486 8.22215 3.442 7.97305 4.54711C7.7785 5.40885 7.91812 6.23016 8.36596 6.85996C8.67724 7.29789 9.15141 7.65876 9.77473 7.93304ZM8.92558 4.7615C9.11364 3.92837 9.69844 3.11241 10.3813 2.7317C10.9596 2.40898 11.4982 2.51159 11.8484 2.65464C11.9606 2.70042 12.0685 2.75688 12.1719 2.82173C11.795 3.34777 11.4383 3.8948 11.1114 4.45136C10.9748 4.68368 11.0527 4.98313 11.2854 5.1197C11.3628 5.16509 11.4479 5.18684 11.5318 5.18684C11.6992 5.18684 11.8625 5.10063 11.9533 4.94575C12.2394 4.45861 12.5503 3.9791 12.8768 3.51562C12.9985 3.70025 13.0939 3.90167 13.1561 4.11262C13.3609 4.80766 13.3342 5.50918 13.0805 6.08787C12.8139 6.69708 12.2833 7.15141 11.6958 7.27348C11.1381 7.38944 10.5567 7.21015 10.1676 7.03887C9.70797 6.83669 9.36923 6.58607 9.16171 6.29386C8.79664 5.78041 8.83174 5.1773 8.92558 4.7615Z" fill="#621055"/>
<path d="M22.9274 7.93302C23.4607 8.16725 23.9879 8.28665 24.4796 8.28665C24.6753 8.28665 24.8653 8.26757 25.0476 8.22981C25.9391 8.04441 26.7364 7.37379 27.1281 6.47962C27.4737 5.69074 27.5157 4.75195 27.246 3.8368C26.9733 2.91097 26.2546 2.1118 25.3703 1.75054C24.5948 1.43392 23.7735 1.4797 23.0582 1.87872C22.1336 2.39485 21.3752 3.44198 21.1257 4.54672C20.9315 5.40884 21.0708 6.23014 21.5186 6.85995C21.8299 7.29788 22.3041 7.65875 22.9274 7.93302ZM22.0782 4.76148C22.1439 4.47119 22.2583 4.18356 22.4075 3.91538C22.7103 4.17669 22.9964 4.45898 23.2589 4.75996C23.3554 4.87058 23.4908 4.92704 23.627 4.92704C23.7407 4.92704 23.8551 4.88775 23.9474 4.80688C24.1508 4.6295 24.1717 4.32127 23.9947 4.11795C23.6888 3.76737 23.3539 3.43931 22.9991 3.13719C23.1658 2.97506 23.3459 2.83621 23.5339 2.73168C24.1119 2.40896 24.6509 2.51158 25.0011 2.65463C25.6171 2.9064 26.1184 3.46487 26.3091 4.1126C26.514 4.80764 26.4869 5.50917 26.2336 6.08785C25.9666 6.69706 25.4363 7.15139 24.8489 7.27346C24.2911 7.38943 23.7098 7.21014 23.3207 7.03886C22.861 6.83668 22.5223 6.58605 22.3148 6.29385C21.9493 5.78039 21.9848 5.17729 22.0782 4.76148Z" fill="#621055"/>
<path d="M36.9189 7.93302C37.4518 8.16725 37.9786 8.28665 38.4707 8.28665C38.6661 8.28665 38.856 8.26757 39.0387 8.22981C39.9302 8.04441 40.7275 7.37379 41.1193 6.47962C41.4649 5.69036 41.5069 4.75157 41.2372 3.83642C40.9644 2.91097 40.2457 2.11141 39.3615 1.75054C38.5859 1.43392 37.7646 1.4797 37.0494 1.87872C36.1247 2.39485 35.3663 3.44198 35.1169 4.54672C34.9227 5.40846 35.0623 6.23014 35.5098 6.85995C35.8214 7.29788 36.2952 7.65875 36.9189 7.93302ZM36.0698 4.76148C36.2575 3.92835 36.8426 3.11239 37.5251 2.73168C38.1034 2.40896 38.642 2.51158 38.9922 2.65463C39.226 2.74999 39.4431 2.88999 39.6335 3.06242L38.0866 4.90454C37.9134 5.11091 37.9401 5.41876 38.1469 5.59233C38.238 5.669 38.3494 5.70677 38.4604 5.70677C38.5997 5.70677 38.7381 5.64726 38.8347 5.53243L40.2186 3.8841C40.2499 3.95887 40.2774 4.03517 40.3003 4.1126C40.5051 4.80764 40.4784 5.50917 40.2247 6.08785C39.9581 6.69706 39.4271 7.15139 38.84 7.27346C38.2823 7.38943 37.7009 7.20976 37.3118 7.03886C36.8522 6.83668 36.5138 6.58605 36.3059 6.29385C35.9408 5.78039 35.9759 5.17729 36.0698 4.76148Z" fill="#621055"/>
<path d="M43.6467 18.2259C43.5688 17.5121 43.4453 16.7736 42.8742 16.2735C42.3207 15.789 41.5608 15.7524 41.058 15.7284C30.0866 15.2023 18.9732 16.0461 8.22567 16.8621C7.70802 16.9014 6.13255 17.0208 5.72934 18.2812C5.4646 19.1074 5.45353 20.0592 5.44323 20.9797C5.43904 21.3501 5.43484 21.6999 5.41386 22.0226C5.24525 24.6246 5.11441 27.2682 5.02514 29.8798C4.97555 31.3278 4.93779 32.7927 4.91299 34.2342C4.88057 36.1057 4.8779 37.7941 5.17315 39.5035C5.30324 40.2561 5.5161 41.1148 6.10737 41.7744C6.90808 42.6674 8.11352 42.9077 9.29722 43.034C11.1355 43.2301 12.9933 43.2804 14.8323 43.2804C15.8139 43.2804 16.7901 43.2659 17.7544 43.2518C25.2022 43.1423 32.9037 43.029 40.4686 42.522C41.602 42.4461 42.6896 42.321 43.5448 41.6344C44.6385 40.7558 44.9013 39.2857 45.0036 38.2561C45.1764 36.52 45.0814 34.7954 44.9494 32.8831C44.6133 28.0121 44.175 23.0808 43.6467 18.2259ZM44.0316 38.1596C43.8965 39.5172 43.5475 40.3797 42.9333 40.8729C42.2986 41.3826 41.412 41.4799 40.4034 41.5478C32.8637 42.0528 25.1751 42.1661 17.7403 42.2756C14.9975 42.316 12.1613 42.3576 9.4006 42.0631C8.41107 41.9575 7.41505 41.7702 6.83445 41.1228C6.40835 40.6471 6.24203 39.9532 6.1356 39.3372C5.85446 37.7121 5.85789 36.0725 5.88917 34.251C5.91435 32.8152 5.95173 31.3557 6.00094 29.9129C6.09021 27.3113 6.22067 24.678 6.38852 22.0859C6.41102 21.7369 6.41522 21.3745 6.41942 20.9907C6.42933 20.1427 6.43925 19.2654 6.65898 18.5791C6.79783 18.1465 7.31892 17.9104 8.29968 17.836C19.0175 17.0223 30.1003 16.1808 41.0115 16.7042C41.4975 16.7274 41.9564 16.7683 42.2307 17.0082C42.5381 17.2771 42.6167 17.7875 42.6758 18.3319C43.203 23.1739 43.6402 28.0922 43.9751 32.9506C44.104 34.8179 44.1971 36.4986 44.0316 38.1596Z" fill="#621055"/>
<path d="M42.8821 33.2352C42.2538 32.8545 41.4844 32.8732 40.8058 32.8896C40.6246 32.8941 40.4529 32.898 40.298 32.8941C39.5885 32.8758 38.8793 32.8571 38.1698 32.8381L37.7704 32.8278L37.4355 32.8186C37.083 32.8095 36.7252 32.7999 36.3651 32.7908L38.1481 28.186C38.2068 28.0346 38.1862 27.8637 38.0931 27.7302C38.0256 27.6333 37.9276 27.5662 37.8154 27.5372C38.702 26.3584 38.9713 24.6975 38.4002 23.3315C38.2007 22.8539 37.8196 22.2183 37.1376 21.9029C36.5421 21.6274 35.913 21.6747 35.2676 21.7522C34.8182 21.8063 34.0862 21.8945 33.4892 22.2691C33.2763 21.7987 33.0043 21.3093 32.6076 20.9118C31.8744 20.1771 30.7872 19.8456 29.7683 20.0466C29.0576 20.187 28.4141 20.5803 27.9544 21.1311C27.2682 20.1725 26.0818 19.5648 24.9 19.6404C23.7297 19.7151 22.6421 20.4536 22.0779 21.4745C21.5103 20.8736 20.758 20.4479 19.9451 20.2866C18.8198 20.0634 17.6094 20.3529 16.7068 21.0606C16.3032 21.3776 15.9072 21.8548 15.7379 22.4117C14.7323 22.0764 13.5292 22.467 12.7315 23.1445C11.8995 23.8506 11.3529 24.8379 11.2312 25.853C11.1175 26.7994 11.3895 27.7741 11.9487 28.4954C11.9163 28.5217 11.885 28.5507 11.8557 28.5847C11.6161 28.8601 11.6001 29.2316 11.8076 29.689C12.2982 30.7705 12.8303 31.8462 13.3892 32.898C13.0188 32.9125 12.6434 32.9235 12.2768 32.9346C10.7276 32.9807 9.12585 33.0284 7.59959 33.3202C7.30052 33.3771 6.67834 33.4961 6.3293 33.9874C5.86391 34.6432 6.16489 35.5263 6.71077 35.9688C7.1918 36.359 7.78804 36.4693 8.36101 36.5307C9.31506 36.6329 10.2851 36.6371 11.1518 36.6371H11.2766C21.4504 36.6348 31.7588 36.3464 41.9162 35.7803C42.2973 35.7594 43.0896 35.7151 43.4661 35.0796C43.8579 34.4181 43.4791 33.5911 42.8821 33.2352ZM12.2009 25.9689C12.2932 25.1957 12.7174 24.4373 13.3636 23.8884C14.2643 23.1236 15.3305 23.1274 15.8401 23.5737C15.9961 23.7099 16.2216 23.7331 16.402 23.6309C16.5828 23.5287 16.679 23.3231 16.642 23.119C16.5523 22.6234 16.9456 22.1142 17.3095 21.8288C17.9912 21.2944 18.9052 21.0758 19.7551 21.2444C20.6047 21.413 21.3661 21.9639 21.7922 22.7181C21.8921 22.8951 22.0916 22.9916 22.2919 22.9603C22.4929 22.929 22.6535 22.7768 22.6951 22.5781C22.916 21.5271 23.8906 20.6833 24.9622 20.6146C26.0326 20.5456 27.1076 21.2593 27.4604 22.2736C27.5272 22.4648 27.7046 22.5952 27.9071 22.6013C28.1101 22.6086 28.2947 22.4876 28.3725 22.3007C28.6434 21.6499 29.2655 21.1411 29.9572 21.0045C30.6499 20.8679 31.4182 21.1021 31.9164 21.6015C32.3593 22.0455 32.6206 22.6982 32.8514 23.2742C32.9177 23.4402 33.0692 23.5565 33.2462 23.5779C33.4239 23.5989 33.5983 23.5218 33.702 23.3765C34.0278 22.9198 34.7412 22.7989 35.3843 22.7215C35.9043 22.6589 36.3639 22.6208 36.7275 22.789C37.0372 22.9324 37.3115 23.2586 37.4992 23.708C38.0485 25.0221 37.5846 26.6922 36.444 27.5429L21.379 27.8038C18.6302 27.8511 15.7928 27.9007 12.9989 28.2238C12.9779 28.1887 12.9535 28.1548 12.9226 28.125C12.3809 27.5993 12.1044 26.7731 12.2009 25.9689ZM12.6792 29.2458C15.5628 28.8815 18.5279 28.83 21.3962 28.7804L36.9754 28.5103L35.3282 32.7641C34.1323 32.7335 32.9128 32.7046 31.707 32.6801C27.172 32.5882 23.6736 32.5787 20.3643 32.65C18.4074 32.692 16.4283 32.7602 14.4699 32.8499C13.8397 31.6876 13.2431 30.489 12.6968 29.2854C12.6903 29.2709 12.6846 29.258 12.6792 29.2458ZM42.6261 34.5818C42.5151 34.7687 42.0406 34.795 41.8621 34.8049C31.7226 35.3703 21.4321 35.6579 11.2766 35.6602C10.4023 35.6602 9.41348 35.6609 8.46515 35.5595C8.04133 35.5141 7.60989 35.4401 7.3257 35.2097C7.11207 35.0365 7.01289 34.7111 7.12543 34.5524C7.23262 34.4017 7.51796 34.3296 7.7827 34.2789C9.23266 34.0019 10.7952 33.9554 12.3058 33.9104C12.8265 33.8947 13.3647 33.8787 13.8877 33.8535C16.0415 33.749 18.2273 33.6727 20.3853 33.6262C21.8341 33.5953 23.3196 33.5793 24.9134 33.5793C26.9454 33.5793 29.1538 33.6048 31.6871 33.6563C33.6093 33.6952 35.5682 33.746 37.4095 33.7948L38.1439 33.8142C38.8534 33.8329 39.5629 33.852 40.2729 33.8703C40.4525 33.8749 40.644 33.8703 40.8294 33.8657C41.4012 33.852 41.9921 33.8375 42.3793 34.0717C42.5724 34.1873 42.7017 34.454 42.6261 34.5818Z" fill="#621055"/>
</svg>
